G04 #@! TF.FileFunction,Soldermask,Top*
%FSLAX46Y46*%
G04 Gerber Fmt 4.6, Leading zero omitted, Abs format (unit mm)*
G04 Created by KiCad (PCBNEW 4.0.1-2.201512121406+6195~38~ubuntu15.10.1-stable) date Monday, December 14, 2015 PM10:58:21 HKT*
%MOMM*%
G01*
G04 APERTURE LIST*
%ADD10C,0.100000*%
%ADD11C,2.202180*%
%ADD12R,2.235200X2.235200*%
%ADD13O,2.235200X2.235200*%
%ADD14O,3.703320X1.902460*%
%ADD15R,2.202180X1.102360*%
%ADD16R,2.202180X1.203960*%
%ADD17C,2.703200*%
%ADD18R,2.703200X2.703200*%
%ADD19R,2.133600X2.133600*%
%ADD20C,2.133600*%
%ADD21C,3.703320*%
%ADD22R,2.235200X1.930400*%
%ADD23O,2.235200X1.930400*%
%ADD24R,2.203200X2.203200*%
%ADD25C,2.203200*%
%ADD26C,1.503200*%
%ADD27R,1.503200X1.503200*%
%ADD28R,1.803200X1.803200*%
%ADD29C,1.803200*%
%ADD30C,2.082800*%
G04 APERTURE END LIST*
D10*
D11*
X87630000Y42418000D03*
X87630000Y32258000D03*
D12*
X90932000Y29210000D03*
D13*
X90932000Y26670000D03*
D14*
X91059000Y38989000D03*
X91059000Y41529000D03*
X91059000Y36449000D03*
D15*
X75173840Y11381740D03*
D16*
X75173840Y8732520D03*
X67574160Y8732520D03*
X67574160Y11333480D03*
D15*
X67574160Y13764260D03*
D16*
X67574160Y16413480D03*
X75173840Y16413480D03*
X75173840Y13812520D03*
D17*
X89611000Y21430000D03*
D18*
X89611000Y11430000D03*
D17*
X89611000Y16430000D03*
D11*
X65938000Y41818560D03*
X65938000Y36817300D03*
D19*
X64897000Y2794000D03*
D20*
X67437000Y2794000D03*
X69977000Y2794000D03*
D21*
X70358000Y41910000D03*
X84582000Y41910000D03*
X79502000Y41910000D03*
D22*
X64834000Y16383000D03*
D23*
X64834000Y13843000D03*
X64834000Y11303000D03*
X64834000Y8763000D03*
D22*
X64846000Y27838400D03*
D23*
X64846000Y25298400D03*
X64846000Y22758400D03*
X64846000Y20218400D03*
D24*
X80442000Y22072600D03*
D25*
X77902000Y22072600D03*
D26*
X72994000Y23749000D03*
D27*
X69494000Y23749000D03*
D28*
X84379000Y34239200D03*
D29*
X69379000Y34239200D03*
D30*
X74218800Y6197600D03*
X80721200Y6197600D03*
X74218800Y1676400D03*
X80721200Y1676400D03*
X86410800Y6134600D03*
X92913200Y6134600D03*
X86410800Y1613400D03*
X92913200Y1613400D03*
D21*
X73914000Y41910000D03*
D11*
X87630000Y87122000D03*
X87630000Y76962000D03*
D12*
X90932000Y73914000D03*
D13*
X90932000Y71374000D03*
D14*
X91059000Y83693000D03*
X91059000Y86233000D03*
X91059000Y81153000D03*
D15*
X75173840Y56085740D03*
D16*
X75173840Y53436520D03*
X67574160Y53436520D03*
X67574160Y56037480D03*
D15*
X67574160Y58468260D03*
D16*
X67574160Y61117480D03*
X75173840Y61117480D03*
X75173840Y58516520D03*
D17*
X89611000Y66134000D03*
D18*
X89611000Y56134000D03*
D17*
X89611000Y61134000D03*
D11*
X65938000Y86522560D03*
X65938000Y81521300D03*
D19*
X64897000Y47498000D03*
D20*
X67437000Y47498000D03*
X69977000Y47498000D03*
D21*
X70358000Y86614000D03*
X84582000Y86614000D03*
X79502000Y86614000D03*
D22*
X64834000Y61087000D03*
D23*
X64834000Y58547000D03*
X64834000Y56007000D03*
X64834000Y53467000D03*
D22*
X64846000Y72542400D03*
D23*
X64846000Y70002400D03*
X64846000Y67462400D03*
X64846000Y64922400D03*
D24*
X80442000Y66776600D03*
D25*
X77902000Y66776600D03*
D26*
X72994000Y68453000D03*
D27*
X69494000Y68453000D03*
D28*
X84379000Y78943200D03*
D29*
X69379000Y78943200D03*
D30*
X74218800Y50901600D03*
X80721200Y50901600D03*
X74218800Y46380400D03*
X80721200Y46380400D03*
X86410800Y50838600D03*
X92913200Y50838600D03*
X86410800Y46317400D03*
X92913200Y46317400D03*
D21*
X73914000Y86614000D03*
D11*
X56134000Y42418000D03*
X56134000Y32258000D03*
D12*
X59436000Y29210000D03*
D13*
X59436000Y26670000D03*
D14*
X59563000Y38989000D03*
X59563000Y41529000D03*
X59563000Y36449000D03*
D15*
X43677840Y11381740D03*
D16*
X43677840Y8732520D03*
X36078160Y8732520D03*
X36078160Y11333480D03*
D15*
X36078160Y13764260D03*
D16*
X36078160Y16413480D03*
X43677840Y16413480D03*
X43677840Y13812520D03*
D17*
X58115000Y21430000D03*
D18*
X58115000Y11430000D03*
D17*
X58115000Y16430000D03*
D11*
X34442000Y41818560D03*
X34442000Y36817300D03*
D19*
X33401000Y2794000D03*
D20*
X35941000Y2794000D03*
X38481000Y2794000D03*
D21*
X38862000Y41910000D03*
X53086000Y41910000D03*
X48006000Y41910000D03*
D22*
X33338000Y16383000D03*
D23*
X33338000Y13843000D03*
X33338000Y11303000D03*
X33338000Y8763000D03*
D22*
X33350000Y27838400D03*
D23*
X33350000Y25298400D03*
X33350000Y22758400D03*
X33350000Y20218400D03*
D24*
X48946000Y22072600D03*
D25*
X46406000Y22072600D03*
D26*
X41498000Y23749000D03*
D27*
X37998000Y23749000D03*
D28*
X52883000Y34239200D03*
D29*
X37883000Y34239200D03*
D30*
X42722800Y6197600D03*
X49225200Y6197600D03*
X42722800Y1676400D03*
X49225200Y1676400D03*
X54914800Y6134600D03*
X61417200Y6134600D03*
X54914800Y1613400D03*
X61417200Y1613400D03*
D21*
X42418000Y41910000D03*
D11*
X56134000Y87122000D03*
X56134000Y76962000D03*
D12*
X59436000Y73914000D03*
D13*
X59436000Y71374000D03*
D14*
X59563000Y83693000D03*
X59563000Y86233000D03*
X59563000Y81153000D03*
D15*
X43677840Y56085740D03*
D16*
X43677840Y53436520D03*
X36078160Y53436520D03*
X36078160Y56037480D03*
D15*
X36078160Y58468260D03*
D16*
X36078160Y61117480D03*
X43677840Y61117480D03*
X43677840Y58516520D03*
D17*
X58115000Y66134000D03*
D18*
X58115000Y56134000D03*
D17*
X58115000Y61134000D03*
D11*
X34442000Y86522560D03*
X34442000Y81521300D03*
D19*
X33401000Y47498000D03*
D20*
X35941000Y47498000D03*
X38481000Y47498000D03*
D21*
X38862000Y86614000D03*
X53086000Y86614000D03*
X48006000Y86614000D03*
D22*
X33338000Y61087000D03*
D23*
X33338000Y58547000D03*
X33338000Y56007000D03*
X33338000Y53467000D03*
D22*
X33350000Y72542400D03*
D23*
X33350000Y70002400D03*
X33350000Y67462400D03*
X33350000Y64922400D03*
D24*
X48946000Y66776600D03*
D25*
X46406000Y66776600D03*
D26*
X41498000Y68453000D03*
D27*
X37998000Y68453000D03*
D28*
X52883000Y78943200D03*
D29*
X37883000Y78943200D03*
D30*
X42722800Y50901600D03*
X49225200Y50901600D03*
X42722800Y46380400D03*
X49225200Y46380400D03*
X54914800Y50838600D03*
X61417200Y50838600D03*
X54914800Y46317400D03*
X61417200Y46317400D03*
D21*
X42418000Y86614000D03*
D11*
X24638000Y42418000D03*
X24638000Y32258000D03*
D12*
X27940000Y29210000D03*
D13*
X27940000Y26670000D03*
D14*
X28067000Y38989000D03*
X28067000Y41529000D03*
X28067000Y36449000D03*
D15*
X12181840Y11381740D03*
D16*
X12181840Y8732520D03*
X4582160Y8732520D03*
X4582160Y11333480D03*
D15*
X4582160Y13764260D03*
D16*
X4582160Y16413480D03*
X12181840Y16413480D03*
X12181840Y13812520D03*
D17*
X26619000Y21430000D03*
D18*
X26619000Y11430000D03*
D17*
X26619000Y16430000D03*
D11*
X2946000Y41818560D03*
X2946000Y36817300D03*
D19*
X1905000Y2794000D03*
D20*
X4445000Y2794000D03*
X6985000Y2794000D03*
D21*
X7366000Y41910000D03*
X21590000Y41910000D03*
X16510000Y41910000D03*
D22*
X1842000Y16383000D03*
D23*
X1842000Y13843000D03*
X1842000Y11303000D03*
X1842000Y8763000D03*
D22*
X1854000Y27838400D03*
D23*
X1854000Y25298400D03*
X1854000Y22758400D03*
X1854000Y20218400D03*
D24*
X17450000Y22072600D03*
D25*
X14910000Y22072600D03*
D26*
X10002000Y23749000D03*
D27*
X6502000Y23749000D03*
D28*
X21387000Y34239200D03*
D29*
X6387000Y34239200D03*
D30*
X11226800Y6197600D03*
X17729200Y6197600D03*
X11226800Y1676400D03*
X17729200Y1676400D03*
X23418800Y6134600D03*
X29921200Y6134600D03*
X23418800Y1613400D03*
X29921200Y1613400D03*
D21*
X10922000Y41910000D03*
X10922000Y86614000D03*
D30*
X23418800Y50838600D03*
X29921200Y50838600D03*
X23418800Y46317400D03*
X29921200Y46317400D03*
X11226800Y50901600D03*
X17729200Y50901600D03*
X11226800Y46380400D03*
X17729200Y46380400D03*
D28*
X21387000Y78943200D03*
D29*
X6387000Y78943200D03*
D26*
X10002000Y68453000D03*
D27*
X6502000Y68453000D03*
D24*
X17450000Y66776600D03*
D25*
X14910000Y66776600D03*
D22*
X1854000Y72542400D03*
D23*
X1854000Y70002400D03*
X1854000Y67462400D03*
X1854000Y64922400D03*
D22*
X1842000Y61087000D03*
D23*
X1842000Y58547000D03*
X1842000Y56007000D03*
X1842000Y53467000D03*
D21*
X16510000Y86614000D03*
X21590000Y86614000D03*
X7366000Y86614000D03*
D19*
X1905000Y47498000D03*
D20*
X4445000Y47498000D03*
X6985000Y47498000D03*
D11*
X2946000Y86522560D03*
X2946000Y81521300D03*
D17*
X26619000Y66134000D03*
D18*
X26619000Y56134000D03*
D17*
X26619000Y61134000D03*
D15*
X4582160Y58468260D03*
D16*
X4582160Y61117480D03*
X12181840Y61117480D03*
X12181840Y58516520D03*
D15*
X12181840Y56085740D03*
D16*
X12181840Y53436520D03*
X4582160Y53436520D03*
X4582160Y56037480D03*
D14*
X28067000Y83693000D03*
X28067000Y86233000D03*
X28067000Y81153000D03*
D12*
X27940000Y73914000D03*
D13*
X27940000Y71374000D03*
D11*
X24638000Y87122000D03*
X24638000Y76962000D03*
M02*
