G04 #@! TF.FileFunction,Soldermask,Bot*
%FSLAX46Y46*%
G04 Gerber Fmt 4.6, Leading zero omitted, Abs format (unit mm)*
G04 Created by KiCad (PCBNEW 4.0.1-2.201512121406+6195~38~ubuntu15.10.1-stable) date Monday, December 14, 2015 PM10:58:21 HKT*
%MOMM*%
G01*
G04 APERTURE LIST*
%ADD10C,0.100000*%
%ADD11C,1.500000*%
%ADD12C,1.000000*%
%ADD13C,2.202180*%
%ADD14R,2.235200X2.235200*%
%ADD15O,2.235200X2.235200*%
%ADD16O,3.703320X1.902460*%
%ADD17C,2.703200*%
%ADD18R,2.703200X2.703200*%
%ADD19R,0.903200X1.503200*%
%ADD20R,1.003300X1.003300*%
%ADD21R,2.133600X2.133600*%
%ADD22C,2.133600*%
%ADD23C,3.703320*%
%ADD24R,2.235200X1.930400*%
%ADD25O,2.235200X1.930400*%
%ADD26R,0.838200X1.473200*%
%ADD27R,0.653200X1.653200*%
%ADD28R,1.453200X2.203200*%
%ADD29R,2.203200X2.203200*%
%ADD30C,2.203200*%
%ADD31R,1.203200X1.453200*%
%ADD32C,1.503200*%
%ADD33R,1.503200X1.503200*%
%ADD34R,1.803200X1.803200*%
%ADD35C,1.803200*%
%ADD36C,2.082800*%
G04 APERTURE END LIST*
D10*
D11*
X79502000Y41910000D02*
X79502000Y38862000D01*
X79502000Y38862000D02*
X80518000Y37846000D01*
X80518000Y37846000D02*
X86741000Y37846000D01*
X87630000Y42418000D02*
X85852000Y42418000D01*
X73914000Y42926000D02*
X70358000Y42926000D01*
X73914000Y40894000D02*
X70358000Y40894000D01*
X73914000Y41910000D02*
X70485000Y41910000D01*
D12*
X91059000Y38989000D02*
X88265000Y38989000D01*
X88265000Y38989000D02*
X87249000Y37973000D01*
X87249000Y37973000D02*
X86487000Y37973000D01*
D11*
X87630000Y42418000D02*
X88900000Y42418000D01*
X88900000Y42418000D02*
X89408000Y41910000D01*
X89408000Y41910000D02*
X89662000Y41656000D01*
X79502000Y86614000D02*
X79502000Y83566000D01*
X79502000Y83566000D02*
X80518000Y82550000D01*
X80518000Y82550000D02*
X86741000Y82550000D01*
X87630000Y87122000D02*
X85852000Y87122000D01*
X73914000Y87630000D02*
X70358000Y87630000D01*
X73914000Y85598000D02*
X70358000Y85598000D01*
X73914000Y86614000D02*
X70485000Y86614000D01*
D12*
X91059000Y83693000D02*
X88265000Y83693000D01*
X88265000Y83693000D02*
X87249000Y82677000D01*
X87249000Y82677000D02*
X86487000Y82677000D01*
D11*
X87630000Y87122000D02*
X88900000Y87122000D01*
X88900000Y87122000D02*
X89408000Y86614000D01*
X89408000Y86614000D02*
X89662000Y86360000D01*
X48006000Y41910000D02*
X48006000Y38862000D01*
X48006000Y38862000D02*
X49022000Y37846000D01*
X49022000Y37846000D02*
X55245000Y37846000D01*
X56134000Y42418000D02*
X54356000Y42418000D01*
X42418000Y42926000D02*
X38862000Y42926000D01*
X42418000Y40894000D02*
X38862000Y40894000D01*
X42418000Y41910000D02*
X38989000Y41910000D01*
D12*
X59563000Y38989000D02*
X56769000Y38989000D01*
X56769000Y38989000D02*
X55753000Y37973000D01*
X55753000Y37973000D02*
X54991000Y37973000D01*
D11*
X56134000Y42418000D02*
X57404000Y42418000D01*
X57404000Y42418000D02*
X57912000Y41910000D01*
X57912000Y41910000D02*
X58166000Y41656000D01*
X48006000Y86614000D02*
X48006000Y83566000D01*
X48006000Y83566000D02*
X49022000Y82550000D01*
X49022000Y82550000D02*
X55245000Y82550000D01*
X56134000Y87122000D02*
X54356000Y87122000D01*
X42418000Y87630000D02*
X38862000Y87630000D01*
X42418000Y85598000D02*
X38862000Y85598000D01*
X42418000Y86614000D02*
X38989000Y86614000D01*
D12*
X59563000Y83693000D02*
X56769000Y83693000D01*
X56769000Y83693000D02*
X55753000Y82677000D01*
X55753000Y82677000D02*
X54991000Y82677000D01*
D11*
X56134000Y87122000D02*
X57404000Y87122000D01*
X57404000Y87122000D02*
X57912000Y86614000D01*
X57912000Y86614000D02*
X58166000Y86360000D01*
X16510000Y41910000D02*
X16510000Y38862000D01*
X16510000Y38862000D02*
X17526000Y37846000D01*
X17526000Y37846000D02*
X23749000Y37846000D01*
X24638000Y42418000D02*
X22860000Y42418000D01*
X10922000Y42926000D02*
X7366000Y42926000D01*
X10922000Y40894000D02*
X7366000Y40894000D01*
X10922000Y41910000D02*
X7493000Y41910000D01*
D12*
X28067000Y38989000D02*
X25273000Y38989000D01*
X25273000Y38989000D02*
X24257000Y37973000D01*
X24257000Y37973000D02*
X23495000Y37973000D01*
D11*
X24638000Y42418000D02*
X25908000Y42418000D01*
X25908000Y42418000D02*
X26416000Y41910000D01*
X26416000Y41910000D02*
X26670000Y41656000D01*
X26416000Y86614000D02*
X26670000Y86360000D01*
X25908000Y87122000D02*
X26416000Y86614000D01*
X24638000Y87122000D02*
X25908000Y87122000D01*
D12*
X24257000Y82677000D02*
X23495000Y82677000D01*
X25273000Y83693000D02*
X24257000Y82677000D01*
X28067000Y83693000D02*
X25273000Y83693000D01*
D11*
X10922000Y86614000D02*
X7493000Y86614000D01*
X10922000Y85598000D02*
X7366000Y85598000D01*
X10922000Y87630000D02*
X7366000Y87630000D01*
X24638000Y87122000D02*
X22860000Y87122000D01*
X17526000Y82550000D02*
X23749000Y82550000D01*
X16510000Y83566000D02*
X17526000Y82550000D01*
X16510000Y86614000D02*
X16510000Y83566000D01*
D13*
X87630000Y42418000D03*
X87630000Y32258000D03*
D14*
X90932000Y29210000D03*
D15*
X90932000Y26670000D03*
D16*
X91059000Y38989000D03*
X91059000Y41529000D03*
X91059000Y36449000D03*
D17*
X89611000Y21430000D03*
D18*
X89611000Y11430000D03*
D17*
X89611000Y16430000D03*
D19*
X82667000Y3785000D03*
X84567000Y3785000D03*
X83962000Y29794200D03*
X85862000Y29794200D03*
X78318000Y3937000D03*
X76418000Y3937000D03*
D13*
X65938000Y41818560D03*
X65938000Y36817300D03*
D19*
X70576000Y26517600D03*
X72476000Y26517600D03*
X78826000Y26212800D03*
X76926000Y26212800D03*
X71376000Y13779500D03*
X73276000Y13779500D03*
X73276000Y16446500D03*
X71376000Y16446500D03*
X70348000Y21158200D03*
X72248000Y21158200D03*
X68958000Y16383000D03*
X67058000Y16383000D03*
X71333000Y10744200D03*
X69433000Y10744200D03*
X68958000Y13716000D03*
X67058000Y13716000D03*
X84242000Y13284200D03*
X86142000Y13284200D03*
X84394000Y19532600D03*
X86294000Y19532600D03*
X84242000Y16332200D03*
X86142000Y16332200D03*
D20*
X79085240Y28844200D03*
X79085240Y30744200D03*
X81084220Y29794200D03*
D21*
X64897000Y2794000D03*
D22*
X67437000Y2794000D03*
X69977000Y2794000D03*
D23*
X70358000Y41910000D03*
X84582000Y41910000D03*
X79502000Y41910000D03*
D24*
X64834000Y16383000D03*
D25*
X64834000Y13843000D03*
X64834000Y11303000D03*
X64834000Y8763000D03*
D26*
X84665000Y10464800D03*
X85565000Y10464800D03*
D24*
X64846000Y27838400D03*
D25*
X64846000Y25298400D03*
X64846000Y22758400D03*
X64846000Y20218400D03*
D27*
X76120000Y15243600D03*
X76770000Y15243600D03*
X77420000Y15243600D03*
X78070000Y15243600D03*
X78720000Y15243600D03*
X79370000Y15243600D03*
X80020000Y15243600D03*
X80670000Y15243600D03*
X81320000Y15243600D03*
X81970000Y15243600D03*
X81970000Y9343600D03*
X81320000Y9343600D03*
X80670000Y9343600D03*
X80020000Y9343600D03*
X79370000Y9343600D03*
X78720000Y9343600D03*
X78070000Y9343600D03*
X77420000Y9343600D03*
X76770000Y9343600D03*
X76120000Y9343600D03*
D28*
X73690000Y32766000D03*
X77440000Y32766000D03*
X67848000Y29718000D03*
X71598000Y29718000D03*
D29*
X80442000Y22072600D03*
D30*
X77902000Y22072600D03*
D31*
X88611000Y3785000D03*
X90611000Y3785000D03*
D32*
X72994000Y23749000D03*
D33*
X69494000Y23749000D03*
D31*
X81321000Y26263600D03*
X83321000Y26263600D03*
X71485000Y5689600D03*
X69485000Y5689600D03*
D34*
X84379000Y34239200D03*
D35*
X69379000Y34239200D03*
D31*
X69510000Y8255000D03*
X71510000Y8255000D03*
X78089000Y18542000D03*
X76089000Y18542000D03*
X82280000Y18542000D03*
X80280000Y18542000D03*
D36*
X74218800Y6197600D03*
X80721200Y6197600D03*
X74218800Y1676400D03*
X80721200Y1676400D03*
X86410800Y6134600D03*
X92913200Y6134600D03*
X86410800Y1613400D03*
X92913200Y1613400D03*
D23*
X73914000Y41910000D03*
D13*
X87630000Y87122000D03*
X87630000Y76962000D03*
D14*
X90932000Y73914000D03*
D15*
X90932000Y71374000D03*
D16*
X91059000Y83693000D03*
X91059000Y86233000D03*
X91059000Y81153000D03*
D17*
X89611000Y66134000D03*
D18*
X89611000Y56134000D03*
D17*
X89611000Y61134000D03*
D19*
X82667000Y48489000D03*
X84567000Y48489000D03*
X83962000Y74498200D03*
X85862000Y74498200D03*
X78318000Y48641000D03*
X76418000Y48641000D03*
D13*
X65938000Y86522560D03*
X65938000Y81521300D03*
D19*
X70576000Y71221600D03*
X72476000Y71221600D03*
X78826000Y70916800D03*
X76926000Y70916800D03*
X71376000Y58483500D03*
X73276000Y58483500D03*
X73276000Y61150500D03*
X71376000Y61150500D03*
X70348000Y65862200D03*
X72248000Y65862200D03*
X68958000Y61087000D03*
X67058000Y61087000D03*
X71333000Y55448200D03*
X69433000Y55448200D03*
X68958000Y58420000D03*
X67058000Y58420000D03*
X84242000Y57988200D03*
X86142000Y57988200D03*
X84394000Y64236600D03*
X86294000Y64236600D03*
X84242000Y61036200D03*
X86142000Y61036200D03*
D20*
X79085240Y73548200D03*
X79085240Y75448200D03*
X81084220Y74498200D03*
D21*
X64897000Y47498000D03*
D22*
X67437000Y47498000D03*
X69977000Y47498000D03*
D23*
X70358000Y86614000D03*
X84582000Y86614000D03*
X79502000Y86614000D03*
D24*
X64834000Y61087000D03*
D25*
X64834000Y58547000D03*
X64834000Y56007000D03*
X64834000Y53467000D03*
D26*
X84665000Y55168800D03*
X85565000Y55168800D03*
D24*
X64846000Y72542400D03*
D25*
X64846000Y70002400D03*
X64846000Y67462400D03*
X64846000Y64922400D03*
D27*
X76120000Y59947600D03*
X76770000Y59947600D03*
X77420000Y59947600D03*
X78070000Y59947600D03*
X78720000Y59947600D03*
X79370000Y59947600D03*
X80020000Y59947600D03*
X80670000Y59947600D03*
X81320000Y59947600D03*
X81970000Y59947600D03*
X81970000Y54047600D03*
X81320000Y54047600D03*
X80670000Y54047600D03*
X80020000Y54047600D03*
X79370000Y54047600D03*
X78720000Y54047600D03*
X78070000Y54047600D03*
X77420000Y54047600D03*
X76770000Y54047600D03*
X76120000Y54047600D03*
D28*
X73690000Y77470000D03*
X77440000Y77470000D03*
X67848000Y74422000D03*
X71598000Y74422000D03*
D29*
X80442000Y66776600D03*
D30*
X77902000Y66776600D03*
D31*
X88611000Y48489000D03*
X90611000Y48489000D03*
D32*
X72994000Y68453000D03*
D33*
X69494000Y68453000D03*
D31*
X81321000Y70967600D03*
X83321000Y70967600D03*
X71485000Y50393600D03*
X69485000Y50393600D03*
D34*
X84379000Y78943200D03*
D35*
X69379000Y78943200D03*
D31*
X69510000Y52959000D03*
X71510000Y52959000D03*
X78089000Y63246000D03*
X76089000Y63246000D03*
X82280000Y63246000D03*
X80280000Y63246000D03*
D36*
X74218800Y50901600D03*
X80721200Y50901600D03*
X74218800Y46380400D03*
X80721200Y46380400D03*
X86410800Y50838600D03*
X92913200Y50838600D03*
X86410800Y46317400D03*
X92913200Y46317400D03*
D23*
X73914000Y86614000D03*
D13*
X56134000Y42418000D03*
X56134000Y32258000D03*
D14*
X59436000Y29210000D03*
D15*
X59436000Y26670000D03*
D16*
X59563000Y38989000D03*
X59563000Y41529000D03*
X59563000Y36449000D03*
D17*
X58115000Y21430000D03*
D18*
X58115000Y11430000D03*
D17*
X58115000Y16430000D03*
D19*
X51171000Y3785000D03*
X53071000Y3785000D03*
X52466000Y29794200D03*
X54366000Y29794200D03*
X46822000Y3937000D03*
X44922000Y3937000D03*
D13*
X34442000Y41818560D03*
X34442000Y36817300D03*
D19*
X39080000Y26517600D03*
X40980000Y26517600D03*
X47330000Y26212800D03*
X45430000Y26212800D03*
X39880000Y13779500D03*
X41780000Y13779500D03*
X41780000Y16446500D03*
X39880000Y16446500D03*
X38852000Y21158200D03*
X40752000Y21158200D03*
X37462000Y16383000D03*
X35562000Y16383000D03*
X39837000Y10744200D03*
X37937000Y10744200D03*
X37462000Y13716000D03*
X35562000Y13716000D03*
X52746000Y13284200D03*
X54646000Y13284200D03*
X52898000Y19532600D03*
X54798000Y19532600D03*
X52746000Y16332200D03*
X54646000Y16332200D03*
D20*
X47589240Y28844200D03*
X47589240Y30744200D03*
X49588220Y29794200D03*
D21*
X33401000Y2794000D03*
D22*
X35941000Y2794000D03*
X38481000Y2794000D03*
D23*
X38862000Y41910000D03*
X53086000Y41910000D03*
X48006000Y41910000D03*
D24*
X33338000Y16383000D03*
D25*
X33338000Y13843000D03*
X33338000Y11303000D03*
X33338000Y8763000D03*
D26*
X53169000Y10464800D03*
X54069000Y10464800D03*
D24*
X33350000Y27838400D03*
D25*
X33350000Y25298400D03*
X33350000Y22758400D03*
X33350000Y20218400D03*
D27*
X44624000Y15243600D03*
X45274000Y15243600D03*
X45924000Y15243600D03*
X46574000Y15243600D03*
X47224000Y15243600D03*
X47874000Y15243600D03*
X48524000Y15243600D03*
X49174000Y15243600D03*
X49824000Y15243600D03*
X50474000Y15243600D03*
X50474000Y9343600D03*
X49824000Y9343600D03*
X49174000Y9343600D03*
X48524000Y9343600D03*
X47874000Y9343600D03*
X47224000Y9343600D03*
X46574000Y9343600D03*
X45924000Y9343600D03*
X45274000Y9343600D03*
X44624000Y9343600D03*
D28*
X42194000Y32766000D03*
X45944000Y32766000D03*
X36352000Y29718000D03*
X40102000Y29718000D03*
D29*
X48946000Y22072600D03*
D30*
X46406000Y22072600D03*
D31*
X57115000Y3785000D03*
X59115000Y3785000D03*
D32*
X41498000Y23749000D03*
D33*
X37998000Y23749000D03*
D31*
X49825000Y26263600D03*
X51825000Y26263600D03*
X39989000Y5689600D03*
X37989000Y5689600D03*
D34*
X52883000Y34239200D03*
D35*
X37883000Y34239200D03*
D31*
X38014000Y8255000D03*
X40014000Y8255000D03*
X46593000Y18542000D03*
X44593000Y18542000D03*
X50784000Y18542000D03*
X48784000Y18542000D03*
D36*
X42722800Y6197600D03*
X49225200Y6197600D03*
X42722800Y1676400D03*
X49225200Y1676400D03*
X54914800Y6134600D03*
X61417200Y6134600D03*
X54914800Y1613400D03*
X61417200Y1613400D03*
D23*
X42418000Y41910000D03*
D13*
X56134000Y87122000D03*
X56134000Y76962000D03*
D14*
X59436000Y73914000D03*
D15*
X59436000Y71374000D03*
D16*
X59563000Y83693000D03*
X59563000Y86233000D03*
X59563000Y81153000D03*
D17*
X58115000Y66134000D03*
D18*
X58115000Y56134000D03*
D17*
X58115000Y61134000D03*
D19*
X51171000Y48489000D03*
X53071000Y48489000D03*
X52466000Y74498200D03*
X54366000Y74498200D03*
X46822000Y48641000D03*
X44922000Y48641000D03*
D13*
X34442000Y86522560D03*
X34442000Y81521300D03*
D19*
X39080000Y71221600D03*
X40980000Y71221600D03*
X47330000Y70916800D03*
X45430000Y70916800D03*
X39880000Y58483500D03*
X41780000Y58483500D03*
X41780000Y61150500D03*
X39880000Y61150500D03*
X38852000Y65862200D03*
X40752000Y65862200D03*
X37462000Y61087000D03*
X35562000Y61087000D03*
X39837000Y55448200D03*
X37937000Y55448200D03*
X37462000Y58420000D03*
X35562000Y58420000D03*
X52746000Y57988200D03*
X54646000Y57988200D03*
X52898000Y64236600D03*
X54798000Y64236600D03*
X52746000Y61036200D03*
X54646000Y61036200D03*
D20*
X47589240Y73548200D03*
X47589240Y75448200D03*
X49588220Y74498200D03*
D21*
X33401000Y47498000D03*
D22*
X35941000Y47498000D03*
X38481000Y47498000D03*
D23*
X38862000Y86614000D03*
X53086000Y86614000D03*
X48006000Y86614000D03*
D24*
X33338000Y61087000D03*
D25*
X33338000Y58547000D03*
X33338000Y56007000D03*
X33338000Y53467000D03*
D26*
X53169000Y55168800D03*
X54069000Y55168800D03*
D24*
X33350000Y72542400D03*
D25*
X33350000Y70002400D03*
X33350000Y67462400D03*
X33350000Y64922400D03*
D27*
X44624000Y59947600D03*
X45274000Y59947600D03*
X45924000Y59947600D03*
X46574000Y59947600D03*
X47224000Y59947600D03*
X47874000Y59947600D03*
X48524000Y59947600D03*
X49174000Y59947600D03*
X49824000Y59947600D03*
X50474000Y59947600D03*
X50474000Y54047600D03*
X49824000Y54047600D03*
X49174000Y54047600D03*
X48524000Y54047600D03*
X47874000Y54047600D03*
X47224000Y54047600D03*
X46574000Y54047600D03*
X45924000Y54047600D03*
X45274000Y54047600D03*
X44624000Y54047600D03*
D28*
X42194000Y77470000D03*
X45944000Y77470000D03*
X36352000Y74422000D03*
X40102000Y74422000D03*
D29*
X48946000Y66776600D03*
D30*
X46406000Y66776600D03*
D31*
X57115000Y48489000D03*
X59115000Y48489000D03*
D32*
X41498000Y68453000D03*
D33*
X37998000Y68453000D03*
D31*
X49825000Y70967600D03*
X51825000Y70967600D03*
X39989000Y50393600D03*
X37989000Y50393600D03*
D34*
X52883000Y78943200D03*
D35*
X37883000Y78943200D03*
D31*
X38014000Y52959000D03*
X40014000Y52959000D03*
X46593000Y63246000D03*
X44593000Y63246000D03*
X50784000Y63246000D03*
X48784000Y63246000D03*
D36*
X42722800Y50901600D03*
X49225200Y50901600D03*
X42722800Y46380400D03*
X49225200Y46380400D03*
X54914800Y50838600D03*
X61417200Y50838600D03*
X54914800Y46317400D03*
X61417200Y46317400D03*
D23*
X42418000Y86614000D03*
D13*
X24638000Y42418000D03*
X24638000Y32258000D03*
D14*
X27940000Y29210000D03*
D15*
X27940000Y26670000D03*
D16*
X28067000Y38989000D03*
X28067000Y41529000D03*
X28067000Y36449000D03*
D17*
X26619000Y21430000D03*
D18*
X26619000Y11430000D03*
D17*
X26619000Y16430000D03*
D19*
X19675000Y3785000D03*
X21575000Y3785000D03*
X20970000Y29794200D03*
X22870000Y29794200D03*
X15326000Y3937000D03*
X13426000Y3937000D03*
D13*
X2946000Y41818560D03*
X2946000Y36817300D03*
D19*
X7584000Y26517600D03*
X9484000Y26517600D03*
X15834000Y26212800D03*
X13934000Y26212800D03*
X8384000Y13779500D03*
X10284000Y13779500D03*
X10284000Y16446500D03*
X8384000Y16446500D03*
X7356000Y21158200D03*
X9256000Y21158200D03*
X5966000Y16383000D03*
X4066000Y16383000D03*
X8341000Y10744200D03*
X6441000Y10744200D03*
X5966000Y13716000D03*
X4066000Y13716000D03*
X21250000Y13284200D03*
X23150000Y13284200D03*
X21402000Y19532600D03*
X23302000Y19532600D03*
X21250000Y16332200D03*
X23150000Y16332200D03*
D20*
X16093240Y28844200D03*
X16093240Y30744200D03*
X18092220Y29794200D03*
D21*
X1905000Y2794000D03*
D22*
X4445000Y2794000D03*
X6985000Y2794000D03*
D23*
X7366000Y41910000D03*
X21590000Y41910000D03*
X16510000Y41910000D03*
D24*
X1842000Y16383000D03*
D25*
X1842000Y13843000D03*
X1842000Y11303000D03*
X1842000Y8763000D03*
D26*
X21673000Y10464800D03*
X22573000Y10464800D03*
D24*
X1854000Y27838400D03*
D25*
X1854000Y25298400D03*
X1854000Y22758400D03*
X1854000Y20218400D03*
D27*
X13128000Y15243600D03*
X13778000Y15243600D03*
X14428000Y15243600D03*
X15078000Y15243600D03*
X15728000Y15243600D03*
X16378000Y15243600D03*
X17028000Y15243600D03*
X17678000Y15243600D03*
X18328000Y15243600D03*
X18978000Y15243600D03*
X18978000Y9343600D03*
X18328000Y9343600D03*
X17678000Y9343600D03*
X17028000Y9343600D03*
X16378000Y9343600D03*
X15728000Y9343600D03*
X15078000Y9343600D03*
X14428000Y9343600D03*
X13778000Y9343600D03*
X13128000Y9343600D03*
D28*
X10698000Y32766000D03*
X14448000Y32766000D03*
X4856000Y29718000D03*
X8606000Y29718000D03*
D29*
X17450000Y22072600D03*
D30*
X14910000Y22072600D03*
D31*
X25619000Y3785000D03*
X27619000Y3785000D03*
D32*
X10002000Y23749000D03*
D33*
X6502000Y23749000D03*
D31*
X18329000Y26263600D03*
X20329000Y26263600D03*
X8493000Y5689600D03*
X6493000Y5689600D03*
D34*
X21387000Y34239200D03*
D35*
X6387000Y34239200D03*
D31*
X6518000Y8255000D03*
X8518000Y8255000D03*
X15097000Y18542000D03*
X13097000Y18542000D03*
X19288000Y18542000D03*
X17288000Y18542000D03*
D36*
X11226800Y6197600D03*
X17729200Y6197600D03*
X11226800Y1676400D03*
X17729200Y1676400D03*
X23418800Y6134600D03*
X29921200Y6134600D03*
X23418800Y1613400D03*
X29921200Y1613400D03*
D23*
X10922000Y41910000D03*
X10922000Y86614000D03*
D36*
X23418800Y50838600D03*
X29921200Y50838600D03*
X23418800Y46317400D03*
X29921200Y46317400D03*
X11226800Y50901600D03*
X17729200Y50901600D03*
X11226800Y46380400D03*
X17729200Y46380400D03*
D31*
X19288000Y63246000D03*
X17288000Y63246000D03*
X15097000Y63246000D03*
X13097000Y63246000D03*
X6518000Y52959000D03*
X8518000Y52959000D03*
D34*
X21387000Y78943200D03*
D35*
X6387000Y78943200D03*
D31*
X8493000Y50393600D03*
X6493000Y50393600D03*
X18329000Y70967600D03*
X20329000Y70967600D03*
D32*
X10002000Y68453000D03*
D33*
X6502000Y68453000D03*
D31*
X25619000Y48489000D03*
X27619000Y48489000D03*
D29*
X17450000Y66776600D03*
D30*
X14910000Y66776600D03*
D28*
X4856000Y74422000D03*
X8606000Y74422000D03*
X10698000Y77470000D03*
X14448000Y77470000D03*
D27*
X13128000Y59947600D03*
X13778000Y59947600D03*
X14428000Y59947600D03*
X15078000Y59947600D03*
X15728000Y59947600D03*
X16378000Y59947600D03*
X17028000Y59947600D03*
X17678000Y59947600D03*
X18328000Y59947600D03*
X18978000Y59947600D03*
X18978000Y54047600D03*
X18328000Y54047600D03*
X17678000Y54047600D03*
X17028000Y54047600D03*
X16378000Y54047600D03*
X15728000Y54047600D03*
X15078000Y54047600D03*
X14428000Y54047600D03*
X13778000Y54047600D03*
X13128000Y54047600D03*
D24*
X1854000Y72542400D03*
D25*
X1854000Y70002400D03*
X1854000Y67462400D03*
X1854000Y64922400D03*
D26*
X21673000Y55168800D03*
X22573000Y55168800D03*
D24*
X1842000Y61087000D03*
D25*
X1842000Y58547000D03*
X1842000Y56007000D03*
X1842000Y53467000D03*
D23*
X16510000Y86614000D03*
X21590000Y86614000D03*
X7366000Y86614000D03*
D21*
X1905000Y47498000D03*
D22*
X4445000Y47498000D03*
X6985000Y47498000D03*
D20*
X16093240Y73548200D03*
X16093240Y75448200D03*
X18092220Y74498200D03*
D19*
X21250000Y61036200D03*
X23150000Y61036200D03*
X21402000Y64236600D03*
X23302000Y64236600D03*
X21250000Y57988200D03*
X23150000Y57988200D03*
X5966000Y58420000D03*
X4066000Y58420000D03*
X8341000Y55448200D03*
X6441000Y55448200D03*
X5966000Y61087000D03*
X4066000Y61087000D03*
X7356000Y65862200D03*
X9256000Y65862200D03*
X10284000Y61150500D03*
X8384000Y61150500D03*
X8384000Y58483500D03*
X10284000Y58483500D03*
X15834000Y70916800D03*
X13934000Y70916800D03*
X7584000Y71221600D03*
X9484000Y71221600D03*
D13*
X2946000Y86522560D03*
X2946000Y81521300D03*
D19*
X15326000Y48641000D03*
X13426000Y48641000D03*
X20970000Y74498200D03*
X22870000Y74498200D03*
X19675000Y48489000D03*
X21575000Y48489000D03*
D17*
X26619000Y66134000D03*
D18*
X26619000Y56134000D03*
D17*
X26619000Y61134000D03*
D16*
X28067000Y83693000D03*
X28067000Y86233000D03*
X28067000Y81153000D03*
D14*
X27940000Y73914000D03*
D15*
X27940000Y71374000D03*
D13*
X24638000Y87122000D03*
X24638000Y76962000D03*
M02*
