M48
;DRILL file {KiCad 4.0.1-2.201512121406+6195~38~ubuntu15.10.1-stable} date Monday, December 14, 2015 PM10:58:30 HKT
;FORMAT={-:-/ absolute / inch / decimal}
FMAT,2
INCH,TZ
T1C0.025
T2C0.031
T3C0.039
T4C0.040
T5C0.043
T6C0.051
T7C0.067
%
G90
G05
M72
T1
X0.2067Y1.9642
X0.2067Y0.2042
X0.2773Y2.4129
X0.2773Y0.6529
X0.3668Y2.229
X0.3668Y0.469
X0.4099Y2.1999
X0.4099Y0.4399
X0.4419Y2.256
X0.4419Y0.496
X0.4613Y2.4545
X0.4613Y0.6945
X0.5701Y2.3024
X0.5701Y0.5424
X0.7761Y2.4339
X0.7761Y0.6739
X0.7843Y2.3239
X0.7843Y1.9658
X0.7843Y0.5639
X0.7843Y0.2058
X1.4467Y1.9642
X1.4467Y0.2042
X1.5173Y2.4129
X1.5173Y0.6529
X1.6068Y2.229
X1.6068Y0.469
X1.6499Y2.1999
X1.6499Y0.4399
X1.6819Y2.256
X1.6819Y0.496
X1.7013Y2.4545
X1.7013Y0.6945
X1.8101Y2.3024
X1.8101Y0.5424
X2.0161Y2.4339
X2.0161Y0.6739
X2.0243Y2.3239
X2.0243Y1.9658
X2.0243Y0.5639
X2.0243Y0.2058
X2.6867Y1.9642
X2.6867Y0.2042
X2.7573Y2.4129
X2.7573Y0.6529
X2.8468Y2.229
X2.8468Y0.469
X2.8899Y2.1999
X2.8899Y0.4399
X2.9219Y2.256
X2.9219Y0.496
X2.9413Y2.4545
X2.9413Y0.6945
X3.0501Y2.3024
X3.0501Y0.5424
X3.2561Y2.4339
X3.2561Y0.6739
X3.2643Y2.3239
X3.2643Y1.9658
X3.2643Y0.5639
X3.2643Y0.2058
T2
X0.256Y2.695
X0.256Y0.935
X0.3938Y2.695
X0.3938Y0.935
X1.496Y2.695
X1.496Y0.935
X1.6338Y2.695
X1.6338Y0.935
X2.736Y2.695
X2.736Y0.935
X2.8738Y2.695
X2.8738Y0.935
T3
X0.116Y3.4064
X0.116Y3.2095
X0.116Y1.6464
X0.116Y1.4495
X0.587Y2.629
X0.587Y0.869
X0.687Y2.629
X0.687Y0.869
X0.97Y3.43
X0.97Y3.03
X0.97Y1.67
X0.97Y1.27
X1.105Y3.395
X1.105Y3.295
X1.105Y3.195
X1.105Y1.635
X1.105Y1.535
X1.105Y1.435
X1.356Y3.4064
X1.356Y3.2095
X1.356Y1.6464
X1.356Y1.4495
X1.827Y2.629
X1.827Y0.869
X1.927Y2.629
X1.927Y0.869
X2.21Y3.43
X2.21Y3.03
X2.21Y1.67
X2.21Y1.27
X2.345Y3.395
X2.345Y3.295
X2.345Y3.195
X2.345Y1.635
X2.345Y1.535
X2.345Y1.435
X2.596Y3.4064
X2.596Y3.2095
X2.596Y1.6464
X2.596Y1.4495
X3.067Y2.629
X3.067Y0.869
X3.167Y2.629
X3.167Y0.869
X3.45Y3.43
X3.45Y3.03
X3.45Y1.67
X3.45Y1.27
X3.585Y3.395
X3.585Y3.295
X3.585Y3.195
X3.585Y1.635
X3.585Y1.535
X3.585Y1.435
T4
X0.0725Y2.405
X0.0725Y2.305
X0.0725Y2.205
X0.0725Y2.105
X0.0725Y0.645
X0.0725Y0.545
X0.0725Y0.445
X0.0725Y0.345
X0.073Y2.856
X0.073Y2.756
X0.073Y2.656
X0.073Y2.556
X0.073Y1.096
X0.073Y0.996
X0.073Y0.896
X0.073Y0.796
X0.075Y1.87
X0.075Y0.11
X0.175Y1.87
X0.175Y0.11
X0.275Y1.87
X0.275Y0.11
X0.442Y2.004
X0.442Y1.826
X0.442Y0.244
X0.442Y0.066
X0.698Y2.004
X0.698Y1.826
X0.698Y0.244
X0.698Y0.066
X0.922Y2.0015
X0.922Y1.8235
X0.922Y0.2415
X0.922Y0.0635
X1.1Y2.91
X1.1Y2.81
X1.1Y1.15
X1.1Y1.05
X1.178Y2.0015
X1.178Y1.8235
X1.178Y0.2415
X1.178Y0.0635
X1.3125Y2.405
X1.3125Y2.305
X1.3125Y2.205
X1.3125Y2.105
X1.3125Y0.645
X1.3125Y0.545
X1.3125Y0.445
X1.3125Y0.345
X1.313Y2.856
X1.313Y2.756
X1.313Y2.656
X1.313Y2.556
X1.313Y1.096
X1.313Y0.996
X1.313Y0.896
X1.313Y0.796
X1.315Y1.87
X1.315Y0.11
X1.415Y1.87
X1.415Y0.11
X1.515Y1.87
X1.515Y0.11
X1.682Y2.004
X1.682Y1.826
X1.682Y0.244
X1.682Y0.066
X1.938Y2.004
X1.938Y1.826
X1.938Y0.244
X1.938Y0.066
X2.162Y2.0015
X2.162Y1.8235
X2.162Y0.2415
X2.162Y0.0635
X2.34Y2.91
X2.34Y2.81
X2.34Y1.15
X2.34Y1.05
X2.418Y2.0015
X2.418Y1.8235
X2.418Y0.2415
X2.418Y0.0635
X2.5525Y2.405
X2.5525Y2.305
X2.5525Y2.205
X2.5525Y2.105
X2.5525Y0.645
X2.5525Y0.545
X2.5525Y0.445
X2.5525Y0.345
X2.553Y2.856
X2.553Y2.756
X2.553Y2.656
X2.553Y2.556
X2.553Y1.096
X2.553Y0.996
X2.553Y0.896
X2.553Y0.796
X2.555Y1.87
X2.555Y0.11
X2.655Y1.87
X2.655Y0.11
X2.755Y1.87
X2.755Y0.11
X2.922Y2.004
X2.922Y1.826
X2.922Y0.244
X2.922Y0.066
X3.178Y2.004
X3.178Y1.826
X3.178Y0.244
X3.178Y0.066
X3.402Y2.0015
X3.402Y1.8235
X3.402Y0.2415
X3.402Y0.0635
X3.58Y2.91
X3.58Y2.81
X3.58Y1.15
X3.58Y1.05
X3.658Y2.0015
X3.658Y1.8235
X3.658Y0.2415
X3.658Y0.0635
T5
X0.2515Y3.108
X0.2515Y1.348
X0.842Y3.108
X0.842Y1.348
X1.4915Y3.108
X1.4915Y1.348
X2.082Y3.108
X2.082Y1.348
X2.7315Y3.108
X2.7315Y1.348
X3.322Y3.108
X3.322Y1.348
T6
X1.048Y2.6037
X1.048Y2.4069
X1.048Y2.21
X1.048Y0.8437
X1.048Y0.6469
X1.048Y0.45
X2.288Y2.6037
X2.288Y2.4069
X2.288Y2.21
X2.288Y0.8437
X2.288Y0.6469
X2.288Y0.45
X3.528Y2.6037
X3.528Y2.4069
X3.528Y2.21
X3.528Y0.8437
X3.528Y0.6469
X3.528Y0.45
T7
X0.29Y3.41
X0.29Y1.65
X0.43Y3.41
X0.43Y1.65
X0.65Y3.41
X0.65Y1.65
X0.85Y3.41
X0.85Y1.65
X1.53Y3.41
X1.53Y1.65
X1.67Y3.41
X1.67Y1.65
X1.89Y3.41
X1.89Y1.65
X2.09Y3.41
X2.09Y1.65
X2.77Y3.41
X2.77Y1.65
X2.91Y3.41
X2.91Y1.65
X3.13Y3.41
X3.13Y1.65
X3.33Y3.41
X3.33Y1.65
T0
M30
