G04 #@! TF.FileFunction,Legend,Top*
%FSLAX46Y46*%
G04 Gerber Fmt 4.6, Leading zero omitted, Abs format (unit mm)*
G04 Created by KiCad (PCBNEW 4.0.1-2.201512121406+6195~38~ubuntu15.10.1-stable) date Monday, December 14, 2015 PM10:58:21 HKT*
%MOMM*%
G01*
G04 APERTURE LIST*
%ADD10C,0.100000*%
%ADD11C,0.200000*%
%ADD12C,0.150000*%
%ADD13C,0.127000*%
%ADD14C,0.406400*%
%ADD15C,0.203200*%
G04 APERTURE END LIST*
D10*
D11*
X66890977Y7893000D02*
X66814786Y7931095D01*
X66700501Y7931095D01*
X66586215Y7893000D01*
X66510024Y7816810D01*
X66471929Y7740619D01*
X66433834Y7588238D01*
X66433834Y7473952D01*
X66471929Y7321571D01*
X66510024Y7245381D01*
X66586215Y7169190D01*
X66700501Y7131095D01*
X66776691Y7131095D01*
X66890977Y7169190D01*
X66929072Y7207286D01*
X66929072Y7473952D01*
X66776691Y7473952D01*
X67271929Y7131095D02*
X67271929Y7931095D01*
X67729072Y7131095D01*
X67729072Y7931095D01*
X68110024Y7131095D02*
X68110024Y7931095D01*
X68300500Y7931095D01*
X68414786Y7893000D01*
X68490977Y7816810D01*
X68529072Y7740619D01*
X68567167Y7588238D01*
X68567167Y7473952D01*
X68529072Y7321571D01*
X68490977Y7245381D01*
X68414786Y7169190D01*
X68300500Y7131095D01*
X68110024Y7131095D01*
X66382976Y10534595D02*
X66840119Y10534595D01*
X66611548Y9734595D02*
X66611548Y10534595D01*
X67030596Y10534595D02*
X67563929Y9734595D01*
X67563929Y10534595D02*
X67030596Y9734595D01*
X66986167Y12147595D02*
X66719500Y12528548D01*
X66529024Y12147595D02*
X66529024Y12947595D01*
X66833786Y12947595D01*
X66909977Y12909500D01*
X66948072Y12871405D01*
X66986167Y12795214D01*
X66986167Y12680929D01*
X66948072Y12604738D01*
X66909977Y12566643D01*
X66833786Y12528548D01*
X66529024Y12528548D01*
X67252834Y12947595D02*
X67786167Y12147595D01*
X67786167Y12947595D02*
X67252834Y12147595D01*
X66560833Y15424095D02*
X66827500Y14624095D01*
X67094167Y15424095D01*
X67817976Y14700286D02*
X67779881Y14662190D01*
X67665595Y14624095D01*
X67589405Y14624095D01*
X67475119Y14662190D01*
X67398928Y14738381D01*
X67360833Y14814571D01*
X67322738Y14966952D01*
X67322738Y15081238D01*
X67360833Y15233619D01*
X67398928Y15309810D01*
X67475119Y15386000D01*
X67589405Y15424095D01*
X67665595Y15424095D01*
X67779881Y15386000D01*
X67817976Y15347905D01*
X68617976Y14700286D02*
X68579881Y14662190D01*
X68465595Y14624095D01*
X68389405Y14624095D01*
X68275119Y14662190D01*
X68198928Y14738381D01*
X68160833Y14814571D01*
X68122738Y14966952D01*
X68122738Y15081238D01*
X68160833Y15233619D01*
X68198928Y15309810D01*
X68275119Y15386000D01*
X68389405Y15424095D01*
X68465595Y15424095D01*
X68579881Y15386000D01*
X68617976Y15347905D01*
X66560833Y19678595D02*
X66827500Y18878595D01*
X67094167Y19678595D01*
X67817976Y18954786D02*
X67779881Y18916690D01*
X67665595Y18878595D01*
X67589405Y18878595D01*
X67475119Y18916690D01*
X67398928Y18992881D01*
X67360833Y19069071D01*
X67322738Y19221452D01*
X67322738Y19335738D01*
X67360833Y19488119D01*
X67398928Y19564310D01*
X67475119Y19640500D01*
X67589405Y19678595D01*
X67665595Y19678595D01*
X67779881Y19640500D01*
X67817976Y19602405D01*
X68617976Y18954786D02*
X68579881Y18916690D01*
X68465595Y18878595D01*
X68389405Y18878595D01*
X68275119Y18916690D01*
X68198928Y18992881D01*
X68160833Y19069071D01*
X68122738Y19221452D01*
X68122738Y19335738D01*
X68160833Y19488119D01*
X68198928Y19564310D01*
X68275119Y19640500D01*
X68389405Y19678595D01*
X68465595Y19678595D01*
X68579881Y19640500D01*
X68617976Y19602405D01*
X66338500Y21361477D02*
X66300405Y21285286D01*
X66300405Y21171001D01*
X66338500Y21056715D01*
X66414690Y20980524D01*
X66490881Y20942429D01*
X66643262Y20904334D01*
X66757548Y20904334D01*
X66909929Y20942429D01*
X66986119Y20980524D01*
X67062310Y21056715D01*
X67100405Y21171001D01*
X67100405Y21247191D01*
X67062310Y21361477D01*
X67024214Y21399572D01*
X66757548Y21399572D01*
X66757548Y21247191D01*
X67100405Y21742429D02*
X66300405Y21742429D01*
X67100405Y22199572D01*
X66300405Y22199572D01*
X67100405Y22580524D02*
X66300405Y22580524D01*
X66300405Y22771000D01*
X66338500Y22885286D01*
X66414690Y22961477D01*
X66490881Y22999572D01*
X66643262Y23037667D01*
X66757548Y23037667D01*
X66909929Y22999572D01*
X66986119Y22961477D01*
X67062310Y22885286D01*
X67100405Y22771000D01*
X67100405Y22580524D01*
X67062310Y24193667D02*
X67100405Y24307953D01*
X67100405Y24498429D01*
X67062310Y24574619D01*
X67024214Y24612715D01*
X66948024Y24650810D01*
X66871833Y24650810D01*
X66795643Y24612715D01*
X66757548Y24574619D01*
X66719452Y24498429D01*
X66681357Y24346048D01*
X66643262Y24269857D01*
X66605167Y24231762D01*
X66528976Y24193667D01*
X66452786Y24193667D01*
X66376595Y24231762D01*
X66338500Y24269857D01*
X66300405Y24346048D01*
X66300405Y24536524D01*
X66338500Y24650810D01*
X66300405Y24917477D02*
X67100405Y25107953D01*
X66528976Y25260334D01*
X67100405Y25412715D01*
X66300405Y25603191D01*
X67100405Y25907953D02*
X66300405Y25907953D01*
X67100405Y26288905D02*
X66300405Y26288905D01*
X66871833Y26555572D01*
X66300405Y26822239D01*
X67100405Y26822239D01*
X66821214Y27514595D02*
X66821214Y28314595D01*
X67278357Y27514595D01*
X67278357Y28314595D01*
X68116452Y27514595D02*
X67849785Y27895548D01*
X67659309Y27514595D02*
X67659309Y28314595D01*
X67964071Y28314595D01*
X68040262Y28276500D01*
X68078357Y28238405D01*
X68116452Y28162214D01*
X68116452Y28047929D01*
X68078357Y27971738D01*
X68040262Y27933643D01*
X67964071Y27895548D01*
X67659309Y27895548D01*
X68421214Y27552690D02*
X68535500Y27514595D01*
X68725976Y27514595D01*
X68802166Y27552690D01*
X68840262Y27590786D01*
X68878357Y27666976D01*
X68878357Y27743167D01*
X68840262Y27819357D01*
X68802166Y27857452D01*
X68725976Y27895548D01*
X68573595Y27933643D01*
X68497404Y27971738D01*
X68459309Y28009833D01*
X68421214Y28086024D01*
X68421214Y28162214D01*
X68459309Y28238405D01*
X68497404Y28276500D01*
X68573595Y28314595D01*
X68764071Y28314595D01*
X68878357Y28276500D01*
X69106928Y28314595D02*
X69564071Y28314595D01*
X69335500Y27514595D02*
X69335500Y28314595D01*
X66630738Y28452500D02*
X69640262Y28452500D01*
X78060667Y19196095D02*
X78060667Y19996095D01*
X78365429Y19996095D01*
X78441620Y19958000D01*
X78479715Y19919905D01*
X78517810Y19843714D01*
X78517810Y19729429D01*
X78479715Y19653238D01*
X78441620Y19615143D01*
X78365429Y19577048D01*
X78060667Y19577048D01*
X78822572Y19424667D02*
X79203524Y19424667D01*
X78746381Y19196095D02*
X79013048Y19996095D01*
X79279715Y19196095D01*
X79965429Y19196095D02*
X79508286Y19196095D01*
X79736857Y19196095D02*
X79736857Y19996095D01*
X79660667Y19881810D01*
X79584476Y19805619D01*
X79508286Y19767524D01*
X71907429Y43199095D02*
X71907429Y43999095D01*
X72364572Y43199095D01*
X72364572Y43999095D01*
X68287929Y43199095D02*
X68287929Y43999095D01*
X68745072Y43199095D01*
X68745072Y43999095D01*
X82924620Y43072095D02*
X82543667Y43072095D01*
X82543667Y43872095D01*
X77514405Y41503715D02*
X77514405Y41122762D01*
X76714405Y41122762D01*
X76714405Y41922762D02*
X76714405Y42075143D01*
X76752500Y42151334D01*
X76828690Y42227524D01*
X76981071Y42265619D01*
X77247738Y42265619D01*
X77400119Y42227524D01*
X77476310Y42151334D01*
X77514405Y42075143D01*
X77514405Y41922762D01*
X77476310Y41846572D01*
X77400119Y41770381D01*
X77247738Y41732286D01*
X76981071Y41732286D01*
X76828690Y41770381D01*
X76752500Y41846572D01*
X76714405Y41922762D01*
X77285833Y42570381D02*
X77285833Y42951333D01*
X77514405Y42494190D02*
X76714405Y42760857D01*
X77514405Y43027524D01*
X77514405Y43294190D02*
X76714405Y43294190D01*
X76714405Y43484666D01*
X76752500Y43598952D01*
X76828690Y43675143D01*
X76904881Y43713238D01*
X77057262Y43751333D01*
X77171548Y43751333D01*
X77323929Y43713238D01*
X77400119Y43675143D01*
X77476310Y43598952D01*
X77514405Y43484666D01*
X77514405Y43294190D01*
X89261905Y25476405D02*
X88461905Y25476405D01*
X88461905Y25666881D01*
X88500000Y25781167D01*
X88576190Y25857358D01*
X88652381Y25895453D01*
X88804762Y25933548D01*
X88919048Y25933548D01*
X89071429Y25895453D01*
X89147619Y25857358D01*
X89223810Y25781167D01*
X89261905Y25666881D01*
X89261905Y25476405D01*
X89185714Y26733548D02*
X89223810Y26695453D01*
X89261905Y26581167D01*
X89261905Y26504977D01*
X89223810Y26390691D01*
X89147619Y26314500D01*
X89071429Y26276405D01*
X88919048Y26238310D01*
X88804762Y26238310D01*
X88652381Y26276405D01*
X88576190Y26314500D01*
X88500000Y26390691D01*
X88461905Y26504977D01*
X88461905Y26581167D01*
X88500000Y26695453D01*
X88538095Y26733548D01*
X88461905Y28066882D02*
X88461905Y27685929D01*
X88842857Y27647834D01*
X88804762Y27685929D01*
X88766667Y27762120D01*
X88766667Y27952596D01*
X88804762Y28028786D01*
X88842857Y28066882D01*
X88919048Y28104977D01*
X89109524Y28104977D01*
X89185714Y28066882D01*
X89223810Y28028786D01*
X89261905Y27952596D01*
X89261905Y27762120D01*
X89223810Y27685929D01*
X89185714Y27647834D01*
X88461905Y28333548D02*
X89261905Y28600215D01*
X88461905Y28866882D01*
X93479929Y28765548D02*
X93479929Y29527453D01*
X93860881Y29146501D02*
X93098976Y29146501D01*
X93479929Y26289048D02*
X93479929Y27050953D01*
X84264500Y22161500D02*
X82740500Y22161500D01*
X82740500Y22161500D02*
X82740500Y20320000D01*
X82740500Y20320000D02*
X81851500Y20320000D01*
X81851500Y20320000D02*
X81851500Y16891000D01*
X81851500Y16891000D02*
X83566000Y16891000D01*
X83566000Y16891000D02*
X83566000Y20320000D01*
X83566000Y20320000D02*
X82677000Y20320000D01*
X82740500Y16954500D02*
X82740500Y10985500D01*
X82740500Y10985500D02*
X84137500Y10985500D01*
X82804000Y16891000D02*
X83439000Y16256000D01*
X83439000Y16256000D02*
X84137500Y16256000D01*
X84074000Y20193000D02*
X81343500Y17462500D01*
X81343500Y17462500D02*
X81343500Y16637000D01*
X84074000Y20193000D02*
X84074000Y20764500D01*
X82213405Y13131857D02*
X81832452Y12865190D01*
X82213405Y12674714D02*
X81413405Y12674714D01*
X81413405Y12979476D01*
X81451500Y13055667D01*
X81489595Y13093762D01*
X81565786Y13131857D01*
X81680071Y13131857D01*
X81756262Y13093762D01*
X81794357Y13055667D01*
X81832452Y12979476D01*
X81832452Y12674714D01*
X81413405Y13360428D02*
X81413405Y13817571D01*
X82213405Y13589000D02*
X81413405Y13589000D01*
X82213405Y14084238D02*
X81413405Y14084238D01*
X81413405Y14274714D01*
X81451500Y14389000D01*
X81527690Y14465191D01*
X81603881Y14503286D01*
X81756262Y14541381D01*
X81870548Y14541381D01*
X82022929Y14503286D01*
X82099119Y14465191D01*
X82175310Y14389000D01*
X82213405Y14274714D01*
X82213405Y14084238D01*
X84201000Y22161500D02*
X83883500Y22479000D01*
X84264500Y22161500D02*
X83947000Y21844000D01*
X84264500Y16256000D02*
X84010500Y16510000D01*
X84264500Y16256000D02*
X84010500Y16002000D01*
X84264500Y10985500D02*
X84010500Y11239500D01*
X84264500Y10985500D02*
X84010500Y10731500D01*
X66890977Y52597000D02*
X66814786Y52635095D01*
X66700501Y52635095D01*
X66586215Y52597000D01*
X66510024Y52520810D01*
X66471929Y52444619D01*
X66433834Y52292238D01*
X66433834Y52177952D01*
X66471929Y52025571D01*
X66510024Y51949381D01*
X66586215Y51873190D01*
X66700501Y51835095D01*
X66776691Y51835095D01*
X66890977Y51873190D01*
X66929072Y51911286D01*
X66929072Y52177952D01*
X66776691Y52177952D01*
X67271929Y51835095D02*
X67271929Y52635095D01*
X67729072Y51835095D01*
X67729072Y52635095D01*
X68110024Y51835095D02*
X68110024Y52635095D01*
X68300500Y52635095D01*
X68414786Y52597000D01*
X68490977Y52520810D01*
X68529072Y52444619D01*
X68567167Y52292238D01*
X68567167Y52177952D01*
X68529072Y52025571D01*
X68490977Y51949381D01*
X68414786Y51873190D01*
X68300500Y51835095D01*
X68110024Y51835095D01*
X66382976Y55238595D02*
X66840119Y55238595D01*
X66611548Y54438595D02*
X66611548Y55238595D01*
X67030596Y55238595D02*
X67563929Y54438595D01*
X67563929Y55238595D02*
X67030596Y54438595D01*
X66986167Y56851595D02*
X66719500Y57232548D01*
X66529024Y56851595D02*
X66529024Y57651595D01*
X66833786Y57651595D01*
X66909977Y57613500D01*
X66948072Y57575405D01*
X66986167Y57499214D01*
X66986167Y57384929D01*
X66948072Y57308738D01*
X66909977Y57270643D01*
X66833786Y57232548D01*
X66529024Y57232548D01*
X67252834Y57651595D02*
X67786167Y56851595D01*
X67786167Y57651595D02*
X67252834Y56851595D01*
X66560833Y60128095D02*
X66827500Y59328095D01*
X67094167Y60128095D01*
X67817976Y59404286D02*
X67779881Y59366190D01*
X67665595Y59328095D01*
X67589405Y59328095D01*
X67475119Y59366190D01*
X67398928Y59442381D01*
X67360833Y59518571D01*
X67322738Y59670952D01*
X67322738Y59785238D01*
X67360833Y59937619D01*
X67398928Y60013810D01*
X67475119Y60090000D01*
X67589405Y60128095D01*
X67665595Y60128095D01*
X67779881Y60090000D01*
X67817976Y60051905D01*
X68617976Y59404286D02*
X68579881Y59366190D01*
X68465595Y59328095D01*
X68389405Y59328095D01*
X68275119Y59366190D01*
X68198928Y59442381D01*
X68160833Y59518571D01*
X68122738Y59670952D01*
X68122738Y59785238D01*
X68160833Y59937619D01*
X68198928Y60013810D01*
X68275119Y60090000D01*
X68389405Y60128095D01*
X68465595Y60128095D01*
X68579881Y60090000D01*
X68617976Y60051905D01*
X66560833Y64382595D02*
X66827500Y63582595D01*
X67094167Y64382595D01*
X67817976Y63658786D02*
X67779881Y63620690D01*
X67665595Y63582595D01*
X67589405Y63582595D01*
X67475119Y63620690D01*
X67398928Y63696881D01*
X67360833Y63773071D01*
X67322738Y63925452D01*
X67322738Y64039738D01*
X67360833Y64192119D01*
X67398928Y64268310D01*
X67475119Y64344500D01*
X67589405Y64382595D01*
X67665595Y64382595D01*
X67779881Y64344500D01*
X67817976Y64306405D01*
X68617976Y63658786D02*
X68579881Y63620690D01*
X68465595Y63582595D01*
X68389405Y63582595D01*
X68275119Y63620690D01*
X68198928Y63696881D01*
X68160833Y63773071D01*
X68122738Y63925452D01*
X68122738Y64039738D01*
X68160833Y64192119D01*
X68198928Y64268310D01*
X68275119Y64344500D01*
X68389405Y64382595D01*
X68465595Y64382595D01*
X68579881Y64344500D01*
X68617976Y64306405D01*
X66338500Y66065477D02*
X66300405Y65989286D01*
X66300405Y65875001D01*
X66338500Y65760715D01*
X66414690Y65684524D01*
X66490881Y65646429D01*
X66643262Y65608334D01*
X66757548Y65608334D01*
X66909929Y65646429D01*
X66986119Y65684524D01*
X67062310Y65760715D01*
X67100405Y65875001D01*
X67100405Y65951191D01*
X67062310Y66065477D01*
X67024214Y66103572D01*
X66757548Y66103572D01*
X66757548Y65951191D01*
X67100405Y66446429D02*
X66300405Y66446429D01*
X67100405Y66903572D01*
X66300405Y66903572D01*
X67100405Y67284524D02*
X66300405Y67284524D01*
X66300405Y67475000D01*
X66338500Y67589286D01*
X66414690Y67665477D01*
X66490881Y67703572D01*
X66643262Y67741667D01*
X66757548Y67741667D01*
X66909929Y67703572D01*
X66986119Y67665477D01*
X67062310Y67589286D01*
X67100405Y67475000D01*
X67100405Y67284524D01*
X67062310Y68897667D02*
X67100405Y69011953D01*
X67100405Y69202429D01*
X67062310Y69278619D01*
X67024214Y69316715D01*
X66948024Y69354810D01*
X66871833Y69354810D01*
X66795643Y69316715D01*
X66757548Y69278619D01*
X66719452Y69202429D01*
X66681357Y69050048D01*
X66643262Y68973857D01*
X66605167Y68935762D01*
X66528976Y68897667D01*
X66452786Y68897667D01*
X66376595Y68935762D01*
X66338500Y68973857D01*
X66300405Y69050048D01*
X66300405Y69240524D01*
X66338500Y69354810D01*
X66300405Y69621477D02*
X67100405Y69811953D01*
X66528976Y69964334D01*
X67100405Y70116715D01*
X66300405Y70307191D01*
X67100405Y70611953D02*
X66300405Y70611953D01*
X67100405Y70992905D02*
X66300405Y70992905D01*
X66871833Y71259572D01*
X66300405Y71526239D01*
X67100405Y71526239D01*
X66821214Y72218595D02*
X66821214Y73018595D01*
X67278357Y72218595D01*
X67278357Y73018595D01*
X68116452Y72218595D02*
X67849785Y72599548D01*
X67659309Y72218595D02*
X67659309Y73018595D01*
X67964071Y73018595D01*
X68040262Y72980500D01*
X68078357Y72942405D01*
X68116452Y72866214D01*
X68116452Y72751929D01*
X68078357Y72675738D01*
X68040262Y72637643D01*
X67964071Y72599548D01*
X67659309Y72599548D01*
X68421214Y72256690D02*
X68535500Y72218595D01*
X68725976Y72218595D01*
X68802166Y72256690D01*
X68840262Y72294786D01*
X68878357Y72370976D01*
X68878357Y72447167D01*
X68840262Y72523357D01*
X68802166Y72561452D01*
X68725976Y72599548D01*
X68573595Y72637643D01*
X68497404Y72675738D01*
X68459309Y72713833D01*
X68421214Y72790024D01*
X68421214Y72866214D01*
X68459309Y72942405D01*
X68497404Y72980500D01*
X68573595Y73018595D01*
X68764071Y73018595D01*
X68878357Y72980500D01*
X69106928Y73018595D02*
X69564071Y73018595D01*
X69335500Y72218595D02*
X69335500Y73018595D01*
X66630738Y73156500D02*
X69640262Y73156500D01*
X78060667Y63900095D02*
X78060667Y64700095D01*
X78365429Y64700095D01*
X78441620Y64662000D01*
X78479715Y64623905D01*
X78517810Y64547714D01*
X78517810Y64433429D01*
X78479715Y64357238D01*
X78441620Y64319143D01*
X78365429Y64281048D01*
X78060667Y64281048D01*
X78822572Y64128667D02*
X79203524Y64128667D01*
X78746381Y63900095D02*
X79013048Y64700095D01*
X79279715Y63900095D01*
X79965429Y63900095D02*
X79508286Y63900095D01*
X79736857Y63900095D02*
X79736857Y64700095D01*
X79660667Y64585810D01*
X79584476Y64509619D01*
X79508286Y64471524D01*
X71907429Y87903095D02*
X71907429Y88703095D01*
X72364572Y87903095D01*
X72364572Y88703095D01*
X68287929Y87903095D02*
X68287929Y88703095D01*
X68745072Y87903095D01*
X68745072Y88703095D01*
X82924620Y87776095D02*
X82543667Y87776095D01*
X82543667Y88576095D01*
X77514405Y86207715D02*
X77514405Y85826762D01*
X76714405Y85826762D01*
X76714405Y86626762D02*
X76714405Y86779143D01*
X76752500Y86855334D01*
X76828690Y86931524D01*
X76981071Y86969619D01*
X77247738Y86969619D01*
X77400119Y86931524D01*
X77476310Y86855334D01*
X77514405Y86779143D01*
X77514405Y86626762D01*
X77476310Y86550572D01*
X77400119Y86474381D01*
X77247738Y86436286D01*
X76981071Y86436286D01*
X76828690Y86474381D01*
X76752500Y86550572D01*
X76714405Y86626762D01*
X77285833Y87274381D02*
X77285833Y87655333D01*
X77514405Y87198190D02*
X76714405Y87464857D01*
X77514405Y87731524D01*
X77514405Y87998190D02*
X76714405Y87998190D01*
X76714405Y88188666D01*
X76752500Y88302952D01*
X76828690Y88379143D01*
X76904881Y88417238D01*
X77057262Y88455333D01*
X77171548Y88455333D01*
X77323929Y88417238D01*
X77400119Y88379143D01*
X77476310Y88302952D01*
X77514405Y88188666D01*
X77514405Y87998190D01*
X89261905Y70180405D02*
X88461905Y70180405D01*
X88461905Y70370881D01*
X88500000Y70485167D01*
X88576190Y70561358D01*
X88652381Y70599453D01*
X88804762Y70637548D01*
X88919048Y70637548D01*
X89071429Y70599453D01*
X89147619Y70561358D01*
X89223810Y70485167D01*
X89261905Y70370881D01*
X89261905Y70180405D01*
X89185714Y71437548D02*
X89223810Y71399453D01*
X89261905Y71285167D01*
X89261905Y71208977D01*
X89223810Y71094691D01*
X89147619Y71018500D01*
X89071429Y70980405D01*
X88919048Y70942310D01*
X88804762Y70942310D01*
X88652381Y70980405D01*
X88576190Y71018500D01*
X88500000Y71094691D01*
X88461905Y71208977D01*
X88461905Y71285167D01*
X88500000Y71399453D01*
X88538095Y71437548D01*
X88461905Y72770882D02*
X88461905Y72389929D01*
X88842857Y72351834D01*
X88804762Y72389929D01*
X88766667Y72466120D01*
X88766667Y72656596D01*
X88804762Y72732786D01*
X88842857Y72770882D01*
X88919048Y72808977D01*
X89109524Y72808977D01*
X89185714Y72770882D01*
X89223810Y72732786D01*
X89261905Y72656596D01*
X89261905Y72466120D01*
X89223810Y72389929D01*
X89185714Y72351834D01*
X88461905Y73037548D02*
X89261905Y73304215D01*
X88461905Y73570882D01*
X93479929Y73469548D02*
X93479929Y74231453D01*
X93860881Y73850501D02*
X93098976Y73850501D01*
X93479929Y70993048D02*
X93479929Y71754953D01*
X84264500Y66865500D02*
X82740500Y66865500D01*
X82740500Y66865500D02*
X82740500Y65024000D01*
X82740500Y65024000D02*
X81851500Y65024000D01*
X81851500Y65024000D02*
X81851500Y61595000D01*
X81851500Y61595000D02*
X83566000Y61595000D01*
X83566000Y61595000D02*
X83566000Y65024000D01*
X83566000Y65024000D02*
X82677000Y65024000D01*
X82740500Y61658500D02*
X82740500Y55689500D01*
X82740500Y55689500D02*
X84137500Y55689500D01*
X82804000Y61595000D02*
X83439000Y60960000D01*
X83439000Y60960000D02*
X84137500Y60960000D01*
X84074000Y64897000D02*
X81343500Y62166500D01*
X81343500Y62166500D02*
X81343500Y61341000D01*
X84074000Y64897000D02*
X84074000Y65468500D01*
X82213405Y57835857D02*
X81832452Y57569190D01*
X82213405Y57378714D02*
X81413405Y57378714D01*
X81413405Y57683476D01*
X81451500Y57759667D01*
X81489595Y57797762D01*
X81565786Y57835857D01*
X81680071Y57835857D01*
X81756262Y57797762D01*
X81794357Y57759667D01*
X81832452Y57683476D01*
X81832452Y57378714D01*
X81413405Y58064428D02*
X81413405Y58521571D01*
X82213405Y58293000D02*
X81413405Y58293000D01*
X82213405Y58788238D02*
X81413405Y58788238D01*
X81413405Y58978714D01*
X81451500Y59093000D01*
X81527690Y59169191D01*
X81603881Y59207286D01*
X81756262Y59245381D01*
X81870548Y59245381D01*
X82022929Y59207286D01*
X82099119Y59169191D01*
X82175310Y59093000D01*
X82213405Y58978714D01*
X82213405Y58788238D01*
X84201000Y66865500D02*
X83883500Y67183000D01*
X84264500Y66865500D02*
X83947000Y66548000D01*
X84264500Y60960000D02*
X84010500Y61214000D01*
X84264500Y60960000D02*
X84010500Y60706000D01*
X84264500Y55689500D02*
X84010500Y55943500D01*
X84264500Y55689500D02*
X84010500Y55435500D01*
X35394977Y7893000D02*
X35318786Y7931095D01*
X35204501Y7931095D01*
X35090215Y7893000D01*
X35014024Y7816810D01*
X34975929Y7740619D01*
X34937834Y7588238D01*
X34937834Y7473952D01*
X34975929Y7321571D01*
X35014024Y7245381D01*
X35090215Y7169190D01*
X35204501Y7131095D01*
X35280691Y7131095D01*
X35394977Y7169190D01*
X35433072Y7207286D01*
X35433072Y7473952D01*
X35280691Y7473952D01*
X35775929Y7131095D02*
X35775929Y7931095D01*
X36233072Y7131095D01*
X36233072Y7931095D01*
X36614024Y7131095D02*
X36614024Y7931095D01*
X36804500Y7931095D01*
X36918786Y7893000D01*
X36994977Y7816810D01*
X37033072Y7740619D01*
X37071167Y7588238D01*
X37071167Y7473952D01*
X37033072Y7321571D01*
X36994977Y7245381D01*
X36918786Y7169190D01*
X36804500Y7131095D01*
X36614024Y7131095D01*
X34886976Y10534595D02*
X35344119Y10534595D01*
X35115548Y9734595D02*
X35115548Y10534595D01*
X35534596Y10534595D02*
X36067929Y9734595D01*
X36067929Y10534595D02*
X35534596Y9734595D01*
X35490167Y12147595D02*
X35223500Y12528548D01*
X35033024Y12147595D02*
X35033024Y12947595D01*
X35337786Y12947595D01*
X35413977Y12909500D01*
X35452072Y12871405D01*
X35490167Y12795214D01*
X35490167Y12680929D01*
X35452072Y12604738D01*
X35413977Y12566643D01*
X35337786Y12528548D01*
X35033024Y12528548D01*
X35756834Y12947595D02*
X36290167Y12147595D01*
X36290167Y12947595D02*
X35756834Y12147595D01*
X35064833Y15424095D02*
X35331500Y14624095D01*
X35598167Y15424095D01*
X36321976Y14700286D02*
X36283881Y14662190D01*
X36169595Y14624095D01*
X36093405Y14624095D01*
X35979119Y14662190D01*
X35902928Y14738381D01*
X35864833Y14814571D01*
X35826738Y14966952D01*
X35826738Y15081238D01*
X35864833Y15233619D01*
X35902928Y15309810D01*
X35979119Y15386000D01*
X36093405Y15424095D01*
X36169595Y15424095D01*
X36283881Y15386000D01*
X36321976Y15347905D01*
X37121976Y14700286D02*
X37083881Y14662190D01*
X36969595Y14624095D01*
X36893405Y14624095D01*
X36779119Y14662190D01*
X36702928Y14738381D01*
X36664833Y14814571D01*
X36626738Y14966952D01*
X36626738Y15081238D01*
X36664833Y15233619D01*
X36702928Y15309810D01*
X36779119Y15386000D01*
X36893405Y15424095D01*
X36969595Y15424095D01*
X37083881Y15386000D01*
X37121976Y15347905D01*
X35064833Y19678595D02*
X35331500Y18878595D01*
X35598167Y19678595D01*
X36321976Y18954786D02*
X36283881Y18916690D01*
X36169595Y18878595D01*
X36093405Y18878595D01*
X35979119Y18916690D01*
X35902928Y18992881D01*
X35864833Y19069071D01*
X35826738Y19221452D01*
X35826738Y19335738D01*
X35864833Y19488119D01*
X35902928Y19564310D01*
X35979119Y19640500D01*
X36093405Y19678595D01*
X36169595Y19678595D01*
X36283881Y19640500D01*
X36321976Y19602405D01*
X37121976Y18954786D02*
X37083881Y18916690D01*
X36969595Y18878595D01*
X36893405Y18878595D01*
X36779119Y18916690D01*
X36702928Y18992881D01*
X36664833Y19069071D01*
X36626738Y19221452D01*
X36626738Y19335738D01*
X36664833Y19488119D01*
X36702928Y19564310D01*
X36779119Y19640500D01*
X36893405Y19678595D01*
X36969595Y19678595D01*
X37083881Y19640500D01*
X37121976Y19602405D01*
X34842500Y21361477D02*
X34804405Y21285286D01*
X34804405Y21171001D01*
X34842500Y21056715D01*
X34918690Y20980524D01*
X34994881Y20942429D01*
X35147262Y20904334D01*
X35261548Y20904334D01*
X35413929Y20942429D01*
X35490119Y20980524D01*
X35566310Y21056715D01*
X35604405Y21171001D01*
X35604405Y21247191D01*
X35566310Y21361477D01*
X35528214Y21399572D01*
X35261548Y21399572D01*
X35261548Y21247191D01*
X35604405Y21742429D02*
X34804405Y21742429D01*
X35604405Y22199572D01*
X34804405Y22199572D01*
X35604405Y22580524D02*
X34804405Y22580524D01*
X34804405Y22771000D01*
X34842500Y22885286D01*
X34918690Y22961477D01*
X34994881Y22999572D01*
X35147262Y23037667D01*
X35261548Y23037667D01*
X35413929Y22999572D01*
X35490119Y22961477D01*
X35566310Y22885286D01*
X35604405Y22771000D01*
X35604405Y22580524D01*
X35566310Y24193667D02*
X35604405Y24307953D01*
X35604405Y24498429D01*
X35566310Y24574619D01*
X35528214Y24612715D01*
X35452024Y24650810D01*
X35375833Y24650810D01*
X35299643Y24612715D01*
X35261548Y24574619D01*
X35223452Y24498429D01*
X35185357Y24346048D01*
X35147262Y24269857D01*
X35109167Y24231762D01*
X35032976Y24193667D01*
X34956786Y24193667D01*
X34880595Y24231762D01*
X34842500Y24269857D01*
X34804405Y24346048D01*
X34804405Y24536524D01*
X34842500Y24650810D01*
X34804405Y24917477D02*
X35604405Y25107953D01*
X35032976Y25260334D01*
X35604405Y25412715D01*
X34804405Y25603191D01*
X35604405Y25907953D02*
X34804405Y25907953D01*
X35604405Y26288905D02*
X34804405Y26288905D01*
X35375833Y26555572D01*
X34804405Y26822239D01*
X35604405Y26822239D01*
X35325214Y27514595D02*
X35325214Y28314595D01*
X35782357Y27514595D01*
X35782357Y28314595D01*
X36620452Y27514595D02*
X36353785Y27895548D01*
X36163309Y27514595D02*
X36163309Y28314595D01*
X36468071Y28314595D01*
X36544262Y28276500D01*
X36582357Y28238405D01*
X36620452Y28162214D01*
X36620452Y28047929D01*
X36582357Y27971738D01*
X36544262Y27933643D01*
X36468071Y27895548D01*
X36163309Y27895548D01*
X36925214Y27552690D02*
X37039500Y27514595D01*
X37229976Y27514595D01*
X37306166Y27552690D01*
X37344262Y27590786D01*
X37382357Y27666976D01*
X37382357Y27743167D01*
X37344262Y27819357D01*
X37306166Y27857452D01*
X37229976Y27895548D01*
X37077595Y27933643D01*
X37001404Y27971738D01*
X36963309Y28009833D01*
X36925214Y28086024D01*
X36925214Y28162214D01*
X36963309Y28238405D01*
X37001404Y28276500D01*
X37077595Y28314595D01*
X37268071Y28314595D01*
X37382357Y28276500D01*
X37610928Y28314595D02*
X38068071Y28314595D01*
X37839500Y27514595D02*
X37839500Y28314595D01*
X35134738Y28452500D02*
X38144262Y28452500D01*
X46564667Y19196095D02*
X46564667Y19996095D01*
X46869429Y19996095D01*
X46945620Y19958000D01*
X46983715Y19919905D01*
X47021810Y19843714D01*
X47021810Y19729429D01*
X46983715Y19653238D01*
X46945620Y19615143D01*
X46869429Y19577048D01*
X46564667Y19577048D01*
X47326572Y19424667D02*
X47707524Y19424667D01*
X47250381Y19196095D02*
X47517048Y19996095D01*
X47783715Y19196095D01*
X48469429Y19196095D02*
X48012286Y19196095D01*
X48240857Y19196095D02*
X48240857Y19996095D01*
X48164667Y19881810D01*
X48088476Y19805619D01*
X48012286Y19767524D01*
X40411429Y43199095D02*
X40411429Y43999095D01*
X40868572Y43199095D01*
X40868572Y43999095D01*
X36791929Y43199095D02*
X36791929Y43999095D01*
X37249072Y43199095D01*
X37249072Y43999095D01*
X51428620Y43072095D02*
X51047667Y43072095D01*
X51047667Y43872095D01*
X46018405Y41503715D02*
X46018405Y41122762D01*
X45218405Y41122762D01*
X45218405Y41922762D02*
X45218405Y42075143D01*
X45256500Y42151334D01*
X45332690Y42227524D01*
X45485071Y42265619D01*
X45751738Y42265619D01*
X45904119Y42227524D01*
X45980310Y42151334D01*
X46018405Y42075143D01*
X46018405Y41922762D01*
X45980310Y41846572D01*
X45904119Y41770381D01*
X45751738Y41732286D01*
X45485071Y41732286D01*
X45332690Y41770381D01*
X45256500Y41846572D01*
X45218405Y41922762D01*
X45789833Y42570381D02*
X45789833Y42951333D01*
X46018405Y42494190D02*
X45218405Y42760857D01*
X46018405Y43027524D01*
X46018405Y43294190D02*
X45218405Y43294190D01*
X45218405Y43484666D01*
X45256500Y43598952D01*
X45332690Y43675143D01*
X45408881Y43713238D01*
X45561262Y43751333D01*
X45675548Y43751333D01*
X45827929Y43713238D01*
X45904119Y43675143D01*
X45980310Y43598952D01*
X46018405Y43484666D01*
X46018405Y43294190D01*
X57765905Y25476405D02*
X56965905Y25476405D01*
X56965905Y25666881D01*
X57004000Y25781167D01*
X57080190Y25857358D01*
X57156381Y25895453D01*
X57308762Y25933548D01*
X57423048Y25933548D01*
X57575429Y25895453D01*
X57651619Y25857358D01*
X57727810Y25781167D01*
X57765905Y25666881D01*
X57765905Y25476405D01*
X57689714Y26733548D02*
X57727810Y26695453D01*
X57765905Y26581167D01*
X57765905Y26504977D01*
X57727810Y26390691D01*
X57651619Y26314500D01*
X57575429Y26276405D01*
X57423048Y26238310D01*
X57308762Y26238310D01*
X57156381Y26276405D01*
X57080190Y26314500D01*
X57004000Y26390691D01*
X56965905Y26504977D01*
X56965905Y26581167D01*
X57004000Y26695453D01*
X57042095Y26733548D01*
X56965905Y28066882D02*
X56965905Y27685929D01*
X57346857Y27647834D01*
X57308762Y27685929D01*
X57270667Y27762120D01*
X57270667Y27952596D01*
X57308762Y28028786D01*
X57346857Y28066882D01*
X57423048Y28104977D01*
X57613524Y28104977D01*
X57689714Y28066882D01*
X57727810Y28028786D01*
X57765905Y27952596D01*
X57765905Y27762120D01*
X57727810Y27685929D01*
X57689714Y27647834D01*
X56965905Y28333548D02*
X57765905Y28600215D01*
X56965905Y28866882D01*
X61983929Y28765548D02*
X61983929Y29527453D01*
X62364881Y29146501D02*
X61602976Y29146501D01*
X61983929Y26289048D02*
X61983929Y27050953D01*
X52768500Y22161500D02*
X51244500Y22161500D01*
X51244500Y22161500D02*
X51244500Y20320000D01*
X51244500Y20320000D02*
X50355500Y20320000D01*
X50355500Y20320000D02*
X50355500Y16891000D01*
X50355500Y16891000D02*
X52070000Y16891000D01*
X52070000Y16891000D02*
X52070000Y20320000D01*
X52070000Y20320000D02*
X51181000Y20320000D01*
X51244500Y16954500D02*
X51244500Y10985500D01*
X51244500Y10985500D02*
X52641500Y10985500D01*
X51308000Y16891000D02*
X51943000Y16256000D01*
X51943000Y16256000D02*
X52641500Y16256000D01*
X52578000Y20193000D02*
X49847500Y17462500D01*
X49847500Y17462500D02*
X49847500Y16637000D01*
X52578000Y20193000D02*
X52578000Y20764500D01*
X50717405Y13131857D02*
X50336452Y12865190D01*
X50717405Y12674714D02*
X49917405Y12674714D01*
X49917405Y12979476D01*
X49955500Y13055667D01*
X49993595Y13093762D01*
X50069786Y13131857D01*
X50184071Y13131857D01*
X50260262Y13093762D01*
X50298357Y13055667D01*
X50336452Y12979476D01*
X50336452Y12674714D01*
X49917405Y13360428D02*
X49917405Y13817571D01*
X50717405Y13589000D02*
X49917405Y13589000D01*
X50717405Y14084238D02*
X49917405Y14084238D01*
X49917405Y14274714D01*
X49955500Y14389000D01*
X50031690Y14465191D01*
X50107881Y14503286D01*
X50260262Y14541381D01*
X50374548Y14541381D01*
X50526929Y14503286D01*
X50603119Y14465191D01*
X50679310Y14389000D01*
X50717405Y14274714D01*
X50717405Y14084238D01*
X52705000Y22161500D02*
X52387500Y22479000D01*
X52768500Y22161500D02*
X52451000Y21844000D01*
X52768500Y16256000D02*
X52514500Y16510000D01*
X52768500Y16256000D02*
X52514500Y16002000D01*
X52768500Y10985500D02*
X52514500Y11239500D01*
X52768500Y10985500D02*
X52514500Y10731500D01*
X35394977Y52597000D02*
X35318786Y52635095D01*
X35204501Y52635095D01*
X35090215Y52597000D01*
X35014024Y52520810D01*
X34975929Y52444619D01*
X34937834Y52292238D01*
X34937834Y52177952D01*
X34975929Y52025571D01*
X35014024Y51949381D01*
X35090215Y51873190D01*
X35204501Y51835095D01*
X35280691Y51835095D01*
X35394977Y51873190D01*
X35433072Y51911286D01*
X35433072Y52177952D01*
X35280691Y52177952D01*
X35775929Y51835095D02*
X35775929Y52635095D01*
X36233072Y51835095D01*
X36233072Y52635095D01*
X36614024Y51835095D02*
X36614024Y52635095D01*
X36804500Y52635095D01*
X36918786Y52597000D01*
X36994977Y52520810D01*
X37033072Y52444619D01*
X37071167Y52292238D01*
X37071167Y52177952D01*
X37033072Y52025571D01*
X36994977Y51949381D01*
X36918786Y51873190D01*
X36804500Y51835095D01*
X36614024Y51835095D01*
X34886976Y55238595D02*
X35344119Y55238595D01*
X35115548Y54438595D02*
X35115548Y55238595D01*
X35534596Y55238595D02*
X36067929Y54438595D01*
X36067929Y55238595D02*
X35534596Y54438595D01*
X35490167Y56851595D02*
X35223500Y57232548D01*
X35033024Y56851595D02*
X35033024Y57651595D01*
X35337786Y57651595D01*
X35413977Y57613500D01*
X35452072Y57575405D01*
X35490167Y57499214D01*
X35490167Y57384929D01*
X35452072Y57308738D01*
X35413977Y57270643D01*
X35337786Y57232548D01*
X35033024Y57232548D01*
X35756834Y57651595D02*
X36290167Y56851595D01*
X36290167Y57651595D02*
X35756834Y56851595D01*
X35064833Y60128095D02*
X35331500Y59328095D01*
X35598167Y60128095D01*
X36321976Y59404286D02*
X36283881Y59366190D01*
X36169595Y59328095D01*
X36093405Y59328095D01*
X35979119Y59366190D01*
X35902928Y59442381D01*
X35864833Y59518571D01*
X35826738Y59670952D01*
X35826738Y59785238D01*
X35864833Y59937619D01*
X35902928Y60013810D01*
X35979119Y60090000D01*
X36093405Y60128095D01*
X36169595Y60128095D01*
X36283881Y60090000D01*
X36321976Y60051905D01*
X37121976Y59404286D02*
X37083881Y59366190D01*
X36969595Y59328095D01*
X36893405Y59328095D01*
X36779119Y59366190D01*
X36702928Y59442381D01*
X36664833Y59518571D01*
X36626738Y59670952D01*
X36626738Y59785238D01*
X36664833Y59937619D01*
X36702928Y60013810D01*
X36779119Y60090000D01*
X36893405Y60128095D01*
X36969595Y60128095D01*
X37083881Y60090000D01*
X37121976Y60051905D01*
X35064833Y64382595D02*
X35331500Y63582595D01*
X35598167Y64382595D01*
X36321976Y63658786D02*
X36283881Y63620690D01*
X36169595Y63582595D01*
X36093405Y63582595D01*
X35979119Y63620690D01*
X35902928Y63696881D01*
X35864833Y63773071D01*
X35826738Y63925452D01*
X35826738Y64039738D01*
X35864833Y64192119D01*
X35902928Y64268310D01*
X35979119Y64344500D01*
X36093405Y64382595D01*
X36169595Y64382595D01*
X36283881Y64344500D01*
X36321976Y64306405D01*
X37121976Y63658786D02*
X37083881Y63620690D01*
X36969595Y63582595D01*
X36893405Y63582595D01*
X36779119Y63620690D01*
X36702928Y63696881D01*
X36664833Y63773071D01*
X36626738Y63925452D01*
X36626738Y64039738D01*
X36664833Y64192119D01*
X36702928Y64268310D01*
X36779119Y64344500D01*
X36893405Y64382595D01*
X36969595Y64382595D01*
X37083881Y64344500D01*
X37121976Y64306405D01*
X34842500Y66065477D02*
X34804405Y65989286D01*
X34804405Y65875001D01*
X34842500Y65760715D01*
X34918690Y65684524D01*
X34994881Y65646429D01*
X35147262Y65608334D01*
X35261548Y65608334D01*
X35413929Y65646429D01*
X35490119Y65684524D01*
X35566310Y65760715D01*
X35604405Y65875001D01*
X35604405Y65951191D01*
X35566310Y66065477D01*
X35528214Y66103572D01*
X35261548Y66103572D01*
X35261548Y65951191D01*
X35604405Y66446429D02*
X34804405Y66446429D01*
X35604405Y66903572D01*
X34804405Y66903572D01*
X35604405Y67284524D02*
X34804405Y67284524D01*
X34804405Y67475000D01*
X34842500Y67589286D01*
X34918690Y67665477D01*
X34994881Y67703572D01*
X35147262Y67741667D01*
X35261548Y67741667D01*
X35413929Y67703572D01*
X35490119Y67665477D01*
X35566310Y67589286D01*
X35604405Y67475000D01*
X35604405Y67284524D01*
X35566310Y68897667D02*
X35604405Y69011953D01*
X35604405Y69202429D01*
X35566310Y69278619D01*
X35528214Y69316715D01*
X35452024Y69354810D01*
X35375833Y69354810D01*
X35299643Y69316715D01*
X35261548Y69278619D01*
X35223452Y69202429D01*
X35185357Y69050048D01*
X35147262Y68973857D01*
X35109167Y68935762D01*
X35032976Y68897667D01*
X34956786Y68897667D01*
X34880595Y68935762D01*
X34842500Y68973857D01*
X34804405Y69050048D01*
X34804405Y69240524D01*
X34842500Y69354810D01*
X34804405Y69621477D02*
X35604405Y69811953D01*
X35032976Y69964334D01*
X35604405Y70116715D01*
X34804405Y70307191D01*
X35604405Y70611953D02*
X34804405Y70611953D01*
X35604405Y70992905D02*
X34804405Y70992905D01*
X35375833Y71259572D01*
X34804405Y71526239D01*
X35604405Y71526239D01*
X35325214Y72218595D02*
X35325214Y73018595D01*
X35782357Y72218595D01*
X35782357Y73018595D01*
X36620452Y72218595D02*
X36353785Y72599548D01*
X36163309Y72218595D02*
X36163309Y73018595D01*
X36468071Y73018595D01*
X36544262Y72980500D01*
X36582357Y72942405D01*
X36620452Y72866214D01*
X36620452Y72751929D01*
X36582357Y72675738D01*
X36544262Y72637643D01*
X36468071Y72599548D01*
X36163309Y72599548D01*
X36925214Y72256690D02*
X37039500Y72218595D01*
X37229976Y72218595D01*
X37306166Y72256690D01*
X37344262Y72294786D01*
X37382357Y72370976D01*
X37382357Y72447167D01*
X37344262Y72523357D01*
X37306166Y72561452D01*
X37229976Y72599548D01*
X37077595Y72637643D01*
X37001404Y72675738D01*
X36963309Y72713833D01*
X36925214Y72790024D01*
X36925214Y72866214D01*
X36963309Y72942405D01*
X37001404Y72980500D01*
X37077595Y73018595D01*
X37268071Y73018595D01*
X37382357Y72980500D01*
X37610928Y73018595D02*
X38068071Y73018595D01*
X37839500Y72218595D02*
X37839500Y73018595D01*
X35134738Y73156500D02*
X38144262Y73156500D01*
X46564667Y63900095D02*
X46564667Y64700095D01*
X46869429Y64700095D01*
X46945620Y64662000D01*
X46983715Y64623905D01*
X47021810Y64547714D01*
X47021810Y64433429D01*
X46983715Y64357238D01*
X46945620Y64319143D01*
X46869429Y64281048D01*
X46564667Y64281048D01*
X47326572Y64128667D02*
X47707524Y64128667D01*
X47250381Y63900095D02*
X47517048Y64700095D01*
X47783715Y63900095D01*
X48469429Y63900095D02*
X48012286Y63900095D01*
X48240857Y63900095D02*
X48240857Y64700095D01*
X48164667Y64585810D01*
X48088476Y64509619D01*
X48012286Y64471524D01*
X40411429Y87903095D02*
X40411429Y88703095D01*
X40868572Y87903095D01*
X40868572Y88703095D01*
X36791929Y87903095D02*
X36791929Y88703095D01*
X37249072Y87903095D01*
X37249072Y88703095D01*
X51428620Y87776095D02*
X51047667Y87776095D01*
X51047667Y88576095D01*
X46018405Y86207715D02*
X46018405Y85826762D01*
X45218405Y85826762D01*
X45218405Y86626762D02*
X45218405Y86779143D01*
X45256500Y86855334D01*
X45332690Y86931524D01*
X45485071Y86969619D01*
X45751738Y86969619D01*
X45904119Y86931524D01*
X45980310Y86855334D01*
X46018405Y86779143D01*
X46018405Y86626762D01*
X45980310Y86550572D01*
X45904119Y86474381D01*
X45751738Y86436286D01*
X45485071Y86436286D01*
X45332690Y86474381D01*
X45256500Y86550572D01*
X45218405Y86626762D01*
X45789833Y87274381D02*
X45789833Y87655333D01*
X46018405Y87198190D02*
X45218405Y87464857D01*
X46018405Y87731524D01*
X46018405Y87998190D02*
X45218405Y87998190D01*
X45218405Y88188666D01*
X45256500Y88302952D01*
X45332690Y88379143D01*
X45408881Y88417238D01*
X45561262Y88455333D01*
X45675548Y88455333D01*
X45827929Y88417238D01*
X45904119Y88379143D01*
X45980310Y88302952D01*
X46018405Y88188666D01*
X46018405Y87998190D01*
X57765905Y70180405D02*
X56965905Y70180405D01*
X56965905Y70370881D01*
X57004000Y70485167D01*
X57080190Y70561358D01*
X57156381Y70599453D01*
X57308762Y70637548D01*
X57423048Y70637548D01*
X57575429Y70599453D01*
X57651619Y70561358D01*
X57727810Y70485167D01*
X57765905Y70370881D01*
X57765905Y70180405D01*
X57689714Y71437548D02*
X57727810Y71399453D01*
X57765905Y71285167D01*
X57765905Y71208977D01*
X57727810Y71094691D01*
X57651619Y71018500D01*
X57575429Y70980405D01*
X57423048Y70942310D01*
X57308762Y70942310D01*
X57156381Y70980405D01*
X57080190Y71018500D01*
X57004000Y71094691D01*
X56965905Y71208977D01*
X56965905Y71285167D01*
X57004000Y71399453D01*
X57042095Y71437548D01*
X56965905Y72770882D02*
X56965905Y72389929D01*
X57346857Y72351834D01*
X57308762Y72389929D01*
X57270667Y72466120D01*
X57270667Y72656596D01*
X57308762Y72732786D01*
X57346857Y72770882D01*
X57423048Y72808977D01*
X57613524Y72808977D01*
X57689714Y72770882D01*
X57727810Y72732786D01*
X57765905Y72656596D01*
X57765905Y72466120D01*
X57727810Y72389929D01*
X57689714Y72351834D01*
X56965905Y73037548D02*
X57765905Y73304215D01*
X56965905Y73570882D01*
X61983929Y73469548D02*
X61983929Y74231453D01*
X62364881Y73850501D02*
X61602976Y73850501D01*
X61983929Y70993048D02*
X61983929Y71754953D01*
X52768500Y66865500D02*
X51244500Y66865500D01*
X51244500Y66865500D02*
X51244500Y65024000D01*
X51244500Y65024000D02*
X50355500Y65024000D01*
X50355500Y65024000D02*
X50355500Y61595000D01*
X50355500Y61595000D02*
X52070000Y61595000D01*
X52070000Y61595000D02*
X52070000Y65024000D01*
X52070000Y65024000D02*
X51181000Y65024000D01*
X51244500Y61658500D02*
X51244500Y55689500D01*
X51244500Y55689500D02*
X52641500Y55689500D01*
X51308000Y61595000D02*
X51943000Y60960000D01*
X51943000Y60960000D02*
X52641500Y60960000D01*
X52578000Y64897000D02*
X49847500Y62166500D01*
X49847500Y62166500D02*
X49847500Y61341000D01*
X52578000Y64897000D02*
X52578000Y65468500D01*
X50717405Y57835857D02*
X50336452Y57569190D01*
X50717405Y57378714D02*
X49917405Y57378714D01*
X49917405Y57683476D01*
X49955500Y57759667D01*
X49993595Y57797762D01*
X50069786Y57835857D01*
X50184071Y57835857D01*
X50260262Y57797762D01*
X50298357Y57759667D01*
X50336452Y57683476D01*
X50336452Y57378714D01*
X49917405Y58064428D02*
X49917405Y58521571D01*
X50717405Y58293000D02*
X49917405Y58293000D01*
X50717405Y58788238D02*
X49917405Y58788238D01*
X49917405Y58978714D01*
X49955500Y59093000D01*
X50031690Y59169191D01*
X50107881Y59207286D01*
X50260262Y59245381D01*
X50374548Y59245381D01*
X50526929Y59207286D01*
X50603119Y59169191D01*
X50679310Y59093000D01*
X50717405Y58978714D01*
X50717405Y58788238D01*
X52705000Y66865500D02*
X52387500Y67183000D01*
X52768500Y66865500D02*
X52451000Y66548000D01*
X52768500Y60960000D02*
X52514500Y61214000D01*
X52768500Y60960000D02*
X52514500Y60706000D01*
X52768500Y55689500D02*
X52514500Y55943500D01*
X52768500Y55689500D02*
X52514500Y55435500D01*
X3898977Y7893000D02*
X3822786Y7931095D01*
X3708501Y7931095D01*
X3594215Y7893000D01*
X3518024Y7816810D01*
X3479929Y7740619D01*
X3441834Y7588238D01*
X3441834Y7473952D01*
X3479929Y7321571D01*
X3518024Y7245381D01*
X3594215Y7169190D01*
X3708501Y7131095D01*
X3784691Y7131095D01*
X3898977Y7169190D01*
X3937072Y7207286D01*
X3937072Y7473952D01*
X3784691Y7473952D01*
X4279929Y7131095D02*
X4279929Y7931095D01*
X4737072Y7131095D01*
X4737072Y7931095D01*
X5118024Y7131095D02*
X5118024Y7931095D01*
X5308500Y7931095D01*
X5422786Y7893000D01*
X5498977Y7816810D01*
X5537072Y7740619D01*
X5575167Y7588238D01*
X5575167Y7473952D01*
X5537072Y7321571D01*
X5498977Y7245381D01*
X5422786Y7169190D01*
X5308500Y7131095D01*
X5118024Y7131095D01*
X3390976Y10534595D02*
X3848119Y10534595D01*
X3619548Y9734595D02*
X3619548Y10534595D01*
X4038596Y10534595D02*
X4571929Y9734595D01*
X4571929Y10534595D02*
X4038596Y9734595D01*
X3994167Y12147595D02*
X3727500Y12528548D01*
X3537024Y12147595D02*
X3537024Y12947595D01*
X3841786Y12947595D01*
X3917977Y12909500D01*
X3956072Y12871405D01*
X3994167Y12795214D01*
X3994167Y12680929D01*
X3956072Y12604738D01*
X3917977Y12566643D01*
X3841786Y12528548D01*
X3537024Y12528548D01*
X4260834Y12947595D02*
X4794167Y12147595D01*
X4794167Y12947595D02*
X4260834Y12147595D01*
X3568833Y15424095D02*
X3835500Y14624095D01*
X4102167Y15424095D01*
X4825976Y14700286D02*
X4787881Y14662190D01*
X4673595Y14624095D01*
X4597405Y14624095D01*
X4483119Y14662190D01*
X4406928Y14738381D01*
X4368833Y14814571D01*
X4330738Y14966952D01*
X4330738Y15081238D01*
X4368833Y15233619D01*
X4406928Y15309810D01*
X4483119Y15386000D01*
X4597405Y15424095D01*
X4673595Y15424095D01*
X4787881Y15386000D01*
X4825976Y15347905D01*
X5625976Y14700286D02*
X5587881Y14662190D01*
X5473595Y14624095D01*
X5397405Y14624095D01*
X5283119Y14662190D01*
X5206928Y14738381D01*
X5168833Y14814571D01*
X5130738Y14966952D01*
X5130738Y15081238D01*
X5168833Y15233619D01*
X5206928Y15309810D01*
X5283119Y15386000D01*
X5397405Y15424095D01*
X5473595Y15424095D01*
X5587881Y15386000D01*
X5625976Y15347905D01*
X3568833Y19678595D02*
X3835500Y18878595D01*
X4102167Y19678595D01*
X4825976Y18954786D02*
X4787881Y18916690D01*
X4673595Y18878595D01*
X4597405Y18878595D01*
X4483119Y18916690D01*
X4406928Y18992881D01*
X4368833Y19069071D01*
X4330738Y19221452D01*
X4330738Y19335738D01*
X4368833Y19488119D01*
X4406928Y19564310D01*
X4483119Y19640500D01*
X4597405Y19678595D01*
X4673595Y19678595D01*
X4787881Y19640500D01*
X4825976Y19602405D01*
X5625976Y18954786D02*
X5587881Y18916690D01*
X5473595Y18878595D01*
X5397405Y18878595D01*
X5283119Y18916690D01*
X5206928Y18992881D01*
X5168833Y19069071D01*
X5130738Y19221452D01*
X5130738Y19335738D01*
X5168833Y19488119D01*
X5206928Y19564310D01*
X5283119Y19640500D01*
X5397405Y19678595D01*
X5473595Y19678595D01*
X5587881Y19640500D01*
X5625976Y19602405D01*
X3346500Y21361477D02*
X3308405Y21285286D01*
X3308405Y21171001D01*
X3346500Y21056715D01*
X3422690Y20980524D01*
X3498881Y20942429D01*
X3651262Y20904334D01*
X3765548Y20904334D01*
X3917929Y20942429D01*
X3994119Y20980524D01*
X4070310Y21056715D01*
X4108405Y21171001D01*
X4108405Y21247191D01*
X4070310Y21361477D01*
X4032214Y21399572D01*
X3765548Y21399572D01*
X3765548Y21247191D01*
X4108405Y21742429D02*
X3308405Y21742429D01*
X4108405Y22199572D01*
X3308405Y22199572D01*
X4108405Y22580524D02*
X3308405Y22580524D01*
X3308405Y22771000D01*
X3346500Y22885286D01*
X3422690Y22961477D01*
X3498881Y22999572D01*
X3651262Y23037667D01*
X3765548Y23037667D01*
X3917929Y22999572D01*
X3994119Y22961477D01*
X4070310Y22885286D01*
X4108405Y22771000D01*
X4108405Y22580524D01*
X4070310Y24193667D02*
X4108405Y24307953D01*
X4108405Y24498429D01*
X4070310Y24574619D01*
X4032214Y24612715D01*
X3956024Y24650810D01*
X3879833Y24650810D01*
X3803643Y24612715D01*
X3765548Y24574619D01*
X3727452Y24498429D01*
X3689357Y24346048D01*
X3651262Y24269857D01*
X3613167Y24231762D01*
X3536976Y24193667D01*
X3460786Y24193667D01*
X3384595Y24231762D01*
X3346500Y24269857D01*
X3308405Y24346048D01*
X3308405Y24536524D01*
X3346500Y24650810D01*
X3308405Y24917477D02*
X4108405Y25107953D01*
X3536976Y25260334D01*
X4108405Y25412715D01*
X3308405Y25603191D01*
X4108405Y25907953D02*
X3308405Y25907953D01*
X4108405Y26288905D02*
X3308405Y26288905D01*
X3879833Y26555572D01*
X3308405Y26822239D01*
X4108405Y26822239D01*
X3829214Y27514595D02*
X3829214Y28314595D01*
X4286357Y27514595D01*
X4286357Y28314595D01*
X5124452Y27514595D02*
X4857785Y27895548D01*
X4667309Y27514595D02*
X4667309Y28314595D01*
X4972071Y28314595D01*
X5048262Y28276500D01*
X5086357Y28238405D01*
X5124452Y28162214D01*
X5124452Y28047929D01*
X5086357Y27971738D01*
X5048262Y27933643D01*
X4972071Y27895548D01*
X4667309Y27895548D01*
X5429214Y27552690D02*
X5543500Y27514595D01*
X5733976Y27514595D01*
X5810166Y27552690D01*
X5848262Y27590786D01*
X5886357Y27666976D01*
X5886357Y27743167D01*
X5848262Y27819357D01*
X5810166Y27857452D01*
X5733976Y27895548D01*
X5581595Y27933643D01*
X5505404Y27971738D01*
X5467309Y28009833D01*
X5429214Y28086024D01*
X5429214Y28162214D01*
X5467309Y28238405D01*
X5505404Y28276500D01*
X5581595Y28314595D01*
X5772071Y28314595D01*
X5886357Y28276500D01*
X6114928Y28314595D02*
X6572071Y28314595D01*
X6343500Y27514595D02*
X6343500Y28314595D01*
X3638738Y28452500D02*
X6648262Y28452500D01*
X15068667Y19196095D02*
X15068667Y19996095D01*
X15373429Y19996095D01*
X15449620Y19958000D01*
X15487715Y19919905D01*
X15525810Y19843714D01*
X15525810Y19729429D01*
X15487715Y19653238D01*
X15449620Y19615143D01*
X15373429Y19577048D01*
X15068667Y19577048D01*
X15830572Y19424667D02*
X16211524Y19424667D01*
X15754381Y19196095D02*
X16021048Y19996095D01*
X16287715Y19196095D01*
X16973429Y19196095D02*
X16516286Y19196095D01*
X16744857Y19196095D02*
X16744857Y19996095D01*
X16668667Y19881810D01*
X16592476Y19805619D01*
X16516286Y19767524D01*
X8915429Y43199095D02*
X8915429Y43999095D01*
X9372572Y43199095D01*
X9372572Y43999095D01*
X5295929Y43199095D02*
X5295929Y43999095D01*
X5753072Y43199095D01*
X5753072Y43999095D01*
X19932620Y43072095D02*
X19551667Y43072095D01*
X19551667Y43872095D01*
X14522405Y41503715D02*
X14522405Y41122762D01*
X13722405Y41122762D01*
X13722405Y41922762D02*
X13722405Y42075143D01*
X13760500Y42151334D01*
X13836690Y42227524D01*
X13989071Y42265619D01*
X14255738Y42265619D01*
X14408119Y42227524D01*
X14484310Y42151334D01*
X14522405Y42075143D01*
X14522405Y41922762D01*
X14484310Y41846572D01*
X14408119Y41770381D01*
X14255738Y41732286D01*
X13989071Y41732286D01*
X13836690Y41770381D01*
X13760500Y41846572D01*
X13722405Y41922762D01*
X14293833Y42570381D02*
X14293833Y42951333D01*
X14522405Y42494190D02*
X13722405Y42760857D01*
X14522405Y43027524D01*
X14522405Y43294190D02*
X13722405Y43294190D01*
X13722405Y43484666D01*
X13760500Y43598952D01*
X13836690Y43675143D01*
X13912881Y43713238D01*
X14065262Y43751333D01*
X14179548Y43751333D01*
X14331929Y43713238D01*
X14408119Y43675143D01*
X14484310Y43598952D01*
X14522405Y43484666D01*
X14522405Y43294190D01*
X26269905Y25476405D02*
X25469905Y25476405D01*
X25469905Y25666881D01*
X25508000Y25781167D01*
X25584190Y25857358D01*
X25660381Y25895453D01*
X25812762Y25933548D01*
X25927048Y25933548D01*
X26079429Y25895453D01*
X26155619Y25857358D01*
X26231810Y25781167D01*
X26269905Y25666881D01*
X26269905Y25476405D01*
X26193714Y26733548D02*
X26231810Y26695453D01*
X26269905Y26581167D01*
X26269905Y26504977D01*
X26231810Y26390691D01*
X26155619Y26314500D01*
X26079429Y26276405D01*
X25927048Y26238310D01*
X25812762Y26238310D01*
X25660381Y26276405D01*
X25584190Y26314500D01*
X25508000Y26390691D01*
X25469905Y26504977D01*
X25469905Y26581167D01*
X25508000Y26695453D01*
X25546095Y26733548D01*
X25469905Y28066882D02*
X25469905Y27685929D01*
X25850857Y27647834D01*
X25812762Y27685929D01*
X25774667Y27762120D01*
X25774667Y27952596D01*
X25812762Y28028786D01*
X25850857Y28066882D01*
X25927048Y28104977D01*
X26117524Y28104977D01*
X26193714Y28066882D01*
X26231810Y28028786D01*
X26269905Y27952596D01*
X26269905Y27762120D01*
X26231810Y27685929D01*
X26193714Y27647834D01*
X25469905Y28333548D02*
X26269905Y28600215D01*
X25469905Y28866882D01*
X30487929Y28765548D02*
X30487929Y29527453D01*
X30868881Y29146501D02*
X30106976Y29146501D01*
X30487929Y26289048D02*
X30487929Y27050953D01*
X21272500Y22161500D02*
X19748500Y22161500D01*
X19748500Y22161500D02*
X19748500Y20320000D01*
X19748500Y20320000D02*
X18859500Y20320000D01*
X18859500Y20320000D02*
X18859500Y16891000D01*
X18859500Y16891000D02*
X20574000Y16891000D01*
X20574000Y16891000D02*
X20574000Y20320000D01*
X20574000Y20320000D02*
X19685000Y20320000D01*
X19748500Y16954500D02*
X19748500Y10985500D01*
X19748500Y10985500D02*
X21145500Y10985500D01*
X19812000Y16891000D02*
X20447000Y16256000D01*
X20447000Y16256000D02*
X21145500Y16256000D01*
X21082000Y20193000D02*
X18351500Y17462500D01*
X18351500Y17462500D02*
X18351500Y16637000D01*
X21082000Y20193000D02*
X21082000Y20764500D01*
X19221405Y13131857D02*
X18840452Y12865190D01*
X19221405Y12674714D02*
X18421405Y12674714D01*
X18421405Y12979476D01*
X18459500Y13055667D01*
X18497595Y13093762D01*
X18573786Y13131857D01*
X18688071Y13131857D01*
X18764262Y13093762D01*
X18802357Y13055667D01*
X18840452Y12979476D01*
X18840452Y12674714D01*
X18421405Y13360428D02*
X18421405Y13817571D01*
X19221405Y13589000D02*
X18421405Y13589000D01*
X19221405Y14084238D02*
X18421405Y14084238D01*
X18421405Y14274714D01*
X18459500Y14389000D01*
X18535690Y14465191D01*
X18611881Y14503286D01*
X18764262Y14541381D01*
X18878548Y14541381D01*
X19030929Y14503286D01*
X19107119Y14465191D01*
X19183310Y14389000D01*
X19221405Y14274714D01*
X19221405Y14084238D01*
X21209000Y22161500D02*
X20891500Y22479000D01*
X21272500Y22161500D02*
X20955000Y21844000D01*
X21272500Y16256000D02*
X21018500Y16510000D01*
X21272500Y16256000D02*
X21018500Y16002000D01*
X21272500Y10985500D02*
X21018500Y11239500D01*
X21272500Y10985500D02*
X21018500Y10731500D01*
X21272500Y55689500D02*
X21018500Y55435500D01*
X21272500Y55689500D02*
X21018500Y55943500D01*
X21272500Y60960000D02*
X21018500Y60706000D01*
X21272500Y60960000D02*
X21018500Y61214000D01*
X21272500Y66865500D02*
X20955000Y66548000D01*
X21209000Y66865500D02*
X20891500Y67183000D01*
X19221405Y57835857D02*
X18840452Y57569190D01*
X19221405Y57378714D02*
X18421405Y57378714D01*
X18421405Y57683476D01*
X18459500Y57759667D01*
X18497595Y57797762D01*
X18573786Y57835857D01*
X18688071Y57835857D01*
X18764262Y57797762D01*
X18802357Y57759667D01*
X18840452Y57683476D01*
X18840452Y57378714D01*
X18421405Y58064428D02*
X18421405Y58521571D01*
X19221405Y58293000D02*
X18421405Y58293000D01*
X19221405Y58788238D02*
X18421405Y58788238D01*
X18421405Y58978714D01*
X18459500Y59093000D01*
X18535690Y59169191D01*
X18611881Y59207286D01*
X18764262Y59245381D01*
X18878548Y59245381D01*
X19030929Y59207286D01*
X19107119Y59169191D01*
X19183310Y59093000D01*
X19221405Y58978714D01*
X19221405Y58788238D01*
X21082000Y64897000D02*
X21082000Y65468500D01*
X18351500Y62166500D02*
X18351500Y61341000D01*
X21082000Y64897000D02*
X18351500Y62166500D01*
X20447000Y60960000D02*
X21145500Y60960000D01*
X19812000Y61595000D02*
X20447000Y60960000D01*
X19748500Y55689500D02*
X21145500Y55689500D01*
X19748500Y61658500D02*
X19748500Y55689500D01*
X20574000Y65024000D02*
X19685000Y65024000D01*
X20574000Y61595000D02*
X20574000Y65024000D01*
X18859500Y61595000D02*
X20574000Y61595000D01*
X18859500Y65024000D02*
X18859500Y61595000D01*
X19748500Y65024000D02*
X18859500Y65024000D01*
X19748500Y66865500D02*
X19748500Y65024000D01*
X21272500Y66865500D02*
X19748500Y66865500D01*
X30487929Y70993048D02*
X30487929Y71754953D01*
X30487929Y73469548D02*
X30487929Y74231453D01*
X30868881Y73850501D02*
X30106976Y73850501D01*
X26269905Y70180405D02*
X25469905Y70180405D01*
X25469905Y70370881D01*
X25508000Y70485167D01*
X25584190Y70561358D01*
X25660381Y70599453D01*
X25812762Y70637548D01*
X25927048Y70637548D01*
X26079429Y70599453D01*
X26155619Y70561358D01*
X26231810Y70485167D01*
X26269905Y70370881D01*
X26269905Y70180405D01*
X26193714Y71437548D02*
X26231810Y71399453D01*
X26269905Y71285167D01*
X26269905Y71208977D01*
X26231810Y71094691D01*
X26155619Y71018500D01*
X26079429Y70980405D01*
X25927048Y70942310D01*
X25812762Y70942310D01*
X25660381Y70980405D01*
X25584190Y71018500D01*
X25508000Y71094691D01*
X25469905Y71208977D01*
X25469905Y71285167D01*
X25508000Y71399453D01*
X25546095Y71437548D01*
X25469905Y72770882D02*
X25469905Y72389929D01*
X25850857Y72351834D01*
X25812762Y72389929D01*
X25774667Y72466120D01*
X25774667Y72656596D01*
X25812762Y72732786D01*
X25850857Y72770882D01*
X25927048Y72808977D01*
X26117524Y72808977D01*
X26193714Y72770882D01*
X26231810Y72732786D01*
X26269905Y72656596D01*
X26269905Y72466120D01*
X26231810Y72389929D01*
X26193714Y72351834D01*
X25469905Y73037548D02*
X26269905Y73304215D01*
X25469905Y73570882D01*
X14522405Y86207715D02*
X14522405Y85826762D01*
X13722405Y85826762D01*
X13722405Y86626762D02*
X13722405Y86779143D01*
X13760500Y86855334D01*
X13836690Y86931524D01*
X13989071Y86969619D01*
X14255738Y86969619D01*
X14408119Y86931524D01*
X14484310Y86855334D01*
X14522405Y86779143D01*
X14522405Y86626762D01*
X14484310Y86550572D01*
X14408119Y86474381D01*
X14255738Y86436286D01*
X13989071Y86436286D01*
X13836690Y86474381D01*
X13760500Y86550572D01*
X13722405Y86626762D01*
X14293833Y87274381D02*
X14293833Y87655333D01*
X14522405Y87198190D02*
X13722405Y87464857D01*
X14522405Y87731524D01*
X14522405Y87998190D02*
X13722405Y87998190D01*
X13722405Y88188666D01*
X13760500Y88302952D01*
X13836690Y88379143D01*
X13912881Y88417238D01*
X14065262Y88455333D01*
X14179548Y88455333D01*
X14331929Y88417238D01*
X14408119Y88379143D01*
X14484310Y88302952D01*
X14522405Y88188666D01*
X14522405Y87998190D01*
X19932620Y87776095D02*
X19551667Y87776095D01*
X19551667Y88576095D01*
X5295929Y87903095D02*
X5295929Y88703095D01*
X5753072Y87903095D01*
X5753072Y88703095D01*
X8915429Y87903095D02*
X8915429Y88703095D01*
X9372572Y87903095D01*
X9372572Y88703095D01*
X15068667Y63900095D02*
X15068667Y64700095D01*
X15373429Y64700095D01*
X15449620Y64662000D01*
X15487715Y64623905D01*
X15525810Y64547714D01*
X15525810Y64433429D01*
X15487715Y64357238D01*
X15449620Y64319143D01*
X15373429Y64281048D01*
X15068667Y64281048D01*
X15830572Y64128667D02*
X16211524Y64128667D01*
X15754381Y63900095D02*
X16021048Y64700095D01*
X16287715Y63900095D01*
X16973429Y63900095D02*
X16516286Y63900095D01*
X16744857Y63900095D02*
X16744857Y64700095D01*
X16668667Y64585810D01*
X16592476Y64509619D01*
X16516286Y64471524D01*
X3829214Y72218595D02*
X3829214Y73018595D01*
X4286357Y72218595D01*
X4286357Y73018595D01*
X5124452Y72218595D02*
X4857785Y72599548D01*
X4667309Y72218595D02*
X4667309Y73018595D01*
X4972071Y73018595D01*
X5048262Y72980500D01*
X5086357Y72942405D01*
X5124452Y72866214D01*
X5124452Y72751929D01*
X5086357Y72675738D01*
X5048262Y72637643D01*
X4972071Y72599548D01*
X4667309Y72599548D01*
X5429214Y72256690D02*
X5543500Y72218595D01*
X5733976Y72218595D01*
X5810166Y72256690D01*
X5848262Y72294786D01*
X5886357Y72370976D01*
X5886357Y72447167D01*
X5848262Y72523357D01*
X5810166Y72561452D01*
X5733976Y72599548D01*
X5581595Y72637643D01*
X5505404Y72675738D01*
X5467309Y72713833D01*
X5429214Y72790024D01*
X5429214Y72866214D01*
X5467309Y72942405D01*
X5505404Y72980500D01*
X5581595Y73018595D01*
X5772071Y73018595D01*
X5886357Y72980500D01*
X6114928Y73018595D02*
X6572071Y73018595D01*
X6343500Y72218595D02*
X6343500Y73018595D01*
X3638738Y73156500D02*
X6648262Y73156500D01*
X4070310Y68897667D02*
X4108405Y69011953D01*
X4108405Y69202429D01*
X4070310Y69278619D01*
X4032214Y69316715D01*
X3956024Y69354810D01*
X3879833Y69354810D01*
X3803643Y69316715D01*
X3765548Y69278619D01*
X3727452Y69202429D01*
X3689357Y69050048D01*
X3651262Y68973857D01*
X3613167Y68935762D01*
X3536976Y68897667D01*
X3460786Y68897667D01*
X3384595Y68935762D01*
X3346500Y68973857D01*
X3308405Y69050048D01*
X3308405Y69240524D01*
X3346500Y69354810D01*
X3308405Y69621477D02*
X4108405Y69811953D01*
X3536976Y69964334D01*
X4108405Y70116715D01*
X3308405Y70307191D01*
X4108405Y70611953D02*
X3308405Y70611953D01*
X4108405Y70992905D02*
X3308405Y70992905D01*
X3879833Y71259572D01*
X3308405Y71526239D01*
X4108405Y71526239D01*
X3346500Y66065477D02*
X3308405Y65989286D01*
X3308405Y65875001D01*
X3346500Y65760715D01*
X3422690Y65684524D01*
X3498881Y65646429D01*
X3651262Y65608334D01*
X3765548Y65608334D01*
X3917929Y65646429D01*
X3994119Y65684524D01*
X4070310Y65760715D01*
X4108405Y65875001D01*
X4108405Y65951191D01*
X4070310Y66065477D01*
X4032214Y66103572D01*
X3765548Y66103572D01*
X3765548Y65951191D01*
X4108405Y66446429D02*
X3308405Y66446429D01*
X4108405Y66903572D01*
X3308405Y66903572D01*
X4108405Y67284524D02*
X3308405Y67284524D01*
X3308405Y67475000D01*
X3346500Y67589286D01*
X3422690Y67665477D01*
X3498881Y67703572D01*
X3651262Y67741667D01*
X3765548Y67741667D01*
X3917929Y67703572D01*
X3994119Y67665477D01*
X4070310Y67589286D01*
X4108405Y67475000D01*
X4108405Y67284524D01*
X3568833Y64382595D02*
X3835500Y63582595D01*
X4102167Y64382595D01*
X4825976Y63658786D02*
X4787881Y63620690D01*
X4673595Y63582595D01*
X4597405Y63582595D01*
X4483119Y63620690D01*
X4406928Y63696881D01*
X4368833Y63773071D01*
X4330738Y63925452D01*
X4330738Y64039738D01*
X4368833Y64192119D01*
X4406928Y64268310D01*
X4483119Y64344500D01*
X4597405Y64382595D01*
X4673595Y64382595D01*
X4787881Y64344500D01*
X4825976Y64306405D01*
X5625976Y63658786D02*
X5587881Y63620690D01*
X5473595Y63582595D01*
X5397405Y63582595D01*
X5283119Y63620690D01*
X5206928Y63696881D01*
X5168833Y63773071D01*
X5130738Y63925452D01*
X5130738Y64039738D01*
X5168833Y64192119D01*
X5206928Y64268310D01*
X5283119Y64344500D01*
X5397405Y64382595D01*
X5473595Y64382595D01*
X5587881Y64344500D01*
X5625976Y64306405D01*
X3568833Y60128095D02*
X3835500Y59328095D01*
X4102167Y60128095D01*
X4825976Y59404286D02*
X4787881Y59366190D01*
X4673595Y59328095D01*
X4597405Y59328095D01*
X4483119Y59366190D01*
X4406928Y59442381D01*
X4368833Y59518571D01*
X4330738Y59670952D01*
X4330738Y59785238D01*
X4368833Y59937619D01*
X4406928Y60013810D01*
X4483119Y60090000D01*
X4597405Y60128095D01*
X4673595Y60128095D01*
X4787881Y60090000D01*
X4825976Y60051905D01*
X5625976Y59404286D02*
X5587881Y59366190D01*
X5473595Y59328095D01*
X5397405Y59328095D01*
X5283119Y59366190D01*
X5206928Y59442381D01*
X5168833Y59518571D01*
X5130738Y59670952D01*
X5130738Y59785238D01*
X5168833Y59937619D01*
X5206928Y60013810D01*
X5283119Y60090000D01*
X5397405Y60128095D01*
X5473595Y60128095D01*
X5587881Y60090000D01*
X5625976Y60051905D01*
X3994167Y56851595D02*
X3727500Y57232548D01*
X3537024Y56851595D02*
X3537024Y57651595D01*
X3841786Y57651595D01*
X3917977Y57613500D01*
X3956072Y57575405D01*
X3994167Y57499214D01*
X3994167Y57384929D01*
X3956072Y57308738D01*
X3917977Y57270643D01*
X3841786Y57232548D01*
X3537024Y57232548D01*
X4260834Y57651595D02*
X4794167Y56851595D01*
X4794167Y57651595D02*
X4260834Y56851595D01*
X3390976Y55238595D02*
X3848119Y55238595D01*
X3619548Y54438595D02*
X3619548Y55238595D01*
X4038596Y55238595D02*
X4571929Y54438595D01*
X4571929Y55238595D02*
X4038596Y54438595D01*
X3898977Y52597000D02*
X3822786Y52635095D01*
X3708501Y52635095D01*
X3594215Y52597000D01*
X3518024Y52520810D01*
X3479929Y52444619D01*
X3441834Y52292238D01*
X3441834Y52177952D01*
X3479929Y52025571D01*
X3518024Y51949381D01*
X3594215Y51873190D01*
X3708501Y51835095D01*
X3784691Y51835095D01*
X3898977Y51873190D01*
X3937072Y51911286D01*
X3937072Y52177952D01*
X3784691Y52177952D01*
X4279929Y51835095D02*
X4279929Y52635095D01*
X4737072Y51835095D01*
X4737072Y52635095D01*
X5118024Y51835095D02*
X5118024Y52635095D01*
X5308500Y52635095D01*
X5422786Y52597000D01*
X5498977Y52520810D01*
X5537072Y52444619D01*
X5575167Y52292238D01*
X5575167Y52177952D01*
X5537072Y52025571D01*
X5498977Y51949381D01*
X5422786Y51873190D01*
X5308500Y51835095D01*
X5118024Y51835095D01*
D12*
X88900000Y39878000D02*
X88900000Y34798000D01*
X88900000Y34798000D02*
X86360000Y34798000D01*
X86360000Y34798000D02*
X86360000Y39878000D01*
X86360000Y39878000D02*
X88900000Y39878000D01*
X87630000Y39878000D02*
X87630000Y41148000D01*
X87630000Y34798000D02*
X87630000Y33528000D01*
X92202000Y27940000D02*
X92202000Y25400000D01*
X92482000Y30760000D02*
X92482000Y29210000D01*
X92202000Y27940000D02*
X89662000Y27940000D01*
X89382000Y29210000D02*
X89382000Y30760000D01*
X89382000Y30760000D02*
X92482000Y30760000D01*
X89662000Y27940000D02*
X89662000Y25400000D01*
X89662000Y25400000D02*
X92202000Y25400000D01*
X92964000Y33655000D02*
X92964000Y35560000D01*
X92964000Y38100000D02*
X92964000Y37338000D01*
X92964000Y40513000D02*
X92964000Y40640000D01*
X92964000Y40513000D02*
X92964000Y39878000D01*
X92964000Y44323000D02*
X92964000Y42545000D01*
X89281000Y44323000D02*
X89281000Y42672000D01*
X89154000Y40005000D02*
X89154000Y40640000D01*
X89154000Y37465000D02*
X89154000Y38100000D01*
X89281000Y33655000D02*
X89281000Y35306000D01*
X94107000Y40513000D02*
X92964000Y40513000D01*
X94107000Y37465000D02*
X92964000Y37465000D01*
X92964000Y33655000D02*
X89281000Y33655000D01*
X89281000Y44323000D02*
X92964000Y44323000D01*
X94107000Y33655000D02*
X92964000Y33655000D01*
X92964000Y44323000D02*
X94107000Y44323000D01*
X94107000Y38989000D02*
X94107000Y44323000D01*
X94107000Y38989000D02*
X94107000Y33655000D01*
X72875140Y8232140D02*
X72875140Y8933180D01*
X72875140Y8933180D02*
X73675240Y8933180D01*
X69072760Y8232140D02*
X73675240Y8232140D01*
X73675240Y8232140D02*
X73675240Y11833860D01*
X73675240Y11833860D02*
X69072760Y11833860D01*
X69072760Y11833860D02*
X69072760Y8232140D01*
X69872860Y16913860D02*
X69872860Y16212820D01*
X69872860Y16212820D02*
X69072760Y16212820D01*
X73675240Y16913860D02*
X69072760Y16913860D01*
X69072760Y16913860D02*
X69072760Y13312140D01*
X69072760Y13312140D02*
X73675240Y13312140D01*
X73675240Y13312140D02*
X73675240Y16913860D01*
X91711000Y21430000D02*
G75*
G03X91711000Y21430000I-2000000J0D01*
G01*
X93711000Y18930000D02*
X94211000Y18930000D01*
X93711000Y13930000D02*
X94211000Y13930000D01*
X91711000Y16430000D02*
G75*
G03X91711000Y16430000I-2000000J0D01*
G01*
X91711000Y11430000D02*
G75*
G03X91711000Y11430000I-2000000J0D01*
G01*
X92211000Y8930000D02*
X92211000Y23930000D01*
X87311000Y8930000D02*
X87311000Y23930000D01*
X93711000Y8930000D02*
X93711000Y23930000D01*
X94211000Y8930000D02*
X94211000Y23930000D01*
X94211000Y23930000D02*
X84411000Y23930000D01*
X84411000Y23930000D02*
X84411000Y8930000D01*
X84411000Y8930000D02*
X94211000Y8930000D01*
X65938000Y39418260D02*
X65938000Y38417500D01*
X68437360Y41818560D02*
G75*
G03X68437360Y41818560I-2499360J0D01*
G01*
D13*
X63627000Y1524000D02*
X64897000Y1524000D01*
D14*
X64897000Y1524000D02*
X69977000Y1524000D01*
D13*
X69977000Y1524000D02*
X71247000Y1524000D01*
X71247000Y1524000D02*
X71247000Y4064000D01*
X71247000Y4064000D02*
X63627000Y4064000D01*
X63627000Y4064000D02*
X63627000Y1524000D01*
D14*
X64897000Y1524000D02*
G75*
G03X69977000Y1524000I2540000J1693200D01*
G01*
D12*
X63564000Y15113000D02*
X63564000Y7493000D01*
X66104000Y15113000D02*
X66104000Y7493000D01*
X66384000Y17933000D02*
X66384000Y16383000D01*
X63564000Y7493000D02*
X66104000Y7493000D01*
X66104000Y15113000D02*
X63564000Y15113000D01*
X63284000Y16383000D02*
X63284000Y17933000D01*
X63284000Y17933000D02*
X66384000Y17933000D01*
X63576000Y26568400D02*
X63576000Y18948400D01*
X66116000Y26568400D02*
X66116000Y18948400D01*
X66396000Y29388400D02*
X66396000Y27838400D01*
X63576000Y18948400D02*
X66116000Y18948400D01*
X66116000Y26568400D02*
X63576000Y26568400D01*
X63296000Y27838400D02*
X63296000Y29388400D01*
X63296000Y29388400D02*
X66396000Y29388400D01*
X80641000Y23386600D02*
X80641000Y23186600D01*
X80641000Y20792600D02*
X80641000Y20972600D01*
X77413256Y21102957D02*
G75*
G03X80641000Y20786600I1727744J1003643D01*
G01*
X78088994Y20973532D02*
G75*
G03X80192000Y20972600I1052006J1133068D01*
G01*
X80628220Y23413326D02*
G75*
G03X77391000Y23066600I-1497220J-1306726D01*
G01*
X80154889Y23185853D02*
G75*
G03X78107000Y23166600I-1013889J-1079253D01*
G01*
X71319000Y27748000D02*
X71319000Y19750000D01*
X71459000Y27743000D02*
X71459000Y19755000D01*
X71599000Y27733000D02*
X71599000Y19765000D01*
X71739000Y27718000D02*
X71739000Y19780000D01*
X71879000Y27698000D02*
X71879000Y19800000D01*
X72019000Y27673000D02*
X72019000Y23971000D01*
X72019000Y23527000D02*
X72019000Y19825000D01*
X72159000Y27643000D02*
X72159000Y24299000D01*
X72159000Y23199000D02*
X72159000Y19855000D01*
X72299000Y27607000D02*
X72299000Y24468000D01*
X72299000Y23030000D02*
X72299000Y19891000D01*
X72439000Y27566000D02*
X72439000Y24581000D01*
X72439000Y22917000D02*
X72439000Y19932000D01*
X72579000Y27520000D02*
X72579000Y24659000D01*
X72579000Y22839000D02*
X72579000Y19978000D01*
X72719000Y27467000D02*
X72719000Y24710000D01*
X72719000Y22788000D02*
X72719000Y20031000D01*
X72859000Y27408000D02*
X72859000Y24740000D01*
X72859000Y22758000D02*
X72859000Y20090000D01*
X72999000Y27343000D02*
X72999000Y24749000D01*
X72999000Y22749000D02*
X72999000Y20155000D01*
X73139000Y27272000D02*
X73139000Y24738000D01*
X73139000Y22760000D02*
X73139000Y20226000D01*
X73279000Y27193000D02*
X73279000Y24708000D01*
X73279000Y22790000D02*
X73279000Y20305000D01*
X73419000Y27106000D02*
X73419000Y24654000D01*
X73419000Y22844000D02*
X73419000Y20392000D01*
X73559000Y27011000D02*
X73559000Y24574000D01*
X73559000Y22924000D02*
X73559000Y20487000D01*
X73699000Y26907000D02*
X73699000Y24458000D01*
X73699000Y23040000D02*
X73699000Y20591000D01*
X73839000Y26793000D02*
X73839000Y24284000D01*
X73839000Y23214000D02*
X73839000Y20705000D01*
X73979000Y26668000D02*
X73979000Y23922000D01*
X73979000Y23576000D02*
X73979000Y20830000D01*
X74119000Y26530000D02*
X74119000Y20968000D01*
X74259000Y26378000D02*
X74259000Y21120000D01*
X74399000Y26208000D02*
X74399000Y21290000D01*
X74539000Y26017000D02*
X74539000Y21481000D01*
X74679000Y25799000D02*
X74679000Y21699000D01*
X74819000Y25543000D02*
X74819000Y21955000D01*
X74959000Y25232000D02*
X74959000Y22266000D01*
X75099000Y24816000D02*
X75099000Y22682000D01*
X75239000Y23949000D02*
X75239000Y23549000D01*
X73994000Y23749000D02*
G75*
G03X73994000Y23749000I-1000000J0D01*
G01*
X75281500Y23749000D02*
G75*
G03X75281500Y23749000I-4037500J0D01*
G01*
X85879000Y28739200D02*
X67879000Y28739200D01*
X67879000Y28739200D02*
X67879000Y39739200D01*
X67879000Y39739200D02*
X85879000Y39739200D01*
X85879000Y39739200D02*
X85879000Y28739200D01*
D15*
X79629000Y6985000D02*
X75311000Y6985000D01*
X75311000Y889000D02*
X79629000Y889000D01*
X80518000Y4935000D02*
X80518000Y2921000D01*
X74422000Y4965000D02*
X74422000Y2921000D01*
X79248000Y3937000D02*
G75*
G03X79248000Y3937000I-1778000J0D01*
G01*
X91821000Y6922000D02*
X87503000Y6922000D01*
X87503000Y826000D02*
X91821000Y826000D01*
X92710000Y4872000D02*
X92710000Y2858000D01*
X86614000Y4902000D02*
X86614000Y2858000D01*
X91440000Y3874000D02*
G75*
G03X91440000Y3874000I-1778000J0D01*
G01*
D12*
X88900000Y84582000D02*
X88900000Y79502000D01*
X88900000Y79502000D02*
X86360000Y79502000D01*
X86360000Y79502000D02*
X86360000Y84582000D01*
X86360000Y84582000D02*
X88900000Y84582000D01*
X87630000Y84582000D02*
X87630000Y85852000D01*
X87630000Y79502000D02*
X87630000Y78232000D01*
X92202000Y72644000D02*
X92202000Y70104000D01*
X92482000Y75464000D02*
X92482000Y73914000D01*
X92202000Y72644000D02*
X89662000Y72644000D01*
X89382000Y73914000D02*
X89382000Y75464000D01*
X89382000Y75464000D02*
X92482000Y75464000D01*
X89662000Y72644000D02*
X89662000Y70104000D01*
X89662000Y70104000D02*
X92202000Y70104000D01*
X92964000Y78359000D02*
X92964000Y80264000D01*
X92964000Y82804000D02*
X92964000Y82042000D01*
X92964000Y85217000D02*
X92964000Y85344000D01*
X92964000Y85217000D02*
X92964000Y84582000D01*
X92964000Y89027000D02*
X92964000Y87249000D01*
X89281000Y89027000D02*
X89281000Y87376000D01*
X89154000Y84709000D02*
X89154000Y85344000D01*
X89154000Y82169000D02*
X89154000Y82804000D01*
X89281000Y78359000D02*
X89281000Y80010000D01*
X94107000Y85217000D02*
X92964000Y85217000D01*
X94107000Y82169000D02*
X92964000Y82169000D01*
X92964000Y78359000D02*
X89281000Y78359000D01*
X89281000Y89027000D02*
X92964000Y89027000D01*
X94107000Y78359000D02*
X92964000Y78359000D01*
X92964000Y89027000D02*
X94107000Y89027000D01*
X94107000Y83693000D02*
X94107000Y89027000D01*
X94107000Y83693000D02*
X94107000Y78359000D01*
X72875140Y52936140D02*
X72875140Y53637180D01*
X72875140Y53637180D02*
X73675240Y53637180D01*
X69072760Y52936140D02*
X73675240Y52936140D01*
X73675240Y52936140D02*
X73675240Y56537860D01*
X73675240Y56537860D02*
X69072760Y56537860D01*
X69072760Y56537860D02*
X69072760Y52936140D01*
X69872860Y61617860D02*
X69872860Y60916820D01*
X69872860Y60916820D02*
X69072760Y60916820D01*
X73675240Y61617860D02*
X69072760Y61617860D01*
X69072760Y61617860D02*
X69072760Y58016140D01*
X69072760Y58016140D02*
X73675240Y58016140D01*
X73675240Y58016140D02*
X73675240Y61617860D01*
X91711000Y66134000D02*
G75*
G03X91711000Y66134000I-2000000J0D01*
G01*
X93711000Y63634000D02*
X94211000Y63634000D01*
X93711000Y58634000D02*
X94211000Y58634000D01*
X91711000Y61134000D02*
G75*
G03X91711000Y61134000I-2000000J0D01*
G01*
X91711000Y56134000D02*
G75*
G03X91711000Y56134000I-2000000J0D01*
G01*
X92211000Y53634000D02*
X92211000Y68634000D01*
X87311000Y53634000D02*
X87311000Y68634000D01*
X93711000Y53634000D02*
X93711000Y68634000D01*
X94211000Y53634000D02*
X94211000Y68634000D01*
X94211000Y68634000D02*
X84411000Y68634000D01*
X84411000Y68634000D02*
X84411000Y53634000D01*
X84411000Y53634000D02*
X94211000Y53634000D01*
X65938000Y84122260D02*
X65938000Y83121500D01*
X68437360Y86522560D02*
G75*
G03X68437360Y86522560I-2499360J0D01*
G01*
D13*
X63627000Y46228000D02*
X64897000Y46228000D01*
D14*
X64897000Y46228000D02*
X69977000Y46228000D01*
D13*
X69977000Y46228000D02*
X71247000Y46228000D01*
X71247000Y46228000D02*
X71247000Y48768000D01*
X71247000Y48768000D02*
X63627000Y48768000D01*
X63627000Y48768000D02*
X63627000Y46228000D01*
D14*
X64897000Y46228000D02*
G75*
G03X69977000Y46228000I2540000J1693200D01*
G01*
D12*
X63564000Y59817000D02*
X63564000Y52197000D01*
X66104000Y59817000D02*
X66104000Y52197000D01*
X66384000Y62637000D02*
X66384000Y61087000D01*
X63564000Y52197000D02*
X66104000Y52197000D01*
X66104000Y59817000D02*
X63564000Y59817000D01*
X63284000Y61087000D02*
X63284000Y62637000D01*
X63284000Y62637000D02*
X66384000Y62637000D01*
X63576000Y71272400D02*
X63576000Y63652400D01*
X66116000Y71272400D02*
X66116000Y63652400D01*
X66396000Y74092400D02*
X66396000Y72542400D01*
X63576000Y63652400D02*
X66116000Y63652400D01*
X66116000Y71272400D02*
X63576000Y71272400D01*
X63296000Y72542400D02*
X63296000Y74092400D01*
X63296000Y74092400D02*
X66396000Y74092400D01*
X80641000Y68090600D02*
X80641000Y67890600D01*
X80641000Y65496600D02*
X80641000Y65676600D01*
X77413256Y65806957D02*
G75*
G03X80641000Y65490600I1727744J1003643D01*
G01*
X78088994Y65677532D02*
G75*
G03X80192000Y65676600I1052006J1133068D01*
G01*
X80628220Y68117326D02*
G75*
G03X77391000Y67770600I-1497220J-1306726D01*
G01*
X80154889Y67889853D02*
G75*
G03X78107000Y67870600I-1013889J-1079253D01*
G01*
X71319000Y72452000D02*
X71319000Y64454000D01*
X71459000Y72447000D02*
X71459000Y64459000D01*
X71599000Y72437000D02*
X71599000Y64469000D01*
X71739000Y72422000D02*
X71739000Y64484000D01*
X71879000Y72402000D02*
X71879000Y64504000D01*
X72019000Y72377000D02*
X72019000Y68675000D01*
X72019000Y68231000D02*
X72019000Y64529000D01*
X72159000Y72347000D02*
X72159000Y69003000D01*
X72159000Y67903000D02*
X72159000Y64559000D01*
X72299000Y72311000D02*
X72299000Y69172000D01*
X72299000Y67734000D02*
X72299000Y64595000D01*
X72439000Y72270000D02*
X72439000Y69285000D01*
X72439000Y67621000D02*
X72439000Y64636000D01*
X72579000Y72224000D02*
X72579000Y69363000D01*
X72579000Y67543000D02*
X72579000Y64682000D01*
X72719000Y72171000D02*
X72719000Y69414000D01*
X72719000Y67492000D02*
X72719000Y64735000D01*
X72859000Y72112000D02*
X72859000Y69444000D01*
X72859000Y67462000D02*
X72859000Y64794000D01*
X72999000Y72047000D02*
X72999000Y69453000D01*
X72999000Y67453000D02*
X72999000Y64859000D01*
X73139000Y71976000D02*
X73139000Y69442000D01*
X73139000Y67464000D02*
X73139000Y64930000D01*
X73279000Y71897000D02*
X73279000Y69412000D01*
X73279000Y67494000D02*
X73279000Y65009000D01*
X73419000Y71810000D02*
X73419000Y69358000D01*
X73419000Y67548000D02*
X73419000Y65096000D01*
X73559000Y71715000D02*
X73559000Y69278000D01*
X73559000Y67628000D02*
X73559000Y65191000D01*
X73699000Y71611000D02*
X73699000Y69162000D01*
X73699000Y67744000D02*
X73699000Y65295000D01*
X73839000Y71497000D02*
X73839000Y68988000D01*
X73839000Y67918000D02*
X73839000Y65409000D01*
X73979000Y71372000D02*
X73979000Y68626000D01*
X73979000Y68280000D02*
X73979000Y65534000D01*
X74119000Y71234000D02*
X74119000Y65672000D01*
X74259000Y71082000D02*
X74259000Y65824000D01*
X74399000Y70912000D02*
X74399000Y65994000D01*
X74539000Y70721000D02*
X74539000Y66185000D01*
X74679000Y70503000D02*
X74679000Y66403000D01*
X74819000Y70247000D02*
X74819000Y66659000D01*
X74959000Y69936000D02*
X74959000Y66970000D01*
X75099000Y69520000D02*
X75099000Y67386000D01*
X75239000Y68653000D02*
X75239000Y68253000D01*
X73994000Y68453000D02*
G75*
G03X73994000Y68453000I-1000000J0D01*
G01*
X75281500Y68453000D02*
G75*
G03X75281500Y68453000I-4037500J0D01*
G01*
X85879000Y73443200D02*
X67879000Y73443200D01*
X67879000Y73443200D02*
X67879000Y84443200D01*
X67879000Y84443200D02*
X85879000Y84443200D01*
X85879000Y84443200D02*
X85879000Y73443200D01*
D15*
X79629000Y51689000D02*
X75311000Y51689000D01*
X75311000Y45593000D02*
X79629000Y45593000D01*
X80518000Y49639000D02*
X80518000Y47625000D01*
X74422000Y49669000D02*
X74422000Y47625000D01*
X79248000Y48641000D02*
G75*
G03X79248000Y48641000I-1778000J0D01*
G01*
X91821000Y51626000D02*
X87503000Y51626000D01*
X87503000Y45530000D02*
X91821000Y45530000D01*
X92710000Y49576000D02*
X92710000Y47562000D01*
X86614000Y49606000D02*
X86614000Y47562000D01*
X91440000Y48578000D02*
G75*
G03X91440000Y48578000I-1778000J0D01*
G01*
D12*
X57404000Y39878000D02*
X57404000Y34798000D01*
X57404000Y34798000D02*
X54864000Y34798000D01*
X54864000Y34798000D02*
X54864000Y39878000D01*
X54864000Y39878000D02*
X57404000Y39878000D01*
X56134000Y39878000D02*
X56134000Y41148000D01*
X56134000Y34798000D02*
X56134000Y33528000D01*
X60706000Y27940000D02*
X60706000Y25400000D01*
X60986000Y30760000D02*
X60986000Y29210000D01*
X60706000Y27940000D02*
X58166000Y27940000D01*
X57886000Y29210000D02*
X57886000Y30760000D01*
X57886000Y30760000D02*
X60986000Y30760000D01*
X58166000Y27940000D02*
X58166000Y25400000D01*
X58166000Y25400000D02*
X60706000Y25400000D01*
X61468000Y33655000D02*
X61468000Y35560000D01*
X61468000Y38100000D02*
X61468000Y37338000D01*
X61468000Y40513000D02*
X61468000Y40640000D01*
X61468000Y40513000D02*
X61468000Y39878000D01*
X61468000Y44323000D02*
X61468000Y42545000D01*
X57785000Y44323000D02*
X57785000Y42672000D01*
X57658000Y40005000D02*
X57658000Y40640000D01*
X57658000Y37465000D02*
X57658000Y38100000D01*
X57785000Y33655000D02*
X57785000Y35306000D01*
X62611000Y40513000D02*
X61468000Y40513000D01*
X62611000Y37465000D02*
X61468000Y37465000D01*
X61468000Y33655000D02*
X57785000Y33655000D01*
X57785000Y44323000D02*
X61468000Y44323000D01*
X62611000Y33655000D02*
X61468000Y33655000D01*
X61468000Y44323000D02*
X62611000Y44323000D01*
X62611000Y38989000D02*
X62611000Y44323000D01*
X62611000Y38989000D02*
X62611000Y33655000D01*
X41379140Y8232140D02*
X41379140Y8933180D01*
X41379140Y8933180D02*
X42179240Y8933180D01*
X37576760Y8232140D02*
X42179240Y8232140D01*
X42179240Y8232140D02*
X42179240Y11833860D01*
X42179240Y11833860D02*
X37576760Y11833860D01*
X37576760Y11833860D02*
X37576760Y8232140D01*
X38376860Y16913860D02*
X38376860Y16212820D01*
X38376860Y16212820D02*
X37576760Y16212820D01*
X42179240Y16913860D02*
X37576760Y16913860D01*
X37576760Y16913860D02*
X37576760Y13312140D01*
X37576760Y13312140D02*
X42179240Y13312140D01*
X42179240Y13312140D02*
X42179240Y16913860D01*
X60215000Y21430000D02*
G75*
G03X60215000Y21430000I-2000000J0D01*
G01*
X62215000Y18930000D02*
X62715000Y18930000D01*
X62215000Y13930000D02*
X62715000Y13930000D01*
X60215000Y16430000D02*
G75*
G03X60215000Y16430000I-2000000J0D01*
G01*
X60215000Y11430000D02*
G75*
G03X60215000Y11430000I-2000000J0D01*
G01*
X60715000Y8930000D02*
X60715000Y23930000D01*
X55815000Y8930000D02*
X55815000Y23930000D01*
X62215000Y8930000D02*
X62215000Y23930000D01*
X62715000Y8930000D02*
X62715000Y23930000D01*
X62715000Y23930000D02*
X52915000Y23930000D01*
X52915000Y23930000D02*
X52915000Y8930000D01*
X52915000Y8930000D02*
X62715000Y8930000D01*
X34442000Y39418260D02*
X34442000Y38417500D01*
X36941360Y41818560D02*
G75*
G03X36941360Y41818560I-2499360J0D01*
G01*
D13*
X32131000Y1524000D02*
X33401000Y1524000D01*
D14*
X33401000Y1524000D02*
X38481000Y1524000D01*
D13*
X38481000Y1524000D02*
X39751000Y1524000D01*
X39751000Y1524000D02*
X39751000Y4064000D01*
X39751000Y4064000D02*
X32131000Y4064000D01*
X32131000Y4064000D02*
X32131000Y1524000D01*
D14*
X33401000Y1524000D02*
G75*
G03X38481000Y1524000I2540000J1693200D01*
G01*
D12*
X32068000Y15113000D02*
X32068000Y7493000D01*
X34608000Y15113000D02*
X34608000Y7493000D01*
X34888000Y17933000D02*
X34888000Y16383000D01*
X32068000Y7493000D02*
X34608000Y7493000D01*
X34608000Y15113000D02*
X32068000Y15113000D01*
X31788000Y16383000D02*
X31788000Y17933000D01*
X31788000Y17933000D02*
X34888000Y17933000D01*
X32080000Y26568400D02*
X32080000Y18948400D01*
X34620000Y26568400D02*
X34620000Y18948400D01*
X34900000Y29388400D02*
X34900000Y27838400D01*
X32080000Y18948400D02*
X34620000Y18948400D01*
X34620000Y26568400D02*
X32080000Y26568400D01*
X31800000Y27838400D02*
X31800000Y29388400D01*
X31800000Y29388400D02*
X34900000Y29388400D01*
X49145000Y23386600D02*
X49145000Y23186600D01*
X49145000Y20792600D02*
X49145000Y20972600D01*
X45917256Y21102957D02*
G75*
G03X49145000Y20786600I1727744J1003643D01*
G01*
X46592994Y20973532D02*
G75*
G03X48696000Y20972600I1052006J1133068D01*
G01*
X49132220Y23413326D02*
G75*
G03X45895000Y23066600I-1497220J-1306726D01*
G01*
X48658889Y23185853D02*
G75*
G03X46611000Y23166600I-1013889J-1079253D01*
G01*
X39823000Y27748000D02*
X39823000Y19750000D01*
X39963000Y27743000D02*
X39963000Y19755000D01*
X40103000Y27733000D02*
X40103000Y19765000D01*
X40243000Y27718000D02*
X40243000Y19780000D01*
X40383000Y27698000D02*
X40383000Y19800000D01*
X40523000Y27673000D02*
X40523000Y23971000D01*
X40523000Y23527000D02*
X40523000Y19825000D01*
X40663000Y27643000D02*
X40663000Y24299000D01*
X40663000Y23199000D02*
X40663000Y19855000D01*
X40803000Y27607000D02*
X40803000Y24468000D01*
X40803000Y23030000D02*
X40803000Y19891000D01*
X40943000Y27566000D02*
X40943000Y24581000D01*
X40943000Y22917000D02*
X40943000Y19932000D01*
X41083000Y27520000D02*
X41083000Y24659000D01*
X41083000Y22839000D02*
X41083000Y19978000D01*
X41223000Y27467000D02*
X41223000Y24710000D01*
X41223000Y22788000D02*
X41223000Y20031000D01*
X41363000Y27408000D02*
X41363000Y24740000D01*
X41363000Y22758000D02*
X41363000Y20090000D01*
X41503000Y27343000D02*
X41503000Y24749000D01*
X41503000Y22749000D02*
X41503000Y20155000D01*
X41643000Y27272000D02*
X41643000Y24738000D01*
X41643000Y22760000D02*
X41643000Y20226000D01*
X41783000Y27193000D02*
X41783000Y24708000D01*
X41783000Y22790000D02*
X41783000Y20305000D01*
X41923000Y27106000D02*
X41923000Y24654000D01*
X41923000Y22844000D02*
X41923000Y20392000D01*
X42063000Y27011000D02*
X42063000Y24574000D01*
X42063000Y22924000D02*
X42063000Y20487000D01*
X42203000Y26907000D02*
X42203000Y24458000D01*
X42203000Y23040000D02*
X42203000Y20591000D01*
X42343000Y26793000D02*
X42343000Y24284000D01*
X42343000Y23214000D02*
X42343000Y20705000D01*
X42483000Y26668000D02*
X42483000Y23922000D01*
X42483000Y23576000D02*
X42483000Y20830000D01*
X42623000Y26530000D02*
X42623000Y20968000D01*
X42763000Y26378000D02*
X42763000Y21120000D01*
X42903000Y26208000D02*
X42903000Y21290000D01*
X43043000Y26017000D02*
X43043000Y21481000D01*
X43183000Y25799000D02*
X43183000Y21699000D01*
X43323000Y25543000D02*
X43323000Y21955000D01*
X43463000Y25232000D02*
X43463000Y22266000D01*
X43603000Y24816000D02*
X43603000Y22682000D01*
X43743000Y23949000D02*
X43743000Y23549000D01*
X42498000Y23749000D02*
G75*
G03X42498000Y23749000I-1000000J0D01*
G01*
X43785500Y23749000D02*
G75*
G03X43785500Y23749000I-4037500J0D01*
G01*
X54383000Y28739200D02*
X36383000Y28739200D01*
X36383000Y28739200D02*
X36383000Y39739200D01*
X36383000Y39739200D02*
X54383000Y39739200D01*
X54383000Y39739200D02*
X54383000Y28739200D01*
D15*
X48133000Y6985000D02*
X43815000Y6985000D01*
X43815000Y889000D02*
X48133000Y889000D01*
X49022000Y4935000D02*
X49022000Y2921000D01*
X42926000Y4965000D02*
X42926000Y2921000D01*
X47752000Y3937000D02*
G75*
G03X47752000Y3937000I-1778000J0D01*
G01*
X60325000Y6922000D02*
X56007000Y6922000D01*
X56007000Y826000D02*
X60325000Y826000D01*
X61214000Y4872000D02*
X61214000Y2858000D01*
X55118000Y4902000D02*
X55118000Y2858000D01*
X59944000Y3874000D02*
G75*
G03X59944000Y3874000I-1778000J0D01*
G01*
D12*
X57404000Y84582000D02*
X57404000Y79502000D01*
X57404000Y79502000D02*
X54864000Y79502000D01*
X54864000Y79502000D02*
X54864000Y84582000D01*
X54864000Y84582000D02*
X57404000Y84582000D01*
X56134000Y84582000D02*
X56134000Y85852000D01*
X56134000Y79502000D02*
X56134000Y78232000D01*
X60706000Y72644000D02*
X60706000Y70104000D01*
X60986000Y75464000D02*
X60986000Y73914000D01*
X60706000Y72644000D02*
X58166000Y72644000D01*
X57886000Y73914000D02*
X57886000Y75464000D01*
X57886000Y75464000D02*
X60986000Y75464000D01*
X58166000Y72644000D02*
X58166000Y70104000D01*
X58166000Y70104000D02*
X60706000Y70104000D01*
X61468000Y78359000D02*
X61468000Y80264000D01*
X61468000Y82804000D02*
X61468000Y82042000D01*
X61468000Y85217000D02*
X61468000Y85344000D01*
X61468000Y85217000D02*
X61468000Y84582000D01*
X61468000Y89027000D02*
X61468000Y87249000D01*
X57785000Y89027000D02*
X57785000Y87376000D01*
X57658000Y84709000D02*
X57658000Y85344000D01*
X57658000Y82169000D02*
X57658000Y82804000D01*
X57785000Y78359000D02*
X57785000Y80010000D01*
X62611000Y85217000D02*
X61468000Y85217000D01*
X62611000Y82169000D02*
X61468000Y82169000D01*
X61468000Y78359000D02*
X57785000Y78359000D01*
X57785000Y89027000D02*
X61468000Y89027000D01*
X62611000Y78359000D02*
X61468000Y78359000D01*
X61468000Y89027000D02*
X62611000Y89027000D01*
X62611000Y83693000D02*
X62611000Y89027000D01*
X62611000Y83693000D02*
X62611000Y78359000D01*
X41379140Y52936140D02*
X41379140Y53637180D01*
X41379140Y53637180D02*
X42179240Y53637180D01*
X37576760Y52936140D02*
X42179240Y52936140D01*
X42179240Y52936140D02*
X42179240Y56537860D01*
X42179240Y56537860D02*
X37576760Y56537860D01*
X37576760Y56537860D02*
X37576760Y52936140D01*
X38376860Y61617860D02*
X38376860Y60916820D01*
X38376860Y60916820D02*
X37576760Y60916820D01*
X42179240Y61617860D02*
X37576760Y61617860D01*
X37576760Y61617860D02*
X37576760Y58016140D01*
X37576760Y58016140D02*
X42179240Y58016140D01*
X42179240Y58016140D02*
X42179240Y61617860D01*
X60215000Y66134000D02*
G75*
G03X60215000Y66134000I-2000000J0D01*
G01*
X62215000Y63634000D02*
X62715000Y63634000D01*
X62215000Y58634000D02*
X62715000Y58634000D01*
X60215000Y61134000D02*
G75*
G03X60215000Y61134000I-2000000J0D01*
G01*
X60215000Y56134000D02*
G75*
G03X60215000Y56134000I-2000000J0D01*
G01*
X60715000Y53634000D02*
X60715000Y68634000D01*
X55815000Y53634000D02*
X55815000Y68634000D01*
X62215000Y53634000D02*
X62215000Y68634000D01*
X62715000Y53634000D02*
X62715000Y68634000D01*
X62715000Y68634000D02*
X52915000Y68634000D01*
X52915000Y68634000D02*
X52915000Y53634000D01*
X52915000Y53634000D02*
X62715000Y53634000D01*
X34442000Y84122260D02*
X34442000Y83121500D01*
X36941360Y86522560D02*
G75*
G03X36941360Y86522560I-2499360J0D01*
G01*
D13*
X32131000Y46228000D02*
X33401000Y46228000D01*
D14*
X33401000Y46228000D02*
X38481000Y46228000D01*
D13*
X38481000Y46228000D02*
X39751000Y46228000D01*
X39751000Y46228000D02*
X39751000Y48768000D01*
X39751000Y48768000D02*
X32131000Y48768000D01*
X32131000Y48768000D02*
X32131000Y46228000D01*
D14*
X33401000Y46228000D02*
G75*
G03X38481000Y46228000I2540000J1693200D01*
G01*
D12*
X32068000Y59817000D02*
X32068000Y52197000D01*
X34608000Y59817000D02*
X34608000Y52197000D01*
X34888000Y62637000D02*
X34888000Y61087000D01*
X32068000Y52197000D02*
X34608000Y52197000D01*
X34608000Y59817000D02*
X32068000Y59817000D01*
X31788000Y61087000D02*
X31788000Y62637000D01*
X31788000Y62637000D02*
X34888000Y62637000D01*
X32080000Y71272400D02*
X32080000Y63652400D01*
X34620000Y71272400D02*
X34620000Y63652400D01*
X34900000Y74092400D02*
X34900000Y72542400D01*
X32080000Y63652400D02*
X34620000Y63652400D01*
X34620000Y71272400D02*
X32080000Y71272400D01*
X31800000Y72542400D02*
X31800000Y74092400D01*
X31800000Y74092400D02*
X34900000Y74092400D01*
X49145000Y68090600D02*
X49145000Y67890600D01*
X49145000Y65496600D02*
X49145000Y65676600D01*
X45917256Y65806957D02*
G75*
G03X49145000Y65490600I1727744J1003643D01*
G01*
X46592994Y65677532D02*
G75*
G03X48696000Y65676600I1052006J1133068D01*
G01*
X49132220Y68117326D02*
G75*
G03X45895000Y67770600I-1497220J-1306726D01*
G01*
X48658889Y67889853D02*
G75*
G03X46611000Y67870600I-1013889J-1079253D01*
G01*
X39823000Y72452000D02*
X39823000Y64454000D01*
X39963000Y72447000D02*
X39963000Y64459000D01*
X40103000Y72437000D02*
X40103000Y64469000D01*
X40243000Y72422000D02*
X40243000Y64484000D01*
X40383000Y72402000D02*
X40383000Y64504000D01*
X40523000Y72377000D02*
X40523000Y68675000D01*
X40523000Y68231000D02*
X40523000Y64529000D01*
X40663000Y72347000D02*
X40663000Y69003000D01*
X40663000Y67903000D02*
X40663000Y64559000D01*
X40803000Y72311000D02*
X40803000Y69172000D01*
X40803000Y67734000D02*
X40803000Y64595000D01*
X40943000Y72270000D02*
X40943000Y69285000D01*
X40943000Y67621000D02*
X40943000Y64636000D01*
X41083000Y72224000D02*
X41083000Y69363000D01*
X41083000Y67543000D02*
X41083000Y64682000D01*
X41223000Y72171000D02*
X41223000Y69414000D01*
X41223000Y67492000D02*
X41223000Y64735000D01*
X41363000Y72112000D02*
X41363000Y69444000D01*
X41363000Y67462000D02*
X41363000Y64794000D01*
X41503000Y72047000D02*
X41503000Y69453000D01*
X41503000Y67453000D02*
X41503000Y64859000D01*
X41643000Y71976000D02*
X41643000Y69442000D01*
X41643000Y67464000D02*
X41643000Y64930000D01*
X41783000Y71897000D02*
X41783000Y69412000D01*
X41783000Y67494000D02*
X41783000Y65009000D01*
X41923000Y71810000D02*
X41923000Y69358000D01*
X41923000Y67548000D02*
X41923000Y65096000D01*
X42063000Y71715000D02*
X42063000Y69278000D01*
X42063000Y67628000D02*
X42063000Y65191000D01*
X42203000Y71611000D02*
X42203000Y69162000D01*
X42203000Y67744000D02*
X42203000Y65295000D01*
X42343000Y71497000D02*
X42343000Y68988000D01*
X42343000Y67918000D02*
X42343000Y65409000D01*
X42483000Y71372000D02*
X42483000Y68626000D01*
X42483000Y68280000D02*
X42483000Y65534000D01*
X42623000Y71234000D02*
X42623000Y65672000D01*
X42763000Y71082000D02*
X42763000Y65824000D01*
X42903000Y70912000D02*
X42903000Y65994000D01*
X43043000Y70721000D02*
X43043000Y66185000D01*
X43183000Y70503000D02*
X43183000Y66403000D01*
X43323000Y70247000D02*
X43323000Y66659000D01*
X43463000Y69936000D02*
X43463000Y66970000D01*
X43603000Y69520000D02*
X43603000Y67386000D01*
X43743000Y68653000D02*
X43743000Y68253000D01*
X42498000Y68453000D02*
G75*
G03X42498000Y68453000I-1000000J0D01*
G01*
X43785500Y68453000D02*
G75*
G03X43785500Y68453000I-4037500J0D01*
G01*
X54383000Y73443200D02*
X36383000Y73443200D01*
X36383000Y73443200D02*
X36383000Y84443200D01*
X36383000Y84443200D02*
X54383000Y84443200D01*
X54383000Y84443200D02*
X54383000Y73443200D01*
D15*
X48133000Y51689000D02*
X43815000Y51689000D01*
X43815000Y45593000D02*
X48133000Y45593000D01*
X49022000Y49639000D02*
X49022000Y47625000D01*
X42926000Y49669000D02*
X42926000Y47625000D01*
X47752000Y48641000D02*
G75*
G03X47752000Y48641000I-1778000J0D01*
G01*
X60325000Y51626000D02*
X56007000Y51626000D01*
X56007000Y45530000D02*
X60325000Y45530000D01*
X61214000Y49576000D02*
X61214000Y47562000D01*
X55118000Y49606000D02*
X55118000Y47562000D01*
X59944000Y48578000D02*
G75*
G03X59944000Y48578000I-1778000J0D01*
G01*
D12*
X25908000Y39878000D02*
X25908000Y34798000D01*
X25908000Y34798000D02*
X23368000Y34798000D01*
X23368000Y34798000D02*
X23368000Y39878000D01*
X23368000Y39878000D02*
X25908000Y39878000D01*
X24638000Y39878000D02*
X24638000Y41148000D01*
X24638000Y34798000D02*
X24638000Y33528000D01*
X29210000Y27940000D02*
X29210000Y25400000D01*
X29490000Y30760000D02*
X29490000Y29210000D01*
X29210000Y27940000D02*
X26670000Y27940000D01*
X26390000Y29210000D02*
X26390000Y30760000D01*
X26390000Y30760000D02*
X29490000Y30760000D01*
X26670000Y27940000D02*
X26670000Y25400000D01*
X26670000Y25400000D02*
X29210000Y25400000D01*
X29972000Y33655000D02*
X29972000Y35560000D01*
X29972000Y38100000D02*
X29972000Y37338000D01*
X29972000Y40513000D02*
X29972000Y40640000D01*
X29972000Y40513000D02*
X29972000Y39878000D01*
X29972000Y44323000D02*
X29972000Y42545000D01*
X26289000Y44323000D02*
X26289000Y42672000D01*
X26162000Y40005000D02*
X26162000Y40640000D01*
X26162000Y37465000D02*
X26162000Y38100000D01*
X26289000Y33655000D02*
X26289000Y35306000D01*
X31115000Y40513000D02*
X29972000Y40513000D01*
X31115000Y37465000D02*
X29972000Y37465000D01*
X29972000Y33655000D02*
X26289000Y33655000D01*
X26289000Y44323000D02*
X29972000Y44323000D01*
X31115000Y33655000D02*
X29972000Y33655000D01*
X29972000Y44323000D02*
X31115000Y44323000D01*
X31115000Y38989000D02*
X31115000Y44323000D01*
X31115000Y38989000D02*
X31115000Y33655000D01*
X9883140Y8232140D02*
X9883140Y8933180D01*
X9883140Y8933180D02*
X10683240Y8933180D01*
X6080760Y8232140D02*
X10683240Y8232140D01*
X10683240Y8232140D02*
X10683240Y11833860D01*
X10683240Y11833860D02*
X6080760Y11833860D01*
X6080760Y11833860D02*
X6080760Y8232140D01*
X6880860Y16913860D02*
X6880860Y16212820D01*
X6880860Y16212820D02*
X6080760Y16212820D01*
X10683240Y16913860D02*
X6080760Y16913860D01*
X6080760Y16913860D02*
X6080760Y13312140D01*
X6080760Y13312140D02*
X10683240Y13312140D01*
X10683240Y13312140D02*
X10683240Y16913860D01*
X28719000Y21430000D02*
G75*
G03X28719000Y21430000I-2000000J0D01*
G01*
X30719000Y18930000D02*
X31219000Y18930000D01*
X30719000Y13930000D02*
X31219000Y13930000D01*
X28719000Y16430000D02*
G75*
G03X28719000Y16430000I-2000000J0D01*
G01*
X28719000Y11430000D02*
G75*
G03X28719000Y11430000I-2000000J0D01*
G01*
X29219000Y8930000D02*
X29219000Y23930000D01*
X24319000Y8930000D02*
X24319000Y23930000D01*
X30719000Y8930000D02*
X30719000Y23930000D01*
X31219000Y8930000D02*
X31219000Y23930000D01*
X31219000Y23930000D02*
X21419000Y23930000D01*
X21419000Y23930000D02*
X21419000Y8930000D01*
X21419000Y8930000D02*
X31219000Y8930000D01*
X2946000Y39418260D02*
X2946000Y38417500D01*
X5445360Y41818560D02*
G75*
G03X5445360Y41818560I-2499360J0D01*
G01*
D13*
X635000Y1524000D02*
X1905000Y1524000D01*
D14*
X1905000Y1524000D02*
X6985000Y1524000D01*
D13*
X6985000Y1524000D02*
X8255000Y1524000D01*
X8255000Y1524000D02*
X8255000Y4064000D01*
X8255000Y4064000D02*
X635000Y4064000D01*
X635000Y4064000D02*
X635000Y1524000D01*
D14*
X1905000Y1524000D02*
G75*
G03X6985000Y1524000I2540000J1693200D01*
G01*
D12*
X572000Y15113000D02*
X572000Y7493000D01*
X3112000Y15113000D02*
X3112000Y7493000D01*
X3392000Y17933000D02*
X3392000Y16383000D01*
X572000Y7493000D02*
X3112000Y7493000D01*
X3112000Y15113000D02*
X572000Y15113000D01*
X292000Y16383000D02*
X292000Y17933000D01*
X292000Y17933000D02*
X3392000Y17933000D01*
X584000Y26568400D02*
X584000Y18948400D01*
X3124000Y26568400D02*
X3124000Y18948400D01*
X3404000Y29388400D02*
X3404000Y27838400D01*
X584000Y18948400D02*
X3124000Y18948400D01*
X3124000Y26568400D02*
X584000Y26568400D01*
X304000Y27838400D02*
X304000Y29388400D01*
X304000Y29388400D02*
X3404000Y29388400D01*
X17649000Y23386600D02*
X17649000Y23186600D01*
X17649000Y20792600D02*
X17649000Y20972600D01*
X14421256Y21102957D02*
G75*
G03X17649000Y20786600I1727744J1003643D01*
G01*
X15096994Y20973532D02*
G75*
G03X17200000Y20972600I1052006J1133068D01*
G01*
X17636220Y23413326D02*
G75*
G03X14399000Y23066600I-1497220J-1306726D01*
G01*
X17162889Y23185853D02*
G75*
G03X15115000Y23166600I-1013889J-1079253D01*
G01*
X8327000Y27748000D02*
X8327000Y19750000D01*
X8467000Y27743000D02*
X8467000Y19755000D01*
X8607000Y27733000D02*
X8607000Y19765000D01*
X8747000Y27718000D02*
X8747000Y19780000D01*
X8887000Y27698000D02*
X8887000Y19800000D01*
X9027000Y27673000D02*
X9027000Y23971000D01*
X9027000Y23527000D02*
X9027000Y19825000D01*
X9167000Y27643000D02*
X9167000Y24299000D01*
X9167000Y23199000D02*
X9167000Y19855000D01*
X9307000Y27607000D02*
X9307000Y24468000D01*
X9307000Y23030000D02*
X9307000Y19891000D01*
X9447000Y27566000D02*
X9447000Y24581000D01*
X9447000Y22917000D02*
X9447000Y19932000D01*
X9587000Y27520000D02*
X9587000Y24659000D01*
X9587000Y22839000D02*
X9587000Y19978000D01*
X9727000Y27467000D02*
X9727000Y24710000D01*
X9727000Y22788000D02*
X9727000Y20031000D01*
X9867000Y27408000D02*
X9867000Y24740000D01*
X9867000Y22758000D02*
X9867000Y20090000D01*
X10007000Y27343000D02*
X10007000Y24749000D01*
X10007000Y22749000D02*
X10007000Y20155000D01*
X10147000Y27272000D02*
X10147000Y24738000D01*
X10147000Y22760000D02*
X10147000Y20226000D01*
X10287000Y27193000D02*
X10287000Y24708000D01*
X10287000Y22790000D02*
X10287000Y20305000D01*
X10427000Y27106000D02*
X10427000Y24654000D01*
X10427000Y22844000D02*
X10427000Y20392000D01*
X10567000Y27011000D02*
X10567000Y24574000D01*
X10567000Y22924000D02*
X10567000Y20487000D01*
X10707000Y26907000D02*
X10707000Y24458000D01*
X10707000Y23040000D02*
X10707000Y20591000D01*
X10847000Y26793000D02*
X10847000Y24284000D01*
X10847000Y23214000D02*
X10847000Y20705000D01*
X10987000Y26668000D02*
X10987000Y23922000D01*
X10987000Y23576000D02*
X10987000Y20830000D01*
X11127000Y26530000D02*
X11127000Y20968000D01*
X11267000Y26378000D02*
X11267000Y21120000D01*
X11407000Y26208000D02*
X11407000Y21290000D01*
X11547000Y26017000D02*
X11547000Y21481000D01*
X11687000Y25799000D02*
X11687000Y21699000D01*
X11827000Y25543000D02*
X11827000Y21955000D01*
X11967000Y25232000D02*
X11967000Y22266000D01*
X12107000Y24816000D02*
X12107000Y22682000D01*
X12247000Y23949000D02*
X12247000Y23549000D01*
X11002000Y23749000D02*
G75*
G03X11002000Y23749000I-1000000J0D01*
G01*
X12289500Y23749000D02*
G75*
G03X12289500Y23749000I-4037500J0D01*
G01*
X22887000Y28739200D02*
X4887000Y28739200D01*
X4887000Y28739200D02*
X4887000Y39739200D01*
X4887000Y39739200D02*
X22887000Y39739200D01*
X22887000Y39739200D02*
X22887000Y28739200D01*
D15*
X16637000Y6985000D02*
X12319000Y6985000D01*
X12319000Y889000D02*
X16637000Y889000D01*
X17526000Y4935000D02*
X17526000Y2921000D01*
X11430000Y4965000D02*
X11430000Y2921000D01*
X16256000Y3937000D02*
G75*
G03X16256000Y3937000I-1778000J0D01*
G01*
X28829000Y6922000D02*
X24511000Y6922000D01*
X24511000Y826000D02*
X28829000Y826000D01*
X29718000Y4872000D02*
X29718000Y2858000D01*
X23622000Y4902000D02*
X23622000Y2858000D01*
X28448000Y3874000D02*
G75*
G03X28448000Y3874000I-1778000J0D01*
G01*
X28829000Y51626000D02*
X24511000Y51626000D01*
X24511000Y45530000D02*
X28829000Y45530000D01*
X29718000Y49576000D02*
X29718000Y47562000D01*
X23622000Y49606000D02*
X23622000Y47562000D01*
X28448000Y48578000D02*
G75*
G03X28448000Y48578000I-1778000J0D01*
G01*
X16637000Y51689000D02*
X12319000Y51689000D01*
X12319000Y45593000D02*
X16637000Y45593000D01*
X17526000Y49639000D02*
X17526000Y47625000D01*
X11430000Y49669000D02*
X11430000Y47625000D01*
X16256000Y48641000D02*
G75*
G03X16256000Y48641000I-1778000J0D01*
G01*
D12*
X22887000Y73443200D02*
X4887000Y73443200D01*
X4887000Y73443200D02*
X4887000Y84443200D01*
X4887000Y84443200D02*
X22887000Y84443200D01*
X22887000Y84443200D02*
X22887000Y73443200D01*
X8327000Y72452000D02*
X8327000Y64454000D01*
X8467000Y72447000D02*
X8467000Y64459000D01*
X8607000Y72437000D02*
X8607000Y64469000D01*
X8747000Y72422000D02*
X8747000Y64484000D01*
X8887000Y72402000D02*
X8887000Y64504000D01*
X9027000Y72377000D02*
X9027000Y68675000D01*
X9027000Y68231000D02*
X9027000Y64529000D01*
X9167000Y72347000D02*
X9167000Y69003000D01*
X9167000Y67903000D02*
X9167000Y64559000D01*
X9307000Y72311000D02*
X9307000Y69172000D01*
X9307000Y67734000D02*
X9307000Y64595000D01*
X9447000Y72270000D02*
X9447000Y69285000D01*
X9447000Y67621000D02*
X9447000Y64636000D01*
X9587000Y72224000D02*
X9587000Y69363000D01*
X9587000Y67543000D02*
X9587000Y64682000D01*
X9727000Y72171000D02*
X9727000Y69414000D01*
X9727000Y67492000D02*
X9727000Y64735000D01*
X9867000Y72112000D02*
X9867000Y69444000D01*
X9867000Y67462000D02*
X9867000Y64794000D01*
X10007000Y72047000D02*
X10007000Y69453000D01*
X10007000Y67453000D02*
X10007000Y64859000D01*
X10147000Y71976000D02*
X10147000Y69442000D01*
X10147000Y67464000D02*
X10147000Y64930000D01*
X10287000Y71897000D02*
X10287000Y69412000D01*
X10287000Y67494000D02*
X10287000Y65009000D01*
X10427000Y71810000D02*
X10427000Y69358000D01*
X10427000Y67548000D02*
X10427000Y65096000D01*
X10567000Y71715000D02*
X10567000Y69278000D01*
X10567000Y67628000D02*
X10567000Y65191000D01*
X10707000Y71611000D02*
X10707000Y69162000D01*
X10707000Y67744000D02*
X10707000Y65295000D01*
X10847000Y71497000D02*
X10847000Y68988000D01*
X10847000Y67918000D02*
X10847000Y65409000D01*
X10987000Y71372000D02*
X10987000Y68626000D01*
X10987000Y68280000D02*
X10987000Y65534000D01*
X11127000Y71234000D02*
X11127000Y65672000D01*
X11267000Y71082000D02*
X11267000Y65824000D01*
X11407000Y70912000D02*
X11407000Y65994000D01*
X11547000Y70721000D02*
X11547000Y66185000D01*
X11687000Y70503000D02*
X11687000Y66403000D01*
X11827000Y70247000D02*
X11827000Y66659000D01*
X11967000Y69936000D02*
X11967000Y66970000D01*
X12107000Y69520000D02*
X12107000Y67386000D01*
X12247000Y68653000D02*
X12247000Y68253000D01*
X11002000Y68453000D02*
G75*
G03X11002000Y68453000I-1000000J0D01*
G01*
X12289500Y68453000D02*
G75*
G03X12289500Y68453000I-4037500J0D01*
G01*
X17649000Y68090600D02*
X17649000Y67890600D01*
X17649000Y65496600D02*
X17649000Y65676600D01*
X14421256Y65806957D02*
G75*
G03X17649000Y65490600I1727744J1003643D01*
G01*
X15096994Y65677532D02*
G75*
G03X17200000Y65676600I1052006J1133068D01*
G01*
X17636220Y68117326D02*
G75*
G03X14399000Y67770600I-1497220J-1306726D01*
G01*
X17162889Y67889853D02*
G75*
G03X15115000Y67870600I-1013889J-1079253D01*
G01*
X584000Y71272400D02*
X584000Y63652400D01*
X3124000Y71272400D02*
X3124000Y63652400D01*
X3404000Y74092400D02*
X3404000Y72542400D01*
X584000Y63652400D02*
X3124000Y63652400D01*
X3124000Y71272400D02*
X584000Y71272400D01*
X304000Y72542400D02*
X304000Y74092400D01*
X304000Y74092400D02*
X3404000Y74092400D01*
X572000Y59817000D02*
X572000Y52197000D01*
X3112000Y59817000D02*
X3112000Y52197000D01*
X3392000Y62637000D02*
X3392000Y61087000D01*
X572000Y52197000D02*
X3112000Y52197000D01*
X3112000Y59817000D02*
X572000Y59817000D01*
X292000Y61087000D02*
X292000Y62637000D01*
X292000Y62637000D02*
X3392000Y62637000D01*
D13*
X635000Y46228000D02*
X1905000Y46228000D01*
D14*
X1905000Y46228000D02*
X6985000Y46228000D01*
D13*
X6985000Y46228000D02*
X8255000Y46228000D01*
X8255000Y46228000D02*
X8255000Y48768000D01*
X8255000Y48768000D02*
X635000Y48768000D01*
X635000Y48768000D02*
X635000Y46228000D01*
D14*
X1905000Y46228000D02*
G75*
G03X6985000Y46228000I2540000J1693200D01*
G01*
D12*
X2946000Y84122260D02*
X2946000Y83121500D01*
X5445360Y86522560D02*
G75*
G03X5445360Y86522560I-2499360J0D01*
G01*
X28719000Y66134000D02*
G75*
G03X28719000Y66134000I-2000000J0D01*
G01*
X30719000Y63634000D02*
X31219000Y63634000D01*
X30719000Y58634000D02*
X31219000Y58634000D01*
X28719000Y61134000D02*
G75*
G03X28719000Y61134000I-2000000J0D01*
G01*
X28719000Y56134000D02*
G75*
G03X28719000Y56134000I-2000000J0D01*
G01*
X29219000Y53634000D02*
X29219000Y68634000D01*
X24319000Y53634000D02*
X24319000Y68634000D01*
X30719000Y53634000D02*
X30719000Y68634000D01*
X31219000Y53634000D02*
X31219000Y68634000D01*
X31219000Y68634000D02*
X21419000Y68634000D01*
X21419000Y68634000D02*
X21419000Y53634000D01*
X21419000Y53634000D02*
X31219000Y53634000D01*
X6880860Y61617860D02*
X6880860Y60916820D01*
X6880860Y60916820D02*
X6080760Y60916820D01*
X10683240Y61617860D02*
X6080760Y61617860D01*
X6080760Y61617860D02*
X6080760Y58016140D01*
X6080760Y58016140D02*
X10683240Y58016140D01*
X10683240Y58016140D02*
X10683240Y61617860D01*
X9883140Y52936140D02*
X9883140Y53637180D01*
X9883140Y53637180D02*
X10683240Y53637180D01*
X6080760Y52936140D02*
X10683240Y52936140D01*
X10683240Y52936140D02*
X10683240Y56537860D01*
X10683240Y56537860D02*
X6080760Y56537860D01*
X6080760Y56537860D02*
X6080760Y52936140D01*
X29972000Y78359000D02*
X29972000Y80264000D01*
X29972000Y82804000D02*
X29972000Y82042000D01*
X29972000Y85217000D02*
X29972000Y85344000D01*
X29972000Y85217000D02*
X29972000Y84582000D01*
X29972000Y89027000D02*
X29972000Y87249000D01*
X26289000Y89027000D02*
X26289000Y87376000D01*
X26162000Y84709000D02*
X26162000Y85344000D01*
X26162000Y82169000D02*
X26162000Y82804000D01*
X26289000Y78359000D02*
X26289000Y80010000D01*
X31115000Y85217000D02*
X29972000Y85217000D01*
X31115000Y82169000D02*
X29972000Y82169000D01*
X29972000Y78359000D02*
X26289000Y78359000D01*
X26289000Y89027000D02*
X29972000Y89027000D01*
X31115000Y78359000D02*
X29972000Y78359000D01*
X29972000Y89027000D02*
X31115000Y89027000D01*
X31115000Y83693000D02*
X31115000Y89027000D01*
X31115000Y83693000D02*
X31115000Y78359000D01*
X29210000Y72644000D02*
X29210000Y70104000D01*
X29490000Y75464000D02*
X29490000Y73914000D01*
X29210000Y72644000D02*
X26670000Y72644000D01*
X26390000Y73914000D02*
X26390000Y75464000D01*
X26390000Y75464000D02*
X29490000Y75464000D01*
X26670000Y72644000D02*
X26670000Y70104000D01*
X26670000Y70104000D02*
X29210000Y70104000D01*
X25908000Y84582000D02*
X25908000Y79502000D01*
X25908000Y79502000D02*
X23368000Y79502000D01*
X23368000Y79502000D02*
X23368000Y84582000D01*
X23368000Y84582000D02*
X25908000Y84582000D01*
X24638000Y84582000D02*
X24638000Y85852000D01*
X24638000Y79502000D02*
X24638000Y78232000D01*
X87701381Y28884643D02*
X87225190Y28551309D01*
X87701381Y28313214D02*
X86701381Y28313214D01*
X86701381Y28694167D01*
X86749000Y28789405D01*
X86796619Y28837024D01*
X86891857Y28884643D01*
X87034714Y28884643D01*
X87129952Y28837024D01*
X87177571Y28789405D01*
X87225190Y28694167D01*
X87225190Y28313214D01*
X87701381Y29837024D02*
X87701381Y29265595D01*
X87701381Y29551309D02*
X86701381Y29551309D01*
X86844238Y29456071D01*
X86939476Y29360833D01*
X86987095Y29265595D01*
X86701381Y30741786D02*
X86701381Y30265595D01*
X87177571Y30217976D01*
X87129952Y30265595D01*
X87082333Y30360833D01*
X87082333Y30598929D01*
X87129952Y30694167D01*
X87177571Y30741786D01*
X87272810Y30789405D01*
X87510905Y30789405D01*
X87606143Y30741786D01*
X87653762Y30694167D01*
X87701381Y30598929D01*
X87701381Y30360833D01*
X87653762Y30265595D01*
X87606143Y30217976D01*
X90193905Y31170619D02*
X90193905Y32170619D01*
X90574858Y32170619D01*
X90670096Y32123000D01*
X90717715Y32075381D01*
X90765334Y31980143D01*
X90765334Y31837286D01*
X90717715Y31742048D01*
X90670096Y31694429D01*
X90574858Y31646810D01*
X90193905Y31646810D01*
X91622477Y32170619D02*
X91432000Y32170619D01*
X91336762Y32123000D01*
X91289143Y32075381D01*
X91193905Y31932524D01*
X91146286Y31742048D01*
X91146286Y31361095D01*
X91193905Y31265857D01*
X91241524Y31218238D01*
X91336762Y31170619D01*
X91527239Y31170619D01*
X91622477Y31218238D01*
X91670096Y31265857D01*
X91717715Y31361095D01*
X91717715Y31599190D01*
X91670096Y31694429D01*
X91622477Y31742048D01*
X91527239Y31789667D01*
X91336762Y31789667D01*
X91241524Y31742048D01*
X91193905Y31694429D01*
X91146286Y31599190D01*
X90678095Y43981619D02*
X90678095Y43172095D01*
X90725714Y43076857D01*
X90773333Y43029238D01*
X90868571Y42981619D01*
X91059048Y42981619D01*
X91154286Y43029238D01*
X91201905Y43076857D01*
X91249524Y43172095D01*
X91249524Y43981619D01*
X91630476Y43981619D02*
X92249524Y43981619D01*
X91916190Y43600667D01*
X92059048Y43600667D01*
X92154286Y43553048D01*
X92201905Y43505429D01*
X92249524Y43410190D01*
X92249524Y43172095D01*
X92201905Y43076857D01*
X92154286Y43029238D01*
X92059048Y42981619D01*
X91773333Y42981619D01*
X91678095Y43029238D01*
X91630476Y43076857D01*
X70548595Y7786619D02*
X70548595Y6977095D01*
X70596214Y6881857D01*
X70643833Y6834238D01*
X70739071Y6786619D01*
X70929548Y6786619D01*
X71024786Y6834238D01*
X71072405Y6881857D01*
X71120024Y6977095D01*
X71120024Y7786619D01*
X71548595Y7691381D02*
X71596214Y7739000D01*
X71691452Y7786619D01*
X71929548Y7786619D01*
X72024786Y7739000D01*
X72072405Y7691381D01*
X72120024Y7596143D01*
X72120024Y7500905D01*
X72072405Y7358048D01*
X71500976Y6786619D01*
X72120024Y6786619D01*
X69659595Y18137119D02*
X69659595Y17327595D01*
X69707214Y17232357D01*
X69754833Y17184738D01*
X69850071Y17137119D01*
X70040548Y17137119D01*
X70135786Y17184738D01*
X70183405Y17232357D01*
X70231024Y17327595D01*
X70231024Y18137119D01*
X71231024Y17137119D02*
X70659595Y17137119D01*
X70945309Y17137119D02*
X70945309Y18137119D01*
X70850071Y17994262D01*
X70754833Y17899024D01*
X70659595Y17851405D01*
X92416381Y14970286D02*
X92416381Y15541715D01*
X93416381Y15256000D02*
X92416381Y15256000D01*
X93416381Y15875048D02*
X92416381Y15875048D01*
X92892571Y15875048D02*
X92892571Y16446477D01*
X93416381Y16446477D02*
X92416381Y16446477D01*
X93416381Y17446477D02*
X93416381Y16875048D01*
X93416381Y17160762D02*
X92416381Y17160762D01*
X92559238Y17065524D01*
X92654476Y16970286D01*
X92702095Y16875048D01*
X64460381Y37457143D02*
X63984190Y37123809D01*
X64460381Y36885714D02*
X63460381Y36885714D01*
X63460381Y37266667D01*
X63508000Y37361905D01*
X63555619Y37409524D01*
X63650857Y37457143D01*
X63793714Y37457143D01*
X63888952Y37409524D01*
X63936571Y37361905D01*
X63984190Y37266667D01*
X63984190Y36885714D01*
X64460381Y38409524D02*
X64460381Y37838095D01*
X64460381Y38123809D02*
X63460381Y38123809D01*
X63603238Y38028571D01*
X63698476Y37933333D01*
X63746095Y37838095D01*
X63555619Y38790476D02*
X63508000Y38838095D01*
X63460381Y38933333D01*
X63460381Y39171429D01*
X63508000Y39266667D01*
X63555619Y39314286D01*
X63650857Y39361905D01*
X63746095Y39361905D01*
X63888952Y39314286D01*
X64460381Y38742857D01*
X64460381Y39361905D01*
D13*
X69925595Y4451048D02*
X69810690Y4508500D01*
X69695786Y4623405D01*
X69523429Y4795762D01*
X69408524Y4853214D01*
X69293619Y4853214D01*
X69351071Y4565952D02*
X69236167Y4623405D01*
X69121262Y4738310D01*
X69063810Y4968119D01*
X69063810Y5370286D01*
X69121262Y5600095D01*
X69236167Y5715000D01*
X69351071Y5772452D01*
X69580881Y5772452D01*
X69695786Y5715000D01*
X69810690Y5600095D01*
X69868143Y5370286D01*
X69868143Y4968119D01*
X69810690Y4738310D01*
X69695786Y4623405D01*
X69580881Y4565952D01*
X69351071Y4565952D01*
X71017190Y4565952D02*
X70327762Y4565952D01*
X70672476Y4565952D02*
X70672476Y5772452D01*
X70557571Y5600095D01*
X70442666Y5485190D01*
X70327762Y5427738D01*
D12*
X69492905Y38409619D02*
X69492905Y39409619D01*
X69873858Y39409619D01*
X69969096Y39362000D01*
X70016715Y39314381D01*
X70064334Y39219143D01*
X70064334Y39076286D01*
X70016715Y38981048D01*
X69969096Y38933429D01*
X69873858Y38885810D01*
X69492905Y38885810D01*
X70921477Y39076286D02*
X70921477Y38409619D01*
X70683381Y39457238D02*
X70445286Y38742952D01*
X71064334Y38742952D01*
X83843905Y38536619D02*
X83843905Y39536619D01*
X84224858Y39536619D01*
X84320096Y39489000D01*
X84367715Y39441381D01*
X84415334Y39346143D01*
X84415334Y39203286D01*
X84367715Y39108048D01*
X84320096Y39060429D01*
X84224858Y39012810D01*
X83843905Y39012810D01*
X84748667Y39536619D02*
X85367715Y39536619D01*
X85034381Y39155667D01*
X85177239Y39155667D01*
X85272477Y39108048D01*
X85320096Y39060429D01*
X85367715Y38965190D01*
X85367715Y38727095D01*
X85320096Y38631857D01*
X85272477Y38584238D01*
X85177239Y38536619D01*
X84891524Y38536619D01*
X84796286Y38584238D01*
X84748667Y38631857D01*
X78763905Y38536619D02*
X78763905Y39536619D01*
X79144858Y39536619D01*
X79240096Y39489000D01*
X79287715Y39441381D01*
X79335334Y39346143D01*
X79335334Y39203286D01*
X79287715Y39108048D01*
X79240096Y39060429D01*
X79144858Y39012810D01*
X78763905Y39012810D01*
X79716286Y39441381D02*
X79763905Y39489000D01*
X79859143Y39536619D01*
X80097239Y39536619D01*
X80192477Y39489000D01*
X80240096Y39441381D01*
X80287715Y39346143D01*
X80287715Y39250905D01*
X80240096Y39108048D01*
X79668667Y38536619D01*
X80287715Y38536619D01*
X63714405Y6215119D02*
X63714405Y7215119D01*
X64095358Y7215119D01*
X64190596Y7167500D01*
X64238215Y7119881D01*
X64285834Y7024643D01*
X64285834Y6881786D01*
X64238215Y6786548D01*
X64190596Y6738929D01*
X64095358Y6691310D01*
X63714405Y6691310D01*
X65238215Y6215119D02*
X64666786Y6215119D01*
X64952500Y6215119D02*
X64952500Y7215119D01*
X64857262Y7072262D01*
X64762024Y6977024D01*
X64666786Y6929405D01*
X64436667Y30900619D02*
X64436667Y30186333D01*
X64389047Y30043476D01*
X64293809Y29948238D01*
X64150952Y29900619D01*
X64055714Y29900619D01*
X65436667Y29900619D02*
X64865238Y29900619D01*
X65150952Y29900619D02*
X65150952Y30900619D01*
X65055714Y30757762D01*
X64960476Y30662524D01*
X64865238Y30614905D01*
X78382905Y24566619D02*
X78382905Y25566619D01*
X78621000Y25566619D01*
X78763858Y25519000D01*
X78859096Y25423762D01*
X78906715Y25328524D01*
X78954334Y25138048D01*
X78954334Y24995190D01*
X78906715Y24804714D01*
X78859096Y24709476D01*
X78763858Y24614238D01*
X78621000Y24566619D01*
X78382905Y24566619D01*
X79906715Y24566619D02*
X79335286Y24566619D01*
X79621000Y24566619D02*
X79621000Y25566619D01*
X79525762Y25423762D01*
X79430524Y25328524D01*
X79335286Y25280905D01*
X81870095Y23360219D02*
X81870095Y24360219D01*
X82441524Y23360219D02*
X82012952Y23931648D01*
X82441524Y24360219D02*
X81870095Y23788790D01*
X75271334Y26439857D02*
X75223715Y26392238D01*
X75080858Y26344619D01*
X74985620Y26344619D01*
X74842762Y26392238D01*
X74747524Y26487476D01*
X74699905Y26582714D01*
X74652286Y26773190D01*
X74652286Y26916048D01*
X74699905Y27106524D01*
X74747524Y27201762D01*
X74842762Y27297000D01*
X74985620Y27344619D01*
X75080858Y27344619D01*
X75223715Y27297000D01*
X75271334Y27249381D01*
X75604667Y27344619D02*
X76271334Y27344619D01*
X75842762Y26344619D01*
X67413143Y32345334D02*
X67460762Y32297715D01*
X67508381Y32154858D01*
X67508381Y32059620D01*
X67460762Y31916762D01*
X67365524Y31821524D01*
X67270286Y31773905D01*
X67079810Y31726286D01*
X66936952Y31726286D01*
X66746476Y31773905D01*
X66651238Y31821524D01*
X66556000Y31916762D01*
X66508381Y32059620D01*
X66508381Y32154858D01*
X66556000Y32297715D01*
X66603619Y32345334D01*
X66841714Y33202477D02*
X67508381Y33202477D01*
X66460762Y32964381D02*
X67175048Y32726286D01*
X67175048Y33345334D01*
D13*
X77763310Y7607905D02*
X77935667Y7550452D01*
X78222929Y7550452D01*
X78337833Y7607905D01*
X78395286Y7665357D01*
X78452738Y7780262D01*
X78452738Y7895167D01*
X78395286Y8010071D01*
X78337833Y8067524D01*
X78222929Y8124976D01*
X77993119Y8182429D01*
X77878214Y8239881D01*
X77820762Y8297333D01*
X77763310Y8412238D01*
X77763310Y8527143D01*
X77820762Y8642048D01*
X77878214Y8699500D01*
X77993119Y8756952D01*
X78280381Y8756952D01*
X78452738Y8699500D01*
X78854905Y8756952D02*
X79142167Y7550452D01*
X79371977Y8412238D01*
X79601786Y7550452D01*
X79889048Y8756952D01*
X80980643Y7550452D02*
X80291215Y7550452D01*
X80635929Y7550452D02*
X80635929Y8756952D01*
X80521024Y8584595D01*
X80406119Y8469690D01*
X80291215Y8412238D01*
X88240810Y7353905D02*
X88413167Y7296452D01*
X88700429Y7296452D01*
X88815333Y7353905D01*
X88872786Y7411357D01*
X88930238Y7526262D01*
X88930238Y7641167D01*
X88872786Y7756071D01*
X88815333Y7813524D01*
X88700429Y7870976D01*
X88470619Y7928429D01*
X88355714Y7985881D01*
X88298262Y8043333D01*
X88240810Y8158238D01*
X88240810Y8273143D01*
X88298262Y8388048D01*
X88355714Y8445500D01*
X88470619Y8502952D01*
X88757881Y8502952D01*
X88930238Y8445500D01*
X89332405Y8502952D02*
X89619667Y7296452D01*
X89849477Y8158238D01*
X90079286Y7296452D01*
X90366548Y8502952D01*
X90768715Y8388048D02*
X90826167Y8445500D01*
X90941072Y8502952D01*
X91228334Y8502952D01*
X91343238Y8445500D01*
X91400691Y8388048D01*
X91458143Y8273143D01*
X91458143Y8158238D01*
X91400691Y7985881D01*
X90711262Y7296452D01*
X91458143Y7296452D01*
D12*
X73175905Y38536619D02*
X73175905Y39536619D01*
X73556858Y39536619D01*
X73652096Y39489000D01*
X73699715Y39441381D01*
X73747334Y39346143D01*
X73747334Y39203286D01*
X73699715Y39108048D01*
X73652096Y39060429D01*
X73556858Y39012810D01*
X73175905Y39012810D01*
X74652096Y39536619D02*
X74175905Y39536619D01*
X74128286Y39060429D01*
X74175905Y39108048D01*
X74271143Y39155667D01*
X74509239Y39155667D01*
X74604477Y39108048D01*
X74652096Y39060429D01*
X74699715Y38965190D01*
X74699715Y38727095D01*
X74652096Y38631857D01*
X74604477Y38584238D01*
X74509239Y38536619D01*
X74271143Y38536619D01*
X74175905Y38584238D01*
X74128286Y38631857D01*
X87701381Y73588643D02*
X87225190Y73255309D01*
X87701381Y73017214D02*
X86701381Y73017214D01*
X86701381Y73398167D01*
X86749000Y73493405D01*
X86796619Y73541024D01*
X86891857Y73588643D01*
X87034714Y73588643D01*
X87129952Y73541024D01*
X87177571Y73493405D01*
X87225190Y73398167D01*
X87225190Y73017214D01*
X87701381Y74541024D02*
X87701381Y73969595D01*
X87701381Y74255309D02*
X86701381Y74255309D01*
X86844238Y74160071D01*
X86939476Y74064833D01*
X86987095Y73969595D01*
X86701381Y75445786D02*
X86701381Y74969595D01*
X87177571Y74921976D01*
X87129952Y74969595D01*
X87082333Y75064833D01*
X87082333Y75302929D01*
X87129952Y75398167D01*
X87177571Y75445786D01*
X87272810Y75493405D01*
X87510905Y75493405D01*
X87606143Y75445786D01*
X87653762Y75398167D01*
X87701381Y75302929D01*
X87701381Y75064833D01*
X87653762Y74969595D01*
X87606143Y74921976D01*
X90193905Y75874619D02*
X90193905Y76874619D01*
X90574858Y76874619D01*
X90670096Y76827000D01*
X90717715Y76779381D01*
X90765334Y76684143D01*
X90765334Y76541286D01*
X90717715Y76446048D01*
X90670096Y76398429D01*
X90574858Y76350810D01*
X90193905Y76350810D01*
X91622477Y76874619D02*
X91432000Y76874619D01*
X91336762Y76827000D01*
X91289143Y76779381D01*
X91193905Y76636524D01*
X91146286Y76446048D01*
X91146286Y76065095D01*
X91193905Y75969857D01*
X91241524Y75922238D01*
X91336762Y75874619D01*
X91527239Y75874619D01*
X91622477Y75922238D01*
X91670096Y75969857D01*
X91717715Y76065095D01*
X91717715Y76303190D01*
X91670096Y76398429D01*
X91622477Y76446048D01*
X91527239Y76493667D01*
X91336762Y76493667D01*
X91241524Y76446048D01*
X91193905Y76398429D01*
X91146286Y76303190D01*
X90678095Y88685619D02*
X90678095Y87876095D01*
X90725714Y87780857D01*
X90773333Y87733238D01*
X90868571Y87685619D01*
X91059048Y87685619D01*
X91154286Y87733238D01*
X91201905Y87780857D01*
X91249524Y87876095D01*
X91249524Y88685619D01*
X91630476Y88685619D02*
X92249524Y88685619D01*
X91916190Y88304667D01*
X92059048Y88304667D01*
X92154286Y88257048D01*
X92201905Y88209429D01*
X92249524Y88114190D01*
X92249524Y87876095D01*
X92201905Y87780857D01*
X92154286Y87733238D01*
X92059048Y87685619D01*
X91773333Y87685619D01*
X91678095Y87733238D01*
X91630476Y87780857D01*
X70548595Y52490619D02*
X70548595Y51681095D01*
X70596214Y51585857D01*
X70643833Y51538238D01*
X70739071Y51490619D01*
X70929548Y51490619D01*
X71024786Y51538238D01*
X71072405Y51585857D01*
X71120024Y51681095D01*
X71120024Y52490619D01*
X71548595Y52395381D02*
X71596214Y52443000D01*
X71691452Y52490619D01*
X71929548Y52490619D01*
X72024786Y52443000D01*
X72072405Y52395381D01*
X72120024Y52300143D01*
X72120024Y52204905D01*
X72072405Y52062048D01*
X71500976Y51490619D01*
X72120024Y51490619D01*
X69659595Y62841119D02*
X69659595Y62031595D01*
X69707214Y61936357D01*
X69754833Y61888738D01*
X69850071Y61841119D01*
X70040548Y61841119D01*
X70135786Y61888738D01*
X70183405Y61936357D01*
X70231024Y62031595D01*
X70231024Y62841119D01*
X71231024Y61841119D02*
X70659595Y61841119D01*
X70945309Y61841119D02*
X70945309Y62841119D01*
X70850071Y62698262D01*
X70754833Y62603024D01*
X70659595Y62555405D01*
X92416381Y59674286D02*
X92416381Y60245715D01*
X93416381Y59960000D02*
X92416381Y59960000D01*
X93416381Y60579048D02*
X92416381Y60579048D01*
X92892571Y60579048D02*
X92892571Y61150477D01*
X93416381Y61150477D02*
X92416381Y61150477D01*
X93416381Y62150477D02*
X93416381Y61579048D01*
X93416381Y61864762D02*
X92416381Y61864762D01*
X92559238Y61769524D01*
X92654476Y61674286D01*
X92702095Y61579048D01*
X64460381Y82161143D02*
X63984190Y81827809D01*
X64460381Y81589714D02*
X63460381Y81589714D01*
X63460381Y81970667D01*
X63508000Y82065905D01*
X63555619Y82113524D01*
X63650857Y82161143D01*
X63793714Y82161143D01*
X63888952Y82113524D01*
X63936571Y82065905D01*
X63984190Y81970667D01*
X63984190Y81589714D01*
X64460381Y83113524D02*
X64460381Y82542095D01*
X64460381Y82827809D02*
X63460381Y82827809D01*
X63603238Y82732571D01*
X63698476Y82637333D01*
X63746095Y82542095D01*
X63555619Y83494476D02*
X63508000Y83542095D01*
X63460381Y83637333D01*
X63460381Y83875429D01*
X63508000Y83970667D01*
X63555619Y84018286D01*
X63650857Y84065905D01*
X63746095Y84065905D01*
X63888952Y84018286D01*
X64460381Y83446857D01*
X64460381Y84065905D01*
D13*
X69925595Y49155048D02*
X69810690Y49212500D01*
X69695786Y49327405D01*
X69523429Y49499762D01*
X69408524Y49557214D01*
X69293619Y49557214D01*
X69351071Y49269952D02*
X69236167Y49327405D01*
X69121262Y49442310D01*
X69063810Y49672119D01*
X69063810Y50074286D01*
X69121262Y50304095D01*
X69236167Y50419000D01*
X69351071Y50476452D01*
X69580881Y50476452D01*
X69695786Y50419000D01*
X69810690Y50304095D01*
X69868143Y50074286D01*
X69868143Y49672119D01*
X69810690Y49442310D01*
X69695786Y49327405D01*
X69580881Y49269952D01*
X69351071Y49269952D01*
X71017190Y49269952D02*
X70327762Y49269952D01*
X70672476Y49269952D02*
X70672476Y50476452D01*
X70557571Y50304095D01*
X70442666Y50189190D01*
X70327762Y50131738D01*
D12*
X69492905Y83113619D02*
X69492905Y84113619D01*
X69873858Y84113619D01*
X69969096Y84066000D01*
X70016715Y84018381D01*
X70064334Y83923143D01*
X70064334Y83780286D01*
X70016715Y83685048D01*
X69969096Y83637429D01*
X69873858Y83589810D01*
X69492905Y83589810D01*
X70921477Y83780286D02*
X70921477Y83113619D01*
X70683381Y84161238D02*
X70445286Y83446952D01*
X71064334Y83446952D01*
X83843905Y83240619D02*
X83843905Y84240619D01*
X84224858Y84240619D01*
X84320096Y84193000D01*
X84367715Y84145381D01*
X84415334Y84050143D01*
X84415334Y83907286D01*
X84367715Y83812048D01*
X84320096Y83764429D01*
X84224858Y83716810D01*
X83843905Y83716810D01*
X84748667Y84240619D02*
X85367715Y84240619D01*
X85034381Y83859667D01*
X85177239Y83859667D01*
X85272477Y83812048D01*
X85320096Y83764429D01*
X85367715Y83669190D01*
X85367715Y83431095D01*
X85320096Y83335857D01*
X85272477Y83288238D01*
X85177239Y83240619D01*
X84891524Y83240619D01*
X84796286Y83288238D01*
X84748667Y83335857D01*
X78763905Y83240619D02*
X78763905Y84240619D01*
X79144858Y84240619D01*
X79240096Y84193000D01*
X79287715Y84145381D01*
X79335334Y84050143D01*
X79335334Y83907286D01*
X79287715Y83812048D01*
X79240096Y83764429D01*
X79144858Y83716810D01*
X78763905Y83716810D01*
X79716286Y84145381D02*
X79763905Y84193000D01*
X79859143Y84240619D01*
X80097239Y84240619D01*
X80192477Y84193000D01*
X80240096Y84145381D01*
X80287715Y84050143D01*
X80287715Y83954905D01*
X80240096Y83812048D01*
X79668667Y83240619D01*
X80287715Y83240619D01*
X63714405Y50919119D02*
X63714405Y51919119D01*
X64095358Y51919119D01*
X64190596Y51871500D01*
X64238215Y51823881D01*
X64285834Y51728643D01*
X64285834Y51585786D01*
X64238215Y51490548D01*
X64190596Y51442929D01*
X64095358Y51395310D01*
X63714405Y51395310D01*
X65238215Y50919119D02*
X64666786Y50919119D01*
X64952500Y50919119D02*
X64952500Y51919119D01*
X64857262Y51776262D01*
X64762024Y51681024D01*
X64666786Y51633405D01*
X64436667Y75604619D02*
X64436667Y74890333D01*
X64389047Y74747476D01*
X64293809Y74652238D01*
X64150952Y74604619D01*
X64055714Y74604619D01*
X65436667Y74604619D02*
X64865238Y74604619D01*
X65150952Y74604619D02*
X65150952Y75604619D01*
X65055714Y75461762D01*
X64960476Y75366524D01*
X64865238Y75318905D01*
X78382905Y69270619D02*
X78382905Y70270619D01*
X78621000Y70270619D01*
X78763858Y70223000D01*
X78859096Y70127762D01*
X78906715Y70032524D01*
X78954334Y69842048D01*
X78954334Y69699190D01*
X78906715Y69508714D01*
X78859096Y69413476D01*
X78763858Y69318238D01*
X78621000Y69270619D01*
X78382905Y69270619D01*
X79906715Y69270619D02*
X79335286Y69270619D01*
X79621000Y69270619D02*
X79621000Y70270619D01*
X79525762Y70127762D01*
X79430524Y70032524D01*
X79335286Y69984905D01*
X81870095Y68064219D02*
X81870095Y69064219D01*
X82441524Y68064219D02*
X82012952Y68635648D01*
X82441524Y69064219D02*
X81870095Y68492790D01*
X75271334Y71143857D02*
X75223715Y71096238D01*
X75080858Y71048619D01*
X74985620Y71048619D01*
X74842762Y71096238D01*
X74747524Y71191476D01*
X74699905Y71286714D01*
X74652286Y71477190D01*
X74652286Y71620048D01*
X74699905Y71810524D01*
X74747524Y71905762D01*
X74842762Y72001000D01*
X74985620Y72048619D01*
X75080858Y72048619D01*
X75223715Y72001000D01*
X75271334Y71953381D01*
X75604667Y72048619D02*
X76271334Y72048619D01*
X75842762Y71048619D01*
X67413143Y77049334D02*
X67460762Y77001715D01*
X67508381Y76858858D01*
X67508381Y76763620D01*
X67460762Y76620762D01*
X67365524Y76525524D01*
X67270286Y76477905D01*
X67079810Y76430286D01*
X66936952Y76430286D01*
X66746476Y76477905D01*
X66651238Y76525524D01*
X66556000Y76620762D01*
X66508381Y76763620D01*
X66508381Y76858858D01*
X66556000Y77001715D01*
X66603619Y77049334D01*
X66841714Y77906477D02*
X67508381Y77906477D01*
X66460762Y77668381D02*
X67175048Y77430286D01*
X67175048Y78049334D01*
D13*
X77763310Y52311905D02*
X77935667Y52254452D01*
X78222929Y52254452D01*
X78337833Y52311905D01*
X78395286Y52369357D01*
X78452738Y52484262D01*
X78452738Y52599167D01*
X78395286Y52714071D01*
X78337833Y52771524D01*
X78222929Y52828976D01*
X77993119Y52886429D01*
X77878214Y52943881D01*
X77820762Y53001333D01*
X77763310Y53116238D01*
X77763310Y53231143D01*
X77820762Y53346048D01*
X77878214Y53403500D01*
X77993119Y53460952D01*
X78280381Y53460952D01*
X78452738Y53403500D01*
X78854905Y53460952D02*
X79142167Y52254452D01*
X79371977Y53116238D01*
X79601786Y52254452D01*
X79889048Y53460952D01*
X80980643Y52254452D02*
X80291215Y52254452D01*
X80635929Y52254452D02*
X80635929Y53460952D01*
X80521024Y53288595D01*
X80406119Y53173690D01*
X80291215Y53116238D01*
X88240810Y52057905D02*
X88413167Y52000452D01*
X88700429Y52000452D01*
X88815333Y52057905D01*
X88872786Y52115357D01*
X88930238Y52230262D01*
X88930238Y52345167D01*
X88872786Y52460071D01*
X88815333Y52517524D01*
X88700429Y52574976D01*
X88470619Y52632429D01*
X88355714Y52689881D01*
X88298262Y52747333D01*
X88240810Y52862238D01*
X88240810Y52977143D01*
X88298262Y53092048D01*
X88355714Y53149500D01*
X88470619Y53206952D01*
X88757881Y53206952D01*
X88930238Y53149500D01*
X89332405Y53206952D02*
X89619667Y52000452D01*
X89849477Y52862238D01*
X90079286Y52000452D01*
X90366548Y53206952D01*
X90768715Y53092048D02*
X90826167Y53149500D01*
X90941072Y53206952D01*
X91228334Y53206952D01*
X91343238Y53149500D01*
X91400691Y53092048D01*
X91458143Y52977143D01*
X91458143Y52862238D01*
X91400691Y52689881D01*
X90711262Y52000452D01*
X91458143Y52000452D01*
D12*
X73175905Y83240619D02*
X73175905Y84240619D01*
X73556858Y84240619D01*
X73652096Y84193000D01*
X73699715Y84145381D01*
X73747334Y84050143D01*
X73747334Y83907286D01*
X73699715Y83812048D01*
X73652096Y83764429D01*
X73556858Y83716810D01*
X73175905Y83716810D01*
X74652096Y84240619D02*
X74175905Y84240619D01*
X74128286Y83764429D01*
X74175905Y83812048D01*
X74271143Y83859667D01*
X74509239Y83859667D01*
X74604477Y83812048D01*
X74652096Y83764429D01*
X74699715Y83669190D01*
X74699715Y83431095D01*
X74652096Y83335857D01*
X74604477Y83288238D01*
X74509239Y83240619D01*
X74271143Y83240619D01*
X74175905Y83288238D01*
X74128286Y83335857D01*
X56205381Y28884643D02*
X55729190Y28551309D01*
X56205381Y28313214D02*
X55205381Y28313214D01*
X55205381Y28694167D01*
X55253000Y28789405D01*
X55300619Y28837024D01*
X55395857Y28884643D01*
X55538714Y28884643D01*
X55633952Y28837024D01*
X55681571Y28789405D01*
X55729190Y28694167D01*
X55729190Y28313214D01*
X56205381Y29837024D02*
X56205381Y29265595D01*
X56205381Y29551309D02*
X55205381Y29551309D01*
X55348238Y29456071D01*
X55443476Y29360833D01*
X55491095Y29265595D01*
X55205381Y30741786D02*
X55205381Y30265595D01*
X55681571Y30217976D01*
X55633952Y30265595D01*
X55586333Y30360833D01*
X55586333Y30598929D01*
X55633952Y30694167D01*
X55681571Y30741786D01*
X55776810Y30789405D01*
X56014905Y30789405D01*
X56110143Y30741786D01*
X56157762Y30694167D01*
X56205381Y30598929D01*
X56205381Y30360833D01*
X56157762Y30265595D01*
X56110143Y30217976D01*
X58697905Y31170619D02*
X58697905Y32170619D01*
X59078858Y32170619D01*
X59174096Y32123000D01*
X59221715Y32075381D01*
X59269334Y31980143D01*
X59269334Y31837286D01*
X59221715Y31742048D01*
X59174096Y31694429D01*
X59078858Y31646810D01*
X58697905Y31646810D01*
X60126477Y32170619D02*
X59936000Y32170619D01*
X59840762Y32123000D01*
X59793143Y32075381D01*
X59697905Y31932524D01*
X59650286Y31742048D01*
X59650286Y31361095D01*
X59697905Y31265857D01*
X59745524Y31218238D01*
X59840762Y31170619D01*
X60031239Y31170619D01*
X60126477Y31218238D01*
X60174096Y31265857D01*
X60221715Y31361095D01*
X60221715Y31599190D01*
X60174096Y31694429D01*
X60126477Y31742048D01*
X60031239Y31789667D01*
X59840762Y31789667D01*
X59745524Y31742048D01*
X59697905Y31694429D01*
X59650286Y31599190D01*
X59182095Y43981619D02*
X59182095Y43172095D01*
X59229714Y43076857D01*
X59277333Y43029238D01*
X59372571Y42981619D01*
X59563048Y42981619D01*
X59658286Y43029238D01*
X59705905Y43076857D01*
X59753524Y43172095D01*
X59753524Y43981619D01*
X60134476Y43981619D02*
X60753524Y43981619D01*
X60420190Y43600667D01*
X60563048Y43600667D01*
X60658286Y43553048D01*
X60705905Y43505429D01*
X60753524Y43410190D01*
X60753524Y43172095D01*
X60705905Y43076857D01*
X60658286Y43029238D01*
X60563048Y42981619D01*
X60277333Y42981619D01*
X60182095Y43029238D01*
X60134476Y43076857D01*
X39052595Y7786619D02*
X39052595Y6977095D01*
X39100214Y6881857D01*
X39147833Y6834238D01*
X39243071Y6786619D01*
X39433548Y6786619D01*
X39528786Y6834238D01*
X39576405Y6881857D01*
X39624024Y6977095D01*
X39624024Y7786619D01*
X40052595Y7691381D02*
X40100214Y7739000D01*
X40195452Y7786619D01*
X40433548Y7786619D01*
X40528786Y7739000D01*
X40576405Y7691381D01*
X40624024Y7596143D01*
X40624024Y7500905D01*
X40576405Y7358048D01*
X40004976Y6786619D01*
X40624024Y6786619D01*
X38163595Y18137119D02*
X38163595Y17327595D01*
X38211214Y17232357D01*
X38258833Y17184738D01*
X38354071Y17137119D01*
X38544548Y17137119D01*
X38639786Y17184738D01*
X38687405Y17232357D01*
X38735024Y17327595D01*
X38735024Y18137119D01*
X39735024Y17137119D02*
X39163595Y17137119D01*
X39449309Y17137119D02*
X39449309Y18137119D01*
X39354071Y17994262D01*
X39258833Y17899024D01*
X39163595Y17851405D01*
X60920381Y14970286D02*
X60920381Y15541715D01*
X61920381Y15256000D02*
X60920381Y15256000D01*
X61920381Y15875048D02*
X60920381Y15875048D01*
X61396571Y15875048D02*
X61396571Y16446477D01*
X61920381Y16446477D02*
X60920381Y16446477D01*
X61920381Y17446477D02*
X61920381Y16875048D01*
X61920381Y17160762D02*
X60920381Y17160762D01*
X61063238Y17065524D01*
X61158476Y16970286D01*
X61206095Y16875048D01*
X32964381Y37457143D02*
X32488190Y37123809D01*
X32964381Y36885714D02*
X31964381Y36885714D01*
X31964381Y37266667D01*
X32012000Y37361905D01*
X32059619Y37409524D01*
X32154857Y37457143D01*
X32297714Y37457143D01*
X32392952Y37409524D01*
X32440571Y37361905D01*
X32488190Y37266667D01*
X32488190Y36885714D01*
X32964381Y38409524D02*
X32964381Y37838095D01*
X32964381Y38123809D02*
X31964381Y38123809D01*
X32107238Y38028571D01*
X32202476Y37933333D01*
X32250095Y37838095D01*
X32059619Y38790476D02*
X32012000Y38838095D01*
X31964381Y38933333D01*
X31964381Y39171429D01*
X32012000Y39266667D01*
X32059619Y39314286D01*
X32154857Y39361905D01*
X32250095Y39361905D01*
X32392952Y39314286D01*
X32964381Y38742857D01*
X32964381Y39361905D01*
D13*
X38429595Y4451048D02*
X38314690Y4508500D01*
X38199786Y4623405D01*
X38027429Y4795762D01*
X37912524Y4853214D01*
X37797619Y4853214D01*
X37855071Y4565952D02*
X37740167Y4623405D01*
X37625262Y4738310D01*
X37567810Y4968119D01*
X37567810Y5370286D01*
X37625262Y5600095D01*
X37740167Y5715000D01*
X37855071Y5772452D01*
X38084881Y5772452D01*
X38199786Y5715000D01*
X38314690Y5600095D01*
X38372143Y5370286D01*
X38372143Y4968119D01*
X38314690Y4738310D01*
X38199786Y4623405D01*
X38084881Y4565952D01*
X37855071Y4565952D01*
X39521190Y4565952D02*
X38831762Y4565952D01*
X39176476Y4565952D02*
X39176476Y5772452D01*
X39061571Y5600095D01*
X38946666Y5485190D01*
X38831762Y5427738D01*
D12*
X37996905Y38409619D02*
X37996905Y39409619D01*
X38377858Y39409619D01*
X38473096Y39362000D01*
X38520715Y39314381D01*
X38568334Y39219143D01*
X38568334Y39076286D01*
X38520715Y38981048D01*
X38473096Y38933429D01*
X38377858Y38885810D01*
X37996905Y38885810D01*
X39425477Y39076286D02*
X39425477Y38409619D01*
X39187381Y39457238D02*
X38949286Y38742952D01*
X39568334Y38742952D01*
X52347905Y38536619D02*
X52347905Y39536619D01*
X52728858Y39536619D01*
X52824096Y39489000D01*
X52871715Y39441381D01*
X52919334Y39346143D01*
X52919334Y39203286D01*
X52871715Y39108048D01*
X52824096Y39060429D01*
X52728858Y39012810D01*
X52347905Y39012810D01*
X53252667Y39536619D02*
X53871715Y39536619D01*
X53538381Y39155667D01*
X53681239Y39155667D01*
X53776477Y39108048D01*
X53824096Y39060429D01*
X53871715Y38965190D01*
X53871715Y38727095D01*
X53824096Y38631857D01*
X53776477Y38584238D01*
X53681239Y38536619D01*
X53395524Y38536619D01*
X53300286Y38584238D01*
X53252667Y38631857D01*
X47267905Y38536619D02*
X47267905Y39536619D01*
X47648858Y39536619D01*
X47744096Y39489000D01*
X47791715Y39441381D01*
X47839334Y39346143D01*
X47839334Y39203286D01*
X47791715Y39108048D01*
X47744096Y39060429D01*
X47648858Y39012810D01*
X47267905Y39012810D01*
X48220286Y39441381D02*
X48267905Y39489000D01*
X48363143Y39536619D01*
X48601239Y39536619D01*
X48696477Y39489000D01*
X48744096Y39441381D01*
X48791715Y39346143D01*
X48791715Y39250905D01*
X48744096Y39108048D01*
X48172667Y38536619D01*
X48791715Y38536619D01*
X32218405Y6215119D02*
X32218405Y7215119D01*
X32599358Y7215119D01*
X32694596Y7167500D01*
X32742215Y7119881D01*
X32789834Y7024643D01*
X32789834Y6881786D01*
X32742215Y6786548D01*
X32694596Y6738929D01*
X32599358Y6691310D01*
X32218405Y6691310D01*
X33742215Y6215119D02*
X33170786Y6215119D01*
X33456500Y6215119D02*
X33456500Y7215119D01*
X33361262Y7072262D01*
X33266024Y6977024D01*
X33170786Y6929405D01*
X32940667Y30900619D02*
X32940667Y30186333D01*
X32893047Y30043476D01*
X32797809Y29948238D01*
X32654952Y29900619D01*
X32559714Y29900619D01*
X33940667Y29900619D02*
X33369238Y29900619D01*
X33654952Y29900619D02*
X33654952Y30900619D01*
X33559714Y30757762D01*
X33464476Y30662524D01*
X33369238Y30614905D01*
X46886905Y24566619D02*
X46886905Y25566619D01*
X47125000Y25566619D01*
X47267858Y25519000D01*
X47363096Y25423762D01*
X47410715Y25328524D01*
X47458334Y25138048D01*
X47458334Y24995190D01*
X47410715Y24804714D01*
X47363096Y24709476D01*
X47267858Y24614238D01*
X47125000Y24566619D01*
X46886905Y24566619D01*
X48410715Y24566619D02*
X47839286Y24566619D01*
X48125000Y24566619D02*
X48125000Y25566619D01*
X48029762Y25423762D01*
X47934524Y25328524D01*
X47839286Y25280905D01*
X50374095Y23360219D02*
X50374095Y24360219D01*
X50945524Y23360219D02*
X50516952Y23931648D01*
X50945524Y24360219D02*
X50374095Y23788790D01*
X43775334Y26439857D02*
X43727715Y26392238D01*
X43584858Y26344619D01*
X43489620Y26344619D01*
X43346762Y26392238D01*
X43251524Y26487476D01*
X43203905Y26582714D01*
X43156286Y26773190D01*
X43156286Y26916048D01*
X43203905Y27106524D01*
X43251524Y27201762D01*
X43346762Y27297000D01*
X43489620Y27344619D01*
X43584858Y27344619D01*
X43727715Y27297000D01*
X43775334Y27249381D01*
X44108667Y27344619D02*
X44775334Y27344619D01*
X44346762Y26344619D01*
X35917143Y32345334D02*
X35964762Y32297715D01*
X36012381Y32154858D01*
X36012381Y32059620D01*
X35964762Y31916762D01*
X35869524Y31821524D01*
X35774286Y31773905D01*
X35583810Y31726286D01*
X35440952Y31726286D01*
X35250476Y31773905D01*
X35155238Y31821524D01*
X35060000Y31916762D01*
X35012381Y32059620D01*
X35012381Y32154858D01*
X35060000Y32297715D01*
X35107619Y32345334D01*
X35345714Y33202477D02*
X36012381Y33202477D01*
X34964762Y32964381D02*
X35679048Y32726286D01*
X35679048Y33345334D01*
D13*
X46267310Y7607905D02*
X46439667Y7550452D01*
X46726929Y7550452D01*
X46841833Y7607905D01*
X46899286Y7665357D01*
X46956738Y7780262D01*
X46956738Y7895167D01*
X46899286Y8010071D01*
X46841833Y8067524D01*
X46726929Y8124976D01*
X46497119Y8182429D01*
X46382214Y8239881D01*
X46324762Y8297333D01*
X46267310Y8412238D01*
X46267310Y8527143D01*
X46324762Y8642048D01*
X46382214Y8699500D01*
X46497119Y8756952D01*
X46784381Y8756952D01*
X46956738Y8699500D01*
X47358905Y8756952D02*
X47646167Y7550452D01*
X47875977Y8412238D01*
X48105786Y7550452D01*
X48393048Y8756952D01*
X49484643Y7550452D02*
X48795215Y7550452D01*
X49139929Y7550452D02*
X49139929Y8756952D01*
X49025024Y8584595D01*
X48910119Y8469690D01*
X48795215Y8412238D01*
X56744810Y7353905D02*
X56917167Y7296452D01*
X57204429Y7296452D01*
X57319333Y7353905D01*
X57376786Y7411357D01*
X57434238Y7526262D01*
X57434238Y7641167D01*
X57376786Y7756071D01*
X57319333Y7813524D01*
X57204429Y7870976D01*
X56974619Y7928429D01*
X56859714Y7985881D01*
X56802262Y8043333D01*
X56744810Y8158238D01*
X56744810Y8273143D01*
X56802262Y8388048D01*
X56859714Y8445500D01*
X56974619Y8502952D01*
X57261881Y8502952D01*
X57434238Y8445500D01*
X57836405Y8502952D02*
X58123667Y7296452D01*
X58353477Y8158238D01*
X58583286Y7296452D01*
X58870548Y8502952D01*
X59272715Y8388048D02*
X59330167Y8445500D01*
X59445072Y8502952D01*
X59732334Y8502952D01*
X59847238Y8445500D01*
X59904691Y8388048D01*
X59962143Y8273143D01*
X59962143Y8158238D01*
X59904691Y7985881D01*
X59215262Y7296452D01*
X59962143Y7296452D01*
D12*
X41679905Y38536619D02*
X41679905Y39536619D01*
X42060858Y39536619D01*
X42156096Y39489000D01*
X42203715Y39441381D01*
X42251334Y39346143D01*
X42251334Y39203286D01*
X42203715Y39108048D01*
X42156096Y39060429D01*
X42060858Y39012810D01*
X41679905Y39012810D01*
X43156096Y39536619D02*
X42679905Y39536619D01*
X42632286Y39060429D01*
X42679905Y39108048D01*
X42775143Y39155667D01*
X43013239Y39155667D01*
X43108477Y39108048D01*
X43156096Y39060429D01*
X43203715Y38965190D01*
X43203715Y38727095D01*
X43156096Y38631857D01*
X43108477Y38584238D01*
X43013239Y38536619D01*
X42775143Y38536619D01*
X42679905Y38584238D01*
X42632286Y38631857D01*
X56205381Y73588643D02*
X55729190Y73255309D01*
X56205381Y73017214D02*
X55205381Y73017214D01*
X55205381Y73398167D01*
X55253000Y73493405D01*
X55300619Y73541024D01*
X55395857Y73588643D01*
X55538714Y73588643D01*
X55633952Y73541024D01*
X55681571Y73493405D01*
X55729190Y73398167D01*
X55729190Y73017214D01*
X56205381Y74541024D02*
X56205381Y73969595D01*
X56205381Y74255309D02*
X55205381Y74255309D01*
X55348238Y74160071D01*
X55443476Y74064833D01*
X55491095Y73969595D01*
X55205381Y75445786D02*
X55205381Y74969595D01*
X55681571Y74921976D01*
X55633952Y74969595D01*
X55586333Y75064833D01*
X55586333Y75302929D01*
X55633952Y75398167D01*
X55681571Y75445786D01*
X55776810Y75493405D01*
X56014905Y75493405D01*
X56110143Y75445786D01*
X56157762Y75398167D01*
X56205381Y75302929D01*
X56205381Y75064833D01*
X56157762Y74969595D01*
X56110143Y74921976D01*
X58697905Y75874619D02*
X58697905Y76874619D01*
X59078858Y76874619D01*
X59174096Y76827000D01*
X59221715Y76779381D01*
X59269334Y76684143D01*
X59269334Y76541286D01*
X59221715Y76446048D01*
X59174096Y76398429D01*
X59078858Y76350810D01*
X58697905Y76350810D01*
X60126477Y76874619D02*
X59936000Y76874619D01*
X59840762Y76827000D01*
X59793143Y76779381D01*
X59697905Y76636524D01*
X59650286Y76446048D01*
X59650286Y76065095D01*
X59697905Y75969857D01*
X59745524Y75922238D01*
X59840762Y75874619D01*
X60031239Y75874619D01*
X60126477Y75922238D01*
X60174096Y75969857D01*
X60221715Y76065095D01*
X60221715Y76303190D01*
X60174096Y76398429D01*
X60126477Y76446048D01*
X60031239Y76493667D01*
X59840762Y76493667D01*
X59745524Y76446048D01*
X59697905Y76398429D01*
X59650286Y76303190D01*
X59182095Y88685619D02*
X59182095Y87876095D01*
X59229714Y87780857D01*
X59277333Y87733238D01*
X59372571Y87685619D01*
X59563048Y87685619D01*
X59658286Y87733238D01*
X59705905Y87780857D01*
X59753524Y87876095D01*
X59753524Y88685619D01*
X60134476Y88685619D02*
X60753524Y88685619D01*
X60420190Y88304667D01*
X60563048Y88304667D01*
X60658286Y88257048D01*
X60705905Y88209429D01*
X60753524Y88114190D01*
X60753524Y87876095D01*
X60705905Y87780857D01*
X60658286Y87733238D01*
X60563048Y87685619D01*
X60277333Y87685619D01*
X60182095Y87733238D01*
X60134476Y87780857D01*
X39052595Y52490619D02*
X39052595Y51681095D01*
X39100214Y51585857D01*
X39147833Y51538238D01*
X39243071Y51490619D01*
X39433548Y51490619D01*
X39528786Y51538238D01*
X39576405Y51585857D01*
X39624024Y51681095D01*
X39624024Y52490619D01*
X40052595Y52395381D02*
X40100214Y52443000D01*
X40195452Y52490619D01*
X40433548Y52490619D01*
X40528786Y52443000D01*
X40576405Y52395381D01*
X40624024Y52300143D01*
X40624024Y52204905D01*
X40576405Y52062048D01*
X40004976Y51490619D01*
X40624024Y51490619D01*
X38163595Y62841119D02*
X38163595Y62031595D01*
X38211214Y61936357D01*
X38258833Y61888738D01*
X38354071Y61841119D01*
X38544548Y61841119D01*
X38639786Y61888738D01*
X38687405Y61936357D01*
X38735024Y62031595D01*
X38735024Y62841119D01*
X39735024Y61841119D02*
X39163595Y61841119D01*
X39449309Y61841119D02*
X39449309Y62841119D01*
X39354071Y62698262D01*
X39258833Y62603024D01*
X39163595Y62555405D01*
X60920381Y59674286D02*
X60920381Y60245715D01*
X61920381Y59960000D02*
X60920381Y59960000D01*
X61920381Y60579048D02*
X60920381Y60579048D01*
X61396571Y60579048D02*
X61396571Y61150477D01*
X61920381Y61150477D02*
X60920381Y61150477D01*
X61920381Y62150477D02*
X61920381Y61579048D01*
X61920381Y61864762D02*
X60920381Y61864762D01*
X61063238Y61769524D01*
X61158476Y61674286D01*
X61206095Y61579048D01*
X32964381Y82161143D02*
X32488190Y81827809D01*
X32964381Y81589714D02*
X31964381Y81589714D01*
X31964381Y81970667D01*
X32012000Y82065905D01*
X32059619Y82113524D01*
X32154857Y82161143D01*
X32297714Y82161143D01*
X32392952Y82113524D01*
X32440571Y82065905D01*
X32488190Y81970667D01*
X32488190Y81589714D01*
X32964381Y83113524D02*
X32964381Y82542095D01*
X32964381Y82827809D02*
X31964381Y82827809D01*
X32107238Y82732571D01*
X32202476Y82637333D01*
X32250095Y82542095D01*
X32059619Y83494476D02*
X32012000Y83542095D01*
X31964381Y83637333D01*
X31964381Y83875429D01*
X32012000Y83970667D01*
X32059619Y84018286D01*
X32154857Y84065905D01*
X32250095Y84065905D01*
X32392952Y84018286D01*
X32964381Y83446857D01*
X32964381Y84065905D01*
D13*
X38429595Y49155048D02*
X38314690Y49212500D01*
X38199786Y49327405D01*
X38027429Y49499762D01*
X37912524Y49557214D01*
X37797619Y49557214D01*
X37855071Y49269952D02*
X37740167Y49327405D01*
X37625262Y49442310D01*
X37567810Y49672119D01*
X37567810Y50074286D01*
X37625262Y50304095D01*
X37740167Y50419000D01*
X37855071Y50476452D01*
X38084881Y50476452D01*
X38199786Y50419000D01*
X38314690Y50304095D01*
X38372143Y50074286D01*
X38372143Y49672119D01*
X38314690Y49442310D01*
X38199786Y49327405D01*
X38084881Y49269952D01*
X37855071Y49269952D01*
X39521190Y49269952D02*
X38831762Y49269952D01*
X39176476Y49269952D02*
X39176476Y50476452D01*
X39061571Y50304095D01*
X38946666Y50189190D01*
X38831762Y50131738D01*
D12*
X37996905Y83113619D02*
X37996905Y84113619D01*
X38377858Y84113619D01*
X38473096Y84066000D01*
X38520715Y84018381D01*
X38568334Y83923143D01*
X38568334Y83780286D01*
X38520715Y83685048D01*
X38473096Y83637429D01*
X38377858Y83589810D01*
X37996905Y83589810D01*
X39425477Y83780286D02*
X39425477Y83113619D01*
X39187381Y84161238D02*
X38949286Y83446952D01*
X39568334Y83446952D01*
X52347905Y83240619D02*
X52347905Y84240619D01*
X52728858Y84240619D01*
X52824096Y84193000D01*
X52871715Y84145381D01*
X52919334Y84050143D01*
X52919334Y83907286D01*
X52871715Y83812048D01*
X52824096Y83764429D01*
X52728858Y83716810D01*
X52347905Y83716810D01*
X53252667Y84240619D02*
X53871715Y84240619D01*
X53538381Y83859667D01*
X53681239Y83859667D01*
X53776477Y83812048D01*
X53824096Y83764429D01*
X53871715Y83669190D01*
X53871715Y83431095D01*
X53824096Y83335857D01*
X53776477Y83288238D01*
X53681239Y83240619D01*
X53395524Y83240619D01*
X53300286Y83288238D01*
X53252667Y83335857D01*
X47267905Y83240619D02*
X47267905Y84240619D01*
X47648858Y84240619D01*
X47744096Y84193000D01*
X47791715Y84145381D01*
X47839334Y84050143D01*
X47839334Y83907286D01*
X47791715Y83812048D01*
X47744096Y83764429D01*
X47648858Y83716810D01*
X47267905Y83716810D01*
X48220286Y84145381D02*
X48267905Y84193000D01*
X48363143Y84240619D01*
X48601239Y84240619D01*
X48696477Y84193000D01*
X48744096Y84145381D01*
X48791715Y84050143D01*
X48791715Y83954905D01*
X48744096Y83812048D01*
X48172667Y83240619D01*
X48791715Y83240619D01*
X32218405Y50919119D02*
X32218405Y51919119D01*
X32599358Y51919119D01*
X32694596Y51871500D01*
X32742215Y51823881D01*
X32789834Y51728643D01*
X32789834Y51585786D01*
X32742215Y51490548D01*
X32694596Y51442929D01*
X32599358Y51395310D01*
X32218405Y51395310D01*
X33742215Y50919119D02*
X33170786Y50919119D01*
X33456500Y50919119D02*
X33456500Y51919119D01*
X33361262Y51776262D01*
X33266024Y51681024D01*
X33170786Y51633405D01*
X32940667Y75604619D02*
X32940667Y74890333D01*
X32893047Y74747476D01*
X32797809Y74652238D01*
X32654952Y74604619D01*
X32559714Y74604619D01*
X33940667Y74604619D02*
X33369238Y74604619D01*
X33654952Y74604619D02*
X33654952Y75604619D01*
X33559714Y75461762D01*
X33464476Y75366524D01*
X33369238Y75318905D01*
X46886905Y69270619D02*
X46886905Y70270619D01*
X47125000Y70270619D01*
X47267858Y70223000D01*
X47363096Y70127762D01*
X47410715Y70032524D01*
X47458334Y69842048D01*
X47458334Y69699190D01*
X47410715Y69508714D01*
X47363096Y69413476D01*
X47267858Y69318238D01*
X47125000Y69270619D01*
X46886905Y69270619D01*
X48410715Y69270619D02*
X47839286Y69270619D01*
X48125000Y69270619D02*
X48125000Y70270619D01*
X48029762Y70127762D01*
X47934524Y70032524D01*
X47839286Y69984905D01*
X50374095Y68064219D02*
X50374095Y69064219D01*
X50945524Y68064219D02*
X50516952Y68635648D01*
X50945524Y69064219D02*
X50374095Y68492790D01*
X43775334Y71143857D02*
X43727715Y71096238D01*
X43584858Y71048619D01*
X43489620Y71048619D01*
X43346762Y71096238D01*
X43251524Y71191476D01*
X43203905Y71286714D01*
X43156286Y71477190D01*
X43156286Y71620048D01*
X43203905Y71810524D01*
X43251524Y71905762D01*
X43346762Y72001000D01*
X43489620Y72048619D01*
X43584858Y72048619D01*
X43727715Y72001000D01*
X43775334Y71953381D01*
X44108667Y72048619D02*
X44775334Y72048619D01*
X44346762Y71048619D01*
X35917143Y77049334D02*
X35964762Y77001715D01*
X36012381Y76858858D01*
X36012381Y76763620D01*
X35964762Y76620762D01*
X35869524Y76525524D01*
X35774286Y76477905D01*
X35583810Y76430286D01*
X35440952Y76430286D01*
X35250476Y76477905D01*
X35155238Y76525524D01*
X35060000Y76620762D01*
X35012381Y76763620D01*
X35012381Y76858858D01*
X35060000Y77001715D01*
X35107619Y77049334D01*
X35345714Y77906477D02*
X36012381Y77906477D01*
X34964762Y77668381D02*
X35679048Y77430286D01*
X35679048Y78049334D01*
D13*
X46267310Y52311905D02*
X46439667Y52254452D01*
X46726929Y52254452D01*
X46841833Y52311905D01*
X46899286Y52369357D01*
X46956738Y52484262D01*
X46956738Y52599167D01*
X46899286Y52714071D01*
X46841833Y52771524D01*
X46726929Y52828976D01*
X46497119Y52886429D01*
X46382214Y52943881D01*
X46324762Y53001333D01*
X46267310Y53116238D01*
X46267310Y53231143D01*
X46324762Y53346048D01*
X46382214Y53403500D01*
X46497119Y53460952D01*
X46784381Y53460952D01*
X46956738Y53403500D01*
X47358905Y53460952D02*
X47646167Y52254452D01*
X47875977Y53116238D01*
X48105786Y52254452D01*
X48393048Y53460952D01*
X49484643Y52254452D02*
X48795215Y52254452D01*
X49139929Y52254452D02*
X49139929Y53460952D01*
X49025024Y53288595D01*
X48910119Y53173690D01*
X48795215Y53116238D01*
X56744810Y52057905D02*
X56917167Y52000452D01*
X57204429Y52000452D01*
X57319333Y52057905D01*
X57376786Y52115357D01*
X57434238Y52230262D01*
X57434238Y52345167D01*
X57376786Y52460071D01*
X57319333Y52517524D01*
X57204429Y52574976D01*
X56974619Y52632429D01*
X56859714Y52689881D01*
X56802262Y52747333D01*
X56744810Y52862238D01*
X56744810Y52977143D01*
X56802262Y53092048D01*
X56859714Y53149500D01*
X56974619Y53206952D01*
X57261881Y53206952D01*
X57434238Y53149500D01*
X57836405Y53206952D02*
X58123667Y52000452D01*
X58353477Y52862238D01*
X58583286Y52000452D01*
X58870548Y53206952D01*
X59272715Y53092048D02*
X59330167Y53149500D01*
X59445072Y53206952D01*
X59732334Y53206952D01*
X59847238Y53149500D01*
X59904691Y53092048D01*
X59962143Y52977143D01*
X59962143Y52862238D01*
X59904691Y52689881D01*
X59215262Y52000452D01*
X59962143Y52000452D01*
D12*
X41679905Y83240619D02*
X41679905Y84240619D01*
X42060858Y84240619D01*
X42156096Y84193000D01*
X42203715Y84145381D01*
X42251334Y84050143D01*
X42251334Y83907286D01*
X42203715Y83812048D01*
X42156096Y83764429D01*
X42060858Y83716810D01*
X41679905Y83716810D01*
X43156096Y84240619D02*
X42679905Y84240619D01*
X42632286Y83764429D01*
X42679905Y83812048D01*
X42775143Y83859667D01*
X43013239Y83859667D01*
X43108477Y83812048D01*
X43156096Y83764429D01*
X43203715Y83669190D01*
X43203715Y83431095D01*
X43156096Y83335857D01*
X43108477Y83288238D01*
X43013239Y83240619D01*
X42775143Y83240619D01*
X42679905Y83288238D01*
X42632286Y83335857D01*
X24709381Y28884643D02*
X24233190Y28551309D01*
X24709381Y28313214D02*
X23709381Y28313214D01*
X23709381Y28694167D01*
X23757000Y28789405D01*
X23804619Y28837024D01*
X23899857Y28884643D01*
X24042714Y28884643D01*
X24137952Y28837024D01*
X24185571Y28789405D01*
X24233190Y28694167D01*
X24233190Y28313214D01*
X24709381Y29837024D02*
X24709381Y29265595D01*
X24709381Y29551309D02*
X23709381Y29551309D01*
X23852238Y29456071D01*
X23947476Y29360833D01*
X23995095Y29265595D01*
X23709381Y30741786D02*
X23709381Y30265595D01*
X24185571Y30217976D01*
X24137952Y30265595D01*
X24090333Y30360833D01*
X24090333Y30598929D01*
X24137952Y30694167D01*
X24185571Y30741786D01*
X24280810Y30789405D01*
X24518905Y30789405D01*
X24614143Y30741786D01*
X24661762Y30694167D01*
X24709381Y30598929D01*
X24709381Y30360833D01*
X24661762Y30265595D01*
X24614143Y30217976D01*
X27201905Y31170619D02*
X27201905Y32170619D01*
X27582858Y32170619D01*
X27678096Y32123000D01*
X27725715Y32075381D01*
X27773334Y31980143D01*
X27773334Y31837286D01*
X27725715Y31742048D01*
X27678096Y31694429D01*
X27582858Y31646810D01*
X27201905Y31646810D01*
X28630477Y32170619D02*
X28440000Y32170619D01*
X28344762Y32123000D01*
X28297143Y32075381D01*
X28201905Y31932524D01*
X28154286Y31742048D01*
X28154286Y31361095D01*
X28201905Y31265857D01*
X28249524Y31218238D01*
X28344762Y31170619D01*
X28535239Y31170619D01*
X28630477Y31218238D01*
X28678096Y31265857D01*
X28725715Y31361095D01*
X28725715Y31599190D01*
X28678096Y31694429D01*
X28630477Y31742048D01*
X28535239Y31789667D01*
X28344762Y31789667D01*
X28249524Y31742048D01*
X28201905Y31694429D01*
X28154286Y31599190D01*
X27686095Y43981619D02*
X27686095Y43172095D01*
X27733714Y43076857D01*
X27781333Y43029238D01*
X27876571Y42981619D01*
X28067048Y42981619D01*
X28162286Y43029238D01*
X28209905Y43076857D01*
X28257524Y43172095D01*
X28257524Y43981619D01*
X28638476Y43981619D02*
X29257524Y43981619D01*
X28924190Y43600667D01*
X29067048Y43600667D01*
X29162286Y43553048D01*
X29209905Y43505429D01*
X29257524Y43410190D01*
X29257524Y43172095D01*
X29209905Y43076857D01*
X29162286Y43029238D01*
X29067048Y42981619D01*
X28781333Y42981619D01*
X28686095Y43029238D01*
X28638476Y43076857D01*
X7556595Y7786619D02*
X7556595Y6977095D01*
X7604214Y6881857D01*
X7651833Y6834238D01*
X7747071Y6786619D01*
X7937548Y6786619D01*
X8032786Y6834238D01*
X8080405Y6881857D01*
X8128024Y6977095D01*
X8128024Y7786619D01*
X8556595Y7691381D02*
X8604214Y7739000D01*
X8699452Y7786619D01*
X8937548Y7786619D01*
X9032786Y7739000D01*
X9080405Y7691381D01*
X9128024Y7596143D01*
X9128024Y7500905D01*
X9080405Y7358048D01*
X8508976Y6786619D01*
X9128024Y6786619D01*
X6667595Y18137119D02*
X6667595Y17327595D01*
X6715214Y17232357D01*
X6762833Y17184738D01*
X6858071Y17137119D01*
X7048548Y17137119D01*
X7143786Y17184738D01*
X7191405Y17232357D01*
X7239024Y17327595D01*
X7239024Y18137119D01*
X8239024Y17137119D02*
X7667595Y17137119D01*
X7953309Y17137119D02*
X7953309Y18137119D01*
X7858071Y17994262D01*
X7762833Y17899024D01*
X7667595Y17851405D01*
X29424381Y14970286D02*
X29424381Y15541715D01*
X30424381Y15256000D02*
X29424381Y15256000D01*
X30424381Y15875048D02*
X29424381Y15875048D01*
X29900571Y15875048D02*
X29900571Y16446477D01*
X30424381Y16446477D02*
X29424381Y16446477D01*
X30424381Y17446477D02*
X30424381Y16875048D01*
X30424381Y17160762D02*
X29424381Y17160762D01*
X29567238Y17065524D01*
X29662476Y16970286D01*
X29710095Y16875048D01*
X1468381Y37457143D02*
X992190Y37123809D01*
X1468381Y36885714D02*
X468381Y36885714D01*
X468381Y37266667D01*
X516000Y37361905D01*
X563619Y37409524D01*
X658857Y37457143D01*
X801714Y37457143D01*
X896952Y37409524D01*
X944571Y37361905D01*
X992190Y37266667D01*
X992190Y36885714D01*
X1468381Y38409524D02*
X1468381Y37838095D01*
X1468381Y38123809D02*
X468381Y38123809D01*
X611238Y38028571D01*
X706476Y37933333D01*
X754095Y37838095D01*
X563619Y38790476D02*
X516000Y38838095D01*
X468381Y38933333D01*
X468381Y39171429D01*
X516000Y39266667D01*
X563619Y39314286D01*
X658857Y39361905D01*
X754095Y39361905D01*
X896952Y39314286D01*
X1468381Y38742857D01*
X1468381Y39361905D01*
D13*
X6933595Y4451048D02*
X6818690Y4508500D01*
X6703786Y4623405D01*
X6531429Y4795762D01*
X6416524Y4853214D01*
X6301619Y4853214D01*
X6359071Y4565952D02*
X6244167Y4623405D01*
X6129262Y4738310D01*
X6071810Y4968119D01*
X6071810Y5370286D01*
X6129262Y5600095D01*
X6244167Y5715000D01*
X6359071Y5772452D01*
X6588881Y5772452D01*
X6703786Y5715000D01*
X6818690Y5600095D01*
X6876143Y5370286D01*
X6876143Y4968119D01*
X6818690Y4738310D01*
X6703786Y4623405D01*
X6588881Y4565952D01*
X6359071Y4565952D01*
X8025190Y4565952D02*
X7335762Y4565952D01*
X7680476Y4565952D02*
X7680476Y5772452D01*
X7565571Y5600095D01*
X7450666Y5485190D01*
X7335762Y5427738D01*
D12*
X6500905Y38409619D02*
X6500905Y39409619D01*
X6881858Y39409619D01*
X6977096Y39362000D01*
X7024715Y39314381D01*
X7072334Y39219143D01*
X7072334Y39076286D01*
X7024715Y38981048D01*
X6977096Y38933429D01*
X6881858Y38885810D01*
X6500905Y38885810D01*
X7929477Y39076286D02*
X7929477Y38409619D01*
X7691381Y39457238D02*
X7453286Y38742952D01*
X8072334Y38742952D01*
X20851905Y38536619D02*
X20851905Y39536619D01*
X21232858Y39536619D01*
X21328096Y39489000D01*
X21375715Y39441381D01*
X21423334Y39346143D01*
X21423334Y39203286D01*
X21375715Y39108048D01*
X21328096Y39060429D01*
X21232858Y39012810D01*
X20851905Y39012810D01*
X21756667Y39536619D02*
X22375715Y39536619D01*
X22042381Y39155667D01*
X22185239Y39155667D01*
X22280477Y39108048D01*
X22328096Y39060429D01*
X22375715Y38965190D01*
X22375715Y38727095D01*
X22328096Y38631857D01*
X22280477Y38584238D01*
X22185239Y38536619D01*
X21899524Y38536619D01*
X21804286Y38584238D01*
X21756667Y38631857D01*
X15771905Y38536619D02*
X15771905Y39536619D01*
X16152858Y39536619D01*
X16248096Y39489000D01*
X16295715Y39441381D01*
X16343334Y39346143D01*
X16343334Y39203286D01*
X16295715Y39108048D01*
X16248096Y39060429D01*
X16152858Y39012810D01*
X15771905Y39012810D01*
X16724286Y39441381D02*
X16771905Y39489000D01*
X16867143Y39536619D01*
X17105239Y39536619D01*
X17200477Y39489000D01*
X17248096Y39441381D01*
X17295715Y39346143D01*
X17295715Y39250905D01*
X17248096Y39108048D01*
X16676667Y38536619D01*
X17295715Y38536619D01*
X722405Y6215119D02*
X722405Y7215119D01*
X1103358Y7215119D01*
X1198596Y7167500D01*
X1246215Y7119881D01*
X1293834Y7024643D01*
X1293834Y6881786D01*
X1246215Y6786548D01*
X1198596Y6738929D01*
X1103358Y6691310D01*
X722405Y6691310D01*
X2246215Y6215119D02*
X1674786Y6215119D01*
X1960500Y6215119D02*
X1960500Y7215119D01*
X1865262Y7072262D01*
X1770024Y6977024D01*
X1674786Y6929405D01*
X1444667Y30900619D02*
X1444667Y30186333D01*
X1397047Y30043476D01*
X1301809Y29948238D01*
X1158952Y29900619D01*
X1063714Y29900619D01*
X2444667Y29900619D02*
X1873238Y29900619D01*
X2158952Y29900619D02*
X2158952Y30900619D01*
X2063714Y30757762D01*
X1968476Y30662524D01*
X1873238Y30614905D01*
X15390905Y24566619D02*
X15390905Y25566619D01*
X15629000Y25566619D01*
X15771858Y25519000D01*
X15867096Y25423762D01*
X15914715Y25328524D01*
X15962334Y25138048D01*
X15962334Y24995190D01*
X15914715Y24804714D01*
X15867096Y24709476D01*
X15771858Y24614238D01*
X15629000Y24566619D01*
X15390905Y24566619D01*
X16914715Y24566619D02*
X16343286Y24566619D01*
X16629000Y24566619D02*
X16629000Y25566619D01*
X16533762Y25423762D01*
X16438524Y25328524D01*
X16343286Y25280905D01*
X18878095Y23360219D02*
X18878095Y24360219D01*
X19449524Y23360219D02*
X19020952Y23931648D01*
X19449524Y24360219D02*
X18878095Y23788790D01*
X12279334Y26439857D02*
X12231715Y26392238D01*
X12088858Y26344619D01*
X11993620Y26344619D01*
X11850762Y26392238D01*
X11755524Y26487476D01*
X11707905Y26582714D01*
X11660286Y26773190D01*
X11660286Y26916048D01*
X11707905Y27106524D01*
X11755524Y27201762D01*
X11850762Y27297000D01*
X11993620Y27344619D01*
X12088858Y27344619D01*
X12231715Y27297000D01*
X12279334Y27249381D01*
X12612667Y27344619D02*
X13279334Y27344619D01*
X12850762Y26344619D01*
X4421143Y32345334D02*
X4468762Y32297715D01*
X4516381Y32154858D01*
X4516381Y32059620D01*
X4468762Y31916762D01*
X4373524Y31821524D01*
X4278286Y31773905D01*
X4087810Y31726286D01*
X3944952Y31726286D01*
X3754476Y31773905D01*
X3659238Y31821524D01*
X3564000Y31916762D01*
X3516381Y32059620D01*
X3516381Y32154858D01*
X3564000Y32297715D01*
X3611619Y32345334D01*
X3849714Y33202477D02*
X4516381Y33202477D01*
X3468762Y32964381D02*
X4183048Y32726286D01*
X4183048Y33345334D01*
D13*
X14771310Y7607905D02*
X14943667Y7550452D01*
X15230929Y7550452D01*
X15345833Y7607905D01*
X15403286Y7665357D01*
X15460738Y7780262D01*
X15460738Y7895167D01*
X15403286Y8010071D01*
X15345833Y8067524D01*
X15230929Y8124976D01*
X15001119Y8182429D01*
X14886214Y8239881D01*
X14828762Y8297333D01*
X14771310Y8412238D01*
X14771310Y8527143D01*
X14828762Y8642048D01*
X14886214Y8699500D01*
X15001119Y8756952D01*
X15288381Y8756952D01*
X15460738Y8699500D01*
X15862905Y8756952D02*
X16150167Y7550452D01*
X16379977Y8412238D01*
X16609786Y7550452D01*
X16897048Y8756952D01*
X17988643Y7550452D02*
X17299215Y7550452D01*
X17643929Y7550452D02*
X17643929Y8756952D01*
X17529024Y8584595D01*
X17414119Y8469690D01*
X17299215Y8412238D01*
X25248810Y7353905D02*
X25421167Y7296452D01*
X25708429Y7296452D01*
X25823333Y7353905D01*
X25880786Y7411357D01*
X25938238Y7526262D01*
X25938238Y7641167D01*
X25880786Y7756071D01*
X25823333Y7813524D01*
X25708429Y7870976D01*
X25478619Y7928429D01*
X25363714Y7985881D01*
X25306262Y8043333D01*
X25248810Y8158238D01*
X25248810Y8273143D01*
X25306262Y8388048D01*
X25363714Y8445500D01*
X25478619Y8502952D01*
X25765881Y8502952D01*
X25938238Y8445500D01*
X26340405Y8502952D02*
X26627667Y7296452D01*
X26857477Y8158238D01*
X27087286Y7296452D01*
X27374548Y8502952D01*
X27776715Y8388048D02*
X27834167Y8445500D01*
X27949072Y8502952D01*
X28236334Y8502952D01*
X28351238Y8445500D01*
X28408691Y8388048D01*
X28466143Y8273143D01*
X28466143Y8158238D01*
X28408691Y7985881D01*
X27719262Y7296452D01*
X28466143Y7296452D01*
D12*
X10183905Y38536619D02*
X10183905Y39536619D01*
X10564858Y39536619D01*
X10660096Y39489000D01*
X10707715Y39441381D01*
X10755334Y39346143D01*
X10755334Y39203286D01*
X10707715Y39108048D01*
X10660096Y39060429D01*
X10564858Y39012810D01*
X10183905Y39012810D01*
X11660096Y39536619D02*
X11183905Y39536619D01*
X11136286Y39060429D01*
X11183905Y39108048D01*
X11279143Y39155667D01*
X11517239Y39155667D01*
X11612477Y39108048D01*
X11660096Y39060429D01*
X11707715Y38965190D01*
X11707715Y38727095D01*
X11660096Y38631857D01*
X11612477Y38584238D01*
X11517239Y38536619D01*
X11279143Y38536619D01*
X11183905Y38584238D01*
X11136286Y38631857D01*
X10183905Y83240619D02*
X10183905Y84240619D01*
X10564858Y84240619D01*
X10660096Y84193000D01*
X10707715Y84145381D01*
X10755334Y84050143D01*
X10755334Y83907286D01*
X10707715Y83812048D01*
X10660096Y83764429D01*
X10564858Y83716810D01*
X10183905Y83716810D01*
X11660096Y84240619D02*
X11183905Y84240619D01*
X11136286Y83764429D01*
X11183905Y83812048D01*
X11279143Y83859667D01*
X11517239Y83859667D01*
X11612477Y83812048D01*
X11660096Y83764429D01*
X11707715Y83669190D01*
X11707715Y83431095D01*
X11660096Y83335857D01*
X11612477Y83288238D01*
X11517239Y83240619D01*
X11279143Y83240619D01*
X11183905Y83288238D01*
X11136286Y83335857D01*
D13*
X25248810Y52057905D02*
X25421167Y52000452D01*
X25708429Y52000452D01*
X25823333Y52057905D01*
X25880786Y52115357D01*
X25938238Y52230262D01*
X25938238Y52345167D01*
X25880786Y52460071D01*
X25823333Y52517524D01*
X25708429Y52574976D01*
X25478619Y52632429D01*
X25363714Y52689881D01*
X25306262Y52747333D01*
X25248810Y52862238D01*
X25248810Y52977143D01*
X25306262Y53092048D01*
X25363714Y53149500D01*
X25478619Y53206952D01*
X25765881Y53206952D01*
X25938238Y53149500D01*
X26340405Y53206952D02*
X26627667Y52000452D01*
X26857477Y52862238D01*
X27087286Y52000452D01*
X27374548Y53206952D01*
X27776715Y53092048D02*
X27834167Y53149500D01*
X27949072Y53206952D01*
X28236334Y53206952D01*
X28351238Y53149500D01*
X28408691Y53092048D01*
X28466143Y52977143D01*
X28466143Y52862238D01*
X28408691Y52689881D01*
X27719262Y52000452D01*
X28466143Y52000452D01*
X14771310Y52311905D02*
X14943667Y52254452D01*
X15230929Y52254452D01*
X15345833Y52311905D01*
X15403286Y52369357D01*
X15460738Y52484262D01*
X15460738Y52599167D01*
X15403286Y52714071D01*
X15345833Y52771524D01*
X15230929Y52828976D01*
X15001119Y52886429D01*
X14886214Y52943881D01*
X14828762Y53001333D01*
X14771310Y53116238D01*
X14771310Y53231143D01*
X14828762Y53346048D01*
X14886214Y53403500D01*
X15001119Y53460952D01*
X15288381Y53460952D01*
X15460738Y53403500D01*
X15862905Y53460952D02*
X16150167Y52254452D01*
X16379977Y53116238D01*
X16609786Y52254452D01*
X16897048Y53460952D01*
X17988643Y52254452D02*
X17299215Y52254452D01*
X17643929Y52254452D02*
X17643929Y53460952D01*
X17529024Y53288595D01*
X17414119Y53173690D01*
X17299215Y53116238D01*
D12*
X4421143Y77049334D02*
X4468762Y77001715D01*
X4516381Y76858858D01*
X4516381Y76763620D01*
X4468762Y76620762D01*
X4373524Y76525524D01*
X4278286Y76477905D01*
X4087810Y76430286D01*
X3944952Y76430286D01*
X3754476Y76477905D01*
X3659238Y76525524D01*
X3564000Y76620762D01*
X3516381Y76763620D01*
X3516381Y76858858D01*
X3564000Y77001715D01*
X3611619Y77049334D01*
X3849714Y77906477D02*
X4516381Y77906477D01*
X3468762Y77668381D02*
X4183048Y77430286D01*
X4183048Y78049334D01*
X12279334Y71143857D02*
X12231715Y71096238D01*
X12088858Y71048619D01*
X11993620Y71048619D01*
X11850762Y71096238D01*
X11755524Y71191476D01*
X11707905Y71286714D01*
X11660286Y71477190D01*
X11660286Y71620048D01*
X11707905Y71810524D01*
X11755524Y71905762D01*
X11850762Y72001000D01*
X11993620Y72048619D01*
X12088858Y72048619D01*
X12231715Y72001000D01*
X12279334Y71953381D01*
X12612667Y72048619D02*
X13279334Y72048619D01*
X12850762Y71048619D01*
X15390905Y69270619D02*
X15390905Y70270619D01*
X15629000Y70270619D01*
X15771858Y70223000D01*
X15867096Y70127762D01*
X15914715Y70032524D01*
X15962334Y69842048D01*
X15962334Y69699190D01*
X15914715Y69508714D01*
X15867096Y69413476D01*
X15771858Y69318238D01*
X15629000Y69270619D01*
X15390905Y69270619D01*
X16914715Y69270619D02*
X16343286Y69270619D01*
X16629000Y69270619D02*
X16629000Y70270619D01*
X16533762Y70127762D01*
X16438524Y70032524D01*
X16343286Y69984905D01*
X18878095Y68064219D02*
X18878095Y69064219D01*
X19449524Y68064219D02*
X19020952Y68635648D01*
X19449524Y69064219D02*
X18878095Y68492790D01*
X1444667Y75604619D02*
X1444667Y74890333D01*
X1397047Y74747476D01*
X1301809Y74652238D01*
X1158952Y74604619D01*
X1063714Y74604619D01*
X2444667Y74604619D02*
X1873238Y74604619D01*
X2158952Y74604619D02*
X2158952Y75604619D01*
X2063714Y75461762D01*
X1968476Y75366524D01*
X1873238Y75318905D01*
X722405Y50919119D02*
X722405Y51919119D01*
X1103358Y51919119D01*
X1198596Y51871500D01*
X1246215Y51823881D01*
X1293834Y51728643D01*
X1293834Y51585786D01*
X1246215Y51490548D01*
X1198596Y51442929D01*
X1103358Y51395310D01*
X722405Y51395310D01*
X2246215Y50919119D02*
X1674786Y50919119D01*
X1960500Y50919119D02*
X1960500Y51919119D01*
X1865262Y51776262D01*
X1770024Y51681024D01*
X1674786Y51633405D01*
X15771905Y83240619D02*
X15771905Y84240619D01*
X16152858Y84240619D01*
X16248096Y84193000D01*
X16295715Y84145381D01*
X16343334Y84050143D01*
X16343334Y83907286D01*
X16295715Y83812048D01*
X16248096Y83764429D01*
X16152858Y83716810D01*
X15771905Y83716810D01*
X16724286Y84145381D02*
X16771905Y84193000D01*
X16867143Y84240619D01*
X17105239Y84240619D01*
X17200477Y84193000D01*
X17248096Y84145381D01*
X17295715Y84050143D01*
X17295715Y83954905D01*
X17248096Y83812048D01*
X16676667Y83240619D01*
X17295715Y83240619D01*
X20851905Y83240619D02*
X20851905Y84240619D01*
X21232858Y84240619D01*
X21328096Y84193000D01*
X21375715Y84145381D01*
X21423334Y84050143D01*
X21423334Y83907286D01*
X21375715Y83812048D01*
X21328096Y83764429D01*
X21232858Y83716810D01*
X20851905Y83716810D01*
X21756667Y84240619D02*
X22375715Y84240619D01*
X22042381Y83859667D01*
X22185239Y83859667D01*
X22280477Y83812048D01*
X22328096Y83764429D01*
X22375715Y83669190D01*
X22375715Y83431095D01*
X22328096Y83335857D01*
X22280477Y83288238D01*
X22185239Y83240619D01*
X21899524Y83240619D01*
X21804286Y83288238D01*
X21756667Y83335857D01*
X6500905Y83113619D02*
X6500905Y84113619D01*
X6881858Y84113619D01*
X6977096Y84066000D01*
X7024715Y84018381D01*
X7072334Y83923143D01*
X7072334Y83780286D01*
X7024715Y83685048D01*
X6977096Y83637429D01*
X6881858Y83589810D01*
X6500905Y83589810D01*
X7929477Y83780286D02*
X7929477Y83113619D01*
X7691381Y84161238D02*
X7453286Y83446952D01*
X8072334Y83446952D01*
D13*
X6933595Y49155048D02*
X6818690Y49212500D01*
X6703786Y49327405D01*
X6531429Y49499762D01*
X6416524Y49557214D01*
X6301619Y49557214D01*
X6359071Y49269952D02*
X6244167Y49327405D01*
X6129262Y49442310D01*
X6071810Y49672119D01*
X6071810Y50074286D01*
X6129262Y50304095D01*
X6244167Y50419000D01*
X6359071Y50476452D01*
X6588881Y50476452D01*
X6703786Y50419000D01*
X6818690Y50304095D01*
X6876143Y50074286D01*
X6876143Y49672119D01*
X6818690Y49442310D01*
X6703786Y49327405D01*
X6588881Y49269952D01*
X6359071Y49269952D01*
X8025190Y49269952D02*
X7335762Y49269952D01*
X7680476Y49269952D02*
X7680476Y50476452D01*
X7565571Y50304095D01*
X7450666Y50189190D01*
X7335762Y50131738D01*
D12*
X1468381Y82161143D02*
X992190Y81827809D01*
X1468381Y81589714D02*
X468381Y81589714D01*
X468381Y81970667D01*
X516000Y82065905D01*
X563619Y82113524D01*
X658857Y82161143D01*
X801714Y82161143D01*
X896952Y82113524D01*
X944571Y82065905D01*
X992190Y81970667D01*
X992190Y81589714D01*
X1468381Y83113524D02*
X1468381Y82542095D01*
X1468381Y82827809D02*
X468381Y82827809D01*
X611238Y82732571D01*
X706476Y82637333D01*
X754095Y82542095D01*
X563619Y83494476D02*
X516000Y83542095D01*
X468381Y83637333D01*
X468381Y83875429D01*
X516000Y83970667D01*
X563619Y84018286D01*
X658857Y84065905D01*
X754095Y84065905D01*
X896952Y84018286D01*
X1468381Y83446857D01*
X1468381Y84065905D01*
X29424381Y59674286D02*
X29424381Y60245715D01*
X30424381Y59960000D02*
X29424381Y59960000D01*
X30424381Y60579048D02*
X29424381Y60579048D01*
X29900571Y60579048D02*
X29900571Y61150477D01*
X30424381Y61150477D02*
X29424381Y61150477D01*
X30424381Y62150477D02*
X30424381Y61579048D01*
X30424381Y61864762D02*
X29424381Y61864762D01*
X29567238Y61769524D01*
X29662476Y61674286D01*
X29710095Y61579048D01*
X6667595Y62841119D02*
X6667595Y62031595D01*
X6715214Y61936357D01*
X6762833Y61888738D01*
X6858071Y61841119D01*
X7048548Y61841119D01*
X7143786Y61888738D01*
X7191405Y61936357D01*
X7239024Y62031595D01*
X7239024Y62841119D01*
X8239024Y61841119D02*
X7667595Y61841119D01*
X7953309Y61841119D02*
X7953309Y62841119D01*
X7858071Y62698262D01*
X7762833Y62603024D01*
X7667595Y62555405D01*
X7556595Y52490619D02*
X7556595Y51681095D01*
X7604214Y51585857D01*
X7651833Y51538238D01*
X7747071Y51490619D01*
X7937548Y51490619D01*
X8032786Y51538238D01*
X8080405Y51585857D01*
X8128024Y51681095D01*
X8128024Y52490619D01*
X8556595Y52395381D02*
X8604214Y52443000D01*
X8699452Y52490619D01*
X8937548Y52490619D01*
X9032786Y52443000D01*
X9080405Y52395381D01*
X9128024Y52300143D01*
X9128024Y52204905D01*
X9080405Y52062048D01*
X8508976Y51490619D01*
X9128024Y51490619D01*
X27686095Y88685619D02*
X27686095Y87876095D01*
X27733714Y87780857D01*
X27781333Y87733238D01*
X27876571Y87685619D01*
X28067048Y87685619D01*
X28162286Y87733238D01*
X28209905Y87780857D01*
X28257524Y87876095D01*
X28257524Y88685619D01*
X28638476Y88685619D02*
X29257524Y88685619D01*
X28924190Y88304667D01*
X29067048Y88304667D01*
X29162286Y88257048D01*
X29209905Y88209429D01*
X29257524Y88114190D01*
X29257524Y87876095D01*
X29209905Y87780857D01*
X29162286Y87733238D01*
X29067048Y87685619D01*
X28781333Y87685619D01*
X28686095Y87733238D01*
X28638476Y87780857D01*
X27201905Y75874619D02*
X27201905Y76874619D01*
X27582858Y76874619D01*
X27678096Y76827000D01*
X27725715Y76779381D01*
X27773334Y76684143D01*
X27773334Y76541286D01*
X27725715Y76446048D01*
X27678096Y76398429D01*
X27582858Y76350810D01*
X27201905Y76350810D01*
X28630477Y76874619D02*
X28440000Y76874619D01*
X28344762Y76827000D01*
X28297143Y76779381D01*
X28201905Y76636524D01*
X28154286Y76446048D01*
X28154286Y76065095D01*
X28201905Y75969857D01*
X28249524Y75922238D01*
X28344762Y75874619D01*
X28535239Y75874619D01*
X28630477Y75922238D01*
X28678096Y75969857D01*
X28725715Y76065095D01*
X28725715Y76303190D01*
X28678096Y76398429D01*
X28630477Y76446048D01*
X28535239Y76493667D01*
X28344762Y76493667D01*
X28249524Y76446048D01*
X28201905Y76398429D01*
X28154286Y76303190D01*
X24709381Y73588643D02*
X24233190Y73255309D01*
X24709381Y73017214D02*
X23709381Y73017214D01*
X23709381Y73398167D01*
X23757000Y73493405D01*
X23804619Y73541024D01*
X23899857Y73588643D01*
X24042714Y73588643D01*
X24137952Y73541024D01*
X24185571Y73493405D01*
X24233190Y73398167D01*
X24233190Y73017214D01*
X24709381Y74541024D02*
X24709381Y73969595D01*
X24709381Y74255309D02*
X23709381Y74255309D01*
X23852238Y74160071D01*
X23947476Y74064833D01*
X23995095Y73969595D01*
X23709381Y75445786D02*
X23709381Y74969595D01*
X24185571Y74921976D01*
X24137952Y74969595D01*
X24090333Y75064833D01*
X24090333Y75302929D01*
X24137952Y75398167D01*
X24185571Y75445786D01*
X24280810Y75493405D01*
X24518905Y75493405D01*
X24614143Y75445786D01*
X24661762Y75398167D01*
X24709381Y75302929D01*
X24709381Y75064833D01*
X24661762Y74969595D01*
X24614143Y74921976D01*
M02*
