G04 #@! TF.FileFunction,Legend,Bot*
%FSLAX46Y46*%
G04 Gerber Fmt 4.6, Leading zero omitted, Abs format (unit mm)*
G04 Created by KiCad (PCBNEW 4.0.1-2.201512121406+6195~38~ubuntu15.10.1-stable) date Monday, December 14, 2015 PM10:58:21 HKT*
%MOMM*%
G01*
G04 APERTURE LIST*
%ADD10C,0.100000*%
%ADD11C,0.150000*%
%ADD12C,0.250000*%
%ADD13C,0.203200*%
%ADD14C,0.032512*%
G04 APERTURE END LIST*
D10*
D11*
X91024928Y7694643D02*
X90939214Y7666071D01*
X90796357Y7666071D01*
X90739214Y7694643D01*
X90710643Y7723214D01*
X90682071Y7780357D01*
X90682071Y7837500D01*
X90710643Y7894643D01*
X90739214Y7923214D01*
X90796357Y7951786D01*
X90910643Y7980357D01*
X90967785Y8008929D01*
X90996357Y8037500D01*
X91024928Y8094643D01*
X91024928Y8151786D01*
X90996357Y8208929D01*
X90967785Y8237500D01*
X90910643Y8266071D01*
X90767785Y8266071D01*
X90682071Y8237500D01*
X90424928Y7666071D02*
X90424928Y8266071D01*
X90167785Y7666071D02*
X90167785Y7980357D01*
X90196356Y8037500D01*
X90253499Y8066071D01*
X90339214Y8066071D01*
X90396356Y8037500D01*
X90424928Y8008929D01*
X89796357Y7666071D02*
X89853499Y7694643D01*
X89882071Y7723214D01*
X89910642Y7780357D01*
X89910642Y7951786D01*
X89882071Y8008929D01*
X89853499Y8037500D01*
X89796357Y8066071D01*
X89710642Y8066071D01*
X89653499Y8037500D01*
X89624928Y8008929D01*
X89596357Y7951786D01*
X89596357Y7780357D01*
X89624928Y7723214D01*
X89653499Y7694643D01*
X89710642Y7666071D01*
X89796357Y7666071D01*
X89339214Y7666071D02*
X89339214Y8066071D01*
X89339214Y7951786D02*
X89310642Y8008929D01*
X89282071Y8037500D01*
X89224928Y8066071D01*
X89167785Y8066071D01*
X89053499Y8066071D02*
X88824928Y8066071D01*
X88967785Y8266071D02*
X88967785Y7751786D01*
X88939213Y7694643D01*
X88882071Y7666071D01*
X88824928Y7666071D01*
X88396356Y7694643D02*
X88453499Y7666071D01*
X88567785Y7666071D01*
X88624928Y7694643D01*
X88653499Y7751786D01*
X88653499Y7980357D01*
X88624928Y8037500D01*
X88567785Y8066071D01*
X88453499Y8066071D01*
X88396356Y8037500D01*
X88367785Y7980357D01*
X88367785Y7923214D01*
X88653499Y7866071D01*
X87853499Y7666071D02*
X87853499Y8266071D01*
X87853499Y7694643D02*
X87910642Y7666071D01*
X88024928Y7666071D01*
X88082070Y7694643D01*
X88110642Y7723214D01*
X88139213Y7780357D01*
X88139213Y7951786D01*
X88110642Y8008929D01*
X88082070Y8037500D01*
X88024928Y8066071D01*
X87910642Y8066071D01*
X87853499Y8037500D01*
X87196356Y8066071D02*
X86967785Y8066071D01*
X87110642Y7666071D02*
X87110642Y8180357D01*
X87082070Y8237500D01*
X87024928Y8266071D01*
X86967785Y8266071D01*
X86682071Y7666071D02*
X86739213Y7694643D01*
X86767785Y7723214D01*
X86796356Y7780357D01*
X86796356Y7951786D01*
X86767785Y8008929D01*
X86739213Y8037500D01*
X86682071Y8066071D01*
X86596356Y8066071D01*
X86539213Y8037500D01*
X86510642Y8008929D01*
X86482071Y7951786D01*
X86482071Y7780357D01*
X86510642Y7723214D01*
X86539213Y7694643D01*
X86596356Y7666071D01*
X86682071Y7666071D01*
X86224928Y7666071D02*
X86224928Y8066071D01*
X86224928Y7951786D02*
X86196356Y8008929D01*
X86167785Y8037500D01*
X86110642Y8066071D01*
X86053499Y8066071D01*
X85482070Y8066071D02*
X85253499Y8066071D01*
X85396356Y8266071D02*
X85396356Y7751786D01*
X85367784Y7694643D01*
X85310642Y7666071D01*
X85253499Y7666071D01*
X85110642Y8066071D02*
X84996356Y7666071D01*
X84882070Y7951786D01*
X84767785Y7666071D01*
X84653499Y8066071D01*
X84339214Y7666071D02*
X84396356Y7694643D01*
X84424928Y7723214D01*
X84453499Y7780357D01*
X84453499Y7951786D01*
X84424928Y8008929D01*
X84396356Y8037500D01*
X84339214Y8066071D01*
X84253499Y8066071D01*
X84196356Y8037500D01*
X84167785Y8008929D01*
X84139214Y7951786D01*
X84139214Y7780357D01*
X84167785Y7723214D01*
X84196356Y7694643D01*
X84253499Y7666071D01*
X84339214Y7666071D01*
X83482071Y8066071D02*
X83367785Y7666071D01*
X83253499Y7951786D01*
X83139214Y7666071D01*
X83024928Y8066071D01*
X82796357Y7666071D02*
X82796357Y8066071D01*
X82796357Y8266071D02*
X82824928Y8237500D01*
X82796357Y8208929D01*
X82767785Y8237500D01*
X82796357Y8266071D01*
X82796357Y8208929D01*
X82510643Y7666071D02*
X82510643Y8066071D01*
X82510643Y7951786D02*
X82482071Y8008929D01*
X82453500Y8037500D01*
X82396357Y8066071D01*
X82339214Y8066071D01*
X81910642Y7694643D02*
X81967785Y7666071D01*
X82082071Y7666071D01*
X82139214Y7694643D01*
X82167785Y7751786D01*
X82167785Y7980357D01*
X82139214Y8037500D01*
X82082071Y8066071D01*
X81967785Y8066071D01*
X81910642Y8037500D01*
X81882071Y7980357D01*
X81882071Y7923214D01*
X82167785Y7866071D01*
X81653499Y7694643D02*
X81596356Y7666071D01*
X81482071Y7666071D01*
X81424928Y7694643D01*
X81396356Y7751786D01*
X81396356Y7780357D01*
X81424928Y7837500D01*
X81482071Y7866071D01*
X81567785Y7866071D01*
X81624928Y7894643D01*
X81653499Y7951786D01*
X81653499Y7980357D01*
X81624928Y8037500D01*
X81567785Y8066071D01*
X81482071Y8066071D01*
X81424928Y8037500D01*
X80339214Y7666071D02*
X80539214Y7951786D01*
X80682071Y7666071D02*
X80682071Y8266071D01*
X80453499Y8266071D01*
X80396357Y8237500D01*
X80367785Y8208929D01*
X80339214Y8151786D01*
X80339214Y8066071D01*
X80367785Y8008929D01*
X80396357Y7980357D01*
X80453499Y7951786D01*
X80682071Y7951786D01*
X80167785Y8266071D02*
X79824928Y8266071D01*
X79996357Y7666071D02*
X79996357Y8266071D01*
X79624928Y7666071D02*
X79624928Y8266071D01*
X79482071Y8266071D01*
X79396356Y8237500D01*
X79339214Y8180357D01*
X79310642Y8123214D01*
X79282071Y8008929D01*
X79282071Y7923214D01*
X79310642Y7808929D01*
X79339214Y7751786D01*
X79396356Y7694643D01*
X79482071Y7666071D01*
X79624928Y7666071D01*
D12*
X85661429Y8596143D02*
X85090000Y9024714D01*
X84518572Y8596143D01*
X78366881Y39750857D02*
X78366881Y40227048D01*
X77366881Y40227048D01*
X77366881Y39227048D02*
X77366881Y39036571D01*
X77414500Y38941333D01*
X77509738Y38846095D01*
X77700214Y38798476D01*
X78033548Y38798476D01*
X78224024Y38846095D01*
X78319262Y38941333D01*
X78366881Y39036571D01*
X78366881Y39227048D01*
X78319262Y39322286D01*
X78224024Y39417524D01*
X78033548Y39465143D01*
X77700214Y39465143D01*
X77509738Y39417524D01*
X77414500Y39322286D01*
X77366881Y39227048D01*
X78081167Y38417524D02*
X78081167Y37941333D01*
X78366881Y38512762D02*
X77366881Y38179429D01*
X78366881Y37846095D01*
X78366881Y37512762D02*
X77366881Y37512762D01*
X77366881Y37274667D01*
X77414500Y37131809D01*
X77509738Y37036571D01*
X77604976Y36988952D01*
X77795452Y36941333D01*
X77938310Y36941333D01*
X78128786Y36988952D01*
X78224024Y37036571D01*
X78319262Y37131809D01*
X78366881Y37274667D01*
X78366881Y37512762D01*
X70770714Y38536619D02*
X70770714Y39536619D01*
X70199285Y38536619D01*
X70199285Y39536619D01*
X74263214Y38536619D02*
X74263214Y39536619D01*
X73691785Y38536619D01*
X73691785Y39536619D01*
X84272476Y38981119D02*
X84748667Y38981119D01*
X84748667Y39981119D01*
D11*
X91024928Y52398643D02*
X90939214Y52370071D01*
X90796357Y52370071D01*
X90739214Y52398643D01*
X90710643Y52427214D01*
X90682071Y52484357D01*
X90682071Y52541500D01*
X90710643Y52598643D01*
X90739214Y52627214D01*
X90796357Y52655786D01*
X90910643Y52684357D01*
X90967785Y52712929D01*
X90996357Y52741500D01*
X91024928Y52798643D01*
X91024928Y52855786D01*
X90996357Y52912929D01*
X90967785Y52941500D01*
X90910643Y52970071D01*
X90767785Y52970071D01*
X90682071Y52941500D01*
X90424928Y52370071D02*
X90424928Y52970071D01*
X90167785Y52370071D02*
X90167785Y52684357D01*
X90196356Y52741500D01*
X90253499Y52770071D01*
X90339214Y52770071D01*
X90396356Y52741500D01*
X90424928Y52712929D01*
X89796357Y52370071D02*
X89853499Y52398643D01*
X89882071Y52427214D01*
X89910642Y52484357D01*
X89910642Y52655786D01*
X89882071Y52712929D01*
X89853499Y52741500D01*
X89796357Y52770071D01*
X89710642Y52770071D01*
X89653499Y52741500D01*
X89624928Y52712929D01*
X89596357Y52655786D01*
X89596357Y52484357D01*
X89624928Y52427214D01*
X89653499Y52398643D01*
X89710642Y52370071D01*
X89796357Y52370071D01*
X89339214Y52370071D02*
X89339214Y52770071D01*
X89339214Y52655786D02*
X89310642Y52712929D01*
X89282071Y52741500D01*
X89224928Y52770071D01*
X89167785Y52770071D01*
X89053499Y52770071D02*
X88824928Y52770071D01*
X88967785Y52970071D02*
X88967785Y52455786D01*
X88939213Y52398643D01*
X88882071Y52370071D01*
X88824928Y52370071D01*
X88396356Y52398643D02*
X88453499Y52370071D01*
X88567785Y52370071D01*
X88624928Y52398643D01*
X88653499Y52455786D01*
X88653499Y52684357D01*
X88624928Y52741500D01*
X88567785Y52770071D01*
X88453499Y52770071D01*
X88396356Y52741500D01*
X88367785Y52684357D01*
X88367785Y52627214D01*
X88653499Y52570071D01*
X87853499Y52370071D02*
X87853499Y52970071D01*
X87853499Y52398643D02*
X87910642Y52370071D01*
X88024928Y52370071D01*
X88082070Y52398643D01*
X88110642Y52427214D01*
X88139213Y52484357D01*
X88139213Y52655786D01*
X88110642Y52712929D01*
X88082070Y52741500D01*
X88024928Y52770071D01*
X87910642Y52770071D01*
X87853499Y52741500D01*
X87196356Y52770071D02*
X86967785Y52770071D01*
X87110642Y52370071D02*
X87110642Y52884357D01*
X87082070Y52941500D01*
X87024928Y52970071D01*
X86967785Y52970071D01*
X86682071Y52370071D02*
X86739213Y52398643D01*
X86767785Y52427214D01*
X86796356Y52484357D01*
X86796356Y52655786D01*
X86767785Y52712929D01*
X86739213Y52741500D01*
X86682071Y52770071D01*
X86596356Y52770071D01*
X86539213Y52741500D01*
X86510642Y52712929D01*
X86482071Y52655786D01*
X86482071Y52484357D01*
X86510642Y52427214D01*
X86539213Y52398643D01*
X86596356Y52370071D01*
X86682071Y52370071D01*
X86224928Y52370071D02*
X86224928Y52770071D01*
X86224928Y52655786D02*
X86196356Y52712929D01*
X86167785Y52741500D01*
X86110642Y52770071D01*
X86053499Y52770071D01*
X85482070Y52770071D02*
X85253499Y52770071D01*
X85396356Y52970071D02*
X85396356Y52455786D01*
X85367784Y52398643D01*
X85310642Y52370071D01*
X85253499Y52370071D01*
X85110642Y52770071D02*
X84996356Y52370071D01*
X84882070Y52655786D01*
X84767785Y52370071D01*
X84653499Y52770071D01*
X84339214Y52370071D02*
X84396356Y52398643D01*
X84424928Y52427214D01*
X84453499Y52484357D01*
X84453499Y52655786D01*
X84424928Y52712929D01*
X84396356Y52741500D01*
X84339214Y52770071D01*
X84253499Y52770071D01*
X84196356Y52741500D01*
X84167785Y52712929D01*
X84139214Y52655786D01*
X84139214Y52484357D01*
X84167785Y52427214D01*
X84196356Y52398643D01*
X84253499Y52370071D01*
X84339214Y52370071D01*
X83482071Y52770071D02*
X83367785Y52370071D01*
X83253499Y52655786D01*
X83139214Y52370071D01*
X83024928Y52770071D01*
X82796357Y52370071D02*
X82796357Y52770071D01*
X82796357Y52970071D02*
X82824928Y52941500D01*
X82796357Y52912929D01*
X82767785Y52941500D01*
X82796357Y52970071D01*
X82796357Y52912929D01*
X82510643Y52370071D02*
X82510643Y52770071D01*
X82510643Y52655786D02*
X82482071Y52712929D01*
X82453500Y52741500D01*
X82396357Y52770071D01*
X82339214Y52770071D01*
X81910642Y52398643D02*
X81967785Y52370071D01*
X82082071Y52370071D01*
X82139214Y52398643D01*
X82167785Y52455786D01*
X82167785Y52684357D01*
X82139214Y52741500D01*
X82082071Y52770071D01*
X81967785Y52770071D01*
X81910642Y52741500D01*
X81882071Y52684357D01*
X81882071Y52627214D01*
X82167785Y52570071D01*
X81653499Y52398643D02*
X81596356Y52370071D01*
X81482071Y52370071D01*
X81424928Y52398643D01*
X81396356Y52455786D01*
X81396356Y52484357D01*
X81424928Y52541500D01*
X81482071Y52570071D01*
X81567785Y52570071D01*
X81624928Y52598643D01*
X81653499Y52655786D01*
X81653499Y52684357D01*
X81624928Y52741500D01*
X81567785Y52770071D01*
X81482071Y52770071D01*
X81424928Y52741500D01*
X80339214Y52370071D02*
X80539214Y52655786D01*
X80682071Y52370071D02*
X80682071Y52970071D01*
X80453499Y52970071D01*
X80396357Y52941500D01*
X80367785Y52912929D01*
X80339214Y52855786D01*
X80339214Y52770071D01*
X80367785Y52712929D01*
X80396357Y52684357D01*
X80453499Y52655786D01*
X80682071Y52655786D01*
X80167785Y52970071D02*
X79824928Y52970071D01*
X79996357Y52370071D02*
X79996357Y52970071D01*
X79624928Y52370071D02*
X79624928Y52970071D01*
X79482071Y52970071D01*
X79396356Y52941500D01*
X79339214Y52884357D01*
X79310642Y52827214D01*
X79282071Y52712929D01*
X79282071Y52627214D01*
X79310642Y52512929D01*
X79339214Y52455786D01*
X79396356Y52398643D01*
X79482071Y52370071D01*
X79624928Y52370071D01*
D12*
X85661429Y53300143D02*
X85090000Y53728714D01*
X84518572Y53300143D01*
X78366881Y84454857D02*
X78366881Y84931048D01*
X77366881Y84931048D01*
X77366881Y83931048D02*
X77366881Y83740571D01*
X77414500Y83645333D01*
X77509738Y83550095D01*
X77700214Y83502476D01*
X78033548Y83502476D01*
X78224024Y83550095D01*
X78319262Y83645333D01*
X78366881Y83740571D01*
X78366881Y83931048D01*
X78319262Y84026286D01*
X78224024Y84121524D01*
X78033548Y84169143D01*
X77700214Y84169143D01*
X77509738Y84121524D01*
X77414500Y84026286D01*
X77366881Y83931048D01*
X78081167Y83121524D02*
X78081167Y82645333D01*
X78366881Y83216762D02*
X77366881Y82883429D01*
X78366881Y82550095D01*
X78366881Y82216762D02*
X77366881Y82216762D01*
X77366881Y81978667D01*
X77414500Y81835809D01*
X77509738Y81740571D01*
X77604976Y81692952D01*
X77795452Y81645333D01*
X77938310Y81645333D01*
X78128786Y81692952D01*
X78224024Y81740571D01*
X78319262Y81835809D01*
X78366881Y81978667D01*
X78366881Y82216762D01*
X70770714Y83240619D02*
X70770714Y84240619D01*
X70199285Y83240619D01*
X70199285Y84240619D01*
X74263214Y83240619D02*
X74263214Y84240619D01*
X73691785Y83240619D01*
X73691785Y84240619D01*
X84272476Y83685119D02*
X84748667Y83685119D01*
X84748667Y84685119D01*
D11*
X59528928Y7694643D02*
X59443214Y7666071D01*
X59300357Y7666071D01*
X59243214Y7694643D01*
X59214643Y7723214D01*
X59186071Y7780357D01*
X59186071Y7837500D01*
X59214643Y7894643D01*
X59243214Y7923214D01*
X59300357Y7951786D01*
X59414643Y7980357D01*
X59471785Y8008929D01*
X59500357Y8037500D01*
X59528928Y8094643D01*
X59528928Y8151786D01*
X59500357Y8208929D01*
X59471785Y8237500D01*
X59414643Y8266071D01*
X59271785Y8266071D01*
X59186071Y8237500D01*
X58928928Y7666071D02*
X58928928Y8266071D01*
X58671785Y7666071D02*
X58671785Y7980357D01*
X58700356Y8037500D01*
X58757499Y8066071D01*
X58843214Y8066071D01*
X58900356Y8037500D01*
X58928928Y8008929D01*
X58300357Y7666071D02*
X58357499Y7694643D01*
X58386071Y7723214D01*
X58414642Y7780357D01*
X58414642Y7951786D01*
X58386071Y8008929D01*
X58357499Y8037500D01*
X58300357Y8066071D01*
X58214642Y8066071D01*
X58157499Y8037500D01*
X58128928Y8008929D01*
X58100357Y7951786D01*
X58100357Y7780357D01*
X58128928Y7723214D01*
X58157499Y7694643D01*
X58214642Y7666071D01*
X58300357Y7666071D01*
X57843214Y7666071D02*
X57843214Y8066071D01*
X57843214Y7951786D02*
X57814642Y8008929D01*
X57786071Y8037500D01*
X57728928Y8066071D01*
X57671785Y8066071D01*
X57557499Y8066071D02*
X57328928Y8066071D01*
X57471785Y8266071D02*
X57471785Y7751786D01*
X57443213Y7694643D01*
X57386071Y7666071D01*
X57328928Y7666071D01*
X56900356Y7694643D02*
X56957499Y7666071D01*
X57071785Y7666071D01*
X57128928Y7694643D01*
X57157499Y7751786D01*
X57157499Y7980357D01*
X57128928Y8037500D01*
X57071785Y8066071D01*
X56957499Y8066071D01*
X56900356Y8037500D01*
X56871785Y7980357D01*
X56871785Y7923214D01*
X57157499Y7866071D01*
X56357499Y7666071D02*
X56357499Y8266071D01*
X56357499Y7694643D02*
X56414642Y7666071D01*
X56528928Y7666071D01*
X56586070Y7694643D01*
X56614642Y7723214D01*
X56643213Y7780357D01*
X56643213Y7951786D01*
X56614642Y8008929D01*
X56586070Y8037500D01*
X56528928Y8066071D01*
X56414642Y8066071D01*
X56357499Y8037500D01*
X55700356Y8066071D02*
X55471785Y8066071D01*
X55614642Y7666071D02*
X55614642Y8180357D01*
X55586070Y8237500D01*
X55528928Y8266071D01*
X55471785Y8266071D01*
X55186071Y7666071D02*
X55243213Y7694643D01*
X55271785Y7723214D01*
X55300356Y7780357D01*
X55300356Y7951786D01*
X55271785Y8008929D01*
X55243213Y8037500D01*
X55186071Y8066071D01*
X55100356Y8066071D01*
X55043213Y8037500D01*
X55014642Y8008929D01*
X54986071Y7951786D01*
X54986071Y7780357D01*
X55014642Y7723214D01*
X55043213Y7694643D01*
X55100356Y7666071D01*
X55186071Y7666071D01*
X54728928Y7666071D02*
X54728928Y8066071D01*
X54728928Y7951786D02*
X54700356Y8008929D01*
X54671785Y8037500D01*
X54614642Y8066071D01*
X54557499Y8066071D01*
X53986070Y8066071D02*
X53757499Y8066071D01*
X53900356Y8266071D02*
X53900356Y7751786D01*
X53871784Y7694643D01*
X53814642Y7666071D01*
X53757499Y7666071D01*
X53614642Y8066071D02*
X53500356Y7666071D01*
X53386070Y7951786D01*
X53271785Y7666071D01*
X53157499Y8066071D01*
X52843214Y7666071D02*
X52900356Y7694643D01*
X52928928Y7723214D01*
X52957499Y7780357D01*
X52957499Y7951786D01*
X52928928Y8008929D01*
X52900356Y8037500D01*
X52843214Y8066071D01*
X52757499Y8066071D01*
X52700356Y8037500D01*
X52671785Y8008929D01*
X52643214Y7951786D01*
X52643214Y7780357D01*
X52671785Y7723214D01*
X52700356Y7694643D01*
X52757499Y7666071D01*
X52843214Y7666071D01*
X51986071Y8066071D02*
X51871785Y7666071D01*
X51757499Y7951786D01*
X51643214Y7666071D01*
X51528928Y8066071D01*
X51300357Y7666071D02*
X51300357Y8066071D01*
X51300357Y8266071D02*
X51328928Y8237500D01*
X51300357Y8208929D01*
X51271785Y8237500D01*
X51300357Y8266071D01*
X51300357Y8208929D01*
X51014643Y7666071D02*
X51014643Y8066071D01*
X51014643Y7951786D02*
X50986071Y8008929D01*
X50957500Y8037500D01*
X50900357Y8066071D01*
X50843214Y8066071D01*
X50414642Y7694643D02*
X50471785Y7666071D01*
X50586071Y7666071D01*
X50643214Y7694643D01*
X50671785Y7751786D01*
X50671785Y7980357D01*
X50643214Y8037500D01*
X50586071Y8066071D01*
X50471785Y8066071D01*
X50414642Y8037500D01*
X50386071Y7980357D01*
X50386071Y7923214D01*
X50671785Y7866071D01*
X50157499Y7694643D02*
X50100356Y7666071D01*
X49986071Y7666071D01*
X49928928Y7694643D01*
X49900356Y7751786D01*
X49900356Y7780357D01*
X49928928Y7837500D01*
X49986071Y7866071D01*
X50071785Y7866071D01*
X50128928Y7894643D01*
X50157499Y7951786D01*
X50157499Y7980357D01*
X50128928Y8037500D01*
X50071785Y8066071D01*
X49986071Y8066071D01*
X49928928Y8037500D01*
X48843214Y7666071D02*
X49043214Y7951786D01*
X49186071Y7666071D02*
X49186071Y8266071D01*
X48957499Y8266071D01*
X48900357Y8237500D01*
X48871785Y8208929D01*
X48843214Y8151786D01*
X48843214Y8066071D01*
X48871785Y8008929D01*
X48900357Y7980357D01*
X48957499Y7951786D01*
X49186071Y7951786D01*
X48671785Y8266071D02*
X48328928Y8266071D01*
X48500357Y7666071D02*
X48500357Y8266071D01*
X48128928Y7666071D02*
X48128928Y8266071D01*
X47986071Y8266071D01*
X47900356Y8237500D01*
X47843214Y8180357D01*
X47814642Y8123214D01*
X47786071Y8008929D01*
X47786071Y7923214D01*
X47814642Y7808929D01*
X47843214Y7751786D01*
X47900356Y7694643D01*
X47986071Y7666071D01*
X48128928Y7666071D01*
D12*
X54165429Y8596143D02*
X53594000Y9024714D01*
X53022572Y8596143D01*
X46870881Y39750857D02*
X46870881Y40227048D01*
X45870881Y40227048D01*
X45870881Y39227048D02*
X45870881Y39036571D01*
X45918500Y38941333D01*
X46013738Y38846095D01*
X46204214Y38798476D01*
X46537548Y38798476D01*
X46728024Y38846095D01*
X46823262Y38941333D01*
X46870881Y39036571D01*
X46870881Y39227048D01*
X46823262Y39322286D01*
X46728024Y39417524D01*
X46537548Y39465143D01*
X46204214Y39465143D01*
X46013738Y39417524D01*
X45918500Y39322286D01*
X45870881Y39227048D01*
X46585167Y38417524D02*
X46585167Y37941333D01*
X46870881Y38512762D02*
X45870881Y38179429D01*
X46870881Y37846095D01*
X46870881Y37512762D02*
X45870881Y37512762D01*
X45870881Y37274667D01*
X45918500Y37131809D01*
X46013738Y37036571D01*
X46108976Y36988952D01*
X46299452Y36941333D01*
X46442310Y36941333D01*
X46632786Y36988952D01*
X46728024Y37036571D01*
X46823262Y37131809D01*
X46870881Y37274667D01*
X46870881Y37512762D01*
X39274714Y38536619D02*
X39274714Y39536619D01*
X38703285Y38536619D01*
X38703285Y39536619D01*
X42767214Y38536619D02*
X42767214Y39536619D01*
X42195785Y38536619D01*
X42195785Y39536619D01*
X52776476Y38981119D02*
X53252667Y38981119D01*
X53252667Y39981119D01*
D11*
X59528928Y52398643D02*
X59443214Y52370071D01*
X59300357Y52370071D01*
X59243214Y52398643D01*
X59214643Y52427214D01*
X59186071Y52484357D01*
X59186071Y52541500D01*
X59214643Y52598643D01*
X59243214Y52627214D01*
X59300357Y52655786D01*
X59414643Y52684357D01*
X59471785Y52712929D01*
X59500357Y52741500D01*
X59528928Y52798643D01*
X59528928Y52855786D01*
X59500357Y52912929D01*
X59471785Y52941500D01*
X59414643Y52970071D01*
X59271785Y52970071D01*
X59186071Y52941500D01*
X58928928Y52370071D02*
X58928928Y52970071D01*
X58671785Y52370071D02*
X58671785Y52684357D01*
X58700356Y52741500D01*
X58757499Y52770071D01*
X58843214Y52770071D01*
X58900356Y52741500D01*
X58928928Y52712929D01*
X58300357Y52370071D02*
X58357499Y52398643D01*
X58386071Y52427214D01*
X58414642Y52484357D01*
X58414642Y52655786D01*
X58386071Y52712929D01*
X58357499Y52741500D01*
X58300357Y52770071D01*
X58214642Y52770071D01*
X58157499Y52741500D01*
X58128928Y52712929D01*
X58100357Y52655786D01*
X58100357Y52484357D01*
X58128928Y52427214D01*
X58157499Y52398643D01*
X58214642Y52370071D01*
X58300357Y52370071D01*
X57843214Y52370071D02*
X57843214Y52770071D01*
X57843214Y52655786D02*
X57814642Y52712929D01*
X57786071Y52741500D01*
X57728928Y52770071D01*
X57671785Y52770071D01*
X57557499Y52770071D02*
X57328928Y52770071D01*
X57471785Y52970071D02*
X57471785Y52455786D01*
X57443213Y52398643D01*
X57386071Y52370071D01*
X57328928Y52370071D01*
X56900356Y52398643D02*
X56957499Y52370071D01*
X57071785Y52370071D01*
X57128928Y52398643D01*
X57157499Y52455786D01*
X57157499Y52684357D01*
X57128928Y52741500D01*
X57071785Y52770071D01*
X56957499Y52770071D01*
X56900356Y52741500D01*
X56871785Y52684357D01*
X56871785Y52627214D01*
X57157499Y52570071D01*
X56357499Y52370071D02*
X56357499Y52970071D01*
X56357499Y52398643D02*
X56414642Y52370071D01*
X56528928Y52370071D01*
X56586070Y52398643D01*
X56614642Y52427214D01*
X56643213Y52484357D01*
X56643213Y52655786D01*
X56614642Y52712929D01*
X56586070Y52741500D01*
X56528928Y52770071D01*
X56414642Y52770071D01*
X56357499Y52741500D01*
X55700356Y52770071D02*
X55471785Y52770071D01*
X55614642Y52370071D02*
X55614642Y52884357D01*
X55586070Y52941500D01*
X55528928Y52970071D01*
X55471785Y52970071D01*
X55186071Y52370071D02*
X55243213Y52398643D01*
X55271785Y52427214D01*
X55300356Y52484357D01*
X55300356Y52655786D01*
X55271785Y52712929D01*
X55243213Y52741500D01*
X55186071Y52770071D01*
X55100356Y52770071D01*
X55043213Y52741500D01*
X55014642Y52712929D01*
X54986071Y52655786D01*
X54986071Y52484357D01*
X55014642Y52427214D01*
X55043213Y52398643D01*
X55100356Y52370071D01*
X55186071Y52370071D01*
X54728928Y52370071D02*
X54728928Y52770071D01*
X54728928Y52655786D02*
X54700356Y52712929D01*
X54671785Y52741500D01*
X54614642Y52770071D01*
X54557499Y52770071D01*
X53986070Y52770071D02*
X53757499Y52770071D01*
X53900356Y52970071D02*
X53900356Y52455786D01*
X53871784Y52398643D01*
X53814642Y52370071D01*
X53757499Y52370071D01*
X53614642Y52770071D02*
X53500356Y52370071D01*
X53386070Y52655786D01*
X53271785Y52370071D01*
X53157499Y52770071D01*
X52843214Y52370071D02*
X52900356Y52398643D01*
X52928928Y52427214D01*
X52957499Y52484357D01*
X52957499Y52655786D01*
X52928928Y52712929D01*
X52900356Y52741500D01*
X52843214Y52770071D01*
X52757499Y52770071D01*
X52700356Y52741500D01*
X52671785Y52712929D01*
X52643214Y52655786D01*
X52643214Y52484357D01*
X52671785Y52427214D01*
X52700356Y52398643D01*
X52757499Y52370071D01*
X52843214Y52370071D01*
X51986071Y52770071D02*
X51871785Y52370071D01*
X51757499Y52655786D01*
X51643214Y52370071D01*
X51528928Y52770071D01*
X51300357Y52370071D02*
X51300357Y52770071D01*
X51300357Y52970071D02*
X51328928Y52941500D01*
X51300357Y52912929D01*
X51271785Y52941500D01*
X51300357Y52970071D01*
X51300357Y52912929D01*
X51014643Y52370071D02*
X51014643Y52770071D01*
X51014643Y52655786D02*
X50986071Y52712929D01*
X50957500Y52741500D01*
X50900357Y52770071D01*
X50843214Y52770071D01*
X50414642Y52398643D02*
X50471785Y52370071D01*
X50586071Y52370071D01*
X50643214Y52398643D01*
X50671785Y52455786D01*
X50671785Y52684357D01*
X50643214Y52741500D01*
X50586071Y52770071D01*
X50471785Y52770071D01*
X50414642Y52741500D01*
X50386071Y52684357D01*
X50386071Y52627214D01*
X50671785Y52570071D01*
X50157499Y52398643D02*
X50100356Y52370071D01*
X49986071Y52370071D01*
X49928928Y52398643D01*
X49900356Y52455786D01*
X49900356Y52484357D01*
X49928928Y52541500D01*
X49986071Y52570071D01*
X50071785Y52570071D01*
X50128928Y52598643D01*
X50157499Y52655786D01*
X50157499Y52684357D01*
X50128928Y52741500D01*
X50071785Y52770071D01*
X49986071Y52770071D01*
X49928928Y52741500D01*
X48843214Y52370071D02*
X49043214Y52655786D01*
X49186071Y52370071D02*
X49186071Y52970071D01*
X48957499Y52970071D01*
X48900357Y52941500D01*
X48871785Y52912929D01*
X48843214Y52855786D01*
X48843214Y52770071D01*
X48871785Y52712929D01*
X48900357Y52684357D01*
X48957499Y52655786D01*
X49186071Y52655786D01*
X48671785Y52970071D02*
X48328928Y52970071D01*
X48500357Y52370071D02*
X48500357Y52970071D01*
X48128928Y52370071D02*
X48128928Y52970071D01*
X47986071Y52970071D01*
X47900356Y52941500D01*
X47843214Y52884357D01*
X47814642Y52827214D01*
X47786071Y52712929D01*
X47786071Y52627214D01*
X47814642Y52512929D01*
X47843214Y52455786D01*
X47900356Y52398643D01*
X47986071Y52370071D01*
X48128928Y52370071D01*
D12*
X54165429Y53300143D02*
X53594000Y53728714D01*
X53022572Y53300143D01*
X46870881Y84454857D02*
X46870881Y84931048D01*
X45870881Y84931048D01*
X45870881Y83931048D02*
X45870881Y83740571D01*
X45918500Y83645333D01*
X46013738Y83550095D01*
X46204214Y83502476D01*
X46537548Y83502476D01*
X46728024Y83550095D01*
X46823262Y83645333D01*
X46870881Y83740571D01*
X46870881Y83931048D01*
X46823262Y84026286D01*
X46728024Y84121524D01*
X46537548Y84169143D01*
X46204214Y84169143D01*
X46013738Y84121524D01*
X45918500Y84026286D01*
X45870881Y83931048D01*
X46585167Y83121524D02*
X46585167Y82645333D01*
X46870881Y83216762D02*
X45870881Y82883429D01*
X46870881Y82550095D01*
X46870881Y82216762D02*
X45870881Y82216762D01*
X45870881Y81978667D01*
X45918500Y81835809D01*
X46013738Y81740571D01*
X46108976Y81692952D01*
X46299452Y81645333D01*
X46442310Y81645333D01*
X46632786Y81692952D01*
X46728024Y81740571D01*
X46823262Y81835809D01*
X46870881Y81978667D01*
X46870881Y82216762D01*
X39274714Y83240619D02*
X39274714Y84240619D01*
X38703285Y83240619D01*
X38703285Y84240619D01*
X42767214Y83240619D02*
X42767214Y84240619D01*
X42195785Y83240619D01*
X42195785Y84240619D01*
X52776476Y83685119D02*
X53252667Y83685119D01*
X53252667Y84685119D01*
D11*
X28032928Y7694643D02*
X27947214Y7666071D01*
X27804357Y7666071D01*
X27747214Y7694643D01*
X27718643Y7723214D01*
X27690071Y7780357D01*
X27690071Y7837500D01*
X27718643Y7894643D01*
X27747214Y7923214D01*
X27804357Y7951786D01*
X27918643Y7980357D01*
X27975785Y8008929D01*
X28004357Y8037500D01*
X28032928Y8094643D01*
X28032928Y8151786D01*
X28004357Y8208929D01*
X27975785Y8237500D01*
X27918643Y8266071D01*
X27775785Y8266071D01*
X27690071Y8237500D01*
X27432928Y7666071D02*
X27432928Y8266071D01*
X27175785Y7666071D02*
X27175785Y7980357D01*
X27204356Y8037500D01*
X27261499Y8066071D01*
X27347214Y8066071D01*
X27404356Y8037500D01*
X27432928Y8008929D01*
X26804357Y7666071D02*
X26861499Y7694643D01*
X26890071Y7723214D01*
X26918642Y7780357D01*
X26918642Y7951786D01*
X26890071Y8008929D01*
X26861499Y8037500D01*
X26804357Y8066071D01*
X26718642Y8066071D01*
X26661499Y8037500D01*
X26632928Y8008929D01*
X26604357Y7951786D01*
X26604357Y7780357D01*
X26632928Y7723214D01*
X26661499Y7694643D01*
X26718642Y7666071D01*
X26804357Y7666071D01*
X26347214Y7666071D02*
X26347214Y8066071D01*
X26347214Y7951786D02*
X26318642Y8008929D01*
X26290071Y8037500D01*
X26232928Y8066071D01*
X26175785Y8066071D01*
X26061499Y8066071D02*
X25832928Y8066071D01*
X25975785Y8266071D02*
X25975785Y7751786D01*
X25947213Y7694643D01*
X25890071Y7666071D01*
X25832928Y7666071D01*
X25404356Y7694643D02*
X25461499Y7666071D01*
X25575785Y7666071D01*
X25632928Y7694643D01*
X25661499Y7751786D01*
X25661499Y7980357D01*
X25632928Y8037500D01*
X25575785Y8066071D01*
X25461499Y8066071D01*
X25404356Y8037500D01*
X25375785Y7980357D01*
X25375785Y7923214D01*
X25661499Y7866071D01*
X24861499Y7666071D02*
X24861499Y8266071D01*
X24861499Y7694643D02*
X24918642Y7666071D01*
X25032928Y7666071D01*
X25090070Y7694643D01*
X25118642Y7723214D01*
X25147213Y7780357D01*
X25147213Y7951786D01*
X25118642Y8008929D01*
X25090070Y8037500D01*
X25032928Y8066071D01*
X24918642Y8066071D01*
X24861499Y8037500D01*
X24204356Y8066071D02*
X23975785Y8066071D01*
X24118642Y7666071D02*
X24118642Y8180357D01*
X24090070Y8237500D01*
X24032928Y8266071D01*
X23975785Y8266071D01*
X23690071Y7666071D02*
X23747213Y7694643D01*
X23775785Y7723214D01*
X23804356Y7780357D01*
X23804356Y7951786D01*
X23775785Y8008929D01*
X23747213Y8037500D01*
X23690071Y8066071D01*
X23604356Y8066071D01*
X23547213Y8037500D01*
X23518642Y8008929D01*
X23490071Y7951786D01*
X23490071Y7780357D01*
X23518642Y7723214D01*
X23547213Y7694643D01*
X23604356Y7666071D01*
X23690071Y7666071D01*
X23232928Y7666071D02*
X23232928Y8066071D01*
X23232928Y7951786D02*
X23204356Y8008929D01*
X23175785Y8037500D01*
X23118642Y8066071D01*
X23061499Y8066071D01*
X22490070Y8066071D02*
X22261499Y8066071D01*
X22404356Y8266071D02*
X22404356Y7751786D01*
X22375784Y7694643D01*
X22318642Y7666071D01*
X22261499Y7666071D01*
X22118642Y8066071D02*
X22004356Y7666071D01*
X21890070Y7951786D01*
X21775785Y7666071D01*
X21661499Y8066071D01*
X21347214Y7666071D02*
X21404356Y7694643D01*
X21432928Y7723214D01*
X21461499Y7780357D01*
X21461499Y7951786D01*
X21432928Y8008929D01*
X21404356Y8037500D01*
X21347214Y8066071D01*
X21261499Y8066071D01*
X21204356Y8037500D01*
X21175785Y8008929D01*
X21147214Y7951786D01*
X21147214Y7780357D01*
X21175785Y7723214D01*
X21204356Y7694643D01*
X21261499Y7666071D01*
X21347214Y7666071D01*
X20490071Y8066071D02*
X20375785Y7666071D01*
X20261499Y7951786D01*
X20147214Y7666071D01*
X20032928Y8066071D01*
X19804357Y7666071D02*
X19804357Y8066071D01*
X19804357Y8266071D02*
X19832928Y8237500D01*
X19804357Y8208929D01*
X19775785Y8237500D01*
X19804357Y8266071D01*
X19804357Y8208929D01*
X19518643Y7666071D02*
X19518643Y8066071D01*
X19518643Y7951786D02*
X19490071Y8008929D01*
X19461500Y8037500D01*
X19404357Y8066071D01*
X19347214Y8066071D01*
X18918642Y7694643D02*
X18975785Y7666071D01*
X19090071Y7666071D01*
X19147214Y7694643D01*
X19175785Y7751786D01*
X19175785Y7980357D01*
X19147214Y8037500D01*
X19090071Y8066071D01*
X18975785Y8066071D01*
X18918642Y8037500D01*
X18890071Y7980357D01*
X18890071Y7923214D01*
X19175785Y7866071D01*
X18661499Y7694643D02*
X18604356Y7666071D01*
X18490071Y7666071D01*
X18432928Y7694643D01*
X18404356Y7751786D01*
X18404356Y7780357D01*
X18432928Y7837500D01*
X18490071Y7866071D01*
X18575785Y7866071D01*
X18632928Y7894643D01*
X18661499Y7951786D01*
X18661499Y7980357D01*
X18632928Y8037500D01*
X18575785Y8066071D01*
X18490071Y8066071D01*
X18432928Y8037500D01*
X17347214Y7666071D02*
X17547214Y7951786D01*
X17690071Y7666071D02*
X17690071Y8266071D01*
X17461499Y8266071D01*
X17404357Y8237500D01*
X17375785Y8208929D01*
X17347214Y8151786D01*
X17347214Y8066071D01*
X17375785Y8008929D01*
X17404357Y7980357D01*
X17461499Y7951786D01*
X17690071Y7951786D01*
X17175785Y8266071D02*
X16832928Y8266071D01*
X17004357Y7666071D02*
X17004357Y8266071D01*
X16632928Y7666071D02*
X16632928Y8266071D01*
X16490071Y8266071D01*
X16404356Y8237500D01*
X16347214Y8180357D01*
X16318642Y8123214D01*
X16290071Y8008929D01*
X16290071Y7923214D01*
X16318642Y7808929D01*
X16347214Y7751786D01*
X16404356Y7694643D01*
X16490071Y7666071D01*
X16632928Y7666071D01*
D12*
X22669429Y8596143D02*
X22098000Y9024714D01*
X21526572Y8596143D01*
X15374881Y39750857D02*
X15374881Y40227048D01*
X14374881Y40227048D01*
X14374881Y39227048D02*
X14374881Y39036571D01*
X14422500Y38941333D01*
X14517738Y38846095D01*
X14708214Y38798476D01*
X15041548Y38798476D01*
X15232024Y38846095D01*
X15327262Y38941333D01*
X15374881Y39036571D01*
X15374881Y39227048D01*
X15327262Y39322286D01*
X15232024Y39417524D01*
X15041548Y39465143D01*
X14708214Y39465143D01*
X14517738Y39417524D01*
X14422500Y39322286D01*
X14374881Y39227048D01*
X15089167Y38417524D02*
X15089167Y37941333D01*
X15374881Y38512762D02*
X14374881Y38179429D01*
X15374881Y37846095D01*
X15374881Y37512762D02*
X14374881Y37512762D01*
X14374881Y37274667D01*
X14422500Y37131809D01*
X14517738Y37036571D01*
X14612976Y36988952D01*
X14803452Y36941333D01*
X14946310Y36941333D01*
X15136786Y36988952D01*
X15232024Y37036571D01*
X15327262Y37131809D01*
X15374881Y37274667D01*
X15374881Y37512762D01*
X7778714Y38536619D02*
X7778714Y39536619D01*
X7207285Y38536619D01*
X7207285Y39536619D01*
X11271214Y38536619D02*
X11271214Y39536619D01*
X10699785Y38536619D01*
X10699785Y39536619D01*
X21280476Y38981119D02*
X21756667Y38981119D01*
X21756667Y39981119D01*
X21280476Y83685119D02*
X21756667Y83685119D01*
X21756667Y84685119D01*
X11271214Y83240619D02*
X11271214Y84240619D01*
X10699785Y83240619D01*
X10699785Y84240619D01*
X7778714Y83240619D02*
X7778714Y84240619D01*
X7207285Y83240619D01*
X7207285Y84240619D01*
X15374881Y84454857D02*
X15374881Y84931048D01*
X14374881Y84931048D01*
X14374881Y83931048D02*
X14374881Y83740571D01*
X14422500Y83645333D01*
X14517738Y83550095D01*
X14708214Y83502476D01*
X15041548Y83502476D01*
X15232024Y83550095D01*
X15327262Y83645333D01*
X15374881Y83740571D01*
X15374881Y83931048D01*
X15327262Y84026286D01*
X15232024Y84121524D01*
X15041548Y84169143D01*
X14708214Y84169143D01*
X14517738Y84121524D01*
X14422500Y84026286D01*
X14374881Y83931048D01*
X15089167Y83121524D02*
X15089167Y82645333D01*
X15374881Y83216762D02*
X14374881Y82883429D01*
X15374881Y82550095D01*
X15374881Y82216762D02*
X14374881Y82216762D01*
X14374881Y81978667D01*
X14422500Y81835809D01*
X14517738Y81740571D01*
X14612976Y81692952D01*
X14803452Y81645333D01*
X14946310Y81645333D01*
X15136786Y81692952D01*
X15232024Y81740571D01*
X15327262Y81835809D01*
X15374881Y81978667D01*
X15374881Y82216762D01*
X22669429Y53300143D02*
X22098000Y53728714D01*
X21526572Y53300143D01*
D11*
X28032928Y52398643D02*
X27947214Y52370071D01*
X27804357Y52370071D01*
X27747214Y52398643D01*
X27718643Y52427214D01*
X27690071Y52484357D01*
X27690071Y52541500D01*
X27718643Y52598643D01*
X27747214Y52627214D01*
X27804357Y52655786D01*
X27918643Y52684357D01*
X27975785Y52712929D01*
X28004357Y52741500D01*
X28032928Y52798643D01*
X28032928Y52855786D01*
X28004357Y52912929D01*
X27975785Y52941500D01*
X27918643Y52970071D01*
X27775785Y52970071D01*
X27690071Y52941500D01*
X27432928Y52370071D02*
X27432928Y52970071D01*
X27175785Y52370071D02*
X27175785Y52684357D01*
X27204356Y52741500D01*
X27261499Y52770071D01*
X27347214Y52770071D01*
X27404356Y52741500D01*
X27432928Y52712929D01*
X26804357Y52370071D02*
X26861499Y52398643D01*
X26890071Y52427214D01*
X26918642Y52484357D01*
X26918642Y52655786D01*
X26890071Y52712929D01*
X26861499Y52741500D01*
X26804357Y52770071D01*
X26718642Y52770071D01*
X26661499Y52741500D01*
X26632928Y52712929D01*
X26604357Y52655786D01*
X26604357Y52484357D01*
X26632928Y52427214D01*
X26661499Y52398643D01*
X26718642Y52370071D01*
X26804357Y52370071D01*
X26347214Y52370071D02*
X26347214Y52770071D01*
X26347214Y52655786D02*
X26318642Y52712929D01*
X26290071Y52741500D01*
X26232928Y52770071D01*
X26175785Y52770071D01*
X26061499Y52770071D02*
X25832928Y52770071D01*
X25975785Y52970071D02*
X25975785Y52455786D01*
X25947213Y52398643D01*
X25890071Y52370071D01*
X25832928Y52370071D01*
X25404356Y52398643D02*
X25461499Y52370071D01*
X25575785Y52370071D01*
X25632928Y52398643D01*
X25661499Y52455786D01*
X25661499Y52684357D01*
X25632928Y52741500D01*
X25575785Y52770071D01*
X25461499Y52770071D01*
X25404356Y52741500D01*
X25375785Y52684357D01*
X25375785Y52627214D01*
X25661499Y52570071D01*
X24861499Y52370071D02*
X24861499Y52970071D01*
X24861499Y52398643D02*
X24918642Y52370071D01*
X25032928Y52370071D01*
X25090070Y52398643D01*
X25118642Y52427214D01*
X25147213Y52484357D01*
X25147213Y52655786D01*
X25118642Y52712929D01*
X25090070Y52741500D01*
X25032928Y52770071D01*
X24918642Y52770071D01*
X24861499Y52741500D01*
X24204356Y52770071D02*
X23975785Y52770071D01*
X24118642Y52370071D02*
X24118642Y52884357D01*
X24090070Y52941500D01*
X24032928Y52970071D01*
X23975785Y52970071D01*
X23690071Y52370071D02*
X23747213Y52398643D01*
X23775785Y52427214D01*
X23804356Y52484357D01*
X23804356Y52655786D01*
X23775785Y52712929D01*
X23747213Y52741500D01*
X23690071Y52770071D01*
X23604356Y52770071D01*
X23547213Y52741500D01*
X23518642Y52712929D01*
X23490071Y52655786D01*
X23490071Y52484357D01*
X23518642Y52427214D01*
X23547213Y52398643D01*
X23604356Y52370071D01*
X23690071Y52370071D01*
X23232928Y52370071D02*
X23232928Y52770071D01*
X23232928Y52655786D02*
X23204356Y52712929D01*
X23175785Y52741500D01*
X23118642Y52770071D01*
X23061499Y52770071D01*
X22490070Y52770071D02*
X22261499Y52770071D01*
X22404356Y52970071D02*
X22404356Y52455786D01*
X22375784Y52398643D01*
X22318642Y52370071D01*
X22261499Y52370071D01*
X22118642Y52770071D02*
X22004356Y52370071D01*
X21890070Y52655786D01*
X21775785Y52370071D01*
X21661499Y52770071D01*
X21347214Y52370071D02*
X21404356Y52398643D01*
X21432928Y52427214D01*
X21461499Y52484357D01*
X21461499Y52655786D01*
X21432928Y52712929D01*
X21404356Y52741500D01*
X21347214Y52770071D01*
X21261499Y52770071D01*
X21204356Y52741500D01*
X21175785Y52712929D01*
X21147214Y52655786D01*
X21147214Y52484357D01*
X21175785Y52427214D01*
X21204356Y52398643D01*
X21261499Y52370071D01*
X21347214Y52370071D01*
X20490071Y52770071D02*
X20375785Y52370071D01*
X20261499Y52655786D01*
X20147214Y52370071D01*
X20032928Y52770071D01*
X19804357Y52370071D02*
X19804357Y52770071D01*
X19804357Y52970071D02*
X19832928Y52941500D01*
X19804357Y52912929D01*
X19775785Y52941500D01*
X19804357Y52970071D01*
X19804357Y52912929D01*
X19518643Y52370071D02*
X19518643Y52770071D01*
X19518643Y52655786D02*
X19490071Y52712929D01*
X19461500Y52741500D01*
X19404357Y52770071D01*
X19347214Y52770071D01*
X18918642Y52398643D02*
X18975785Y52370071D01*
X19090071Y52370071D01*
X19147214Y52398643D01*
X19175785Y52455786D01*
X19175785Y52684357D01*
X19147214Y52741500D01*
X19090071Y52770071D01*
X18975785Y52770071D01*
X18918642Y52741500D01*
X18890071Y52684357D01*
X18890071Y52627214D01*
X19175785Y52570071D01*
X18661499Y52398643D02*
X18604356Y52370071D01*
X18490071Y52370071D01*
X18432928Y52398643D01*
X18404356Y52455786D01*
X18404356Y52484357D01*
X18432928Y52541500D01*
X18490071Y52570071D01*
X18575785Y52570071D01*
X18632928Y52598643D01*
X18661499Y52655786D01*
X18661499Y52684357D01*
X18632928Y52741500D01*
X18575785Y52770071D01*
X18490071Y52770071D01*
X18432928Y52741500D01*
X17347214Y52370071D02*
X17547214Y52655786D01*
X17690071Y52370071D02*
X17690071Y52970071D01*
X17461499Y52970071D01*
X17404357Y52941500D01*
X17375785Y52912929D01*
X17347214Y52855786D01*
X17347214Y52770071D01*
X17375785Y52712929D01*
X17404357Y52684357D01*
X17461499Y52655786D01*
X17690071Y52655786D01*
X17175785Y52970071D02*
X16832928Y52970071D01*
X17004357Y52370071D02*
X17004357Y52970071D01*
X16632928Y52370071D02*
X16632928Y52970071D01*
X16490071Y52970071D01*
X16404356Y52941500D01*
X16347214Y52884357D01*
X16318642Y52827214D01*
X16290071Y52712929D01*
X16290071Y52627214D01*
X16318642Y52512929D01*
X16347214Y52455786D01*
X16404356Y52398643D01*
X16490071Y52370071D01*
X16632928Y52370071D01*
X84217000Y4660000D02*
X83017000Y4660000D01*
X83017000Y2910000D02*
X84217000Y2910000D01*
X85512000Y30669200D02*
X84312000Y30669200D01*
X84312000Y28919200D02*
X85512000Y28919200D01*
X76768000Y3062000D02*
X77968000Y3062000D01*
X77968000Y4812000D02*
X76768000Y4812000D01*
X72126000Y27392600D02*
X70926000Y27392600D01*
X70926000Y25642600D02*
X72126000Y25642600D01*
X77276000Y25337800D02*
X78476000Y25337800D01*
X78476000Y27087800D02*
X77276000Y27087800D01*
X72926000Y14654500D02*
X71726000Y14654500D01*
X71726000Y12904500D02*
X72926000Y12904500D01*
X71726000Y15571500D02*
X72926000Y15571500D01*
X72926000Y17321500D02*
X71726000Y17321500D01*
X71898000Y22033200D02*
X70698000Y22033200D01*
X70698000Y20283200D02*
X71898000Y20283200D01*
X67408000Y15508000D02*
X68608000Y15508000D01*
X68608000Y17258000D02*
X67408000Y17258000D01*
X69783000Y9869200D02*
X70983000Y9869200D01*
X70983000Y11619200D02*
X69783000Y11619200D01*
X67408000Y12841000D02*
X68608000Y12841000D01*
X68608000Y14591000D02*
X67408000Y14591000D01*
X85792000Y14159200D02*
X84592000Y14159200D01*
X84592000Y12409200D02*
X85792000Y12409200D01*
X85944000Y20407600D02*
X84744000Y20407600D01*
X84744000Y18657600D02*
X85944000Y18657600D01*
X85792000Y17207200D02*
X84592000Y17207200D01*
X84592000Y15457200D02*
X85792000Y15457200D01*
X80736240Y31093360D02*
X80736240Y31045100D01*
X80035200Y28294380D02*
X80736240Y28294380D01*
X80736240Y28294380D02*
X80736240Y28543300D01*
X80736240Y31093360D02*
X80736240Y31294020D01*
X80736240Y31294020D02*
X80035200Y31294020D01*
D13*
X85915000Y11464800D02*
X84315000Y11464800D01*
X86115000Y9764800D02*
G75*
G02X85915000Y9464800I-250000J-50000D01*
G01*
X84315000Y9464800D02*
G75*
G02X84115000Y9764800I50000J250000D01*
G01*
X84315000Y11464800D02*
G75*
G03X84115000Y11164800I50000J-250000D01*
G01*
X86115000Y11164800D02*
G75*
G03X85915000Y11464800I-250000J50000D01*
G01*
X84315000Y9464800D02*
X85915000Y9464800D01*
D11*
X82420000Y14518600D02*
X82420000Y10068600D01*
X75670000Y16043600D02*
X75670000Y10068600D01*
X72815000Y34016000D02*
X72815000Y31516000D01*
X74565000Y33416000D02*
X74565000Y32116000D01*
X74965000Y32116000D02*
X74965000Y33416000D01*
X74765000Y33416000D02*
X74765000Y32116000D01*
X76565000Y33416000D02*
X74565000Y33416000D01*
X74565000Y32116000D02*
X76565000Y32116000D01*
X66973000Y30968000D02*
X66973000Y28468000D01*
X68723000Y30368000D02*
X68723000Y29068000D01*
X69123000Y29068000D02*
X69123000Y30368000D01*
X68923000Y30368000D02*
X68923000Y29068000D01*
X70723000Y30368000D02*
X68723000Y30368000D01*
X68723000Y29068000D02*
X70723000Y29068000D01*
X90111000Y2935000D02*
X89111000Y2935000D01*
X89111000Y4635000D02*
X90111000Y4635000D01*
X82821000Y25413600D02*
X81821000Y25413600D01*
X81821000Y27113600D02*
X82821000Y27113600D01*
X69985000Y6539600D02*
X70985000Y6539600D01*
X70985000Y4839600D02*
X69985000Y4839600D01*
X71010000Y7405000D02*
X70010000Y7405000D01*
X70010000Y9105000D02*
X71010000Y9105000D01*
X76589000Y19392000D02*
X77589000Y19392000D01*
X77589000Y17692000D02*
X76589000Y17692000D01*
X80780000Y19392000D02*
X81780000Y19392000D01*
X81780000Y17692000D02*
X80780000Y17692000D01*
X84217000Y49364000D02*
X83017000Y49364000D01*
X83017000Y47614000D02*
X84217000Y47614000D01*
X85512000Y75373200D02*
X84312000Y75373200D01*
X84312000Y73623200D02*
X85512000Y73623200D01*
X76768000Y47766000D02*
X77968000Y47766000D01*
X77968000Y49516000D02*
X76768000Y49516000D01*
X72126000Y72096600D02*
X70926000Y72096600D01*
X70926000Y70346600D02*
X72126000Y70346600D01*
X77276000Y70041800D02*
X78476000Y70041800D01*
X78476000Y71791800D02*
X77276000Y71791800D01*
X72926000Y59358500D02*
X71726000Y59358500D01*
X71726000Y57608500D02*
X72926000Y57608500D01*
X71726000Y60275500D02*
X72926000Y60275500D01*
X72926000Y62025500D02*
X71726000Y62025500D01*
X71898000Y66737200D02*
X70698000Y66737200D01*
X70698000Y64987200D02*
X71898000Y64987200D01*
X67408000Y60212000D02*
X68608000Y60212000D01*
X68608000Y61962000D02*
X67408000Y61962000D01*
X69783000Y54573200D02*
X70983000Y54573200D01*
X70983000Y56323200D02*
X69783000Y56323200D01*
X67408000Y57545000D02*
X68608000Y57545000D01*
X68608000Y59295000D02*
X67408000Y59295000D01*
X85792000Y58863200D02*
X84592000Y58863200D01*
X84592000Y57113200D02*
X85792000Y57113200D01*
X85944000Y65111600D02*
X84744000Y65111600D01*
X84744000Y63361600D02*
X85944000Y63361600D01*
X85792000Y61911200D02*
X84592000Y61911200D01*
X84592000Y60161200D02*
X85792000Y60161200D01*
X80736240Y75797360D02*
X80736240Y75749100D01*
X80035200Y72998380D02*
X80736240Y72998380D01*
X80736240Y72998380D02*
X80736240Y73247300D01*
X80736240Y75797360D02*
X80736240Y75998020D01*
X80736240Y75998020D02*
X80035200Y75998020D01*
D13*
X85915000Y56168800D02*
X84315000Y56168800D01*
X86115000Y54468800D02*
G75*
G02X85915000Y54168800I-250000J-50000D01*
G01*
X84315000Y54168800D02*
G75*
G02X84115000Y54468800I50000J250000D01*
G01*
X84315000Y56168800D02*
G75*
G03X84115000Y55868800I50000J-250000D01*
G01*
X86115000Y55868800D02*
G75*
G03X85915000Y56168800I-250000J50000D01*
G01*
X84315000Y54168800D02*
X85915000Y54168800D01*
D11*
X82420000Y59222600D02*
X82420000Y54772600D01*
X75670000Y60747600D02*
X75670000Y54772600D01*
X72815000Y78720000D02*
X72815000Y76220000D01*
X74565000Y78120000D02*
X74565000Y76820000D01*
X74965000Y76820000D02*
X74965000Y78120000D01*
X74765000Y78120000D02*
X74765000Y76820000D01*
X76565000Y78120000D02*
X74565000Y78120000D01*
X74565000Y76820000D02*
X76565000Y76820000D01*
X66973000Y75672000D02*
X66973000Y73172000D01*
X68723000Y75072000D02*
X68723000Y73772000D01*
X69123000Y73772000D02*
X69123000Y75072000D01*
X68923000Y75072000D02*
X68923000Y73772000D01*
X70723000Y75072000D02*
X68723000Y75072000D01*
X68723000Y73772000D02*
X70723000Y73772000D01*
X90111000Y47639000D02*
X89111000Y47639000D01*
X89111000Y49339000D02*
X90111000Y49339000D01*
X82821000Y70117600D02*
X81821000Y70117600D01*
X81821000Y71817600D02*
X82821000Y71817600D01*
X69985000Y51243600D02*
X70985000Y51243600D01*
X70985000Y49543600D02*
X69985000Y49543600D01*
X71010000Y52109000D02*
X70010000Y52109000D01*
X70010000Y53809000D02*
X71010000Y53809000D01*
X76589000Y64096000D02*
X77589000Y64096000D01*
X77589000Y62396000D02*
X76589000Y62396000D01*
X80780000Y64096000D02*
X81780000Y64096000D01*
X81780000Y62396000D02*
X80780000Y62396000D01*
X52721000Y4660000D02*
X51521000Y4660000D01*
X51521000Y2910000D02*
X52721000Y2910000D01*
X54016000Y30669200D02*
X52816000Y30669200D01*
X52816000Y28919200D02*
X54016000Y28919200D01*
X45272000Y3062000D02*
X46472000Y3062000D01*
X46472000Y4812000D02*
X45272000Y4812000D01*
X40630000Y27392600D02*
X39430000Y27392600D01*
X39430000Y25642600D02*
X40630000Y25642600D01*
X45780000Y25337800D02*
X46980000Y25337800D01*
X46980000Y27087800D02*
X45780000Y27087800D01*
X41430000Y14654500D02*
X40230000Y14654500D01*
X40230000Y12904500D02*
X41430000Y12904500D01*
X40230000Y15571500D02*
X41430000Y15571500D01*
X41430000Y17321500D02*
X40230000Y17321500D01*
X40402000Y22033200D02*
X39202000Y22033200D01*
X39202000Y20283200D02*
X40402000Y20283200D01*
X35912000Y15508000D02*
X37112000Y15508000D01*
X37112000Y17258000D02*
X35912000Y17258000D01*
X38287000Y9869200D02*
X39487000Y9869200D01*
X39487000Y11619200D02*
X38287000Y11619200D01*
X35912000Y12841000D02*
X37112000Y12841000D01*
X37112000Y14591000D02*
X35912000Y14591000D01*
X54296000Y14159200D02*
X53096000Y14159200D01*
X53096000Y12409200D02*
X54296000Y12409200D01*
X54448000Y20407600D02*
X53248000Y20407600D01*
X53248000Y18657600D02*
X54448000Y18657600D01*
X54296000Y17207200D02*
X53096000Y17207200D01*
X53096000Y15457200D02*
X54296000Y15457200D01*
X49240240Y31093360D02*
X49240240Y31045100D01*
X48539200Y28294380D02*
X49240240Y28294380D01*
X49240240Y28294380D02*
X49240240Y28543300D01*
X49240240Y31093360D02*
X49240240Y31294020D01*
X49240240Y31294020D02*
X48539200Y31294020D01*
D13*
X54419000Y11464800D02*
X52819000Y11464800D01*
X54619000Y9764800D02*
G75*
G02X54419000Y9464800I-250000J-50000D01*
G01*
X52819000Y9464800D02*
G75*
G02X52619000Y9764800I50000J250000D01*
G01*
X52819000Y11464800D02*
G75*
G03X52619000Y11164800I50000J-250000D01*
G01*
X54619000Y11164800D02*
G75*
G03X54419000Y11464800I-250000J50000D01*
G01*
X52819000Y9464800D02*
X54419000Y9464800D01*
D11*
X50924000Y14518600D02*
X50924000Y10068600D01*
X44174000Y16043600D02*
X44174000Y10068600D01*
X41319000Y34016000D02*
X41319000Y31516000D01*
X43069000Y33416000D02*
X43069000Y32116000D01*
X43469000Y32116000D02*
X43469000Y33416000D01*
X43269000Y33416000D02*
X43269000Y32116000D01*
X45069000Y33416000D02*
X43069000Y33416000D01*
X43069000Y32116000D02*
X45069000Y32116000D01*
X35477000Y30968000D02*
X35477000Y28468000D01*
X37227000Y30368000D02*
X37227000Y29068000D01*
X37627000Y29068000D02*
X37627000Y30368000D01*
X37427000Y30368000D02*
X37427000Y29068000D01*
X39227000Y30368000D02*
X37227000Y30368000D01*
X37227000Y29068000D02*
X39227000Y29068000D01*
X58615000Y2935000D02*
X57615000Y2935000D01*
X57615000Y4635000D02*
X58615000Y4635000D01*
X51325000Y25413600D02*
X50325000Y25413600D01*
X50325000Y27113600D02*
X51325000Y27113600D01*
X38489000Y6539600D02*
X39489000Y6539600D01*
X39489000Y4839600D02*
X38489000Y4839600D01*
X39514000Y7405000D02*
X38514000Y7405000D01*
X38514000Y9105000D02*
X39514000Y9105000D01*
X45093000Y19392000D02*
X46093000Y19392000D01*
X46093000Y17692000D02*
X45093000Y17692000D01*
X49284000Y19392000D02*
X50284000Y19392000D01*
X50284000Y17692000D02*
X49284000Y17692000D01*
X52721000Y49364000D02*
X51521000Y49364000D01*
X51521000Y47614000D02*
X52721000Y47614000D01*
X54016000Y75373200D02*
X52816000Y75373200D01*
X52816000Y73623200D02*
X54016000Y73623200D01*
X45272000Y47766000D02*
X46472000Y47766000D01*
X46472000Y49516000D02*
X45272000Y49516000D01*
X40630000Y72096600D02*
X39430000Y72096600D01*
X39430000Y70346600D02*
X40630000Y70346600D01*
X45780000Y70041800D02*
X46980000Y70041800D01*
X46980000Y71791800D02*
X45780000Y71791800D01*
X41430000Y59358500D02*
X40230000Y59358500D01*
X40230000Y57608500D02*
X41430000Y57608500D01*
X40230000Y60275500D02*
X41430000Y60275500D01*
X41430000Y62025500D02*
X40230000Y62025500D01*
X40402000Y66737200D02*
X39202000Y66737200D01*
X39202000Y64987200D02*
X40402000Y64987200D01*
X35912000Y60212000D02*
X37112000Y60212000D01*
X37112000Y61962000D02*
X35912000Y61962000D01*
X38287000Y54573200D02*
X39487000Y54573200D01*
X39487000Y56323200D02*
X38287000Y56323200D01*
X35912000Y57545000D02*
X37112000Y57545000D01*
X37112000Y59295000D02*
X35912000Y59295000D01*
X54296000Y58863200D02*
X53096000Y58863200D01*
X53096000Y57113200D02*
X54296000Y57113200D01*
X54448000Y65111600D02*
X53248000Y65111600D01*
X53248000Y63361600D02*
X54448000Y63361600D01*
X54296000Y61911200D02*
X53096000Y61911200D01*
X53096000Y60161200D02*
X54296000Y60161200D01*
X49240240Y75797360D02*
X49240240Y75749100D01*
X48539200Y72998380D02*
X49240240Y72998380D01*
X49240240Y72998380D02*
X49240240Y73247300D01*
X49240240Y75797360D02*
X49240240Y75998020D01*
X49240240Y75998020D02*
X48539200Y75998020D01*
D13*
X54419000Y56168800D02*
X52819000Y56168800D01*
X54619000Y54468800D02*
G75*
G02X54419000Y54168800I-250000J-50000D01*
G01*
X52819000Y54168800D02*
G75*
G02X52619000Y54468800I50000J250000D01*
G01*
X52819000Y56168800D02*
G75*
G03X52619000Y55868800I50000J-250000D01*
G01*
X54619000Y55868800D02*
G75*
G03X54419000Y56168800I-250000J50000D01*
G01*
X52819000Y54168800D02*
X54419000Y54168800D01*
D11*
X50924000Y59222600D02*
X50924000Y54772600D01*
X44174000Y60747600D02*
X44174000Y54772600D01*
X41319000Y78720000D02*
X41319000Y76220000D01*
X43069000Y78120000D02*
X43069000Y76820000D01*
X43469000Y76820000D02*
X43469000Y78120000D01*
X43269000Y78120000D02*
X43269000Y76820000D01*
X45069000Y78120000D02*
X43069000Y78120000D01*
X43069000Y76820000D02*
X45069000Y76820000D01*
X35477000Y75672000D02*
X35477000Y73172000D01*
X37227000Y75072000D02*
X37227000Y73772000D01*
X37627000Y73772000D02*
X37627000Y75072000D01*
X37427000Y75072000D02*
X37427000Y73772000D01*
X39227000Y75072000D02*
X37227000Y75072000D01*
X37227000Y73772000D02*
X39227000Y73772000D01*
X58615000Y47639000D02*
X57615000Y47639000D01*
X57615000Y49339000D02*
X58615000Y49339000D01*
X51325000Y70117600D02*
X50325000Y70117600D01*
X50325000Y71817600D02*
X51325000Y71817600D01*
X38489000Y51243600D02*
X39489000Y51243600D01*
X39489000Y49543600D02*
X38489000Y49543600D01*
X39514000Y52109000D02*
X38514000Y52109000D01*
X38514000Y53809000D02*
X39514000Y53809000D01*
X45093000Y64096000D02*
X46093000Y64096000D01*
X46093000Y62396000D02*
X45093000Y62396000D01*
X49284000Y64096000D02*
X50284000Y64096000D01*
X50284000Y62396000D02*
X49284000Y62396000D01*
X21225000Y4660000D02*
X20025000Y4660000D01*
X20025000Y2910000D02*
X21225000Y2910000D01*
X22520000Y30669200D02*
X21320000Y30669200D01*
X21320000Y28919200D02*
X22520000Y28919200D01*
X13776000Y3062000D02*
X14976000Y3062000D01*
X14976000Y4812000D02*
X13776000Y4812000D01*
X9134000Y27392600D02*
X7934000Y27392600D01*
X7934000Y25642600D02*
X9134000Y25642600D01*
X14284000Y25337800D02*
X15484000Y25337800D01*
X15484000Y27087800D02*
X14284000Y27087800D01*
X9934000Y14654500D02*
X8734000Y14654500D01*
X8734000Y12904500D02*
X9934000Y12904500D01*
X8734000Y15571500D02*
X9934000Y15571500D01*
X9934000Y17321500D02*
X8734000Y17321500D01*
X8906000Y22033200D02*
X7706000Y22033200D01*
X7706000Y20283200D02*
X8906000Y20283200D01*
X4416000Y15508000D02*
X5616000Y15508000D01*
X5616000Y17258000D02*
X4416000Y17258000D01*
X6791000Y9869200D02*
X7991000Y9869200D01*
X7991000Y11619200D02*
X6791000Y11619200D01*
X4416000Y12841000D02*
X5616000Y12841000D01*
X5616000Y14591000D02*
X4416000Y14591000D01*
X22800000Y14159200D02*
X21600000Y14159200D01*
X21600000Y12409200D02*
X22800000Y12409200D01*
X22952000Y20407600D02*
X21752000Y20407600D01*
X21752000Y18657600D02*
X22952000Y18657600D01*
X22800000Y17207200D02*
X21600000Y17207200D01*
X21600000Y15457200D02*
X22800000Y15457200D01*
X17744240Y31093360D02*
X17744240Y31045100D01*
X17043200Y28294380D02*
X17744240Y28294380D01*
X17744240Y28294380D02*
X17744240Y28543300D01*
X17744240Y31093360D02*
X17744240Y31294020D01*
X17744240Y31294020D02*
X17043200Y31294020D01*
D13*
X22923000Y11464800D02*
X21323000Y11464800D01*
X23123000Y9764800D02*
G75*
G02X22923000Y9464800I-250000J-50000D01*
G01*
X21323000Y9464800D02*
G75*
G02X21123000Y9764800I50000J250000D01*
G01*
X21323000Y11464800D02*
G75*
G03X21123000Y11164800I50000J-250000D01*
G01*
X23123000Y11164800D02*
G75*
G03X22923000Y11464800I-250000J50000D01*
G01*
X21323000Y9464800D02*
X22923000Y9464800D01*
D11*
X19428000Y14518600D02*
X19428000Y10068600D01*
X12678000Y16043600D02*
X12678000Y10068600D01*
X9823000Y34016000D02*
X9823000Y31516000D01*
X11573000Y33416000D02*
X11573000Y32116000D01*
X11973000Y32116000D02*
X11973000Y33416000D01*
X11773000Y33416000D02*
X11773000Y32116000D01*
X13573000Y33416000D02*
X11573000Y33416000D01*
X11573000Y32116000D02*
X13573000Y32116000D01*
X3981000Y30968000D02*
X3981000Y28468000D01*
X5731000Y30368000D02*
X5731000Y29068000D01*
X6131000Y29068000D02*
X6131000Y30368000D01*
X5931000Y30368000D02*
X5931000Y29068000D01*
X7731000Y30368000D02*
X5731000Y30368000D01*
X5731000Y29068000D02*
X7731000Y29068000D01*
X27119000Y2935000D02*
X26119000Y2935000D01*
X26119000Y4635000D02*
X27119000Y4635000D01*
X19829000Y25413600D02*
X18829000Y25413600D01*
X18829000Y27113600D02*
X19829000Y27113600D01*
X6993000Y6539600D02*
X7993000Y6539600D01*
X7993000Y4839600D02*
X6993000Y4839600D01*
X8018000Y7405000D02*
X7018000Y7405000D01*
X7018000Y9105000D02*
X8018000Y9105000D01*
X13597000Y19392000D02*
X14597000Y19392000D01*
X14597000Y17692000D02*
X13597000Y17692000D01*
X17788000Y19392000D02*
X18788000Y19392000D01*
X18788000Y17692000D02*
X17788000Y17692000D01*
X17788000Y64096000D02*
X18788000Y64096000D01*
X18788000Y62396000D02*
X17788000Y62396000D01*
X13597000Y64096000D02*
X14597000Y64096000D01*
X14597000Y62396000D02*
X13597000Y62396000D01*
X8018000Y52109000D02*
X7018000Y52109000D01*
X7018000Y53809000D02*
X8018000Y53809000D01*
X6993000Y51243600D02*
X7993000Y51243600D01*
X7993000Y49543600D02*
X6993000Y49543600D01*
X19829000Y70117600D02*
X18829000Y70117600D01*
X18829000Y71817600D02*
X19829000Y71817600D01*
X27119000Y47639000D02*
X26119000Y47639000D01*
X26119000Y49339000D02*
X27119000Y49339000D01*
X3981000Y75672000D02*
X3981000Y73172000D01*
X5731000Y75072000D02*
X5731000Y73772000D01*
X6131000Y73772000D02*
X6131000Y75072000D01*
X5931000Y75072000D02*
X5931000Y73772000D01*
X7731000Y75072000D02*
X5731000Y75072000D01*
X5731000Y73772000D02*
X7731000Y73772000D01*
X9823000Y78720000D02*
X9823000Y76220000D01*
X11573000Y78120000D02*
X11573000Y76820000D01*
X11973000Y76820000D02*
X11973000Y78120000D01*
X11773000Y78120000D02*
X11773000Y76820000D01*
X13573000Y78120000D02*
X11573000Y78120000D01*
X11573000Y76820000D02*
X13573000Y76820000D01*
X19428000Y59222600D02*
X19428000Y54772600D01*
X12678000Y60747600D02*
X12678000Y54772600D01*
D13*
X22923000Y56168800D02*
X21323000Y56168800D01*
X23123000Y54468800D02*
G75*
G02X22923000Y54168800I-250000J-50000D01*
G01*
X21323000Y54168800D02*
G75*
G02X21123000Y54468800I50000J250000D01*
G01*
X21323000Y56168800D02*
G75*
G03X21123000Y55868800I50000J-250000D01*
G01*
X23123000Y55868800D02*
G75*
G03X22923000Y56168800I-250000J50000D01*
G01*
X21323000Y54168800D02*
X22923000Y54168800D01*
D11*
X17744240Y75797360D02*
X17744240Y75749100D01*
X17043200Y72998380D02*
X17744240Y72998380D01*
X17744240Y72998380D02*
X17744240Y73247300D01*
X17744240Y75797360D02*
X17744240Y75998020D01*
X17744240Y75998020D02*
X17043200Y75998020D01*
X22800000Y61911200D02*
X21600000Y61911200D01*
X21600000Y60161200D02*
X22800000Y60161200D01*
X22952000Y65111600D02*
X21752000Y65111600D01*
X21752000Y63361600D02*
X22952000Y63361600D01*
X22800000Y58863200D02*
X21600000Y58863200D01*
X21600000Y57113200D02*
X22800000Y57113200D01*
X4416000Y57545000D02*
X5616000Y57545000D01*
X5616000Y59295000D02*
X4416000Y59295000D01*
X6791000Y54573200D02*
X7991000Y54573200D01*
X7991000Y56323200D02*
X6791000Y56323200D01*
X4416000Y60212000D02*
X5616000Y60212000D01*
X5616000Y61962000D02*
X4416000Y61962000D01*
X8906000Y66737200D02*
X7706000Y66737200D01*
X7706000Y64987200D02*
X8906000Y64987200D01*
X8734000Y60275500D02*
X9934000Y60275500D01*
X9934000Y62025500D02*
X8734000Y62025500D01*
X9934000Y59358500D02*
X8734000Y59358500D01*
X8734000Y57608500D02*
X9934000Y57608500D01*
X14284000Y70041800D02*
X15484000Y70041800D01*
X15484000Y71791800D02*
X14284000Y71791800D01*
X9134000Y72096600D02*
X7934000Y72096600D01*
X7934000Y70346600D02*
X9134000Y70346600D01*
X13776000Y47766000D02*
X14976000Y47766000D01*
X14976000Y49516000D02*
X13776000Y49516000D01*
X22520000Y75373200D02*
X21320000Y75373200D01*
X21320000Y73623200D02*
X22520000Y73623200D01*
X21225000Y49364000D02*
X20025000Y49364000D01*
X20025000Y47614000D02*
X21225000Y47614000D01*
X84145357Y1643119D02*
X84478691Y2119310D01*
X84716786Y1643119D02*
X84716786Y2643119D01*
X84335833Y2643119D01*
X84240595Y2595500D01*
X84192976Y2547881D01*
X84145357Y2452643D01*
X84145357Y2309786D01*
X84192976Y2214548D01*
X84240595Y2166929D01*
X84335833Y2119310D01*
X84716786Y2119310D01*
X83192976Y1643119D02*
X83764405Y1643119D01*
X83478691Y1643119D02*
X83478691Y2643119D01*
X83573929Y2500262D01*
X83669167Y2405024D01*
X83764405Y2357405D01*
X82335833Y2643119D02*
X82526310Y2643119D01*
X82621548Y2595500D01*
X82669167Y2547881D01*
X82764405Y2405024D01*
X82812024Y2214548D01*
X82812024Y1833595D01*
X82764405Y1738357D01*
X82716786Y1690738D01*
X82621548Y1643119D01*
X82431071Y1643119D01*
X82335833Y1690738D01*
X82288214Y1738357D01*
X82240595Y1833595D01*
X82240595Y2071690D01*
X82288214Y2166929D01*
X82335833Y2214548D01*
X82431071Y2262167D01*
X82621548Y2262167D01*
X82716786Y2214548D01*
X82764405Y2166929D01*
X82812024Y2071690D01*
X85415357Y31107119D02*
X85748691Y31583310D01*
X85986786Y31107119D02*
X85986786Y32107119D01*
X85605833Y32107119D01*
X85510595Y32059500D01*
X85462976Y32011881D01*
X85415357Y31916643D01*
X85415357Y31773786D01*
X85462976Y31678548D01*
X85510595Y31630929D01*
X85605833Y31583310D01*
X85986786Y31583310D01*
X84462976Y31107119D02*
X85034405Y31107119D01*
X84748691Y31107119D02*
X84748691Y32107119D01*
X84843929Y31964262D01*
X84939167Y31869024D01*
X85034405Y31821405D01*
X83605833Y31773786D02*
X83605833Y31107119D01*
X83843929Y32154738D02*
X84082024Y31440452D01*
X83462976Y31440452D01*
X77922357Y1770119D02*
X78255691Y2246310D01*
X78493786Y1770119D02*
X78493786Y2770119D01*
X78112833Y2770119D01*
X78017595Y2722500D01*
X77969976Y2674881D01*
X77922357Y2579643D01*
X77922357Y2436786D01*
X77969976Y2341548D01*
X78017595Y2293929D01*
X78112833Y2246310D01*
X78493786Y2246310D01*
X76969976Y1770119D02*
X77541405Y1770119D01*
X77255691Y1770119D02*
X77255691Y2770119D01*
X77350929Y2627262D01*
X77446167Y2532024D01*
X77541405Y2484405D01*
X76636643Y2770119D02*
X76017595Y2770119D01*
X76350929Y2389167D01*
X76208071Y2389167D01*
X76112833Y2341548D01*
X76065214Y2293929D01*
X76017595Y2198690D01*
X76017595Y1960595D01*
X76065214Y1865357D01*
X76112833Y1817738D01*
X76208071Y1770119D01*
X76493786Y1770119D01*
X76589024Y1817738D01*
X76636643Y1865357D01*
X69095857Y25963619D02*
X69429191Y26439810D01*
X69667286Y25963619D02*
X69667286Y26963619D01*
X69286333Y26963619D01*
X69191095Y26916000D01*
X69143476Y26868381D01*
X69095857Y26773143D01*
X69095857Y26630286D01*
X69143476Y26535048D01*
X69191095Y26487429D01*
X69286333Y26439810D01*
X69667286Y26439810D01*
X68143476Y25963619D02*
X68714905Y25963619D01*
X68429191Y25963619D02*
X68429191Y26963619D01*
X68524429Y26820762D01*
X68619667Y26725524D01*
X68714905Y26677905D01*
X67191095Y25963619D02*
X67762524Y25963619D01*
X67476810Y25963619D02*
X67476810Y26963619D01*
X67572048Y26820762D01*
X67667286Y26725524D01*
X67762524Y26677905D01*
X75636357Y25709619D02*
X75969691Y26185810D01*
X76207786Y25709619D02*
X76207786Y26709619D01*
X75826833Y26709619D01*
X75731595Y26662000D01*
X75683976Y26614381D01*
X75636357Y26519143D01*
X75636357Y26376286D01*
X75683976Y26281048D01*
X75731595Y26233429D01*
X75826833Y26185810D01*
X76207786Y26185810D01*
X74683976Y25709619D02*
X75255405Y25709619D01*
X74969691Y25709619D02*
X74969691Y26709619D01*
X75064929Y26566762D01*
X75160167Y26471524D01*
X75255405Y26423905D01*
X74064929Y26709619D02*
X73969690Y26709619D01*
X73874452Y26662000D01*
X73826833Y26614381D01*
X73779214Y26519143D01*
X73731595Y26328667D01*
X73731595Y26090571D01*
X73779214Y25900095D01*
X73826833Y25804857D01*
X73874452Y25757238D01*
X73969690Y25709619D01*
X74064929Y25709619D01*
X74160167Y25757238D01*
X74207786Y25804857D01*
X74255405Y25900095D01*
X74303024Y26090571D01*
X74303024Y26328667D01*
X74255405Y26519143D01*
X74207786Y26614381D01*
X74160167Y26662000D01*
X74064929Y26709619D01*
X75064881Y14009666D02*
X74588690Y14343000D01*
X75064881Y14581095D02*
X74064881Y14581095D01*
X74064881Y14200142D01*
X74112500Y14104904D01*
X74160119Y14057285D01*
X74255357Y14009666D01*
X74398214Y14009666D01*
X74493452Y14057285D01*
X74541071Y14104904D01*
X74588690Y14200142D01*
X74588690Y14581095D01*
X75064881Y13533476D02*
X75064881Y13343000D01*
X75017262Y13247761D01*
X74969643Y13200142D01*
X74826786Y13104904D01*
X74636310Y13057285D01*
X74255357Y13057285D01*
X74160119Y13104904D01*
X74112500Y13152523D01*
X74064881Y13247761D01*
X74064881Y13438238D01*
X74112500Y13533476D01*
X74160119Y13581095D01*
X74255357Y13628714D01*
X74493452Y13628714D01*
X74588690Y13581095D01*
X74636310Y13533476D01*
X74683929Y13438238D01*
X74683929Y13247761D01*
X74636310Y13152523D01*
X74588690Y13104904D01*
X74493452Y13057285D01*
X75064881Y16613166D02*
X74588690Y16946500D01*
X75064881Y17184595D02*
X74064881Y17184595D01*
X74064881Y16803642D01*
X74112500Y16708404D01*
X74160119Y16660785D01*
X74255357Y16613166D01*
X74398214Y16613166D01*
X74493452Y16660785D01*
X74541071Y16708404D01*
X74588690Y16803642D01*
X74588690Y17184595D01*
X74493452Y16041738D02*
X74445833Y16136976D01*
X74398214Y16184595D01*
X74302976Y16232214D01*
X74255357Y16232214D01*
X74160119Y16184595D01*
X74112500Y16136976D01*
X74064881Y16041738D01*
X74064881Y15851261D01*
X74112500Y15756023D01*
X74160119Y15708404D01*
X74255357Y15660785D01*
X74302976Y15660785D01*
X74398214Y15708404D01*
X74445833Y15756023D01*
X74493452Y15851261D01*
X74493452Y16041738D01*
X74541071Y16136976D01*
X74588690Y16184595D01*
X74683929Y16232214D01*
X74874405Y16232214D01*
X74969643Y16184595D01*
X75017262Y16136976D01*
X75064881Y16041738D01*
X75064881Y15851261D01*
X75017262Y15756023D01*
X74969643Y15708404D01*
X74874405Y15660785D01*
X74683929Y15660785D01*
X74588690Y15708404D01*
X74541071Y15756023D01*
X74493452Y15851261D01*
X68873666Y20629619D02*
X69207000Y21105810D01*
X69445095Y20629619D02*
X69445095Y21629619D01*
X69064142Y21629619D01*
X68968904Y21582000D01*
X68921285Y21534381D01*
X68873666Y21439143D01*
X68873666Y21296286D01*
X68921285Y21201048D01*
X68968904Y21153429D01*
X69064142Y21105810D01*
X69445095Y21105810D01*
X68540333Y21629619D02*
X67873666Y21629619D01*
X68302238Y20629619D01*
X70619881Y16549666D02*
X70143690Y16883000D01*
X70619881Y17121095D02*
X69619881Y17121095D01*
X69619881Y16740142D01*
X69667500Y16644904D01*
X69715119Y16597285D01*
X69810357Y16549666D01*
X69953214Y16549666D01*
X70048452Y16597285D01*
X70096071Y16644904D01*
X70143690Y16740142D01*
X70143690Y17121095D01*
X69619881Y15692523D02*
X69619881Y15883000D01*
X69667500Y15978238D01*
X69715119Y16025857D01*
X69857976Y16121095D01*
X70048452Y16168714D01*
X70429405Y16168714D01*
X70524643Y16121095D01*
X70572262Y16073476D01*
X70619881Y15978238D01*
X70619881Y15787761D01*
X70572262Y15692523D01*
X70524643Y15644904D01*
X70429405Y15597285D01*
X70191310Y15597285D01*
X70096071Y15644904D01*
X70048452Y15692523D01*
X70000833Y15787761D01*
X70000833Y15978238D01*
X70048452Y16073476D01*
X70096071Y16121095D01*
X70191310Y16168714D01*
X67921166Y10279119D02*
X68254500Y10755310D01*
X68492595Y10279119D02*
X68492595Y11279119D01*
X68111642Y11279119D01*
X68016404Y11231500D01*
X67968785Y11183881D01*
X67921166Y11088643D01*
X67921166Y10945786D01*
X67968785Y10850548D01*
X68016404Y10802929D01*
X68111642Y10755310D01*
X68492595Y10755310D01*
X67016404Y11279119D02*
X67492595Y11279119D01*
X67540214Y10802929D01*
X67492595Y10850548D01*
X67397357Y10898167D01*
X67159261Y10898167D01*
X67064023Y10850548D01*
X67016404Y10802929D01*
X66968785Y10707690D01*
X66968785Y10469595D01*
X67016404Y10374357D01*
X67064023Y10326738D01*
X67159261Y10279119D01*
X67397357Y10279119D01*
X67492595Y10326738D01*
X67540214Y10374357D01*
X70683381Y13882666D02*
X70207190Y14216000D01*
X70683381Y14454095D02*
X69683381Y14454095D01*
X69683381Y14073142D01*
X69731000Y13977904D01*
X69778619Y13930285D01*
X69873857Y13882666D01*
X70016714Y13882666D01*
X70111952Y13930285D01*
X70159571Y13977904D01*
X70207190Y14073142D01*
X70207190Y14454095D01*
X70016714Y13025523D02*
X70683381Y13025523D01*
X69635762Y13263619D02*
X70350048Y13501714D01*
X70350048Y12882666D01*
X87955381Y13438166D02*
X87479190Y13771500D01*
X87955381Y14009595D02*
X86955381Y14009595D01*
X86955381Y13628642D01*
X87003000Y13533404D01*
X87050619Y13485785D01*
X87145857Y13438166D01*
X87288714Y13438166D01*
X87383952Y13485785D01*
X87431571Y13533404D01*
X87479190Y13628642D01*
X87479190Y14009595D01*
X86955381Y13104833D02*
X86955381Y12485785D01*
X87336333Y12819119D01*
X87336333Y12676261D01*
X87383952Y12581023D01*
X87431571Y12533404D01*
X87526810Y12485785D01*
X87764905Y12485785D01*
X87860143Y12533404D01*
X87907762Y12581023D01*
X87955381Y12676261D01*
X87955381Y12961976D01*
X87907762Y13057214D01*
X87860143Y13104833D01*
X88145881Y19661166D02*
X87669690Y19994500D01*
X88145881Y20232595D02*
X87145881Y20232595D01*
X87145881Y19851642D01*
X87193500Y19756404D01*
X87241119Y19708785D01*
X87336357Y19661166D01*
X87479214Y19661166D01*
X87574452Y19708785D01*
X87622071Y19756404D01*
X87669690Y19851642D01*
X87669690Y20232595D01*
X87241119Y19280214D02*
X87193500Y19232595D01*
X87145881Y19137357D01*
X87145881Y18899261D01*
X87193500Y18804023D01*
X87241119Y18756404D01*
X87336357Y18708785D01*
X87431595Y18708785D01*
X87574452Y18756404D01*
X88145881Y19327833D01*
X88145881Y18708785D01*
X87955381Y16549666D02*
X87479190Y16883000D01*
X87955381Y17121095D02*
X86955381Y17121095D01*
X86955381Y16740142D01*
X87003000Y16644904D01*
X87050619Y16597285D01*
X87145857Y16549666D01*
X87288714Y16549666D01*
X87383952Y16597285D01*
X87431571Y16644904D01*
X87479190Y16740142D01*
X87479190Y17121095D01*
X87955381Y15597285D02*
X87955381Y16168714D01*
X87955381Y15883000D02*
X86955381Y15883000D01*
X87098238Y15978238D01*
X87193476Y16073476D01*
X87241095Y16168714D01*
X78271619Y30003738D02*
X78224000Y30098976D01*
X78128762Y30194214D01*
X77985905Y30337071D01*
X77938286Y30432310D01*
X77938286Y30527548D01*
X78176381Y30479929D02*
X78128762Y30575167D01*
X78033524Y30670405D01*
X77843048Y30718024D01*
X77509714Y30718024D01*
X77319238Y30670405D01*
X77224000Y30575167D01*
X77176381Y30479929D01*
X77176381Y30289452D01*
X77224000Y30194214D01*
X77319238Y30098976D01*
X77509714Y30051357D01*
X77843048Y30051357D01*
X78033524Y30098976D01*
X78128762Y30194214D01*
X78176381Y30289452D01*
X78176381Y30479929D01*
X77271619Y29670405D02*
X77224000Y29622786D01*
X77176381Y29527548D01*
X77176381Y29289452D01*
X77224000Y29194214D01*
X77271619Y29146595D01*
X77366857Y29098976D01*
X77462095Y29098976D01*
X77604952Y29146595D01*
X78176381Y29718024D01*
X78176381Y29098976D01*
D14*
X83542535Y10592768D02*
X83818307Y10592768D01*
X83873461Y10611152D01*
X83910230Y10647922D01*
X83928615Y10703076D01*
X83928615Y10739846D01*
X83579305Y10427305D02*
X83560920Y10408920D01*
X83542535Y10372151D01*
X83542535Y10280227D01*
X83560920Y10243457D01*
X83579305Y10225073D01*
X83616074Y10206688D01*
X83652844Y10206688D01*
X83707998Y10225073D01*
X83928615Y10445690D01*
X83928615Y10206688D01*
D11*
X75064881Y10691690D02*
X74064881Y10691690D01*
X74969643Y9644071D02*
X75017262Y9691690D01*
X75064881Y9834547D01*
X75064881Y9929785D01*
X75017262Y10072643D01*
X74922024Y10167881D01*
X74826786Y10215500D01*
X74636310Y10263119D01*
X74493452Y10263119D01*
X74302976Y10215500D01*
X74207738Y10167881D01*
X74112500Y10072643D01*
X74064881Y9929785D01*
X74064881Y9834547D01*
X74112500Y9691690D01*
X74160119Y9644071D01*
X75064881Y8691690D02*
X75064881Y9263119D01*
X75064881Y8977405D02*
X74064881Y8977405D01*
X74207738Y9072643D01*
X74302976Y9167881D01*
X74350595Y9263119D01*
X76155476Y34309095D02*
X76155476Y35109095D01*
X75965000Y35109095D01*
X75850714Y35071000D01*
X75774523Y34994810D01*
X75736428Y34918619D01*
X75698333Y34766238D01*
X75698333Y34651952D01*
X75736428Y34499571D01*
X75774523Y34423381D01*
X75850714Y34347190D01*
X75965000Y34309095D01*
X76155476Y34309095D01*
X75431666Y35109095D02*
X74936428Y35109095D01*
X75203095Y34804333D01*
X75088809Y34804333D01*
X75012619Y34766238D01*
X74974523Y34728143D01*
X74936428Y34651952D01*
X74936428Y34461476D01*
X74974523Y34385286D01*
X75012619Y34347190D01*
X75088809Y34309095D01*
X75317381Y34309095D01*
X75393571Y34347190D01*
X75431666Y34385286D01*
X70313476Y31261095D02*
X70313476Y32061095D01*
X70123000Y32061095D01*
X70008714Y32023000D01*
X69932523Y31946810D01*
X69894428Y31870619D01*
X69856333Y31718238D01*
X69856333Y31603952D01*
X69894428Y31451571D01*
X69932523Y31375381D01*
X70008714Y31299190D01*
X70123000Y31261095D01*
X70313476Y31261095D01*
X69551571Y31984905D02*
X69513476Y32023000D01*
X69437285Y32061095D01*
X69246809Y32061095D01*
X69170619Y32023000D01*
X69132523Y31984905D01*
X69094428Y31908714D01*
X69094428Y31832524D01*
X69132523Y31718238D01*
X69589666Y31261095D01*
X69094428Y31261095D01*
X89828666Y5167357D02*
X89876285Y5119738D01*
X90019142Y5072119D01*
X90114380Y5072119D01*
X90257238Y5119738D01*
X90352476Y5214976D01*
X90400095Y5310214D01*
X90447714Y5500690D01*
X90447714Y5643548D01*
X90400095Y5834024D01*
X90352476Y5929262D01*
X90257238Y6024500D01*
X90114380Y6072119D01*
X90019142Y6072119D01*
X89876285Y6024500D01*
X89828666Y5976881D01*
X89257238Y5643548D02*
X89352476Y5691167D01*
X89400095Y5738786D01*
X89447714Y5834024D01*
X89447714Y5881643D01*
X89400095Y5976881D01*
X89352476Y6024500D01*
X89257238Y6072119D01*
X89066761Y6072119D01*
X88971523Y6024500D01*
X88923904Y5976881D01*
X88876285Y5881643D01*
X88876285Y5834024D01*
X88923904Y5738786D01*
X88971523Y5691167D01*
X89066761Y5643548D01*
X89257238Y5643548D01*
X89352476Y5595929D01*
X89400095Y5548310D01*
X89447714Y5453071D01*
X89447714Y5262595D01*
X89400095Y5167357D01*
X89352476Y5119738D01*
X89257238Y5072119D01*
X89066761Y5072119D01*
X88971523Y5119738D01*
X88923904Y5167357D01*
X88876285Y5262595D01*
X88876285Y5453071D01*
X88923904Y5548310D01*
X88971523Y5595929D01*
X89066761Y5643548D01*
X85320166Y25931857D02*
X85367785Y25884238D01*
X85510642Y25836619D01*
X85605880Y25836619D01*
X85748738Y25884238D01*
X85843976Y25979476D01*
X85891595Y26074714D01*
X85939214Y26265190D01*
X85939214Y26408048D01*
X85891595Y26598524D01*
X85843976Y26693762D01*
X85748738Y26789000D01*
X85605880Y26836619D01*
X85510642Y26836619D01*
X85367785Y26789000D01*
X85320166Y26741381D01*
X84463023Y26836619D02*
X84653500Y26836619D01*
X84748738Y26789000D01*
X84796357Y26741381D01*
X84891595Y26598524D01*
X84939214Y26408048D01*
X84939214Y26027095D01*
X84891595Y25931857D01*
X84843976Y25884238D01*
X84748738Y25836619D01*
X84558261Y25836619D01*
X84463023Y25884238D01*
X84415404Y25931857D01*
X84367785Y26027095D01*
X84367785Y26265190D01*
X84415404Y26360429D01*
X84463023Y26408048D01*
X84558261Y26455667D01*
X84748738Y26455667D01*
X84843976Y26408048D01*
X84891595Y26360429D01*
X84939214Y26265190D01*
X67857666Y7897857D02*
X67905285Y7850238D01*
X68048142Y7802619D01*
X68143380Y7802619D01*
X68286238Y7850238D01*
X68381476Y7945476D01*
X68429095Y8040714D01*
X68476714Y8231190D01*
X68476714Y8374048D01*
X68429095Y8564524D01*
X68381476Y8659762D01*
X68286238Y8755000D01*
X68143380Y8802619D01*
X68048142Y8802619D01*
X67905285Y8755000D01*
X67857666Y8707381D01*
X66952904Y8802619D02*
X67429095Y8802619D01*
X67476714Y8326429D01*
X67429095Y8374048D01*
X67333857Y8421667D01*
X67095761Y8421667D01*
X67000523Y8374048D01*
X66952904Y8326429D01*
X66905285Y8231190D01*
X66905285Y7993095D01*
X66952904Y7897857D01*
X67000523Y7850238D01*
X67095761Y7802619D01*
X67333857Y7802619D01*
X67429095Y7850238D01*
X67476714Y7897857D01*
X67857666Y5230857D02*
X67905285Y5183238D01*
X68048142Y5135619D01*
X68143380Y5135619D01*
X68286238Y5183238D01*
X68381476Y5278476D01*
X68429095Y5373714D01*
X68476714Y5564190D01*
X68476714Y5707048D01*
X68429095Y5897524D01*
X68381476Y5992762D01*
X68286238Y6088000D01*
X68143380Y6135619D01*
X68048142Y6135619D01*
X67905285Y6088000D01*
X67857666Y6040381D01*
X67524333Y6135619D02*
X66905285Y6135619D01*
X67238619Y5754667D01*
X67095761Y5754667D01*
X67000523Y5707048D01*
X66952904Y5659429D01*
X66905285Y5564190D01*
X66905285Y5326095D01*
X66952904Y5230857D01*
X67000523Y5183238D01*
X67095761Y5135619D01*
X67381476Y5135619D01*
X67476714Y5183238D01*
X67524333Y5230857D01*
X77319166Y19899357D02*
X77366785Y19851738D01*
X77509642Y19804119D01*
X77604880Y19804119D01*
X77747738Y19851738D01*
X77842976Y19946976D01*
X77890595Y20042214D01*
X77938214Y20232690D01*
X77938214Y20375548D01*
X77890595Y20566024D01*
X77842976Y20661262D01*
X77747738Y20756500D01*
X77604880Y20804119D01*
X77509642Y20804119D01*
X77366785Y20756500D01*
X77319166Y20708881D01*
X76938214Y20708881D02*
X76890595Y20756500D01*
X76795357Y20804119D01*
X76557261Y20804119D01*
X76462023Y20756500D01*
X76414404Y20708881D01*
X76366785Y20613643D01*
X76366785Y20518405D01*
X76414404Y20375548D01*
X76985833Y19804119D01*
X76366785Y19804119D01*
X81383166Y19899357D02*
X81430785Y19851738D01*
X81573642Y19804119D01*
X81668880Y19804119D01*
X81811738Y19851738D01*
X81906976Y19946976D01*
X81954595Y20042214D01*
X82002214Y20232690D01*
X82002214Y20375548D01*
X81954595Y20566024D01*
X81906976Y20661262D01*
X81811738Y20756500D01*
X81668880Y20804119D01*
X81573642Y20804119D01*
X81430785Y20756500D01*
X81383166Y20708881D01*
X80430785Y19804119D02*
X81002214Y19804119D01*
X80716500Y19804119D02*
X80716500Y20804119D01*
X80811738Y20661262D01*
X80906976Y20566024D01*
X81002214Y20518405D01*
X84145357Y46347119D02*
X84478691Y46823310D01*
X84716786Y46347119D02*
X84716786Y47347119D01*
X84335833Y47347119D01*
X84240595Y47299500D01*
X84192976Y47251881D01*
X84145357Y47156643D01*
X84145357Y47013786D01*
X84192976Y46918548D01*
X84240595Y46870929D01*
X84335833Y46823310D01*
X84716786Y46823310D01*
X83192976Y46347119D02*
X83764405Y46347119D01*
X83478691Y46347119D02*
X83478691Y47347119D01*
X83573929Y47204262D01*
X83669167Y47109024D01*
X83764405Y47061405D01*
X82335833Y47347119D02*
X82526310Y47347119D01*
X82621548Y47299500D01*
X82669167Y47251881D01*
X82764405Y47109024D01*
X82812024Y46918548D01*
X82812024Y46537595D01*
X82764405Y46442357D01*
X82716786Y46394738D01*
X82621548Y46347119D01*
X82431071Y46347119D01*
X82335833Y46394738D01*
X82288214Y46442357D01*
X82240595Y46537595D01*
X82240595Y46775690D01*
X82288214Y46870929D01*
X82335833Y46918548D01*
X82431071Y46966167D01*
X82621548Y46966167D01*
X82716786Y46918548D01*
X82764405Y46870929D01*
X82812024Y46775690D01*
X85415357Y75811119D02*
X85748691Y76287310D01*
X85986786Y75811119D02*
X85986786Y76811119D01*
X85605833Y76811119D01*
X85510595Y76763500D01*
X85462976Y76715881D01*
X85415357Y76620643D01*
X85415357Y76477786D01*
X85462976Y76382548D01*
X85510595Y76334929D01*
X85605833Y76287310D01*
X85986786Y76287310D01*
X84462976Y75811119D02*
X85034405Y75811119D01*
X84748691Y75811119D02*
X84748691Y76811119D01*
X84843929Y76668262D01*
X84939167Y76573024D01*
X85034405Y76525405D01*
X83605833Y76477786D02*
X83605833Y75811119D01*
X83843929Y76858738D02*
X84082024Y76144452D01*
X83462976Y76144452D01*
X77922357Y46474119D02*
X78255691Y46950310D01*
X78493786Y46474119D02*
X78493786Y47474119D01*
X78112833Y47474119D01*
X78017595Y47426500D01*
X77969976Y47378881D01*
X77922357Y47283643D01*
X77922357Y47140786D01*
X77969976Y47045548D01*
X78017595Y46997929D01*
X78112833Y46950310D01*
X78493786Y46950310D01*
X76969976Y46474119D02*
X77541405Y46474119D01*
X77255691Y46474119D02*
X77255691Y47474119D01*
X77350929Y47331262D01*
X77446167Y47236024D01*
X77541405Y47188405D01*
X76636643Y47474119D02*
X76017595Y47474119D01*
X76350929Y47093167D01*
X76208071Y47093167D01*
X76112833Y47045548D01*
X76065214Y46997929D01*
X76017595Y46902690D01*
X76017595Y46664595D01*
X76065214Y46569357D01*
X76112833Y46521738D01*
X76208071Y46474119D01*
X76493786Y46474119D01*
X76589024Y46521738D01*
X76636643Y46569357D01*
X69095857Y70667619D02*
X69429191Y71143810D01*
X69667286Y70667619D02*
X69667286Y71667619D01*
X69286333Y71667619D01*
X69191095Y71620000D01*
X69143476Y71572381D01*
X69095857Y71477143D01*
X69095857Y71334286D01*
X69143476Y71239048D01*
X69191095Y71191429D01*
X69286333Y71143810D01*
X69667286Y71143810D01*
X68143476Y70667619D02*
X68714905Y70667619D01*
X68429191Y70667619D02*
X68429191Y71667619D01*
X68524429Y71524762D01*
X68619667Y71429524D01*
X68714905Y71381905D01*
X67191095Y70667619D02*
X67762524Y70667619D01*
X67476810Y70667619D02*
X67476810Y71667619D01*
X67572048Y71524762D01*
X67667286Y71429524D01*
X67762524Y71381905D01*
X75636357Y70413619D02*
X75969691Y70889810D01*
X76207786Y70413619D02*
X76207786Y71413619D01*
X75826833Y71413619D01*
X75731595Y71366000D01*
X75683976Y71318381D01*
X75636357Y71223143D01*
X75636357Y71080286D01*
X75683976Y70985048D01*
X75731595Y70937429D01*
X75826833Y70889810D01*
X76207786Y70889810D01*
X74683976Y70413619D02*
X75255405Y70413619D01*
X74969691Y70413619D02*
X74969691Y71413619D01*
X75064929Y71270762D01*
X75160167Y71175524D01*
X75255405Y71127905D01*
X74064929Y71413619D02*
X73969690Y71413619D01*
X73874452Y71366000D01*
X73826833Y71318381D01*
X73779214Y71223143D01*
X73731595Y71032667D01*
X73731595Y70794571D01*
X73779214Y70604095D01*
X73826833Y70508857D01*
X73874452Y70461238D01*
X73969690Y70413619D01*
X74064929Y70413619D01*
X74160167Y70461238D01*
X74207786Y70508857D01*
X74255405Y70604095D01*
X74303024Y70794571D01*
X74303024Y71032667D01*
X74255405Y71223143D01*
X74207786Y71318381D01*
X74160167Y71366000D01*
X74064929Y71413619D01*
X75064881Y58713666D02*
X74588690Y59047000D01*
X75064881Y59285095D02*
X74064881Y59285095D01*
X74064881Y58904142D01*
X74112500Y58808904D01*
X74160119Y58761285D01*
X74255357Y58713666D01*
X74398214Y58713666D01*
X74493452Y58761285D01*
X74541071Y58808904D01*
X74588690Y58904142D01*
X74588690Y59285095D01*
X75064881Y58237476D02*
X75064881Y58047000D01*
X75017262Y57951761D01*
X74969643Y57904142D01*
X74826786Y57808904D01*
X74636310Y57761285D01*
X74255357Y57761285D01*
X74160119Y57808904D01*
X74112500Y57856523D01*
X74064881Y57951761D01*
X74064881Y58142238D01*
X74112500Y58237476D01*
X74160119Y58285095D01*
X74255357Y58332714D01*
X74493452Y58332714D01*
X74588690Y58285095D01*
X74636310Y58237476D01*
X74683929Y58142238D01*
X74683929Y57951761D01*
X74636310Y57856523D01*
X74588690Y57808904D01*
X74493452Y57761285D01*
X75064881Y61317166D02*
X74588690Y61650500D01*
X75064881Y61888595D02*
X74064881Y61888595D01*
X74064881Y61507642D01*
X74112500Y61412404D01*
X74160119Y61364785D01*
X74255357Y61317166D01*
X74398214Y61317166D01*
X74493452Y61364785D01*
X74541071Y61412404D01*
X74588690Y61507642D01*
X74588690Y61888595D01*
X74493452Y60745738D02*
X74445833Y60840976D01*
X74398214Y60888595D01*
X74302976Y60936214D01*
X74255357Y60936214D01*
X74160119Y60888595D01*
X74112500Y60840976D01*
X74064881Y60745738D01*
X74064881Y60555261D01*
X74112500Y60460023D01*
X74160119Y60412404D01*
X74255357Y60364785D01*
X74302976Y60364785D01*
X74398214Y60412404D01*
X74445833Y60460023D01*
X74493452Y60555261D01*
X74493452Y60745738D01*
X74541071Y60840976D01*
X74588690Y60888595D01*
X74683929Y60936214D01*
X74874405Y60936214D01*
X74969643Y60888595D01*
X75017262Y60840976D01*
X75064881Y60745738D01*
X75064881Y60555261D01*
X75017262Y60460023D01*
X74969643Y60412404D01*
X74874405Y60364785D01*
X74683929Y60364785D01*
X74588690Y60412404D01*
X74541071Y60460023D01*
X74493452Y60555261D01*
X68873666Y65333619D02*
X69207000Y65809810D01*
X69445095Y65333619D02*
X69445095Y66333619D01*
X69064142Y66333619D01*
X68968904Y66286000D01*
X68921285Y66238381D01*
X68873666Y66143143D01*
X68873666Y66000286D01*
X68921285Y65905048D01*
X68968904Y65857429D01*
X69064142Y65809810D01*
X69445095Y65809810D01*
X68540333Y66333619D02*
X67873666Y66333619D01*
X68302238Y65333619D01*
X70619881Y61253666D02*
X70143690Y61587000D01*
X70619881Y61825095D02*
X69619881Y61825095D01*
X69619881Y61444142D01*
X69667500Y61348904D01*
X69715119Y61301285D01*
X69810357Y61253666D01*
X69953214Y61253666D01*
X70048452Y61301285D01*
X70096071Y61348904D01*
X70143690Y61444142D01*
X70143690Y61825095D01*
X69619881Y60396523D02*
X69619881Y60587000D01*
X69667500Y60682238D01*
X69715119Y60729857D01*
X69857976Y60825095D01*
X70048452Y60872714D01*
X70429405Y60872714D01*
X70524643Y60825095D01*
X70572262Y60777476D01*
X70619881Y60682238D01*
X70619881Y60491761D01*
X70572262Y60396523D01*
X70524643Y60348904D01*
X70429405Y60301285D01*
X70191310Y60301285D01*
X70096071Y60348904D01*
X70048452Y60396523D01*
X70000833Y60491761D01*
X70000833Y60682238D01*
X70048452Y60777476D01*
X70096071Y60825095D01*
X70191310Y60872714D01*
X67921166Y54983119D02*
X68254500Y55459310D01*
X68492595Y54983119D02*
X68492595Y55983119D01*
X68111642Y55983119D01*
X68016404Y55935500D01*
X67968785Y55887881D01*
X67921166Y55792643D01*
X67921166Y55649786D01*
X67968785Y55554548D01*
X68016404Y55506929D01*
X68111642Y55459310D01*
X68492595Y55459310D01*
X67016404Y55983119D02*
X67492595Y55983119D01*
X67540214Y55506929D01*
X67492595Y55554548D01*
X67397357Y55602167D01*
X67159261Y55602167D01*
X67064023Y55554548D01*
X67016404Y55506929D01*
X66968785Y55411690D01*
X66968785Y55173595D01*
X67016404Y55078357D01*
X67064023Y55030738D01*
X67159261Y54983119D01*
X67397357Y54983119D01*
X67492595Y55030738D01*
X67540214Y55078357D01*
X70683381Y58586666D02*
X70207190Y58920000D01*
X70683381Y59158095D02*
X69683381Y59158095D01*
X69683381Y58777142D01*
X69731000Y58681904D01*
X69778619Y58634285D01*
X69873857Y58586666D01*
X70016714Y58586666D01*
X70111952Y58634285D01*
X70159571Y58681904D01*
X70207190Y58777142D01*
X70207190Y59158095D01*
X70016714Y57729523D02*
X70683381Y57729523D01*
X69635762Y57967619D02*
X70350048Y58205714D01*
X70350048Y57586666D01*
X87955381Y58142166D02*
X87479190Y58475500D01*
X87955381Y58713595D02*
X86955381Y58713595D01*
X86955381Y58332642D01*
X87003000Y58237404D01*
X87050619Y58189785D01*
X87145857Y58142166D01*
X87288714Y58142166D01*
X87383952Y58189785D01*
X87431571Y58237404D01*
X87479190Y58332642D01*
X87479190Y58713595D01*
X86955381Y57808833D02*
X86955381Y57189785D01*
X87336333Y57523119D01*
X87336333Y57380261D01*
X87383952Y57285023D01*
X87431571Y57237404D01*
X87526810Y57189785D01*
X87764905Y57189785D01*
X87860143Y57237404D01*
X87907762Y57285023D01*
X87955381Y57380261D01*
X87955381Y57665976D01*
X87907762Y57761214D01*
X87860143Y57808833D01*
X88145881Y64365166D02*
X87669690Y64698500D01*
X88145881Y64936595D02*
X87145881Y64936595D01*
X87145881Y64555642D01*
X87193500Y64460404D01*
X87241119Y64412785D01*
X87336357Y64365166D01*
X87479214Y64365166D01*
X87574452Y64412785D01*
X87622071Y64460404D01*
X87669690Y64555642D01*
X87669690Y64936595D01*
X87241119Y63984214D02*
X87193500Y63936595D01*
X87145881Y63841357D01*
X87145881Y63603261D01*
X87193500Y63508023D01*
X87241119Y63460404D01*
X87336357Y63412785D01*
X87431595Y63412785D01*
X87574452Y63460404D01*
X88145881Y64031833D01*
X88145881Y63412785D01*
X87955381Y61253666D02*
X87479190Y61587000D01*
X87955381Y61825095D02*
X86955381Y61825095D01*
X86955381Y61444142D01*
X87003000Y61348904D01*
X87050619Y61301285D01*
X87145857Y61253666D01*
X87288714Y61253666D01*
X87383952Y61301285D01*
X87431571Y61348904D01*
X87479190Y61444142D01*
X87479190Y61825095D01*
X87955381Y60301285D02*
X87955381Y60872714D01*
X87955381Y60587000D02*
X86955381Y60587000D01*
X87098238Y60682238D01*
X87193476Y60777476D01*
X87241095Y60872714D01*
X78271619Y74707738D02*
X78224000Y74802976D01*
X78128762Y74898214D01*
X77985905Y75041071D01*
X77938286Y75136310D01*
X77938286Y75231548D01*
X78176381Y75183929D02*
X78128762Y75279167D01*
X78033524Y75374405D01*
X77843048Y75422024D01*
X77509714Y75422024D01*
X77319238Y75374405D01*
X77224000Y75279167D01*
X77176381Y75183929D01*
X77176381Y74993452D01*
X77224000Y74898214D01*
X77319238Y74802976D01*
X77509714Y74755357D01*
X77843048Y74755357D01*
X78033524Y74802976D01*
X78128762Y74898214D01*
X78176381Y74993452D01*
X78176381Y75183929D01*
X77271619Y74374405D02*
X77224000Y74326786D01*
X77176381Y74231548D01*
X77176381Y73993452D01*
X77224000Y73898214D01*
X77271619Y73850595D01*
X77366857Y73802976D01*
X77462095Y73802976D01*
X77604952Y73850595D01*
X78176381Y74422024D01*
X78176381Y73802976D01*
D14*
X83542535Y55296768D02*
X83818307Y55296768D01*
X83873461Y55315152D01*
X83910230Y55351922D01*
X83928615Y55407076D01*
X83928615Y55443846D01*
X83579305Y55131305D02*
X83560920Y55112920D01*
X83542535Y55076151D01*
X83542535Y54984227D01*
X83560920Y54947457D01*
X83579305Y54929073D01*
X83616074Y54910688D01*
X83652844Y54910688D01*
X83707998Y54929073D01*
X83928615Y55149690D01*
X83928615Y54910688D01*
D11*
X75064881Y55395690D02*
X74064881Y55395690D01*
X74969643Y54348071D02*
X75017262Y54395690D01*
X75064881Y54538547D01*
X75064881Y54633785D01*
X75017262Y54776643D01*
X74922024Y54871881D01*
X74826786Y54919500D01*
X74636310Y54967119D01*
X74493452Y54967119D01*
X74302976Y54919500D01*
X74207738Y54871881D01*
X74112500Y54776643D01*
X74064881Y54633785D01*
X74064881Y54538547D01*
X74112500Y54395690D01*
X74160119Y54348071D01*
X75064881Y53395690D02*
X75064881Y53967119D01*
X75064881Y53681405D02*
X74064881Y53681405D01*
X74207738Y53776643D01*
X74302976Y53871881D01*
X74350595Y53967119D01*
X76155476Y79013095D02*
X76155476Y79813095D01*
X75965000Y79813095D01*
X75850714Y79775000D01*
X75774523Y79698810D01*
X75736428Y79622619D01*
X75698333Y79470238D01*
X75698333Y79355952D01*
X75736428Y79203571D01*
X75774523Y79127381D01*
X75850714Y79051190D01*
X75965000Y79013095D01*
X76155476Y79013095D01*
X75431666Y79813095D02*
X74936428Y79813095D01*
X75203095Y79508333D01*
X75088809Y79508333D01*
X75012619Y79470238D01*
X74974523Y79432143D01*
X74936428Y79355952D01*
X74936428Y79165476D01*
X74974523Y79089286D01*
X75012619Y79051190D01*
X75088809Y79013095D01*
X75317381Y79013095D01*
X75393571Y79051190D01*
X75431666Y79089286D01*
X70313476Y75965095D02*
X70313476Y76765095D01*
X70123000Y76765095D01*
X70008714Y76727000D01*
X69932523Y76650810D01*
X69894428Y76574619D01*
X69856333Y76422238D01*
X69856333Y76307952D01*
X69894428Y76155571D01*
X69932523Y76079381D01*
X70008714Y76003190D01*
X70123000Y75965095D01*
X70313476Y75965095D01*
X69551571Y76688905D02*
X69513476Y76727000D01*
X69437285Y76765095D01*
X69246809Y76765095D01*
X69170619Y76727000D01*
X69132523Y76688905D01*
X69094428Y76612714D01*
X69094428Y76536524D01*
X69132523Y76422238D01*
X69589666Y75965095D01*
X69094428Y75965095D01*
X89828666Y49871357D02*
X89876285Y49823738D01*
X90019142Y49776119D01*
X90114380Y49776119D01*
X90257238Y49823738D01*
X90352476Y49918976D01*
X90400095Y50014214D01*
X90447714Y50204690D01*
X90447714Y50347548D01*
X90400095Y50538024D01*
X90352476Y50633262D01*
X90257238Y50728500D01*
X90114380Y50776119D01*
X90019142Y50776119D01*
X89876285Y50728500D01*
X89828666Y50680881D01*
X89257238Y50347548D02*
X89352476Y50395167D01*
X89400095Y50442786D01*
X89447714Y50538024D01*
X89447714Y50585643D01*
X89400095Y50680881D01*
X89352476Y50728500D01*
X89257238Y50776119D01*
X89066761Y50776119D01*
X88971523Y50728500D01*
X88923904Y50680881D01*
X88876285Y50585643D01*
X88876285Y50538024D01*
X88923904Y50442786D01*
X88971523Y50395167D01*
X89066761Y50347548D01*
X89257238Y50347548D01*
X89352476Y50299929D01*
X89400095Y50252310D01*
X89447714Y50157071D01*
X89447714Y49966595D01*
X89400095Y49871357D01*
X89352476Y49823738D01*
X89257238Y49776119D01*
X89066761Y49776119D01*
X88971523Y49823738D01*
X88923904Y49871357D01*
X88876285Y49966595D01*
X88876285Y50157071D01*
X88923904Y50252310D01*
X88971523Y50299929D01*
X89066761Y50347548D01*
X85320166Y70635857D02*
X85367785Y70588238D01*
X85510642Y70540619D01*
X85605880Y70540619D01*
X85748738Y70588238D01*
X85843976Y70683476D01*
X85891595Y70778714D01*
X85939214Y70969190D01*
X85939214Y71112048D01*
X85891595Y71302524D01*
X85843976Y71397762D01*
X85748738Y71493000D01*
X85605880Y71540619D01*
X85510642Y71540619D01*
X85367785Y71493000D01*
X85320166Y71445381D01*
X84463023Y71540619D02*
X84653500Y71540619D01*
X84748738Y71493000D01*
X84796357Y71445381D01*
X84891595Y71302524D01*
X84939214Y71112048D01*
X84939214Y70731095D01*
X84891595Y70635857D01*
X84843976Y70588238D01*
X84748738Y70540619D01*
X84558261Y70540619D01*
X84463023Y70588238D01*
X84415404Y70635857D01*
X84367785Y70731095D01*
X84367785Y70969190D01*
X84415404Y71064429D01*
X84463023Y71112048D01*
X84558261Y71159667D01*
X84748738Y71159667D01*
X84843976Y71112048D01*
X84891595Y71064429D01*
X84939214Y70969190D01*
X67857666Y52601857D02*
X67905285Y52554238D01*
X68048142Y52506619D01*
X68143380Y52506619D01*
X68286238Y52554238D01*
X68381476Y52649476D01*
X68429095Y52744714D01*
X68476714Y52935190D01*
X68476714Y53078048D01*
X68429095Y53268524D01*
X68381476Y53363762D01*
X68286238Y53459000D01*
X68143380Y53506619D01*
X68048142Y53506619D01*
X67905285Y53459000D01*
X67857666Y53411381D01*
X66952904Y53506619D02*
X67429095Y53506619D01*
X67476714Y53030429D01*
X67429095Y53078048D01*
X67333857Y53125667D01*
X67095761Y53125667D01*
X67000523Y53078048D01*
X66952904Y53030429D01*
X66905285Y52935190D01*
X66905285Y52697095D01*
X66952904Y52601857D01*
X67000523Y52554238D01*
X67095761Y52506619D01*
X67333857Y52506619D01*
X67429095Y52554238D01*
X67476714Y52601857D01*
X67857666Y49934857D02*
X67905285Y49887238D01*
X68048142Y49839619D01*
X68143380Y49839619D01*
X68286238Y49887238D01*
X68381476Y49982476D01*
X68429095Y50077714D01*
X68476714Y50268190D01*
X68476714Y50411048D01*
X68429095Y50601524D01*
X68381476Y50696762D01*
X68286238Y50792000D01*
X68143380Y50839619D01*
X68048142Y50839619D01*
X67905285Y50792000D01*
X67857666Y50744381D01*
X67524333Y50839619D02*
X66905285Y50839619D01*
X67238619Y50458667D01*
X67095761Y50458667D01*
X67000523Y50411048D01*
X66952904Y50363429D01*
X66905285Y50268190D01*
X66905285Y50030095D01*
X66952904Y49934857D01*
X67000523Y49887238D01*
X67095761Y49839619D01*
X67381476Y49839619D01*
X67476714Y49887238D01*
X67524333Y49934857D01*
X77319166Y64603357D02*
X77366785Y64555738D01*
X77509642Y64508119D01*
X77604880Y64508119D01*
X77747738Y64555738D01*
X77842976Y64650976D01*
X77890595Y64746214D01*
X77938214Y64936690D01*
X77938214Y65079548D01*
X77890595Y65270024D01*
X77842976Y65365262D01*
X77747738Y65460500D01*
X77604880Y65508119D01*
X77509642Y65508119D01*
X77366785Y65460500D01*
X77319166Y65412881D01*
X76938214Y65412881D02*
X76890595Y65460500D01*
X76795357Y65508119D01*
X76557261Y65508119D01*
X76462023Y65460500D01*
X76414404Y65412881D01*
X76366785Y65317643D01*
X76366785Y65222405D01*
X76414404Y65079548D01*
X76985833Y64508119D01*
X76366785Y64508119D01*
X81383166Y64603357D02*
X81430785Y64555738D01*
X81573642Y64508119D01*
X81668880Y64508119D01*
X81811738Y64555738D01*
X81906976Y64650976D01*
X81954595Y64746214D01*
X82002214Y64936690D01*
X82002214Y65079548D01*
X81954595Y65270024D01*
X81906976Y65365262D01*
X81811738Y65460500D01*
X81668880Y65508119D01*
X81573642Y65508119D01*
X81430785Y65460500D01*
X81383166Y65412881D01*
X80430785Y64508119D02*
X81002214Y64508119D01*
X80716500Y64508119D02*
X80716500Y65508119D01*
X80811738Y65365262D01*
X80906976Y65270024D01*
X81002214Y65222405D01*
X52649357Y1643119D02*
X52982691Y2119310D01*
X53220786Y1643119D02*
X53220786Y2643119D01*
X52839833Y2643119D01*
X52744595Y2595500D01*
X52696976Y2547881D01*
X52649357Y2452643D01*
X52649357Y2309786D01*
X52696976Y2214548D01*
X52744595Y2166929D01*
X52839833Y2119310D01*
X53220786Y2119310D01*
X51696976Y1643119D02*
X52268405Y1643119D01*
X51982691Y1643119D02*
X51982691Y2643119D01*
X52077929Y2500262D01*
X52173167Y2405024D01*
X52268405Y2357405D01*
X50839833Y2643119D02*
X51030310Y2643119D01*
X51125548Y2595500D01*
X51173167Y2547881D01*
X51268405Y2405024D01*
X51316024Y2214548D01*
X51316024Y1833595D01*
X51268405Y1738357D01*
X51220786Y1690738D01*
X51125548Y1643119D01*
X50935071Y1643119D01*
X50839833Y1690738D01*
X50792214Y1738357D01*
X50744595Y1833595D01*
X50744595Y2071690D01*
X50792214Y2166929D01*
X50839833Y2214548D01*
X50935071Y2262167D01*
X51125548Y2262167D01*
X51220786Y2214548D01*
X51268405Y2166929D01*
X51316024Y2071690D01*
X53919357Y31107119D02*
X54252691Y31583310D01*
X54490786Y31107119D02*
X54490786Y32107119D01*
X54109833Y32107119D01*
X54014595Y32059500D01*
X53966976Y32011881D01*
X53919357Y31916643D01*
X53919357Y31773786D01*
X53966976Y31678548D01*
X54014595Y31630929D01*
X54109833Y31583310D01*
X54490786Y31583310D01*
X52966976Y31107119D02*
X53538405Y31107119D01*
X53252691Y31107119D02*
X53252691Y32107119D01*
X53347929Y31964262D01*
X53443167Y31869024D01*
X53538405Y31821405D01*
X52109833Y31773786D02*
X52109833Y31107119D01*
X52347929Y32154738D02*
X52586024Y31440452D01*
X51966976Y31440452D01*
X46426357Y1770119D02*
X46759691Y2246310D01*
X46997786Y1770119D02*
X46997786Y2770119D01*
X46616833Y2770119D01*
X46521595Y2722500D01*
X46473976Y2674881D01*
X46426357Y2579643D01*
X46426357Y2436786D01*
X46473976Y2341548D01*
X46521595Y2293929D01*
X46616833Y2246310D01*
X46997786Y2246310D01*
X45473976Y1770119D02*
X46045405Y1770119D01*
X45759691Y1770119D02*
X45759691Y2770119D01*
X45854929Y2627262D01*
X45950167Y2532024D01*
X46045405Y2484405D01*
X45140643Y2770119D02*
X44521595Y2770119D01*
X44854929Y2389167D01*
X44712071Y2389167D01*
X44616833Y2341548D01*
X44569214Y2293929D01*
X44521595Y2198690D01*
X44521595Y1960595D01*
X44569214Y1865357D01*
X44616833Y1817738D01*
X44712071Y1770119D01*
X44997786Y1770119D01*
X45093024Y1817738D01*
X45140643Y1865357D01*
X37599857Y25963619D02*
X37933191Y26439810D01*
X38171286Y25963619D02*
X38171286Y26963619D01*
X37790333Y26963619D01*
X37695095Y26916000D01*
X37647476Y26868381D01*
X37599857Y26773143D01*
X37599857Y26630286D01*
X37647476Y26535048D01*
X37695095Y26487429D01*
X37790333Y26439810D01*
X38171286Y26439810D01*
X36647476Y25963619D02*
X37218905Y25963619D01*
X36933191Y25963619D02*
X36933191Y26963619D01*
X37028429Y26820762D01*
X37123667Y26725524D01*
X37218905Y26677905D01*
X35695095Y25963619D02*
X36266524Y25963619D01*
X35980810Y25963619D02*
X35980810Y26963619D01*
X36076048Y26820762D01*
X36171286Y26725524D01*
X36266524Y26677905D01*
X44140357Y25709619D02*
X44473691Y26185810D01*
X44711786Y25709619D02*
X44711786Y26709619D01*
X44330833Y26709619D01*
X44235595Y26662000D01*
X44187976Y26614381D01*
X44140357Y26519143D01*
X44140357Y26376286D01*
X44187976Y26281048D01*
X44235595Y26233429D01*
X44330833Y26185810D01*
X44711786Y26185810D01*
X43187976Y25709619D02*
X43759405Y25709619D01*
X43473691Y25709619D02*
X43473691Y26709619D01*
X43568929Y26566762D01*
X43664167Y26471524D01*
X43759405Y26423905D01*
X42568929Y26709619D02*
X42473690Y26709619D01*
X42378452Y26662000D01*
X42330833Y26614381D01*
X42283214Y26519143D01*
X42235595Y26328667D01*
X42235595Y26090571D01*
X42283214Y25900095D01*
X42330833Y25804857D01*
X42378452Y25757238D01*
X42473690Y25709619D01*
X42568929Y25709619D01*
X42664167Y25757238D01*
X42711786Y25804857D01*
X42759405Y25900095D01*
X42807024Y26090571D01*
X42807024Y26328667D01*
X42759405Y26519143D01*
X42711786Y26614381D01*
X42664167Y26662000D01*
X42568929Y26709619D01*
X43568881Y14009666D02*
X43092690Y14343000D01*
X43568881Y14581095D02*
X42568881Y14581095D01*
X42568881Y14200142D01*
X42616500Y14104904D01*
X42664119Y14057285D01*
X42759357Y14009666D01*
X42902214Y14009666D01*
X42997452Y14057285D01*
X43045071Y14104904D01*
X43092690Y14200142D01*
X43092690Y14581095D01*
X43568881Y13533476D02*
X43568881Y13343000D01*
X43521262Y13247761D01*
X43473643Y13200142D01*
X43330786Y13104904D01*
X43140310Y13057285D01*
X42759357Y13057285D01*
X42664119Y13104904D01*
X42616500Y13152523D01*
X42568881Y13247761D01*
X42568881Y13438238D01*
X42616500Y13533476D01*
X42664119Y13581095D01*
X42759357Y13628714D01*
X42997452Y13628714D01*
X43092690Y13581095D01*
X43140310Y13533476D01*
X43187929Y13438238D01*
X43187929Y13247761D01*
X43140310Y13152523D01*
X43092690Y13104904D01*
X42997452Y13057285D01*
X43568881Y16613166D02*
X43092690Y16946500D01*
X43568881Y17184595D02*
X42568881Y17184595D01*
X42568881Y16803642D01*
X42616500Y16708404D01*
X42664119Y16660785D01*
X42759357Y16613166D01*
X42902214Y16613166D01*
X42997452Y16660785D01*
X43045071Y16708404D01*
X43092690Y16803642D01*
X43092690Y17184595D01*
X42997452Y16041738D02*
X42949833Y16136976D01*
X42902214Y16184595D01*
X42806976Y16232214D01*
X42759357Y16232214D01*
X42664119Y16184595D01*
X42616500Y16136976D01*
X42568881Y16041738D01*
X42568881Y15851261D01*
X42616500Y15756023D01*
X42664119Y15708404D01*
X42759357Y15660785D01*
X42806976Y15660785D01*
X42902214Y15708404D01*
X42949833Y15756023D01*
X42997452Y15851261D01*
X42997452Y16041738D01*
X43045071Y16136976D01*
X43092690Y16184595D01*
X43187929Y16232214D01*
X43378405Y16232214D01*
X43473643Y16184595D01*
X43521262Y16136976D01*
X43568881Y16041738D01*
X43568881Y15851261D01*
X43521262Y15756023D01*
X43473643Y15708404D01*
X43378405Y15660785D01*
X43187929Y15660785D01*
X43092690Y15708404D01*
X43045071Y15756023D01*
X42997452Y15851261D01*
X37377666Y20629619D02*
X37711000Y21105810D01*
X37949095Y20629619D02*
X37949095Y21629619D01*
X37568142Y21629619D01*
X37472904Y21582000D01*
X37425285Y21534381D01*
X37377666Y21439143D01*
X37377666Y21296286D01*
X37425285Y21201048D01*
X37472904Y21153429D01*
X37568142Y21105810D01*
X37949095Y21105810D01*
X37044333Y21629619D02*
X36377666Y21629619D01*
X36806238Y20629619D01*
X39123881Y16549666D02*
X38647690Y16883000D01*
X39123881Y17121095D02*
X38123881Y17121095D01*
X38123881Y16740142D01*
X38171500Y16644904D01*
X38219119Y16597285D01*
X38314357Y16549666D01*
X38457214Y16549666D01*
X38552452Y16597285D01*
X38600071Y16644904D01*
X38647690Y16740142D01*
X38647690Y17121095D01*
X38123881Y15692523D02*
X38123881Y15883000D01*
X38171500Y15978238D01*
X38219119Y16025857D01*
X38361976Y16121095D01*
X38552452Y16168714D01*
X38933405Y16168714D01*
X39028643Y16121095D01*
X39076262Y16073476D01*
X39123881Y15978238D01*
X39123881Y15787761D01*
X39076262Y15692523D01*
X39028643Y15644904D01*
X38933405Y15597285D01*
X38695310Y15597285D01*
X38600071Y15644904D01*
X38552452Y15692523D01*
X38504833Y15787761D01*
X38504833Y15978238D01*
X38552452Y16073476D01*
X38600071Y16121095D01*
X38695310Y16168714D01*
X36425166Y10279119D02*
X36758500Y10755310D01*
X36996595Y10279119D02*
X36996595Y11279119D01*
X36615642Y11279119D01*
X36520404Y11231500D01*
X36472785Y11183881D01*
X36425166Y11088643D01*
X36425166Y10945786D01*
X36472785Y10850548D01*
X36520404Y10802929D01*
X36615642Y10755310D01*
X36996595Y10755310D01*
X35520404Y11279119D02*
X35996595Y11279119D01*
X36044214Y10802929D01*
X35996595Y10850548D01*
X35901357Y10898167D01*
X35663261Y10898167D01*
X35568023Y10850548D01*
X35520404Y10802929D01*
X35472785Y10707690D01*
X35472785Y10469595D01*
X35520404Y10374357D01*
X35568023Y10326738D01*
X35663261Y10279119D01*
X35901357Y10279119D01*
X35996595Y10326738D01*
X36044214Y10374357D01*
X39187381Y13882666D02*
X38711190Y14216000D01*
X39187381Y14454095D02*
X38187381Y14454095D01*
X38187381Y14073142D01*
X38235000Y13977904D01*
X38282619Y13930285D01*
X38377857Y13882666D01*
X38520714Y13882666D01*
X38615952Y13930285D01*
X38663571Y13977904D01*
X38711190Y14073142D01*
X38711190Y14454095D01*
X38520714Y13025523D02*
X39187381Y13025523D01*
X38139762Y13263619D02*
X38854048Y13501714D01*
X38854048Y12882666D01*
X56459381Y13438166D02*
X55983190Y13771500D01*
X56459381Y14009595D02*
X55459381Y14009595D01*
X55459381Y13628642D01*
X55507000Y13533404D01*
X55554619Y13485785D01*
X55649857Y13438166D01*
X55792714Y13438166D01*
X55887952Y13485785D01*
X55935571Y13533404D01*
X55983190Y13628642D01*
X55983190Y14009595D01*
X55459381Y13104833D02*
X55459381Y12485785D01*
X55840333Y12819119D01*
X55840333Y12676261D01*
X55887952Y12581023D01*
X55935571Y12533404D01*
X56030810Y12485785D01*
X56268905Y12485785D01*
X56364143Y12533404D01*
X56411762Y12581023D01*
X56459381Y12676261D01*
X56459381Y12961976D01*
X56411762Y13057214D01*
X56364143Y13104833D01*
X56649881Y19661166D02*
X56173690Y19994500D01*
X56649881Y20232595D02*
X55649881Y20232595D01*
X55649881Y19851642D01*
X55697500Y19756404D01*
X55745119Y19708785D01*
X55840357Y19661166D01*
X55983214Y19661166D01*
X56078452Y19708785D01*
X56126071Y19756404D01*
X56173690Y19851642D01*
X56173690Y20232595D01*
X55745119Y19280214D02*
X55697500Y19232595D01*
X55649881Y19137357D01*
X55649881Y18899261D01*
X55697500Y18804023D01*
X55745119Y18756404D01*
X55840357Y18708785D01*
X55935595Y18708785D01*
X56078452Y18756404D01*
X56649881Y19327833D01*
X56649881Y18708785D01*
X56459381Y16549666D02*
X55983190Y16883000D01*
X56459381Y17121095D02*
X55459381Y17121095D01*
X55459381Y16740142D01*
X55507000Y16644904D01*
X55554619Y16597285D01*
X55649857Y16549666D01*
X55792714Y16549666D01*
X55887952Y16597285D01*
X55935571Y16644904D01*
X55983190Y16740142D01*
X55983190Y17121095D01*
X56459381Y15597285D02*
X56459381Y16168714D01*
X56459381Y15883000D02*
X55459381Y15883000D01*
X55602238Y15978238D01*
X55697476Y16073476D01*
X55745095Y16168714D01*
X46775619Y30003738D02*
X46728000Y30098976D01*
X46632762Y30194214D01*
X46489905Y30337071D01*
X46442286Y30432310D01*
X46442286Y30527548D01*
X46680381Y30479929D02*
X46632762Y30575167D01*
X46537524Y30670405D01*
X46347048Y30718024D01*
X46013714Y30718024D01*
X45823238Y30670405D01*
X45728000Y30575167D01*
X45680381Y30479929D01*
X45680381Y30289452D01*
X45728000Y30194214D01*
X45823238Y30098976D01*
X46013714Y30051357D01*
X46347048Y30051357D01*
X46537524Y30098976D01*
X46632762Y30194214D01*
X46680381Y30289452D01*
X46680381Y30479929D01*
X45775619Y29670405D02*
X45728000Y29622786D01*
X45680381Y29527548D01*
X45680381Y29289452D01*
X45728000Y29194214D01*
X45775619Y29146595D01*
X45870857Y29098976D01*
X45966095Y29098976D01*
X46108952Y29146595D01*
X46680381Y29718024D01*
X46680381Y29098976D01*
D14*
X52046535Y10592768D02*
X52322307Y10592768D01*
X52377461Y10611152D01*
X52414230Y10647922D01*
X52432615Y10703076D01*
X52432615Y10739846D01*
X52083305Y10427305D02*
X52064920Y10408920D01*
X52046535Y10372151D01*
X52046535Y10280227D01*
X52064920Y10243457D01*
X52083305Y10225073D01*
X52120074Y10206688D01*
X52156844Y10206688D01*
X52211998Y10225073D01*
X52432615Y10445690D01*
X52432615Y10206688D01*
D11*
X43568881Y10691690D02*
X42568881Y10691690D01*
X43473643Y9644071D02*
X43521262Y9691690D01*
X43568881Y9834547D01*
X43568881Y9929785D01*
X43521262Y10072643D01*
X43426024Y10167881D01*
X43330786Y10215500D01*
X43140310Y10263119D01*
X42997452Y10263119D01*
X42806976Y10215500D01*
X42711738Y10167881D01*
X42616500Y10072643D01*
X42568881Y9929785D01*
X42568881Y9834547D01*
X42616500Y9691690D01*
X42664119Y9644071D01*
X43568881Y8691690D02*
X43568881Y9263119D01*
X43568881Y8977405D02*
X42568881Y8977405D01*
X42711738Y9072643D01*
X42806976Y9167881D01*
X42854595Y9263119D01*
X44659476Y34309095D02*
X44659476Y35109095D01*
X44469000Y35109095D01*
X44354714Y35071000D01*
X44278523Y34994810D01*
X44240428Y34918619D01*
X44202333Y34766238D01*
X44202333Y34651952D01*
X44240428Y34499571D01*
X44278523Y34423381D01*
X44354714Y34347190D01*
X44469000Y34309095D01*
X44659476Y34309095D01*
X43935666Y35109095D02*
X43440428Y35109095D01*
X43707095Y34804333D01*
X43592809Y34804333D01*
X43516619Y34766238D01*
X43478523Y34728143D01*
X43440428Y34651952D01*
X43440428Y34461476D01*
X43478523Y34385286D01*
X43516619Y34347190D01*
X43592809Y34309095D01*
X43821381Y34309095D01*
X43897571Y34347190D01*
X43935666Y34385286D01*
X38817476Y31261095D02*
X38817476Y32061095D01*
X38627000Y32061095D01*
X38512714Y32023000D01*
X38436523Y31946810D01*
X38398428Y31870619D01*
X38360333Y31718238D01*
X38360333Y31603952D01*
X38398428Y31451571D01*
X38436523Y31375381D01*
X38512714Y31299190D01*
X38627000Y31261095D01*
X38817476Y31261095D01*
X38055571Y31984905D02*
X38017476Y32023000D01*
X37941285Y32061095D01*
X37750809Y32061095D01*
X37674619Y32023000D01*
X37636523Y31984905D01*
X37598428Y31908714D01*
X37598428Y31832524D01*
X37636523Y31718238D01*
X38093666Y31261095D01*
X37598428Y31261095D01*
X58332666Y5167357D02*
X58380285Y5119738D01*
X58523142Y5072119D01*
X58618380Y5072119D01*
X58761238Y5119738D01*
X58856476Y5214976D01*
X58904095Y5310214D01*
X58951714Y5500690D01*
X58951714Y5643548D01*
X58904095Y5834024D01*
X58856476Y5929262D01*
X58761238Y6024500D01*
X58618380Y6072119D01*
X58523142Y6072119D01*
X58380285Y6024500D01*
X58332666Y5976881D01*
X57761238Y5643548D02*
X57856476Y5691167D01*
X57904095Y5738786D01*
X57951714Y5834024D01*
X57951714Y5881643D01*
X57904095Y5976881D01*
X57856476Y6024500D01*
X57761238Y6072119D01*
X57570761Y6072119D01*
X57475523Y6024500D01*
X57427904Y5976881D01*
X57380285Y5881643D01*
X57380285Y5834024D01*
X57427904Y5738786D01*
X57475523Y5691167D01*
X57570761Y5643548D01*
X57761238Y5643548D01*
X57856476Y5595929D01*
X57904095Y5548310D01*
X57951714Y5453071D01*
X57951714Y5262595D01*
X57904095Y5167357D01*
X57856476Y5119738D01*
X57761238Y5072119D01*
X57570761Y5072119D01*
X57475523Y5119738D01*
X57427904Y5167357D01*
X57380285Y5262595D01*
X57380285Y5453071D01*
X57427904Y5548310D01*
X57475523Y5595929D01*
X57570761Y5643548D01*
X53824166Y25931857D02*
X53871785Y25884238D01*
X54014642Y25836619D01*
X54109880Y25836619D01*
X54252738Y25884238D01*
X54347976Y25979476D01*
X54395595Y26074714D01*
X54443214Y26265190D01*
X54443214Y26408048D01*
X54395595Y26598524D01*
X54347976Y26693762D01*
X54252738Y26789000D01*
X54109880Y26836619D01*
X54014642Y26836619D01*
X53871785Y26789000D01*
X53824166Y26741381D01*
X52967023Y26836619D02*
X53157500Y26836619D01*
X53252738Y26789000D01*
X53300357Y26741381D01*
X53395595Y26598524D01*
X53443214Y26408048D01*
X53443214Y26027095D01*
X53395595Y25931857D01*
X53347976Y25884238D01*
X53252738Y25836619D01*
X53062261Y25836619D01*
X52967023Y25884238D01*
X52919404Y25931857D01*
X52871785Y26027095D01*
X52871785Y26265190D01*
X52919404Y26360429D01*
X52967023Y26408048D01*
X53062261Y26455667D01*
X53252738Y26455667D01*
X53347976Y26408048D01*
X53395595Y26360429D01*
X53443214Y26265190D01*
X36361666Y7897857D02*
X36409285Y7850238D01*
X36552142Y7802619D01*
X36647380Y7802619D01*
X36790238Y7850238D01*
X36885476Y7945476D01*
X36933095Y8040714D01*
X36980714Y8231190D01*
X36980714Y8374048D01*
X36933095Y8564524D01*
X36885476Y8659762D01*
X36790238Y8755000D01*
X36647380Y8802619D01*
X36552142Y8802619D01*
X36409285Y8755000D01*
X36361666Y8707381D01*
X35456904Y8802619D02*
X35933095Y8802619D01*
X35980714Y8326429D01*
X35933095Y8374048D01*
X35837857Y8421667D01*
X35599761Y8421667D01*
X35504523Y8374048D01*
X35456904Y8326429D01*
X35409285Y8231190D01*
X35409285Y7993095D01*
X35456904Y7897857D01*
X35504523Y7850238D01*
X35599761Y7802619D01*
X35837857Y7802619D01*
X35933095Y7850238D01*
X35980714Y7897857D01*
X36361666Y5230857D02*
X36409285Y5183238D01*
X36552142Y5135619D01*
X36647380Y5135619D01*
X36790238Y5183238D01*
X36885476Y5278476D01*
X36933095Y5373714D01*
X36980714Y5564190D01*
X36980714Y5707048D01*
X36933095Y5897524D01*
X36885476Y5992762D01*
X36790238Y6088000D01*
X36647380Y6135619D01*
X36552142Y6135619D01*
X36409285Y6088000D01*
X36361666Y6040381D01*
X36028333Y6135619D02*
X35409285Y6135619D01*
X35742619Y5754667D01*
X35599761Y5754667D01*
X35504523Y5707048D01*
X35456904Y5659429D01*
X35409285Y5564190D01*
X35409285Y5326095D01*
X35456904Y5230857D01*
X35504523Y5183238D01*
X35599761Y5135619D01*
X35885476Y5135619D01*
X35980714Y5183238D01*
X36028333Y5230857D01*
X45823166Y19899357D02*
X45870785Y19851738D01*
X46013642Y19804119D01*
X46108880Y19804119D01*
X46251738Y19851738D01*
X46346976Y19946976D01*
X46394595Y20042214D01*
X46442214Y20232690D01*
X46442214Y20375548D01*
X46394595Y20566024D01*
X46346976Y20661262D01*
X46251738Y20756500D01*
X46108880Y20804119D01*
X46013642Y20804119D01*
X45870785Y20756500D01*
X45823166Y20708881D01*
X45442214Y20708881D02*
X45394595Y20756500D01*
X45299357Y20804119D01*
X45061261Y20804119D01*
X44966023Y20756500D01*
X44918404Y20708881D01*
X44870785Y20613643D01*
X44870785Y20518405D01*
X44918404Y20375548D01*
X45489833Y19804119D01*
X44870785Y19804119D01*
X49887166Y19899357D02*
X49934785Y19851738D01*
X50077642Y19804119D01*
X50172880Y19804119D01*
X50315738Y19851738D01*
X50410976Y19946976D01*
X50458595Y20042214D01*
X50506214Y20232690D01*
X50506214Y20375548D01*
X50458595Y20566024D01*
X50410976Y20661262D01*
X50315738Y20756500D01*
X50172880Y20804119D01*
X50077642Y20804119D01*
X49934785Y20756500D01*
X49887166Y20708881D01*
X48934785Y19804119D02*
X49506214Y19804119D01*
X49220500Y19804119D02*
X49220500Y20804119D01*
X49315738Y20661262D01*
X49410976Y20566024D01*
X49506214Y20518405D01*
X52649357Y46347119D02*
X52982691Y46823310D01*
X53220786Y46347119D02*
X53220786Y47347119D01*
X52839833Y47347119D01*
X52744595Y47299500D01*
X52696976Y47251881D01*
X52649357Y47156643D01*
X52649357Y47013786D01*
X52696976Y46918548D01*
X52744595Y46870929D01*
X52839833Y46823310D01*
X53220786Y46823310D01*
X51696976Y46347119D02*
X52268405Y46347119D01*
X51982691Y46347119D02*
X51982691Y47347119D01*
X52077929Y47204262D01*
X52173167Y47109024D01*
X52268405Y47061405D01*
X50839833Y47347119D02*
X51030310Y47347119D01*
X51125548Y47299500D01*
X51173167Y47251881D01*
X51268405Y47109024D01*
X51316024Y46918548D01*
X51316024Y46537595D01*
X51268405Y46442357D01*
X51220786Y46394738D01*
X51125548Y46347119D01*
X50935071Y46347119D01*
X50839833Y46394738D01*
X50792214Y46442357D01*
X50744595Y46537595D01*
X50744595Y46775690D01*
X50792214Y46870929D01*
X50839833Y46918548D01*
X50935071Y46966167D01*
X51125548Y46966167D01*
X51220786Y46918548D01*
X51268405Y46870929D01*
X51316024Y46775690D01*
X53919357Y75811119D02*
X54252691Y76287310D01*
X54490786Y75811119D02*
X54490786Y76811119D01*
X54109833Y76811119D01*
X54014595Y76763500D01*
X53966976Y76715881D01*
X53919357Y76620643D01*
X53919357Y76477786D01*
X53966976Y76382548D01*
X54014595Y76334929D01*
X54109833Y76287310D01*
X54490786Y76287310D01*
X52966976Y75811119D02*
X53538405Y75811119D01*
X53252691Y75811119D02*
X53252691Y76811119D01*
X53347929Y76668262D01*
X53443167Y76573024D01*
X53538405Y76525405D01*
X52109833Y76477786D02*
X52109833Y75811119D01*
X52347929Y76858738D02*
X52586024Y76144452D01*
X51966976Y76144452D01*
X46426357Y46474119D02*
X46759691Y46950310D01*
X46997786Y46474119D02*
X46997786Y47474119D01*
X46616833Y47474119D01*
X46521595Y47426500D01*
X46473976Y47378881D01*
X46426357Y47283643D01*
X46426357Y47140786D01*
X46473976Y47045548D01*
X46521595Y46997929D01*
X46616833Y46950310D01*
X46997786Y46950310D01*
X45473976Y46474119D02*
X46045405Y46474119D01*
X45759691Y46474119D02*
X45759691Y47474119D01*
X45854929Y47331262D01*
X45950167Y47236024D01*
X46045405Y47188405D01*
X45140643Y47474119D02*
X44521595Y47474119D01*
X44854929Y47093167D01*
X44712071Y47093167D01*
X44616833Y47045548D01*
X44569214Y46997929D01*
X44521595Y46902690D01*
X44521595Y46664595D01*
X44569214Y46569357D01*
X44616833Y46521738D01*
X44712071Y46474119D01*
X44997786Y46474119D01*
X45093024Y46521738D01*
X45140643Y46569357D01*
X37599857Y70667619D02*
X37933191Y71143810D01*
X38171286Y70667619D02*
X38171286Y71667619D01*
X37790333Y71667619D01*
X37695095Y71620000D01*
X37647476Y71572381D01*
X37599857Y71477143D01*
X37599857Y71334286D01*
X37647476Y71239048D01*
X37695095Y71191429D01*
X37790333Y71143810D01*
X38171286Y71143810D01*
X36647476Y70667619D02*
X37218905Y70667619D01*
X36933191Y70667619D02*
X36933191Y71667619D01*
X37028429Y71524762D01*
X37123667Y71429524D01*
X37218905Y71381905D01*
X35695095Y70667619D02*
X36266524Y70667619D01*
X35980810Y70667619D02*
X35980810Y71667619D01*
X36076048Y71524762D01*
X36171286Y71429524D01*
X36266524Y71381905D01*
X44140357Y70413619D02*
X44473691Y70889810D01*
X44711786Y70413619D02*
X44711786Y71413619D01*
X44330833Y71413619D01*
X44235595Y71366000D01*
X44187976Y71318381D01*
X44140357Y71223143D01*
X44140357Y71080286D01*
X44187976Y70985048D01*
X44235595Y70937429D01*
X44330833Y70889810D01*
X44711786Y70889810D01*
X43187976Y70413619D02*
X43759405Y70413619D01*
X43473691Y70413619D02*
X43473691Y71413619D01*
X43568929Y71270762D01*
X43664167Y71175524D01*
X43759405Y71127905D01*
X42568929Y71413619D02*
X42473690Y71413619D01*
X42378452Y71366000D01*
X42330833Y71318381D01*
X42283214Y71223143D01*
X42235595Y71032667D01*
X42235595Y70794571D01*
X42283214Y70604095D01*
X42330833Y70508857D01*
X42378452Y70461238D01*
X42473690Y70413619D01*
X42568929Y70413619D01*
X42664167Y70461238D01*
X42711786Y70508857D01*
X42759405Y70604095D01*
X42807024Y70794571D01*
X42807024Y71032667D01*
X42759405Y71223143D01*
X42711786Y71318381D01*
X42664167Y71366000D01*
X42568929Y71413619D01*
X43568881Y58713666D02*
X43092690Y59047000D01*
X43568881Y59285095D02*
X42568881Y59285095D01*
X42568881Y58904142D01*
X42616500Y58808904D01*
X42664119Y58761285D01*
X42759357Y58713666D01*
X42902214Y58713666D01*
X42997452Y58761285D01*
X43045071Y58808904D01*
X43092690Y58904142D01*
X43092690Y59285095D01*
X43568881Y58237476D02*
X43568881Y58047000D01*
X43521262Y57951761D01*
X43473643Y57904142D01*
X43330786Y57808904D01*
X43140310Y57761285D01*
X42759357Y57761285D01*
X42664119Y57808904D01*
X42616500Y57856523D01*
X42568881Y57951761D01*
X42568881Y58142238D01*
X42616500Y58237476D01*
X42664119Y58285095D01*
X42759357Y58332714D01*
X42997452Y58332714D01*
X43092690Y58285095D01*
X43140310Y58237476D01*
X43187929Y58142238D01*
X43187929Y57951761D01*
X43140310Y57856523D01*
X43092690Y57808904D01*
X42997452Y57761285D01*
X43568881Y61317166D02*
X43092690Y61650500D01*
X43568881Y61888595D02*
X42568881Y61888595D01*
X42568881Y61507642D01*
X42616500Y61412404D01*
X42664119Y61364785D01*
X42759357Y61317166D01*
X42902214Y61317166D01*
X42997452Y61364785D01*
X43045071Y61412404D01*
X43092690Y61507642D01*
X43092690Y61888595D01*
X42997452Y60745738D02*
X42949833Y60840976D01*
X42902214Y60888595D01*
X42806976Y60936214D01*
X42759357Y60936214D01*
X42664119Y60888595D01*
X42616500Y60840976D01*
X42568881Y60745738D01*
X42568881Y60555261D01*
X42616500Y60460023D01*
X42664119Y60412404D01*
X42759357Y60364785D01*
X42806976Y60364785D01*
X42902214Y60412404D01*
X42949833Y60460023D01*
X42997452Y60555261D01*
X42997452Y60745738D01*
X43045071Y60840976D01*
X43092690Y60888595D01*
X43187929Y60936214D01*
X43378405Y60936214D01*
X43473643Y60888595D01*
X43521262Y60840976D01*
X43568881Y60745738D01*
X43568881Y60555261D01*
X43521262Y60460023D01*
X43473643Y60412404D01*
X43378405Y60364785D01*
X43187929Y60364785D01*
X43092690Y60412404D01*
X43045071Y60460023D01*
X42997452Y60555261D01*
X37377666Y65333619D02*
X37711000Y65809810D01*
X37949095Y65333619D02*
X37949095Y66333619D01*
X37568142Y66333619D01*
X37472904Y66286000D01*
X37425285Y66238381D01*
X37377666Y66143143D01*
X37377666Y66000286D01*
X37425285Y65905048D01*
X37472904Y65857429D01*
X37568142Y65809810D01*
X37949095Y65809810D01*
X37044333Y66333619D02*
X36377666Y66333619D01*
X36806238Y65333619D01*
X39123881Y61253666D02*
X38647690Y61587000D01*
X39123881Y61825095D02*
X38123881Y61825095D01*
X38123881Y61444142D01*
X38171500Y61348904D01*
X38219119Y61301285D01*
X38314357Y61253666D01*
X38457214Y61253666D01*
X38552452Y61301285D01*
X38600071Y61348904D01*
X38647690Y61444142D01*
X38647690Y61825095D01*
X38123881Y60396523D02*
X38123881Y60587000D01*
X38171500Y60682238D01*
X38219119Y60729857D01*
X38361976Y60825095D01*
X38552452Y60872714D01*
X38933405Y60872714D01*
X39028643Y60825095D01*
X39076262Y60777476D01*
X39123881Y60682238D01*
X39123881Y60491761D01*
X39076262Y60396523D01*
X39028643Y60348904D01*
X38933405Y60301285D01*
X38695310Y60301285D01*
X38600071Y60348904D01*
X38552452Y60396523D01*
X38504833Y60491761D01*
X38504833Y60682238D01*
X38552452Y60777476D01*
X38600071Y60825095D01*
X38695310Y60872714D01*
X36425166Y54983119D02*
X36758500Y55459310D01*
X36996595Y54983119D02*
X36996595Y55983119D01*
X36615642Y55983119D01*
X36520404Y55935500D01*
X36472785Y55887881D01*
X36425166Y55792643D01*
X36425166Y55649786D01*
X36472785Y55554548D01*
X36520404Y55506929D01*
X36615642Y55459310D01*
X36996595Y55459310D01*
X35520404Y55983119D02*
X35996595Y55983119D01*
X36044214Y55506929D01*
X35996595Y55554548D01*
X35901357Y55602167D01*
X35663261Y55602167D01*
X35568023Y55554548D01*
X35520404Y55506929D01*
X35472785Y55411690D01*
X35472785Y55173595D01*
X35520404Y55078357D01*
X35568023Y55030738D01*
X35663261Y54983119D01*
X35901357Y54983119D01*
X35996595Y55030738D01*
X36044214Y55078357D01*
X39187381Y58586666D02*
X38711190Y58920000D01*
X39187381Y59158095D02*
X38187381Y59158095D01*
X38187381Y58777142D01*
X38235000Y58681904D01*
X38282619Y58634285D01*
X38377857Y58586666D01*
X38520714Y58586666D01*
X38615952Y58634285D01*
X38663571Y58681904D01*
X38711190Y58777142D01*
X38711190Y59158095D01*
X38520714Y57729523D02*
X39187381Y57729523D01*
X38139762Y57967619D02*
X38854048Y58205714D01*
X38854048Y57586666D01*
X56459381Y58142166D02*
X55983190Y58475500D01*
X56459381Y58713595D02*
X55459381Y58713595D01*
X55459381Y58332642D01*
X55507000Y58237404D01*
X55554619Y58189785D01*
X55649857Y58142166D01*
X55792714Y58142166D01*
X55887952Y58189785D01*
X55935571Y58237404D01*
X55983190Y58332642D01*
X55983190Y58713595D01*
X55459381Y57808833D02*
X55459381Y57189785D01*
X55840333Y57523119D01*
X55840333Y57380261D01*
X55887952Y57285023D01*
X55935571Y57237404D01*
X56030810Y57189785D01*
X56268905Y57189785D01*
X56364143Y57237404D01*
X56411762Y57285023D01*
X56459381Y57380261D01*
X56459381Y57665976D01*
X56411762Y57761214D01*
X56364143Y57808833D01*
X56649881Y64365166D02*
X56173690Y64698500D01*
X56649881Y64936595D02*
X55649881Y64936595D01*
X55649881Y64555642D01*
X55697500Y64460404D01*
X55745119Y64412785D01*
X55840357Y64365166D01*
X55983214Y64365166D01*
X56078452Y64412785D01*
X56126071Y64460404D01*
X56173690Y64555642D01*
X56173690Y64936595D01*
X55745119Y63984214D02*
X55697500Y63936595D01*
X55649881Y63841357D01*
X55649881Y63603261D01*
X55697500Y63508023D01*
X55745119Y63460404D01*
X55840357Y63412785D01*
X55935595Y63412785D01*
X56078452Y63460404D01*
X56649881Y64031833D01*
X56649881Y63412785D01*
X56459381Y61253666D02*
X55983190Y61587000D01*
X56459381Y61825095D02*
X55459381Y61825095D01*
X55459381Y61444142D01*
X55507000Y61348904D01*
X55554619Y61301285D01*
X55649857Y61253666D01*
X55792714Y61253666D01*
X55887952Y61301285D01*
X55935571Y61348904D01*
X55983190Y61444142D01*
X55983190Y61825095D01*
X56459381Y60301285D02*
X56459381Y60872714D01*
X56459381Y60587000D02*
X55459381Y60587000D01*
X55602238Y60682238D01*
X55697476Y60777476D01*
X55745095Y60872714D01*
X46775619Y74707738D02*
X46728000Y74802976D01*
X46632762Y74898214D01*
X46489905Y75041071D01*
X46442286Y75136310D01*
X46442286Y75231548D01*
X46680381Y75183929D02*
X46632762Y75279167D01*
X46537524Y75374405D01*
X46347048Y75422024D01*
X46013714Y75422024D01*
X45823238Y75374405D01*
X45728000Y75279167D01*
X45680381Y75183929D01*
X45680381Y74993452D01*
X45728000Y74898214D01*
X45823238Y74802976D01*
X46013714Y74755357D01*
X46347048Y74755357D01*
X46537524Y74802976D01*
X46632762Y74898214D01*
X46680381Y74993452D01*
X46680381Y75183929D01*
X45775619Y74374405D02*
X45728000Y74326786D01*
X45680381Y74231548D01*
X45680381Y73993452D01*
X45728000Y73898214D01*
X45775619Y73850595D01*
X45870857Y73802976D01*
X45966095Y73802976D01*
X46108952Y73850595D01*
X46680381Y74422024D01*
X46680381Y73802976D01*
D14*
X52046535Y55296768D02*
X52322307Y55296768D01*
X52377461Y55315152D01*
X52414230Y55351922D01*
X52432615Y55407076D01*
X52432615Y55443846D01*
X52083305Y55131305D02*
X52064920Y55112920D01*
X52046535Y55076151D01*
X52046535Y54984227D01*
X52064920Y54947457D01*
X52083305Y54929073D01*
X52120074Y54910688D01*
X52156844Y54910688D01*
X52211998Y54929073D01*
X52432615Y55149690D01*
X52432615Y54910688D01*
D11*
X43568881Y55395690D02*
X42568881Y55395690D01*
X43473643Y54348071D02*
X43521262Y54395690D01*
X43568881Y54538547D01*
X43568881Y54633785D01*
X43521262Y54776643D01*
X43426024Y54871881D01*
X43330786Y54919500D01*
X43140310Y54967119D01*
X42997452Y54967119D01*
X42806976Y54919500D01*
X42711738Y54871881D01*
X42616500Y54776643D01*
X42568881Y54633785D01*
X42568881Y54538547D01*
X42616500Y54395690D01*
X42664119Y54348071D01*
X43568881Y53395690D02*
X43568881Y53967119D01*
X43568881Y53681405D02*
X42568881Y53681405D01*
X42711738Y53776643D01*
X42806976Y53871881D01*
X42854595Y53967119D01*
X44659476Y79013095D02*
X44659476Y79813095D01*
X44469000Y79813095D01*
X44354714Y79775000D01*
X44278523Y79698810D01*
X44240428Y79622619D01*
X44202333Y79470238D01*
X44202333Y79355952D01*
X44240428Y79203571D01*
X44278523Y79127381D01*
X44354714Y79051190D01*
X44469000Y79013095D01*
X44659476Y79013095D01*
X43935666Y79813095D02*
X43440428Y79813095D01*
X43707095Y79508333D01*
X43592809Y79508333D01*
X43516619Y79470238D01*
X43478523Y79432143D01*
X43440428Y79355952D01*
X43440428Y79165476D01*
X43478523Y79089286D01*
X43516619Y79051190D01*
X43592809Y79013095D01*
X43821381Y79013095D01*
X43897571Y79051190D01*
X43935666Y79089286D01*
X38817476Y75965095D02*
X38817476Y76765095D01*
X38627000Y76765095D01*
X38512714Y76727000D01*
X38436523Y76650810D01*
X38398428Y76574619D01*
X38360333Y76422238D01*
X38360333Y76307952D01*
X38398428Y76155571D01*
X38436523Y76079381D01*
X38512714Y76003190D01*
X38627000Y75965095D01*
X38817476Y75965095D01*
X38055571Y76688905D02*
X38017476Y76727000D01*
X37941285Y76765095D01*
X37750809Y76765095D01*
X37674619Y76727000D01*
X37636523Y76688905D01*
X37598428Y76612714D01*
X37598428Y76536524D01*
X37636523Y76422238D01*
X38093666Y75965095D01*
X37598428Y75965095D01*
X58332666Y49871357D02*
X58380285Y49823738D01*
X58523142Y49776119D01*
X58618380Y49776119D01*
X58761238Y49823738D01*
X58856476Y49918976D01*
X58904095Y50014214D01*
X58951714Y50204690D01*
X58951714Y50347548D01*
X58904095Y50538024D01*
X58856476Y50633262D01*
X58761238Y50728500D01*
X58618380Y50776119D01*
X58523142Y50776119D01*
X58380285Y50728500D01*
X58332666Y50680881D01*
X57761238Y50347548D02*
X57856476Y50395167D01*
X57904095Y50442786D01*
X57951714Y50538024D01*
X57951714Y50585643D01*
X57904095Y50680881D01*
X57856476Y50728500D01*
X57761238Y50776119D01*
X57570761Y50776119D01*
X57475523Y50728500D01*
X57427904Y50680881D01*
X57380285Y50585643D01*
X57380285Y50538024D01*
X57427904Y50442786D01*
X57475523Y50395167D01*
X57570761Y50347548D01*
X57761238Y50347548D01*
X57856476Y50299929D01*
X57904095Y50252310D01*
X57951714Y50157071D01*
X57951714Y49966595D01*
X57904095Y49871357D01*
X57856476Y49823738D01*
X57761238Y49776119D01*
X57570761Y49776119D01*
X57475523Y49823738D01*
X57427904Y49871357D01*
X57380285Y49966595D01*
X57380285Y50157071D01*
X57427904Y50252310D01*
X57475523Y50299929D01*
X57570761Y50347548D01*
X53824166Y70635857D02*
X53871785Y70588238D01*
X54014642Y70540619D01*
X54109880Y70540619D01*
X54252738Y70588238D01*
X54347976Y70683476D01*
X54395595Y70778714D01*
X54443214Y70969190D01*
X54443214Y71112048D01*
X54395595Y71302524D01*
X54347976Y71397762D01*
X54252738Y71493000D01*
X54109880Y71540619D01*
X54014642Y71540619D01*
X53871785Y71493000D01*
X53824166Y71445381D01*
X52967023Y71540619D02*
X53157500Y71540619D01*
X53252738Y71493000D01*
X53300357Y71445381D01*
X53395595Y71302524D01*
X53443214Y71112048D01*
X53443214Y70731095D01*
X53395595Y70635857D01*
X53347976Y70588238D01*
X53252738Y70540619D01*
X53062261Y70540619D01*
X52967023Y70588238D01*
X52919404Y70635857D01*
X52871785Y70731095D01*
X52871785Y70969190D01*
X52919404Y71064429D01*
X52967023Y71112048D01*
X53062261Y71159667D01*
X53252738Y71159667D01*
X53347976Y71112048D01*
X53395595Y71064429D01*
X53443214Y70969190D01*
X36361666Y52601857D02*
X36409285Y52554238D01*
X36552142Y52506619D01*
X36647380Y52506619D01*
X36790238Y52554238D01*
X36885476Y52649476D01*
X36933095Y52744714D01*
X36980714Y52935190D01*
X36980714Y53078048D01*
X36933095Y53268524D01*
X36885476Y53363762D01*
X36790238Y53459000D01*
X36647380Y53506619D01*
X36552142Y53506619D01*
X36409285Y53459000D01*
X36361666Y53411381D01*
X35456904Y53506619D02*
X35933095Y53506619D01*
X35980714Y53030429D01*
X35933095Y53078048D01*
X35837857Y53125667D01*
X35599761Y53125667D01*
X35504523Y53078048D01*
X35456904Y53030429D01*
X35409285Y52935190D01*
X35409285Y52697095D01*
X35456904Y52601857D01*
X35504523Y52554238D01*
X35599761Y52506619D01*
X35837857Y52506619D01*
X35933095Y52554238D01*
X35980714Y52601857D01*
X36361666Y49934857D02*
X36409285Y49887238D01*
X36552142Y49839619D01*
X36647380Y49839619D01*
X36790238Y49887238D01*
X36885476Y49982476D01*
X36933095Y50077714D01*
X36980714Y50268190D01*
X36980714Y50411048D01*
X36933095Y50601524D01*
X36885476Y50696762D01*
X36790238Y50792000D01*
X36647380Y50839619D01*
X36552142Y50839619D01*
X36409285Y50792000D01*
X36361666Y50744381D01*
X36028333Y50839619D02*
X35409285Y50839619D01*
X35742619Y50458667D01*
X35599761Y50458667D01*
X35504523Y50411048D01*
X35456904Y50363429D01*
X35409285Y50268190D01*
X35409285Y50030095D01*
X35456904Y49934857D01*
X35504523Y49887238D01*
X35599761Y49839619D01*
X35885476Y49839619D01*
X35980714Y49887238D01*
X36028333Y49934857D01*
X45823166Y64603357D02*
X45870785Y64555738D01*
X46013642Y64508119D01*
X46108880Y64508119D01*
X46251738Y64555738D01*
X46346976Y64650976D01*
X46394595Y64746214D01*
X46442214Y64936690D01*
X46442214Y65079548D01*
X46394595Y65270024D01*
X46346976Y65365262D01*
X46251738Y65460500D01*
X46108880Y65508119D01*
X46013642Y65508119D01*
X45870785Y65460500D01*
X45823166Y65412881D01*
X45442214Y65412881D02*
X45394595Y65460500D01*
X45299357Y65508119D01*
X45061261Y65508119D01*
X44966023Y65460500D01*
X44918404Y65412881D01*
X44870785Y65317643D01*
X44870785Y65222405D01*
X44918404Y65079548D01*
X45489833Y64508119D01*
X44870785Y64508119D01*
X49887166Y64603357D02*
X49934785Y64555738D01*
X50077642Y64508119D01*
X50172880Y64508119D01*
X50315738Y64555738D01*
X50410976Y64650976D01*
X50458595Y64746214D01*
X50506214Y64936690D01*
X50506214Y65079548D01*
X50458595Y65270024D01*
X50410976Y65365262D01*
X50315738Y65460500D01*
X50172880Y65508119D01*
X50077642Y65508119D01*
X49934785Y65460500D01*
X49887166Y65412881D01*
X48934785Y64508119D02*
X49506214Y64508119D01*
X49220500Y64508119D02*
X49220500Y65508119D01*
X49315738Y65365262D01*
X49410976Y65270024D01*
X49506214Y65222405D01*
X21153357Y1643119D02*
X21486691Y2119310D01*
X21724786Y1643119D02*
X21724786Y2643119D01*
X21343833Y2643119D01*
X21248595Y2595500D01*
X21200976Y2547881D01*
X21153357Y2452643D01*
X21153357Y2309786D01*
X21200976Y2214548D01*
X21248595Y2166929D01*
X21343833Y2119310D01*
X21724786Y2119310D01*
X20200976Y1643119D02*
X20772405Y1643119D01*
X20486691Y1643119D02*
X20486691Y2643119D01*
X20581929Y2500262D01*
X20677167Y2405024D01*
X20772405Y2357405D01*
X19343833Y2643119D02*
X19534310Y2643119D01*
X19629548Y2595500D01*
X19677167Y2547881D01*
X19772405Y2405024D01*
X19820024Y2214548D01*
X19820024Y1833595D01*
X19772405Y1738357D01*
X19724786Y1690738D01*
X19629548Y1643119D01*
X19439071Y1643119D01*
X19343833Y1690738D01*
X19296214Y1738357D01*
X19248595Y1833595D01*
X19248595Y2071690D01*
X19296214Y2166929D01*
X19343833Y2214548D01*
X19439071Y2262167D01*
X19629548Y2262167D01*
X19724786Y2214548D01*
X19772405Y2166929D01*
X19820024Y2071690D01*
X22423357Y31107119D02*
X22756691Y31583310D01*
X22994786Y31107119D02*
X22994786Y32107119D01*
X22613833Y32107119D01*
X22518595Y32059500D01*
X22470976Y32011881D01*
X22423357Y31916643D01*
X22423357Y31773786D01*
X22470976Y31678548D01*
X22518595Y31630929D01*
X22613833Y31583310D01*
X22994786Y31583310D01*
X21470976Y31107119D02*
X22042405Y31107119D01*
X21756691Y31107119D02*
X21756691Y32107119D01*
X21851929Y31964262D01*
X21947167Y31869024D01*
X22042405Y31821405D01*
X20613833Y31773786D02*
X20613833Y31107119D01*
X20851929Y32154738D02*
X21090024Y31440452D01*
X20470976Y31440452D01*
X14930357Y1770119D02*
X15263691Y2246310D01*
X15501786Y1770119D02*
X15501786Y2770119D01*
X15120833Y2770119D01*
X15025595Y2722500D01*
X14977976Y2674881D01*
X14930357Y2579643D01*
X14930357Y2436786D01*
X14977976Y2341548D01*
X15025595Y2293929D01*
X15120833Y2246310D01*
X15501786Y2246310D01*
X13977976Y1770119D02*
X14549405Y1770119D01*
X14263691Y1770119D02*
X14263691Y2770119D01*
X14358929Y2627262D01*
X14454167Y2532024D01*
X14549405Y2484405D01*
X13644643Y2770119D02*
X13025595Y2770119D01*
X13358929Y2389167D01*
X13216071Y2389167D01*
X13120833Y2341548D01*
X13073214Y2293929D01*
X13025595Y2198690D01*
X13025595Y1960595D01*
X13073214Y1865357D01*
X13120833Y1817738D01*
X13216071Y1770119D01*
X13501786Y1770119D01*
X13597024Y1817738D01*
X13644643Y1865357D01*
X6103857Y25963619D02*
X6437191Y26439810D01*
X6675286Y25963619D02*
X6675286Y26963619D01*
X6294333Y26963619D01*
X6199095Y26916000D01*
X6151476Y26868381D01*
X6103857Y26773143D01*
X6103857Y26630286D01*
X6151476Y26535048D01*
X6199095Y26487429D01*
X6294333Y26439810D01*
X6675286Y26439810D01*
X5151476Y25963619D02*
X5722905Y25963619D01*
X5437191Y25963619D02*
X5437191Y26963619D01*
X5532429Y26820762D01*
X5627667Y26725524D01*
X5722905Y26677905D01*
X4199095Y25963619D02*
X4770524Y25963619D01*
X4484810Y25963619D02*
X4484810Y26963619D01*
X4580048Y26820762D01*
X4675286Y26725524D01*
X4770524Y26677905D01*
X12644357Y25709619D02*
X12977691Y26185810D01*
X13215786Y25709619D02*
X13215786Y26709619D01*
X12834833Y26709619D01*
X12739595Y26662000D01*
X12691976Y26614381D01*
X12644357Y26519143D01*
X12644357Y26376286D01*
X12691976Y26281048D01*
X12739595Y26233429D01*
X12834833Y26185810D01*
X13215786Y26185810D01*
X11691976Y25709619D02*
X12263405Y25709619D01*
X11977691Y25709619D02*
X11977691Y26709619D01*
X12072929Y26566762D01*
X12168167Y26471524D01*
X12263405Y26423905D01*
X11072929Y26709619D02*
X10977690Y26709619D01*
X10882452Y26662000D01*
X10834833Y26614381D01*
X10787214Y26519143D01*
X10739595Y26328667D01*
X10739595Y26090571D01*
X10787214Y25900095D01*
X10834833Y25804857D01*
X10882452Y25757238D01*
X10977690Y25709619D01*
X11072929Y25709619D01*
X11168167Y25757238D01*
X11215786Y25804857D01*
X11263405Y25900095D01*
X11311024Y26090571D01*
X11311024Y26328667D01*
X11263405Y26519143D01*
X11215786Y26614381D01*
X11168167Y26662000D01*
X11072929Y26709619D01*
X12072881Y14009666D02*
X11596690Y14343000D01*
X12072881Y14581095D02*
X11072881Y14581095D01*
X11072881Y14200142D01*
X11120500Y14104904D01*
X11168119Y14057285D01*
X11263357Y14009666D01*
X11406214Y14009666D01*
X11501452Y14057285D01*
X11549071Y14104904D01*
X11596690Y14200142D01*
X11596690Y14581095D01*
X12072881Y13533476D02*
X12072881Y13343000D01*
X12025262Y13247761D01*
X11977643Y13200142D01*
X11834786Y13104904D01*
X11644310Y13057285D01*
X11263357Y13057285D01*
X11168119Y13104904D01*
X11120500Y13152523D01*
X11072881Y13247761D01*
X11072881Y13438238D01*
X11120500Y13533476D01*
X11168119Y13581095D01*
X11263357Y13628714D01*
X11501452Y13628714D01*
X11596690Y13581095D01*
X11644310Y13533476D01*
X11691929Y13438238D01*
X11691929Y13247761D01*
X11644310Y13152523D01*
X11596690Y13104904D01*
X11501452Y13057285D01*
X12072881Y16613166D02*
X11596690Y16946500D01*
X12072881Y17184595D02*
X11072881Y17184595D01*
X11072881Y16803642D01*
X11120500Y16708404D01*
X11168119Y16660785D01*
X11263357Y16613166D01*
X11406214Y16613166D01*
X11501452Y16660785D01*
X11549071Y16708404D01*
X11596690Y16803642D01*
X11596690Y17184595D01*
X11501452Y16041738D02*
X11453833Y16136976D01*
X11406214Y16184595D01*
X11310976Y16232214D01*
X11263357Y16232214D01*
X11168119Y16184595D01*
X11120500Y16136976D01*
X11072881Y16041738D01*
X11072881Y15851261D01*
X11120500Y15756023D01*
X11168119Y15708404D01*
X11263357Y15660785D01*
X11310976Y15660785D01*
X11406214Y15708404D01*
X11453833Y15756023D01*
X11501452Y15851261D01*
X11501452Y16041738D01*
X11549071Y16136976D01*
X11596690Y16184595D01*
X11691929Y16232214D01*
X11882405Y16232214D01*
X11977643Y16184595D01*
X12025262Y16136976D01*
X12072881Y16041738D01*
X12072881Y15851261D01*
X12025262Y15756023D01*
X11977643Y15708404D01*
X11882405Y15660785D01*
X11691929Y15660785D01*
X11596690Y15708404D01*
X11549071Y15756023D01*
X11501452Y15851261D01*
X5881666Y20629619D02*
X6215000Y21105810D01*
X6453095Y20629619D02*
X6453095Y21629619D01*
X6072142Y21629619D01*
X5976904Y21582000D01*
X5929285Y21534381D01*
X5881666Y21439143D01*
X5881666Y21296286D01*
X5929285Y21201048D01*
X5976904Y21153429D01*
X6072142Y21105810D01*
X6453095Y21105810D01*
X5548333Y21629619D02*
X4881666Y21629619D01*
X5310238Y20629619D01*
X7627881Y16549666D02*
X7151690Y16883000D01*
X7627881Y17121095D02*
X6627881Y17121095D01*
X6627881Y16740142D01*
X6675500Y16644904D01*
X6723119Y16597285D01*
X6818357Y16549666D01*
X6961214Y16549666D01*
X7056452Y16597285D01*
X7104071Y16644904D01*
X7151690Y16740142D01*
X7151690Y17121095D01*
X6627881Y15692523D02*
X6627881Y15883000D01*
X6675500Y15978238D01*
X6723119Y16025857D01*
X6865976Y16121095D01*
X7056452Y16168714D01*
X7437405Y16168714D01*
X7532643Y16121095D01*
X7580262Y16073476D01*
X7627881Y15978238D01*
X7627881Y15787761D01*
X7580262Y15692523D01*
X7532643Y15644904D01*
X7437405Y15597285D01*
X7199310Y15597285D01*
X7104071Y15644904D01*
X7056452Y15692523D01*
X7008833Y15787761D01*
X7008833Y15978238D01*
X7056452Y16073476D01*
X7104071Y16121095D01*
X7199310Y16168714D01*
X4929166Y10279119D02*
X5262500Y10755310D01*
X5500595Y10279119D02*
X5500595Y11279119D01*
X5119642Y11279119D01*
X5024404Y11231500D01*
X4976785Y11183881D01*
X4929166Y11088643D01*
X4929166Y10945786D01*
X4976785Y10850548D01*
X5024404Y10802929D01*
X5119642Y10755310D01*
X5500595Y10755310D01*
X4024404Y11279119D02*
X4500595Y11279119D01*
X4548214Y10802929D01*
X4500595Y10850548D01*
X4405357Y10898167D01*
X4167261Y10898167D01*
X4072023Y10850548D01*
X4024404Y10802929D01*
X3976785Y10707690D01*
X3976785Y10469595D01*
X4024404Y10374357D01*
X4072023Y10326738D01*
X4167261Y10279119D01*
X4405357Y10279119D01*
X4500595Y10326738D01*
X4548214Y10374357D01*
X7691381Y13882666D02*
X7215190Y14216000D01*
X7691381Y14454095D02*
X6691381Y14454095D01*
X6691381Y14073142D01*
X6739000Y13977904D01*
X6786619Y13930285D01*
X6881857Y13882666D01*
X7024714Y13882666D01*
X7119952Y13930285D01*
X7167571Y13977904D01*
X7215190Y14073142D01*
X7215190Y14454095D01*
X7024714Y13025523D02*
X7691381Y13025523D01*
X6643762Y13263619D02*
X7358048Y13501714D01*
X7358048Y12882666D01*
X24963381Y13438166D02*
X24487190Y13771500D01*
X24963381Y14009595D02*
X23963381Y14009595D01*
X23963381Y13628642D01*
X24011000Y13533404D01*
X24058619Y13485785D01*
X24153857Y13438166D01*
X24296714Y13438166D01*
X24391952Y13485785D01*
X24439571Y13533404D01*
X24487190Y13628642D01*
X24487190Y14009595D01*
X23963381Y13104833D02*
X23963381Y12485785D01*
X24344333Y12819119D01*
X24344333Y12676261D01*
X24391952Y12581023D01*
X24439571Y12533404D01*
X24534810Y12485785D01*
X24772905Y12485785D01*
X24868143Y12533404D01*
X24915762Y12581023D01*
X24963381Y12676261D01*
X24963381Y12961976D01*
X24915762Y13057214D01*
X24868143Y13104833D01*
X25153881Y19661166D02*
X24677690Y19994500D01*
X25153881Y20232595D02*
X24153881Y20232595D01*
X24153881Y19851642D01*
X24201500Y19756404D01*
X24249119Y19708785D01*
X24344357Y19661166D01*
X24487214Y19661166D01*
X24582452Y19708785D01*
X24630071Y19756404D01*
X24677690Y19851642D01*
X24677690Y20232595D01*
X24249119Y19280214D02*
X24201500Y19232595D01*
X24153881Y19137357D01*
X24153881Y18899261D01*
X24201500Y18804023D01*
X24249119Y18756404D01*
X24344357Y18708785D01*
X24439595Y18708785D01*
X24582452Y18756404D01*
X25153881Y19327833D01*
X25153881Y18708785D01*
X24963381Y16549666D02*
X24487190Y16883000D01*
X24963381Y17121095D02*
X23963381Y17121095D01*
X23963381Y16740142D01*
X24011000Y16644904D01*
X24058619Y16597285D01*
X24153857Y16549666D01*
X24296714Y16549666D01*
X24391952Y16597285D01*
X24439571Y16644904D01*
X24487190Y16740142D01*
X24487190Y17121095D01*
X24963381Y15597285D02*
X24963381Y16168714D01*
X24963381Y15883000D02*
X23963381Y15883000D01*
X24106238Y15978238D01*
X24201476Y16073476D01*
X24249095Y16168714D01*
X15279619Y30003738D02*
X15232000Y30098976D01*
X15136762Y30194214D01*
X14993905Y30337071D01*
X14946286Y30432310D01*
X14946286Y30527548D01*
X15184381Y30479929D02*
X15136762Y30575167D01*
X15041524Y30670405D01*
X14851048Y30718024D01*
X14517714Y30718024D01*
X14327238Y30670405D01*
X14232000Y30575167D01*
X14184381Y30479929D01*
X14184381Y30289452D01*
X14232000Y30194214D01*
X14327238Y30098976D01*
X14517714Y30051357D01*
X14851048Y30051357D01*
X15041524Y30098976D01*
X15136762Y30194214D01*
X15184381Y30289452D01*
X15184381Y30479929D01*
X14279619Y29670405D02*
X14232000Y29622786D01*
X14184381Y29527548D01*
X14184381Y29289452D01*
X14232000Y29194214D01*
X14279619Y29146595D01*
X14374857Y29098976D01*
X14470095Y29098976D01*
X14612952Y29146595D01*
X15184381Y29718024D01*
X15184381Y29098976D01*
D14*
X20550535Y10592768D02*
X20826307Y10592768D01*
X20881461Y10611152D01*
X20918230Y10647922D01*
X20936615Y10703076D01*
X20936615Y10739846D01*
X20587305Y10427305D02*
X20568920Y10408920D01*
X20550535Y10372151D01*
X20550535Y10280227D01*
X20568920Y10243457D01*
X20587305Y10225073D01*
X20624074Y10206688D01*
X20660844Y10206688D01*
X20715998Y10225073D01*
X20936615Y10445690D01*
X20936615Y10206688D01*
D11*
X12072881Y10691690D02*
X11072881Y10691690D01*
X11977643Y9644071D02*
X12025262Y9691690D01*
X12072881Y9834547D01*
X12072881Y9929785D01*
X12025262Y10072643D01*
X11930024Y10167881D01*
X11834786Y10215500D01*
X11644310Y10263119D01*
X11501452Y10263119D01*
X11310976Y10215500D01*
X11215738Y10167881D01*
X11120500Y10072643D01*
X11072881Y9929785D01*
X11072881Y9834547D01*
X11120500Y9691690D01*
X11168119Y9644071D01*
X12072881Y8691690D02*
X12072881Y9263119D01*
X12072881Y8977405D02*
X11072881Y8977405D01*
X11215738Y9072643D01*
X11310976Y9167881D01*
X11358595Y9263119D01*
X13163476Y34309095D02*
X13163476Y35109095D01*
X12973000Y35109095D01*
X12858714Y35071000D01*
X12782523Y34994810D01*
X12744428Y34918619D01*
X12706333Y34766238D01*
X12706333Y34651952D01*
X12744428Y34499571D01*
X12782523Y34423381D01*
X12858714Y34347190D01*
X12973000Y34309095D01*
X13163476Y34309095D01*
X12439666Y35109095D02*
X11944428Y35109095D01*
X12211095Y34804333D01*
X12096809Y34804333D01*
X12020619Y34766238D01*
X11982523Y34728143D01*
X11944428Y34651952D01*
X11944428Y34461476D01*
X11982523Y34385286D01*
X12020619Y34347190D01*
X12096809Y34309095D01*
X12325381Y34309095D01*
X12401571Y34347190D01*
X12439666Y34385286D01*
X7321476Y31261095D02*
X7321476Y32061095D01*
X7131000Y32061095D01*
X7016714Y32023000D01*
X6940523Y31946810D01*
X6902428Y31870619D01*
X6864333Y31718238D01*
X6864333Y31603952D01*
X6902428Y31451571D01*
X6940523Y31375381D01*
X7016714Y31299190D01*
X7131000Y31261095D01*
X7321476Y31261095D01*
X6559571Y31984905D02*
X6521476Y32023000D01*
X6445285Y32061095D01*
X6254809Y32061095D01*
X6178619Y32023000D01*
X6140523Y31984905D01*
X6102428Y31908714D01*
X6102428Y31832524D01*
X6140523Y31718238D01*
X6597666Y31261095D01*
X6102428Y31261095D01*
X26836666Y5167357D02*
X26884285Y5119738D01*
X27027142Y5072119D01*
X27122380Y5072119D01*
X27265238Y5119738D01*
X27360476Y5214976D01*
X27408095Y5310214D01*
X27455714Y5500690D01*
X27455714Y5643548D01*
X27408095Y5834024D01*
X27360476Y5929262D01*
X27265238Y6024500D01*
X27122380Y6072119D01*
X27027142Y6072119D01*
X26884285Y6024500D01*
X26836666Y5976881D01*
X26265238Y5643548D02*
X26360476Y5691167D01*
X26408095Y5738786D01*
X26455714Y5834024D01*
X26455714Y5881643D01*
X26408095Y5976881D01*
X26360476Y6024500D01*
X26265238Y6072119D01*
X26074761Y6072119D01*
X25979523Y6024500D01*
X25931904Y5976881D01*
X25884285Y5881643D01*
X25884285Y5834024D01*
X25931904Y5738786D01*
X25979523Y5691167D01*
X26074761Y5643548D01*
X26265238Y5643548D01*
X26360476Y5595929D01*
X26408095Y5548310D01*
X26455714Y5453071D01*
X26455714Y5262595D01*
X26408095Y5167357D01*
X26360476Y5119738D01*
X26265238Y5072119D01*
X26074761Y5072119D01*
X25979523Y5119738D01*
X25931904Y5167357D01*
X25884285Y5262595D01*
X25884285Y5453071D01*
X25931904Y5548310D01*
X25979523Y5595929D01*
X26074761Y5643548D01*
X22328166Y25931857D02*
X22375785Y25884238D01*
X22518642Y25836619D01*
X22613880Y25836619D01*
X22756738Y25884238D01*
X22851976Y25979476D01*
X22899595Y26074714D01*
X22947214Y26265190D01*
X22947214Y26408048D01*
X22899595Y26598524D01*
X22851976Y26693762D01*
X22756738Y26789000D01*
X22613880Y26836619D01*
X22518642Y26836619D01*
X22375785Y26789000D01*
X22328166Y26741381D01*
X21471023Y26836619D02*
X21661500Y26836619D01*
X21756738Y26789000D01*
X21804357Y26741381D01*
X21899595Y26598524D01*
X21947214Y26408048D01*
X21947214Y26027095D01*
X21899595Y25931857D01*
X21851976Y25884238D01*
X21756738Y25836619D01*
X21566261Y25836619D01*
X21471023Y25884238D01*
X21423404Y25931857D01*
X21375785Y26027095D01*
X21375785Y26265190D01*
X21423404Y26360429D01*
X21471023Y26408048D01*
X21566261Y26455667D01*
X21756738Y26455667D01*
X21851976Y26408048D01*
X21899595Y26360429D01*
X21947214Y26265190D01*
X4865666Y7897857D02*
X4913285Y7850238D01*
X5056142Y7802619D01*
X5151380Y7802619D01*
X5294238Y7850238D01*
X5389476Y7945476D01*
X5437095Y8040714D01*
X5484714Y8231190D01*
X5484714Y8374048D01*
X5437095Y8564524D01*
X5389476Y8659762D01*
X5294238Y8755000D01*
X5151380Y8802619D01*
X5056142Y8802619D01*
X4913285Y8755000D01*
X4865666Y8707381D01*
X3960904Y8802619D02*
X4437095Y8802619D01*
X4484714Y8326429D01*
X4437095Y8374048D01*
X4341857Y8421667D01*
X4103761Y8421667D01*
X4008523Y8374048D01*
X3960904Y8326429D01*
X3913285Y8231190D01*
X3913285Y7993095D01*
X3960904Y7897857D01*
X4008523Y7850238D01*
X4103761Y7802619D01*
X4341857Y7802619D01*
X4437095Y7850238D01*
X4484714Y7897857D01*
X4865666Y5230857D02*
X4913285Y5183238D01*
X5056142Y5135619D01*
X5151380Y5135619D01*
X5294238Y5183238D01*
X5389476Y5278476D01*
X5437095Y5373714D01*
X5484714Y5564190D01*
X5484714Y5707048D01*
X5437095Y5897524D01*
X5389476Y5992762D01*
X5294238Y6088000D01*
X5151380Y6135619D01*
X5056142Y6135619D01*
X4913285Y6088000D01*
X4865666Y6040381D01*
X4532333Y6135619D02*
X3913285Y6135619D01*
X4246619Y5754667D01*
X4103761Y5754667D01*
X4008523Y5707048D01*
X3960904Y5659429D01*
X3913285Y5564190D01*
X3913285Y5326095D01*
X3960904Y5230857D01*
X4008523Y5183238D01*
X4103761Y5135619D01*
X4389476Y5135619D01*
X4484714Y5183238D01*
X4532333Y5230857D01*
X14327166Y19899357D02*
X14374785Y19851738D01*
X14517642Y19804119D01*
X14612880Y19804119D01*
X14755738Y19851738D01*
X14850976Y19946976D01*
X14898595Y20042214D01*
X14946214Y20232690D01*
X14946214Y20375548D01*
X14898595Y20566024D01*
X14850976Y20661262D01*
X14755738Y20756500D01*
X14612880Y20804119D01*
X14517642Y20804119D01*
X14374785Y20756500D01*
X14327166Y20708881D01*
X13946214Y20708881D02*
X13898595Y20756500D01*
X13803357Y20804119D01*
X13565261Y20804119D01*
X13470023Y20756500D01*
X13422404Y20708881D01*
X13374785Y20613643D01*
X13374785Y20518405D01*
X13422404Y20375548D01*
X13993833Y19804119D01*
X13374785Y19804119D01*
X18391166Y19899357D02*
X18438785Y19851738D01*
X18581642Y19804119D01*
X18676880Y19804119D01*
X18819738Y19851738D01*
X18914976Y19946976D01*
X18962595Y20042214D01*
X19010214Y20232690D01*
X19010214Y20375548D01*
X18962595Y20566024D01*
X18914976Y20661262D01*
X18819738Y20756500D01*
X18676880Y20804119D01*
X18581642Y20804119D01*
X18438785Y20756500D01*
X18391166Y20708881D01*
X17438785Y19804119D02*
X18010214Y19804119D01*
X17724500Y19804119D02*
X17724500Y20804119D01*
X17819738Y20661262D01*
X17914976Y20566024D01*
X18010214Y20518405D01*
X18391166Y64603357D02*
X18438785Y64555738D01*
X18581642Y64508119D01*
X18676880Y64508119D01*
X18819738Y64555738D01*
X18914976Y64650976D01*
X18962595Y64746214D01*
X19010214Y64936690D01*
X19010214Y65079548D01*
X18962595Y65270024D01*
X18914976Y65365262D01*
X18819738Y65460500D01*
X18676880Y65508119D01*
X18581642Y65508119D01*
X18438785Y65460500D01*
X18391166Y65412881D01*
X17438785Y64508119D02*
X18010214Y64508119D01*
X17724500Y64508119D02*
X17724500Y65508119D01*
X17819738Y65365262D01*
X17914976Y65270024D01*
X18010214Y65222405D01*
X14327166Y64603357D02*
X14374785Y64555738D01*
X14517642Y64508119D01*
X14612880Y64508119D01*
X14755738Y64555738D01*
X14850976Y64650976D01*
X14898595Y64746214D01*
X14946214Y64936690D01*
X14946214Y65079548D01*
X14898595Y65270024D01*
X14850976Y65365262D01*
X14755738Y65460500D01*
X14612880Y65508119D01*
X14517642Y65508119D01*
X14374785Y65460500D01*
X14327166Y65412881D01*
X13946214Y65412881D02*
X13898595Y65460500D01*
X13803357Y65508119D01*
X13565261Y65508119D01*
X13470023Y65460500D01*
X13422404Y65412881D01*
X13374785Y65317643D01*
X13374785Y65222405D01*
X13422404Y65079548D01*
X13993833Y64508119D01*
X13374785Y64508119D01*
X4865666Y49934857D02*
X4913285Y49887238D01*
X5056142Y49839619D01*
X5151380Y49839619D01*
X5294238Y49887238D01*
X5389476Y49982476D01*
X5437095Y50077714D01*
X5484714Y50268190D01*
X5484714Y50411048D01*
X5437095Y50601524D01*
X5389476Y50696762D01*
X5294238Y50792000D01*
X5151380Y50839619D01*
X5056142Y50839619D01*
X4913285Y50792000D01*
X4865666Y50744381D01*
X4532333Y50839619D02*
X3913285Y50839619D01*
X4246619Y50458667D01*
X4103761Y50458667D01*
X4008523Y50411048D01*
X3960904Y50363429D01*
X3913285Y50268190D01*
X3913285Y50030095D01*
X3960904Y49934857D01*
X4008523Y49887238D01*
X4103761Y49839619D01*
X4389476Y49839619D01*
X4484714Y49887238D01*
X4532333Y49934857D01*
X4865666Y52601857D02*
X4913285Y52554238D01*
X5056142Y52506619D01*
X5151380Y52506619D01*
X5294238Y52554238D01*
X5389476Y52649476D01*
X5437095Y52744714D01*
X5484714Y52935190D01*
X5484714Y53078048D01*
X5437095Y53268524D01*
X5389476Y53363762D01*
X5294238Y53459000D01*
X5151380Y53506619D01*
X5056142Y53506619D01*
X4913285Y53459000D01*
X4865666Y53411381D01*
X3960904Y53506619D02*
X4437095Y53506619D01*
X4484714Y53030429D01*
X4437095Y53078048D01*
X4341857Y53125667D01*
X4103761Y53125667D01*
X4008523Y53078048D01*
X3960904Y53030429D01*
X3913285Y52935190D01*
X3913285Y52697095D01*
X3960904Y52601857D01*
X4008523Y52554238D01*
X4103761Y52506619D01*
X4341857Y52506619D01*
X4437095Y52554238D01*
X4484714Y52601857D01*
X22328166Y70635857D02*
X22375785Y70588238D01*
X22518642Y70540619D01*
X22613880Y70540619D01*
X22756738Y70588238D01*
X22851976Y70683476D01*
X22899595Y70778714D01*
X22947214Y70969190D01*
X22947214Y71112048D01*
X22899595Y71302524D01*
X22851976Y71397762D01*
X22756738Y71493000D01*
X22613880Y71540619D01*
X22518642Y71540619D01*
X22375785Y71493000D01*
X22328166Y71445381D01*
X21471023Y71540619D02*
X21661500Y71540619D01*
X21756738Y71493000D01*
X21804357Y71445381D01*
X21899595Y71302524D01*
X21947214Y71112048D01*
X21947214Y70731095D01*
X21899595Y70635857D01*
X21851976Y70588238D01*
X21756738Y70540619D01*
X21566261Y70540619D01*
X21471023Y70588238D01*
X21423404Y70635857D01*
X21375785Y70731095D01*
X21375785Y70969190D01*
X21423404Y71064429D01*
X21471023Y71112048D01*
X21566261Y71159667D01*
X21756738Y71159667D01*
X21851976Y71112048D01*
X21899595Y71064429D01*
X21947214Y70969190D01*
X26836666Y49871357D02*
X26884285Y49823738D01*
X27027142Y49776119D01*
X27122380Y49776119D01*
X27265238Y49823738D01*
X27360476Y49918976D01*
X27408095Y50014214D01*
X27455714Y50204690D01*
X27455714Y50347548D01*
X27408095Y50538024D01*
X27360476Y50633262D01*
X27265238Y50728500D01*
X27122380Y50776119D01*
X27027142Y50776119D01*
X26884285Y50728500D01*
X26836666Y50680881D01*
X26265238Y50347548D02*
X26360476Y50395167D01*
X26408095Y50442786D01*
X26455714Y50538024D01*
X26455714Y50585643D01*
X26408095Y50680881D01*
X26360476Y50728500D01*
X26265238Y50776119D01*
X26074761Y50776119D01*
X25979523Y50728500D01*
X25931904Y50680881D01*
X25884285Y50585643D01*
X25884285Y50538024D01*
X25931904Y50442786D01*
X25979523Y50395167D01*
X26074761Y50347548D01*
X26265238Y50347548D01*
X26360476Y50299929D01*
X26408095Y50252310D01*
X26455714Y50157071D01*
X26455714Y49966595D01*
X26408095Y49871357D01*
X26360476Y49823738D01*
X26265238Y49776119D01*
X26074761Y49776119D01*
X25979523Y49823738D01*
X25931904Y49871357D01*
X25884285Y49966595D01*
X25884285Y50157071D01*
X25931904Y50252310D01*
X25979523Y50299929D01*
X26074761Y50347548D01*
X7321476Y75965095D02*
X7321476Y76765095D01*
X7131000Y76765095D01*
X7016714Y76727000D01*
X6940523Y76650810D01*
X6902428Y76574619D01*
X6864333Y76422238D01*
X6864333Y76307952D01*
X6902428Y76155571D01*
X6940523Y76079381D01*
X7016714Y76003190D01*
X7131000Y75965095D01*
X7321476Y75965095D01*
X6559571Y76688905D02*
X6521476Y76727000D01*
X6445285Y76765095D01*
X6254809Y76765095D01*
X6178619Y76727000D01*
X6140523Y76688905D01*
X6102428Y76612714D01*
X6102428Y76536524D01*
X6140523Y76422238D01*
X6597666Y75965095D01*
X6102428Y75965095D01*
X13163476Y79013095D02*
X13163476Y79813095D01*
X12973000Y79813095D01*
X12858714Y79775000D01*
X12782523Y79698810D01*
X12744428Y79622619D01*
X12706333Y79470238D01*
X12706333Y79355952D01*
X12744428Y79203571D01*
X12782523Y79127381D01*
X12858714Y79051190D01*
X12973000Y79013095D01*
X13163476Y79013095D01*
X12439666Y79813095D02*
X11944428Y79813095D01*
X12211095Y79508333D01*
X12096809Y79508333D01*
X12020619Y79470238D01*
X11982523Y79432143D01*
X11944428Y79355952D01*
X11944428Y79165476D01*
X11982523Y79089286D01*
X12020619Y79051190D01*
X12096809Y79013095D01*
X12325381Y79013095D01*
X12401571Y79051190D01*
X12439666Y79089286D01*
X12072881Y55395690D02*
X11072881Y55395690D01*
X11977643Y54348071D02*
X12025262Y54395690D01*
X12072881Y54538547D01*
X12072881Y54633785D01*
X12025262Y54776643D01*
X11930024Y54871881D01*
X11834786Y54919500D01*
X11644310Y54967119D01*
X11501452Y54967119D01*
X11310976Y54919500D01*
X11215738Y54871881D01*
X11120500Y54776643D01*
X11072881Y54633785D01*
X11072881Y54538547D01*
X11120500Y54395690D01*
X11168119Y54348071D01*
X12072881Y53395690D02*
X12072881Y53967119D01*
X12072881Y53681405D02*
X11072881Y53681405D01*
X11215738Y53776643D01*
X11310976Y53871881D01*
X11358595Y53967119D01*
D14*
X20550535Y55296768D02*
X20826307Y55296768D01*
X20881461Y55315152D01*
X20918230Y55351922D01*
X20936615Y55407076D01*
X20936615Y55443846D01*
X20587305Y55131305D02*
X20568920Y55112920D01*
X20550535Y55076151D01*
X20550535Y54984227D01*
X20568920Y54947457D01*
X20587305Y54929073D01*
X20624074Y54910688D01*
X20660844Y54910688D01*
X20715998Y54929073D01*
X20936615Y55149690D01*
X20936615Y54910688D01*
D11*
X15279619Y74707738D02*
X15232000Y74802976D01*
X15136762Y74898214D01*
X14993905Y75041071D01*
X14946286Y75136310D01*
X14946286Y75231548D01*
X15184381Y75183929D02*
X15136762Y75279167D01*
X15041524Y75374405D01*
X14851048Y75422024D01*
X14517714Y75422024D01*
X14327238Y75374405D01*
X14232000Y75279167D01*
X14184381Y75183929D01*
X14184381Y74993452D01*
X14232000Y74898214D01*
X14327238Y74802976D01*
X14517714Y74755357D01*
X14851048Y74755357D01*
X15041524Y74802976D01*
X15136762Y74898214D01*
X15184381Y74993452D01*
X15184381Y75183929D01*
X14279619Y74374405D02*
X14232000Y74326786D01*
X14184381Y74231548D01*
X14184381Y73993452D01*
X14232000Y73898214D01*
X14279619Y73850595D01*
X14374857Y73802976D01*
X14470095Y73802976D01*
X14612952Y73850595D01*
X15184381Y74422024D01*
X15184381Y73802976D01*
X24963381Y61253666D02*
X24487190Y61587000D01*
X24963381Y61825095D02*
X23963381Y61825095D01*
X23963381Y61444142D01*
X24011000Y61348904D01*
X24058619Y61301285D01*
X24153857Y61253666D01*
X24296714Y61253666D01*
X24391952Y61301285D01*
X24439571Y61348904D01*
X24487190Y61444142D01*
X24487190Y61825095D01*
X24963381Y60301285D02*
X24963381Y60872714D01*
X24963381Y60587000D02*
X23963381Y60587000D01*
X24106238Y60682238D01*
X24201476Y60777476D01*
X24249095Y60872714D01*
X25153881Y64365166D02*
X24677690Y64698500D01*
X25153881Y64936595D02*
X24153881Y64936595D01*
X24153881Y64555642D01*
X24201500Y64460404D01*
X24249119Y64412785D01*
X24344357Y64365166D01*
X24487214Y64365166D01*
X24582452Y64412785D01*
X24630071Y64460404D01*
X24677690Y64555642D01*
X24677690Y64936595D01*
X24249119Y63984214D02*
X24201500Y63936595D01*
X24153881Y63841357D01*
X24153881Y63603261D01*
X24201500Y63508023D01*
X24249119Y63460404D01*
X24344357Y63412785D01*
X24439595Y63412785D01*
X24582452Y63460404D01*
X25153881Y64031833D01*
X25153881Y63412785D01*
X24963381Y58142166D02*
X24487190Y58475500D01*
X24963381Y58713595D02*
X23963381Y58713595D01*
X23963381Y58332642D01*
X24011000Y58237404D01*
X24058619Y58189785D01*
X24153857Y58142166D01*
X24296714Y58142166D01*
X24391952Y58189785D01*
X24439571Y58237404D01*
X24487190Y58332642D01*
X24487190Y58713595D01*
X23963381Y57808833D02*
X23963381Y57189785D01*
X24344333Y57523119D01*
X24344333Y57380261D01*
X24391952Y57285023D01*
X24439571Y57237404D01*
X24534810Y57189785D01*
X24772905Y57189785D01*
X24868143Y57237404D01*
X24915762Y57285023D01*
X24963381Y57380261D01*
X24963381Y57665976D01*
X24915762Y57761214D01*
X24868143Y57808833D01*
X7691381Y58586666D02*
X7215190Y58920000D01*
X7691381Y59158095D02*
X6691381Y59158095D01*
X6691381Y58777142D01*
X6739000Y58681904D01*
X6786619Y58634285D01*
X6881857Y58586666D01*
X7024714Y58586666D01*
X7119952Y58634285D01*
X7167571Y58681904D01*
X7215190Y58777142D01*
X7215190Y59158095D01*
X7024714Y57729523D02*
X7691381Y57729523D01*
X6643762Y57967619D02*
X7358048Y58205714D01*
X7358048Y57586666D01*
X4929166Y54983119D02*
X5262500Y55459310D01*
X5500595Y54983119D02*
X5500595Y55983119D01*
X5119642Y55983119D01*
X5024404Y55935500D01*
X4976785Y55887881D01*
X4929166Y55792643D01*
X4929166Y55649786D01*
X4976785Y55554548D01*
X5024404Y55506929D01*
X5119642Y55459310D01*
X5500595Y55459310D01*
X4024404Y55983119D02*
X4500595Y55983119D01*
X4548214Y55506929D01*
X4500595Y55554548D01*
X4405357Y55602167D01*
X4167261Y55602167D01*
X4072023Y55554548D01*
X4024404Y55506929D01*
X3976785Y55411690D01*
X3976785Y55173595D01*
X4024404Y55078357D01*
X4072023Y55030738D01*
X4167261Y54983119D01*
X4405357Y54983119D01*
X4500595Y55030738D01*
X4548214Y55078357D01*
X7627881Y61253666D02*
X7151690Y61587000D01*
X7627881Y61825095D02*
X6627881Y61825095D01*
X6627881Y61444142D01*
X6675500Y61348904D01*
X6723119Y61301285D01*
X6818357Y61253666D01*
X6961214Y61253666D01*
X7056452Y61301285D01*
X7104071Y61348904D01*
X7151690Y61444142D01*
X7151690Y61825095D01*
X6627881Y60396523D02*
X6627881Y60587000D01*
X6675500Y60682238D01*
X6723119Y60729857D01*
X6865976Y60825095D01*
X7056452Y60872714D01*
X7437405Y60872714D01*
X7532643Y60825095D01*
X7580262Y60777476D01*
X7627881Y60682238D01*
X7627881Y60491761D01*
X7580262Y60396523D01*
X7532643Y60348904D01*
X7437405Y60301285D01*
X7199310Y60301285D01*
X7104071Y60348904D01*
X7056452Y60396523D01*
X7008833Y60491761D01*
X7008833Y60682238D01*
X7056452Y60777476D01*
X7104071Y60825095D01*
X7199310Y60872714D01*
X5881666Y65333619D02*
X6215000Y65809810D01*
X6453095Y65333619D02*
X6453095Y66333619D01*
X6072142Y66333619D01*
X5976904Y66286000D01*
X5929285Y66238381D01*
X5881666Y66143143D01*
X5881666Y66000286D01*
X5929285Y65905048D01*
X5976904Y65857429D01*
X6072142Y65809810D01*
X6453095Y65809810D01*
X5548333Y66333619D02*
X4881666Y66333619D01*
X5310238Y65333619D01*
X12072881Y61317166D02*
X11596690Y61650500D01*
X12072881Y61888595D02*
X11072881Y61888595D01*
X11072881Y61507642D01*
X11120500Y61412404D01*
X11168119Y61364785D01*
X11263357Y61317166D01*
X11406214Y61317166D01*
X11501452Y61364785D01*
X11549071Y61412404D01*
X11596690Y61507642D01*
X11596690Y61888595D01*
X11501452Y60745738D02*
X11453833Y60840976D01*
X11406214Y60888595D01*
X11310976Y60936214D01*
X11263357Y60936214D01*
X11168119Y60888595D01*
X11120500Y60840976D01*
X11072881Y60745738D01*
X11072881Y60555261D01*
X11120500Y60460023D01*
X11168119Y60412404D01*
X11263357Y60364785D01*
X11310976Y60364785D01*
X11406214Y60412404D01*
X11453833Y60460023D01*
X11501452Y60555261D01*
X11501452Y60745738D01*
X11549071Y60840976D01*
X11596690Y60888595D01*
X11691929Y60936214D01*
X11882405Y60936214D01*
X11977643Y60888595D01*
X12025262Y60840976D01*
X12072881Y60745738D01*
X12072881Y60555261D01*
X12025262Y60460023D01*
X11977643Y60412404D01*
X11882405Y60364785D01*
X11691929Y60364785D01*
X11596690Y60412404D01*
X11549071Y60460023D01*
X11501452Y60555261D01*
X12072881Y58713666D02*
X11596690Y59047000D01*
X12072881Y59285095D02*
X11072881Y59285095D01*
X11072881Y58904142D01*
X11120500Y58808904D01*
X11168119Y58761285D01*
X11263357Y58713666D01*
X11406214Y58713666D01*
X11501452Y58761285D01*
X11549071Y58808904D01*
X11596690Y58904142D01*
X11596690Y59285095D01*
X12072881Y58237476D02*
X12072881Y58047000D01*
X12025262Y57951761D01*
X11977643Y57904142D01*
X11834786Y57808904D01*
X11644310Y57761285D01*
X11263357Y57761285D01*
X11168119Y57808904D01*
X11120500Y57856523D01*
X11072881Y57951761D01*
X11072881Y58142238D01*
X11120500Y58237476D01*
X11168119Y58285095D01*
X11263357Y58332714D01*
X11501452Y58332714D01*
X11596690Y58285095D01*
X11644310Y58237476D01*
X11691929Y58142238D01*
X11691929Y57951761D01*
X11644310Y57856523D01*
X11596690Y57808904D01*
X11501452Y57761285D01*
X12644357Y70413619D02*
X12977691Y70889810D01*
X13215786Y70413619D02*
X13215786Y71413619D01*
X12834833Y71413619D01*
X12739595Y71366000D01*
X12691976Y71318381D01*
X12644357Y71223143D01*
X12644357Y71080286D01*
X12691976Y70985048D01*
X12739595Y70937429D01*
X12834833Y70889810D01*
X13215786Y70889810D01*
X11691976Y70413619D02*
X12263405Y70413619D01*
X11977691Y70413619D02*
X11977691Y71413619D01*
X12072929Y71270762D01*
X12168167Y71175524D01*
X12263405Y71127905D01*
X11072929Y71413619D02*
X10977690Y71413619D01*
X10882452Y71366000D01*
X10834833Y71318381D01*
X10787214Y71223143D01*
X10739595Y71032667D01*
X10739595Y70794571D01*
X10787214Y70604095D01*
X10834833Y70508857D01*
X10882452Y70461238D01*
X10977690Y70413619D01*
X11072929Y70413619D01*
X11168167Y70461238D01*
X11215786Y70508857D01*
X11263405Y70604095D01*
X11311024Y70794571D01*
X11311024Y71032667D01*
X11263405Y71223143D01*
X11215786Y71318381D01*
X11168167Y71366000D01*
X11072929Y71413619D01*
X6103857Y70667619D02*
X6437191Y71143810D01*
X6675286Y70667619D02*
X6675286Y71667619D01*
X6294333Y71667619D01*
X6199095Y71620000D01*
X6151476Y71572381D01*
X6103857Y71477143D01*
X6103857Y71334286D01*
X6151476Y71239048D01*
X6199095Y71191429D01*
X6294333Y71143810D01*
X6675286Y71143810D01*
X5151476Y70667619D02*
X5722905Y70667619D01*
X5437191Y70667619D02*
X5437191Y71667619D01*
X5532429Y71524762D01*
X5627667Y71429524D01*
X5722905Y71381905D01*
X4199095Y70667619D02*
X4770524Y70667619D01*
X4484810Y70667619D02*
X4484810Y71667619D01*
X4580048Y71524762D01*
X4675286Y71429524D01*
X4770524Y71381905D01*
X14930357Y46474119D02*
X15263691Y46950310D01*
X15501786Y46474119D02*
X15501786Y47474119D01*
X15120833Y47474119D01*
X15025595Y47426500D01*
X14977976Y47378881D01*
X14930357Y47283643D01*
X14930357Y47140786D01*
X14977976Y47045548D01*
X15025595Y46997929D01*
X15120833Y46950310D01*
X15501786Y46950310D01*
X13977976Y46474119D02*
X14549405Y46474119D01*
X14263691Y46474119D02*
X14263691Y47474119D01*
X14358929Y47331262D01*
X14454167Y47236024D01*
X14549405Y47188405D01*
X13644643Y47474119D02*
X13025595Y47474119D01*
X13358929Y47093167D01*
X13216071Y47093167D01*
X13120833Y47045548D01*
X13073214Y46997929D01*
X13025595Y46902690D01*
X13025595Y46664595D01*
X13073214Y46569357D01*
X13120833Y46521738D01*
X13216071Y46474119D01*
X13501786Y46474119D01*
X13597024Y46521738D01*
X13644643Y46569357D01*
X22423357Y75811119D02*
X22756691Y76287310D01*
X22994786Y75811119D02*
X22994786Y76811119D01*
X22613833Y76811119D01*
X22518595Y76763500D01*
X22470976Y76715881D01*
X22423357Y76620643D01*
X22423357Y76477786D01*
X22470976Y76382548D01*
X22518595Y76334929D01*
X22613833Y76287310D01*
X22994786Y76287310D01*
X21470976Y75811119D02*
X22042405Y75811119D01*
X21756691Y75811119D02*
X21756691Y76811119D01*
X21851929Y76668262D01*
X21947167Y76573024D01*
X22042405Y76525405D01*
X20613833Y76477786D02*
X20613833Y75811119D01*
X20851929Y76858738D02*
X21090024Y76144452D01*
X20470976Y76144452D01*
X21153357Y46347119D02*
X21486691Y46823310D01*
X21724786Y46347119D02*
X21724786Y47347119D01*
X21343833Y47347119D01*
X21248595Y47299500D01*
X21200976Y47251881D01*
X21153357Y47156643D01*
X21153357Y47013786D01*
X21200976Y46918548D01*
X21248595Y46870929D01*
X21343833Y46823310D01*
X21724786Y46823310D01*
X20200976Y46347119D02*
X20772405Y46347119D01*
X20486691Y46347119D02*
X20486691Y47347119D01*
X20581929Y47204262D01*
X20677167Y47109024D01*
X20772405Y47061405D01*
X19343833Y47347119D02*
X19534310Y47347119D01*
X19629548Y47299500D01*
X19677167Y47251881D01*
X19772405Y47109024D01*
X19820024Y46918548D01*
X19820024Y46537595D01*
X19772405Y46442357D01*
X19724786Y46394738D01*
X19629548Y46347119D01*
X19439071Y46347119D01*
X19343833Y46394738D01*
X19296214Y46442357D01*
X19248595Y46537595D01*
X19248595Y46775690D01*
X19296214Y46870929D01*
X19343833Y46918548D01*
X19439071Y46966167D01*
X19629548Y46966167D01*
X19724786Y46918548D01*
X19772405Y46870929D01*
X19820024Y46775690D01*
M02*
