G04 #@! TF.FileFunction,Soldermask,Top*
%FSLAX46Y46*%
G04 Gerber Fmt 4.6, Leading zero omitted, Abs format (unit mm)*
G04 Created by KiCad (PCBNEW 4.0.2+e4-6225~38~ubuntu16.04.1-stable) date Tue 21 Jun 2016 12:08:32 PM HKT*
%MOMM*%
G01*
G04 APERTURE LIST*
%ADD10C,0.100000*%
%ADD11C,3.500120*%
%ADD12C,1.879600*%
%ADD13R,1.600000X1.600000*%
%ADD14C,1.600000*%
%ADD15C,1.300000*%
%ADD16R,1.300000X1.300000*%
%ADD17R,2.000000X2.000000*%
%ADD18C,2.000000*%
%ADD19R,2.032000X1.727200*%
%ADD20O,2.032000X1.727200*%
%ADD21R,1.930400X1.930400*%
%ADD22C,1.930400*%
%ADD23C,1.998980*%
%ADD24C,2.500000*%
%ADD25R,2.500000X2.500000*%
%ADD26R,1.998980X0.899160*%
%ADD27R,1.998980X1.000760*%
%ADD28O,3.500120X1.699260*%
%ADD29R,2.032000X2.032000*%
%ADD30O,2.032000X2.032000*%
G04 APERTURE END LIST*
D10*
D11*
X10922000Y41910000D03*
D12*
X23418800Y6134600D03*
X29921200Y6134600D03*
X23418800Y1613400D03*
X29921200Y1613400D03*
X11226800Y6197600D03*
X17729200Y6197600D03*
X11226800Y1676400D03*
X17729200Y1676400D03*
D13*
X21387000Y34239200D03*
D14*
X6387000Y34239200D03*
D15*
X10002000Y23749000D03*
D16*
X6502000Y23749000D03*
D17*
X17450000Y22072600D03*
D18*
X14910000Y22072600D03*
D19*
X1854000Y27838400D03*
D20*
X1854000Y25298400D03*
X1854000Y22758400D03*
X1854000Y20218400D03*
D19*
X1842000Y16383000D03*
D20*
X1842000Y13843000D03*
X1842000Y11303000D03*
X1842000Y8763000D03*
D11*
X16510000Y41910000D03*
X21590000Y41910000D03*
X7366000Y41910000D03*
D21*
X1905000Y2794000D03*
D22*
X4445000Y2794000D03*
X6985000Y2794000D03*
D23*
X2946000Y41818560D03*
X2946000Y36817300D03*
D24*
X26619000Y21430000D03*
D25*
X26619000Y11430000D03*
D24*
X26619000Y16430000D03*
D26*
X4582160Y13764260D03*
D27*
X4582160Y16413480D03*
X12181840Y16413480D03*
X12181840Y13812520D03*
D26*
X12181840Y11381740D03*
D27*
X12181840Y8732520D03*
X4582160Y8732520D03*
X4582160Y11333480D03*
D28*
X28067000Y38989000D03*
X28067000Y41529000D03*
X28067000Y36449000D03*
D29*
X27940000Y29210000D03*
D30*
X27940000Y26670000D03*
D23*
X24638000Y42418000D03*
X24638000Y32258000D03*
M02*
