G04 #@! TF.FileFunction,Legend,Top*
%FSLAX46Y46*%
G04 Gerber Fmt 4.6, Leading zero omitted, Abs format (unit mm)*
G04 Created by KiCad (PCBNEW 4.0.2+e4-6225~38~ubuntu16.04.1-stable) date Tue 21 Jun 2016 12:08:32 PM HKT*
%MOMM*%
G01*
G04 APERTURE LIST*
%ADD10C,0.100000*%
%ADD11C,0.200000*%
%ADD12C,0.203200*%
%ADD13C,0.150000*%
%ADD14C,0.127000*%
%ADD15C,0.406400*%
G04 APERTURE END LIST*
D10*
D11*
X21272500Y10985500D02*
X21018500Y10731500D01*
X21272500Y10985500D02*
X21018500Y11239500D01*
X21272500Y16256000D02*
X21018500Y16002000D01*
X21272500Y16256000D02*
X21018500Y16510000D01*
X21272500Y22161500D02*
X20955000Y21844000D01*
X21209000Y22161500D02*
X20891500Y22479000D01*
X19221405Y13131857D02*
X18840452Y12865190D01*
X19221405Y12674714D02*
X18421405Y12674714D01*
X18421405Y12979476D01*
X18459500Y13055667D01*
X18497595Y13093762D01*
X18573786Y13131857D01*
X18688071Y13131857D01*
X18764262Y13093762D01*
X18802357Y13055667D01*
X18840452Y12979476D01*
X18840452Y12674714D01*
X18421405Y13360428D02*
X18421405Y13817571D01*
X19221405Y13589000D02*
X18421405Y13589000D01*
X19221405Y14084238D02*
X18421405Y14084238D01*
X18421405Y14274714D01*
X18459500Y14389000D01*
X18535690Y14465191D01*
X18611881Y14503286D01*
X18764262Y14541381D01*
X18878548Y14541381D01*
X19030929Y14503286D01*
X19107119Y14465191D01*
X19183310Y14389000D01*
X19221405Y14274714D01*
X19221405Y14084238D01*
X21082000Y20193000D02*
X21082000Y20764500D01*
X18351500Y17462500D02*
X18351500Y16637000D01*
X21082000Y20193000D02*
X18351500Y17462500D01*
X20447000Y16256000D02*
X21145500Y16256000D01*
X19812000Y16891000D02*
X20447000Y16256000D01*
X19748500Y10985500D02*
X21145500Y10985500D01*
X19748500Y16954500D02*
X19748500Y10985500D01*
X20574000Y20320000D02*
X19685000Y20320000D01*
X20574000Y16891000D02*
X20574000Y20320000D01*
X18859500Y16891000D02*
X20574000Y16891000D01*
X18859500Y20320000D02*
X18859500Y16891000D01*
X19748500Y20320000D02*
X18859500Y20320000D01*
X19748500Y22161500D02*
X19748500Y20320000D01*
X21272500Y22161500D02*
X19748500Y22161500D01*
X30487929Y26289048D02*
X30487929Y27050953D01*
X30487929Y28765548D02*
X30487929Y29527453D01*
X30868881Y29146501D02*
X30106976Y29146501D01*
X26269905Y25476405D02*
X25469905Y25476405D01*
X25469905Y25666881D01*
X25508000Y25781167D01*
X25584190Y25857358D01*
X25660381Y25895453D01*
X25812762Y25933548D01*
X25927048Y25933548D01*
X26079429Y25895453D01*
X26155619Y25857358D01*
X26231810Y25781167D01*
X26269905Y25666881D01*
X26269905Y25476405D01*
X26193714Y26733548D02*
X26231810Y26695453D01*
X26269905Y26581167D01*
X26269905Y26504977D01*
X26231810Y26390691D01*
X26155619Y26314500D01*
X26079429Y26276405D01*
X25927048Y26238310D01*
X25812762Y26238310D01*
X25660381Y26276405D01*
X25584190Y26314500D01*
X25508000Y26390691D01*
X25469905Y26504977D01*
X25469905Y26581167D01*
X25508000Y26695453D01*
X25546095Y26733548D01*
X25469905Y28066882D02*
X25469905Y27685929D01*
X25850857Y27647834D01*
X25812762Y27685929D01*
X25774667Y27762120D01*
X25774667Y27952596D01*
X25812762Y28028786D01*
X25850857Y28066882D01*
X25927048Y28104977D01*
X26117524Y28104977D01*
X26193714Y28066882D01*
X26231810Y28028786D01*
X26269905Y27952596D01*
X26269905Y27762120D01*
X26231810Y27685929D01*
X26193714Y27647834D01*
X25469905Y28333548D02*
X26269905Y28600215D01*
X25469905Y28866882D01*
X14522405Y41503715D02*
X14522405Y41122762D01*
X13722405Y41122762D01*
X13722405Y41922762D02*
X13722405Y42075143D01*
X13760500Y42151334D01*
X13836690Y42227524D01*
X13989071Y42265619D01*
X14255738Y42265619D01*
X14408119Y42227524D01*
X14484310Y42151334D01*
X14522405Y42075143D01*
X14522405Y41922762D01*
X14484310Y41846572D01*
X14408119Y41770381D01*
X14255738Y41732286D01*
X13989071Y41732286D01*
X13836690Y41770381D01*
X13760500Y41846572D01*
X13722405Y41922762D01*
X14293833Y42570381D02*
X14293833Y42951333D01*
X14522405Y42494190D02*
X13722405Y42760857D01*
X14522405Y43027524D01*
X14522405Y43294190D02*
X13722405Y43294190D01*
X13722405Y43484666D01*
X13760500Y43598952D01*
X13836690Y43675143D01*
X13912881Y43713238D01*
X14065262Y43751333D01*
X14179548Y43751333D01*
X14331929Y43713238D01*
X14408119Y43675143D01*
X14484310Y43598952D01*
X14522405Y43484666D01*
X14522405Y43294190D01*
X19932620Y43072095D02*
X19551667Y43072095D01*
X19551667Y43872095D01*
X5295929Y43199095D02*
X5295929Y43999095D01*
X5753072Y43199095D01*
X5753072Y43999095D01*
X8915429Y43199095D02*
X8915429Y43999095D01*
X9372572Y43199095D01*
X9372572Y43999095D01*
X15068667Y19196095D02*
X15068667Y19996095D01*
X15373429Y19996095D01*
X15449620Y19958000D01*
X15487715Y19919905D01*
X15525810Y19843714D01*
X15525810Y19729429D01*
X15487715Y19653238D01*
X15449620Y19615143D01*
X15373429Y19577048D01*
X15068667Y19577048D01*
X15830572Y19424667D02*
X16211524Y19424667D01*
X15754381Y19196095D02*
X16021048Y19996095D01*
X16287715Y19196095D01*
X16973429Y19196095D02*
X16516286Y19196095D01*
X16744857Y19196095D02*
X16744857Y19996095D01*
X16668667Y19881810D01*
X16592476Y19805619D01*
X16516286Y19767524D01*
X3829214Y27514595D02*
X3829214Y28314595D01*
X4286357Y27514595D01*
X4286357Y28314595D01*
X5124452Y27514595D02*
X4857785Y27895548D01*
X4667309Y27514595D02*
X4667309Y28314595D01*
X4972071Y28314595D01*
X5048262Y28276500D01*
X5086357Y28238405D01*
X5124452Y28162214D01*
X5124452Y28047929D01*
X5086357Y27971738D01*
X5048262Y27933643D01*
X4972071Y27895548D01*
X4667309Y27895548D01*
X5429214Y27552690D02*
X5543500Y27514595D01*
X5733976Y27514595D01*
X5810166Y27552690D01*
X5848262Y27590786D01*
X5886357Y27666976D01*
X5886357Y27743167D01*
X5848262Y27819357D01*
X5810166Y27857452D01*
X5733976Y27895548D01*
X5581595Y27933643D01*
X5505404Y27971738D01*
X5467309Y28009833D01*
X5429214Y28086024D01*
X5429214Y28162214D01*
X5467309Y28238405D01*
X5505404Y28276500D01*
X5581595Y28314595D01*
X5772071Y28314595D01*
X5886357Y28276500D01*
X6114928Y28314595D02*
X6572071Y28314595D01*
X6343500Y27514595D02*
X6343500Y28314595D01*
X3638738Y28452500D02*
X6648262Y28452500D01*
X4070310Y24193667D02*
X4108405Y24307953D01*
X4108405Y24498429D01*
X4070310Y24574619D01*
X4032214Y24612715D01*
X3956024Y24650810D01*
X3879833Y24650810D01*
X3803643Y24612715D01*
X3765548Y24574619D01*
X3727452Y24498429D01*
X3689357Y24346048D01*
X3651262Y24269857D01*
X3613167Y24231762D01*
X3536976Y24193667D01*
X3460786Y24193667D01*
X3384595Y24231762D01*
X3346500Y24269857D01*
X3308405Y24346048D01*
X3308405Y24536524D01*
X3346500Y24650810D01*
X3308405Y24917477D02*
X4108405Y25107953D01*
X3536976Y25260334D01*
X4108405Y25412715D01*
X3308405Y25603191D01*
X4108405Y25907953D02*
X3308405Y25907953D01*
X4108405Y26288905D02*
X3308405Y26288905D01*
X3879833Y26555572D01*
X3308405Y26822239D01*
X4108405Y26822239D01*
X3346500Y21361477D02*
X3308405Y21285286D01*
X3308405Y21171001D01*
X3346500Y21056715D01*
X3422690Y20980524D01*
X3498881Y20942429D01*
X3651262Y20904334D01*
X3765548Y20904334D01*
X3917929Y20942429D01*
X3994119Y20980524D01*
X4070310Y21056715D01*
X4108405Y21171001D01*
X4108405Y21247191D01*
X4070310Y21361477D01*
X4032214Y21399572D01*
X3765548Y21399572D01*
X3765548Y21247191D01*
X4108405Y21742429D02*
X3308405Y21742429D01*
X4108405Y22199572D01*
X3308405Y22199572D01*
X4108405Y22580524D02*
X3308405Y22580524D01*
X3308405Y22771000D01*
X3346500Y22885286D01*
X3422690Y22961477D01*
X3498881Y22999572D01*
X3651262Y23037667D01*
X3765548Y23037667D01*
X3917929Y22999572D01*
X3994119Y22961477D01*
X4070310Y22885286D01*
X4108405Y22771000D01*
X4108405Y22580524D01*
X3568833Y19678595D02*
X3835500Y18878595D01*
X4102167Y19678595D01*
X4825976Y18954786D02*
X4787881Y18916690D01*
X4673595Y18878595D01*
X4597405Y18878595D01*
X4483119Y18916690D01*
X4406928Y18992881D01*
X4368833Y19069071D01*
X4330738Y19221452D01*
X4330738Y19335738D01*
X4368833Y19488119D01*
X4406928Y19564310D01*
X4483119Y19640500D01*
X4597405Y19678595D01*
X4673595Y19678595D01*
X4787881Y19640500D01*
X4825976Y19602405D01*
X5625976Y18954786D02*
X5587881Y18916690D01*
X5473595Y18878595D01*
X5397405Y18878595D01*
X5283119Y18916690D01*
X5206928Y18992881D01*
X5168833Y19069071D01*
X5130738Y19221452D01*
X5130738Y19335738D01*
X5168833Y19488119D01*
X5206928Y19564310D01*
X5283119Y19640500D01*
X5397405Y19678595D01*
X5473595Y19678595D01*
X5587881Y19640500D01*
X5625976Y19602405D01*
X3568833Y15424095D02*
X3835500Y14624095D01*
X4102167Y15424095D01*
X4825976Y14700286D02*
X4787881Y14662190D01*
X4673595Y14624095D01*
X4597405Y14624095D01*
X4483119Y14662190D01*
X4406928Y14738381D01*
X4368833Y14814571D01*
X4330738Y14966952D01*
X4330738Y15081238D01*
X4368833Y15233619D01*
X4406928Y15309810D01*
X4483119Y15386000D01*
X4597405Y15424095D01*
X4673595Y15424095D01*
X4787881Y15386000D01*
X4825976Y15347905D01*
X5625976Y14700286D02*
X5587881Y14662190D01*
X5473595Y14624095D01*
X5397405Y14624095D01*
X5283119Y14662190D01*
X5206928Y14738381D01*
X5168833Y14814571D01*
X5130738Y14966952D01*
X5130738Y15081238D01*
X5168833Y15233619D01*
X5206928Y15309810D01*
X5283119Y15386000D01*
X5397405Y15424095D01*
X5473595Y15424095D01*
X5587881Y15386000D01*
X5625976Y15347905D01*
X3994167Y12147595D02*
X3727500Y12528548D01*
X3537024Y12147595D02*
X3537024Y12947595D01*
X3841786Y12947595D01*
X3917977Y12909500D01*
X3956072Y12871405D01*
X3994167Y12795214D01*
X3994167Y12680929D01*
X3956072Y12604738D01*
X3917977Y12566643D01*
X3841786Y12528548D01*
X3537024Y12528548D01*
X4260834Y12947595D02*
X4794167Y12147595D01*
X4794167Y12947595D02*
X4260834Y12147595D01*
X3390976Y10534595D02*
X3848119Y10534595D01*
X3619548Y9734595D02*
X3619548Y10534595D01*
X4038596Y10534595D02*
X4571929Y9734595D01*
X4571929Y10534595D02*
X4038596Y9734595D01*
X3898977Y7893000D02*
X3822786Y7931095D01*
X3708501Y7931095D01*
X3594215Y7893000D01*
X3518024Y7816810D01*
X3479929Y7740619D01*
X3441834Y7588238D01*
X3441834Y7473952D01*
X3479929Y7321571D01*
X3518024Y7245381D01*
X3594215Y7169190D01*
X3708501Y7131095D01*
X3784691Y7131095D01*
X3898977Y7169190D01*
X3937072Y7207286D01*
X3937072Y7473952D01*
X3784691Y7473952D01*
X4279929Y7131095D02*
X4279929Y7931095D01*
X4737072Y7131095D01*
X4737072Y7931095D01*
X5118024Y7131095D02*
X5118024Y7931095D01*
X5308500Y7931095D01*
X5422786Y7893000D01*
X5498977Y7816810D01*
X5537072Y7740619D01*
X5575167Y7588238D01*
X5575167Y7473952D01*
X5537072Y7321571D01*
X5498977Y7245381D01*
X5422786Y7169190D01*
X5308500Y7131095D01*
X5118024Y7131095D01*
D12*
X28829000Y6922000D02*
X24511000Y6922000D01*
X24511000Y826000D02*
X28829000Y826000D01*
X29718000Y4872000D02*
X29718000Y2858000D01*
X23622000Y4902000D02*
X23622000Y2858000D01*
X28448000Y3874000D02*
G75*
G03X28448000Y3874000I-1778000J0D01*
G01*
X16637000Y6985000D02*
X12319000Y6985000D01*
X12319000Y889000D02*
X16637000Y889000D01*
X17526000Y4935000D02*
X17526000Y2921000D01*
X11430000Y4965000D02*
X11430000Y2921000D01*
X16256000Y3937000D02*
G75*
G03X16256000Y3937000I-1778000J0D01*
G01*
D13*
X22887000Y28739200D02*
X4887000Y28739200D01*
X4887000Y28739200D02*
X4887000Y39739200D01*
X4887000Y39739200D02*
X22887000Y39739200D01*
X22887000Y39739200D02*
X22887000Y28739200D01*
X8327000Y27748000D02*
X8327000Y19750000D01*
X8467000Y27743000D02*
X8467000Y19755000D01*
X8607000Y27733000D02*
X8607000Y19765000D01*
X8747000Y27718000D02*
X8747000Y19780000D01*
X8887000Y27698000D02*
X8887000Y19800000D01*
X9027000Y27673000D02*
X9027000Y23971000D01*
X9027000Y23527000D02*
X9027000Y19825000D01*
X9167000Y27643000D02*
X9167000Y24299000D01*
X9167000Y23199000D02*
X9167000Y19855000D01*
X9307000Y27607000D02*
X9307000Y24468000D01*
X9307000Y23030000D02*
X9307000Y19891000D01*
X9447000Y27566000D02*
X9447000Y24581000D01*
X9447000Y22917000D02*
X9447000Y19932000D01*
X9587000Y27520000D02*
X9587000Y24659000D01*
X9587000Y22839000D02*
X9587000Y19978000D01*
X9727000Y27467000D02*
X9727000Y24710000D01*
X9727000Y22788000D02*
X9727000Y20031000D01*
X9867000Y27408000D02*
X9867000Y24740000D01*
X9867000Y22758000D02*
X9867000Y20090000D01*
X10007000Y27343000D02*
X10007000Y24749000D01*
X10007000Y22749000D02*
X10007000Y20155000D01*
X10147000Y27272000D02*
X10147000Y24738000D01*
X10147000Y22760000D02*
X10147000Y20226000D01*
X10287000Y27193000D02*
X10287000Y24708000D01*
X10287000Y22790000D02*
X10287000Y20305000D01*
X10427000Y27106000D02*
X10427000Y24654000D01*
X10427000Y22844000D02*
X10427000Y20392000D01*
X10567000Y27011000D02*
X10567000Y24574000D01*
X10567000Y22924000D02*
X10567000Y20487000D01*
X10707000Y26907000D02*
X10707000Y24458000D01*
X10707000Y23040000D02*
X10707000Y20591000D01*
X10847000Y26793000D02*
X10847000Y24284000D01*
X10847000Y23214000D02*
X10847000Y20705000D01*
X10987000Y26668000D02*
X10987000Y23922000D01*
X10987000Y23576000D02*
X10987000Y20830000D01*
X11127000Y26530000D02*
X11127000Y20968000D01*
X11267000Y26378000D02*
X11267000Y21120000D01*
X11407000Y26208000D02*
X11407000Y21290000D01*
X11547000Y26017000D02*
X11547000Y21481000D01*
X11687000Y25799000D02*
X11687000Y21699000D01*
X11827000Y25543000D02*
X11827000Y21955000D01*
X11967000Y25232000D02*
X11967000Y22266000D01*
X12107000Y24816000D02*
X12107000Y22682000D01*
X12247000Y23949000D02*
X12247000Y23549000D01*
X11002000Y23749000D02*
G75*
G03X11002000Y23749000I-1000000J0D01*
G01*
X12289500Y23749000D02*
G75*
G03X12289500Y23749000I-4037500J0D01*
G01*
X17649000Y23386600D02*
X17649000Y23186600D01*
X17649000Y20792600D02*
X17649000Y20972600D01*
X14421256Y21102957D02*
G75*
G03X17649000Y20786600I1727744J1003643D01*
G01*
X15096994Y20973532D02*
G75*
G03X17200000Y20972600I1052006J1133068D01*
G01*
X17636220Y23413326D02*
G75*
G03X14399000Y23066600I-1497220J-1306726D01*
G01*
X17162889Y23185853D02*
G75*
G03X15115000Y23166600I-1013889J-1079253D01*
G01*
X584000Y26568400D02*
X584000Y18948400D01*
X3124000Y26568400D02*
X3124000Y18948400D01*
X3404000Y29388400D02*
X3404000Y27838400D01*
X584000Y18948400D02*
X3124000Y18948400D01*
X3124000Y26568400D02*
X584000Y26568400D01*
X304000Y27838400D02*
X304000Y29388400D01*
X304000Y29388400D02*
X3404000Y29388400D01*
X572000Y15113000D02*
X572000Y7493000D01*
X3112000Y15113000D02*
X3112000Y7493000D01*
X3392000Y17933000D02*
X3392000Y16383000D01*
X572000Y7493000D02*
X3112000Y7493000D01*
X3112000Y15113000D02*
X572000Y15113000D01*
X292000Y16383000D02*
X292000Y17933000D01*
X292000Y17933000D02*
X3392000Y17933000D01*
D14*
X635000Y1524000D02*
X1905000Y1524000D01*
D15*
X1905000Y1524000D02*
X6985000Y1524000D01*
D14*
X6985000Y1524000D02*
X8255000Y1524000D01*
X8255000Y1524000D02*
X8255000Y4064000D01*
X8255000Y4064000D02*
X635000Y4064000D01*
X635000Y4064000D02*
X635000Y1524000D01*
D15*
X1905000Y1524000D02*
G75*
G03X6985000Y1524000I2540000J1693200D01*
G01*
D13*
X2946000Y39418260D02*
X2946000Y38417500D01*
X5445360Y41818560D02*
G75*
G03X5445360Y41818560I-2499360J0D01*
G01*
X28719000Y21430000D02*
G75*
G03X28719000Y21430000I-2000000J0D01*
G01*
X30719000Y18930000D02*
X31219000Y18930000D01*
X30719000Y13930000D02*
X31219000Y13930000D01*
X28719000Y16430000D02*
G75*
G03X28719000Y16430000I-2000000J0D01*
G01*
X28719000Y11430000D02*
G75*
G03X28719000Y11430000I-2000000J0D01*
G01*
X29219000Y8930000D02*
X29219000Y23930000D01*
X24319000Y8930000D02*
X24319000Y23930000D01*
X30719000Y8930000D02*
X30719000Y23930000D01*
X31219000Y8930000D02*
X31219000Y23930000D01*
X31219000Y23930000D02*
X21419000Y23930000D01*
X21419000Y23930000D02*
X21419000Y8930000D01*
X21419000Y8930000D02*
X31219000Y8930000D01*
X6880860Y16913860D02*
X6880860Y16212820D01*
X6880860Y16212820D02*
X6080760Y16212820D01*
X10683240Y16913860D02*
X6080760Y16913860D01*
X6080760Y16913860D02*
X6080760Y13312140D01*
X6080760Y13312140D02*
X10683240Y13312140D01*
X10683240Y13312140D02*
X10683240Y16913860D01*
X9883140Y8232140D02*
X9883140Y8933180D01*
X9883140Y8933180D02*
X10683240Y8933180D01*
X6080760Y8232140D02*
X10683240Y8232140D01*
X10683240Y8232140D02*
X10683240Y11833860D01*
X10683240Y11833860D02*
X6080760Y11833860D01*
X6080760Y11833860D02*
X6080760Y8232140D01*
X29972000Y33655000D02*
X29972000Y35560000D01*
X29972000Y38100000D02*
X29972000Y37338000D01*
X29972000Y40513000D02*
X29972000Y40640000D01*
X29972000Y40513000D02*
X29972000Y39878000D01*
X29972000Y44323000D02*
X29972000Y42545000D01*
X26289000Y44323000D02*
X26289000Y42672000D01*
X26162000Y40005000D02*
X26162000Y40640000D01*
X26162000Y37465000D02*
X26162000Y38100000D01*
X26289000Y33655000D02*
X26289000Y35306000D01*
X31115000Y40513000D02*
X29972000Y40513000D01*
X31115000Y37465000D02*
X29972000Y37465000D01*
X29972000Y33655000D02*
X26289000Y33655000D01*
X26289000Y44323000D02*
X29972000Y44323000D01*
X31115000Y33655000D02*
X29972000Y33655000D01*
X29972000Y44323000D02*
X31115000Y44323000D01*
X31115000Y38989000D02*
X31115000Y44323000D01*
X31115000Y38989000D02*
X31115000Y33655000D01*
X29210000Y27940000D02*
X29210000Y25400000D01*
X29490000Y30760000D02*
X29490000Y29210000D01*
X29210000Y27940000D02*
X26670000Y27940000D01*
X26390000Y29210000D02*
X26390000Y30760000D01*
X26390000Y30760000D02*
X29490000Y30760000D01*
X26670000Y27940000D02*
X26670000Y25400000D01*
X26670000Y25400000D02*
X29210000Y25400000D01*
X25908000Y39878000D02*
X25908000Y34798000D01*
X25908000Y34798000D02*
X23368000Y34798000D01*
X23368000Y34798000D02*
X23368000Y39878000D01*
X23368000Y39878000D02*
X25908000Y39878000D01*
X24638000Y39878000D02*
X24638000Y41148000D01*
X24638000Y34798000D02*
X24638000Y33528000D01*
X10183905Y38536619D02*
X10183905Y39536619D01*
X10564858Y39536619D01*
X10660096Y39489000D01*
X10707715Y39441381D01*
X10755334Y39346143D01*
X10755334Y39203286D01*
X10707715Y39108048D01*
X10660096Y39060429D01*
X10564858Y39012810D01*
X10183905Y39012810D01*
X11660096Y39536619D02*
X11183905Y39536619D01*
X11136286Y39060429D01*
X11183905Y39108048D01*
X11279143Y39155667D01*
X11517239Y39155667D01*
X11612477Y39108048D01*
X11660096Y39060429D01*
X11707715Y38965190D01*
X11707715Y38727095D01*
X11660096Y38631857D01*
X11612477Y38584238D01*
X11517239Y38536619D01*
X11279143Y38536619D01*
X11183905Y38584238D01*
X11136286Y38631857D01*
D14*
X25248810Y7353905D02*
X25421167Y7296452D01*
X25708429Y7296452D01*
X25823333Y7353905D01*
X25880786Y7411357D01*
X25938238Y7526262D01*
X25938238Y7641167D01*
X25880786Y7756071D01*
X25823333Y7813524D01*
X25708429Y7870976D01*
X25478619Y7928429D01*
X25363714Y7985881D01*
X25306262Y8043333D01*
X25248810Y8158238D01*
X25248810Y8273143D01*
X25306262Y8388048D01*
X25363714Y8445500D01*
X25478619Y8502952D01*
X25765881Y8502952D01*
X25938238Y8445500D01*
X26340405Y8502952D02*
X26627667Y7296452D01*
X26857477Y8158238D01*
X27087286Y7296452D01*
X27374548Y8502952D01*
X27776715Y8388048D02*
X27834167Y8445500D01*
X27949072Y8502952D01*
X28236334Y8502952D01*
X28351238Y8445500D01*
X28408691Y8388048D01*
X28466143Y8273143D01*
X28466143Y8158238D01*
X28408691Y7985881D01*
X27719262Y7296452D01*
X28466143Y7296452D01*
X14771310Y7607905D02*
X14943667Y7550452D01*
X15230929Y7550452D01*
X15345833Y7607905D01*
X15403286Y7665357D01*
X15460738Y7780262D01*
X15460738Y7895167D01*
X15403286Y8010071D01*
X15345833Y8067524D01*
X15230929Y8124976D01*
X15001119Y8182429D01*
X14886214Y8239881D01*
X14828762Y8297333D01*
X14771310Y8412238D01*
X14771310Y8527143D01*
X14828762Y8642048D01*
X14886214Y8699500D01*
X15001119Y8756952D01*
X15288381Y8756952D01*
X15460738Y8699500D01*
X15862905Y8756952D02*
X16150167Y7550452D01*
X16379977Y8412238D01*
X16609786Y7550452D01*
X16897048Y8756952D01*
X17988643Y7550452D02*
X17299215Y7550452D01*
X17643929Y7550452D02*
X17643929Y8756952D01*
X17529024Y8584595D01*
X17414119Y8469690D01*
X17299215Y8412238D01*
D13*
X4421143Y32345334D02*
X4468762Y32297715D01*
X4516381Y32154858D01*
X4516381Y32059620D01*
X4468762Y31916762D01*
X4373524Y31821524D01*
X4278286Y31773905D01*
X4087810Y31726286D01*
X3944952Y31726286D01*
X3754476Y31773905D01*
X3659238Y31821524D01*
X3564000Y31916762D01*
X3516381Y32059620D01*
X3516381Y32154858D01*
X3564000Y32297715D01*
X3611619Y32345334D01*
X3849714Y33202477D02*
X4516381Y33202477D01*
X3468762Y32964381D02*
X4183048Y32726286D01*
X4183048Y33345334D01*
X12279334Y26439857D02*
X12231715Y26392238D01*
X12088858Y26344619D01*
X11993620Y26344619D01*
X11850762Y26392238D01*
X11755524Y26487476D01*
X11707905Y26582714D01*
X11660286Y26773190D01*
X11660286Y26916048D01*
X11707905Y27106524D01*
X11755524Y27201762D01*
X11850762Y27297000D01*
X11993620Y27344619D01*
X12088858Y27344619D01*
X12231715Y27297000D01*
X12279334Y27249381D01*
X12612667Y27344619D02*
X13279334Y27344619D01*
X12850762Y26344619D01*
X15390905Y24566619D02*
X15390905Y25566619D01*
X15629000Y25566619D01*
X15771858Y25519000D01*
X15867096Y25423762D01*
X15914715Y25328524D01*
X15962334Y25138048D01*
X15962334Y24995190D01*
X15914715Y24804714D01*
X15867096Y24709476D01*
X15771858Y24614238D01*
X15629000Y24566619D01*
X15390905Y24566619D01*
X16914715Y24566619D02*
X16343286Y24566619D01*
X16629000Y24566619D02*
X16629000Y25566619D01*
X16533762Y25423762D01*
X16438524Y25328524D01*
X16343286Y25280905D01*
X18878095Y23360219D02*
X18878095Y24360219D01*
X19449524Y23360219D02*
X19020952Y23931648D01*
X19449524Y24360219D02*
X18878095Y23788790D01*
X1444667Y30900619D02*
X1444667Y30186333D01*
X1397047Y30043476D01*
X1301809Y29948238D01*
X1158952Y29900619D01*
X1063714Y29900619D01*
X2444667Y29900619D02*
X1873238Y29900619D01*
X2158952Y29900619D02*
X2158952Y30900619D01*
X2063714Y30757762D01*
X1968476Y30662524D01*
X1873238Y30614905D01*
X722405Y6215119D02*
X722405Y7215119D01*
X1103358Y7215119D01*
X1198596Y7167500D01*
X1246215Y7119881D01*
X1293834Y7024643D01*
X1293834Y6881786D01*
X1246215Y6786548D01*
X1198596Y6738929D01*
X1103358Y6691310D01*
X722405Y6691310D01*
X2246215Y6215119D02*
X1674786Y6215119D01*
X1960500Y6215119D02*
X1960500Y7215119D01*
X1865262Y7072262D01*
X1770024Y6977024D01*
X1674786Y6929405D01*
X15771905Y38536619D02*
X15771905Y39536619D01*
X16152858Y39536619D01*
X16248096Y39489000D01*
X16295715Y39441381D01*
X16343334Y39346143D01*
X16343334Y39203286D01*
X16295715Y39108048D01*
X16248096Y39060429D01*
X16152858Y39012810D01*
X15771905Y39012810D01*
X16724286Y39441381D02*
X16771905Y39489000D01*
X16867143Y39536619D01*
X17105239Y39536619D01*
X17200477Y39489000D01*
X17248096Y39441381D01*
X17295715Y39346143D01*
X17295715Y39250905D01*
X17248096Y39108048D01*
X16676667Y38536619D01*
X17295715Y38536619D01*
X20851905Y38536619D02*
X20851905Y39536619D01*
X21232858Y39536619D01*
X21328096Y39489000D01*
X21375715Y39441381D01*
X21423334Y39346143D01*
X21423334Y39203286D01*
X21375715Y39108048D01*
X21328096Y39060429D01*
X21232858Y39012810D01*
X20851905Y39012810D01*
X21756667Y39536619D02*
X22375715Y39536619D01*
X22042381Y39155667D01*
X22185239Y39155667D01*
X22280477Y39108048D01*
X22328096Y39060429D01*
X22375715Y38965190D01*
X22375715Y38727095D01*
X22328096Y38631857D01*
X22280477Y38584238D01*
X22185239Y38536619D01*
X21899524Y38536619D01*
X21804286Y38584238D01*
X21756667Y38631857D01*
X6500905Y38409619D02*
X6500905Y39409619D01*
X6881858Y39409619D01*
X6977096Y39362000D01*
X7024715Y39314381D01*
X7072334Y39219143D01*
X7072334Y39076286D01*
X7024715Y38981048D01*
X6977096Y38933429D01*
X6881858Y38885810D01*
X6500905Y38885810D01*
X7929477Y39076286D02*
X7929477Y38409619D01*
X7691381Y39457238D02*
X7453286Y38742952D01*
X8072334Y38742952D01*
D14*
X6933595Y4451048D02*
X6818690Y4508500D01*
X6703786Y4623405D01*
X6531429Y4795762D01*
X6416524Y4853214D01*
X6301619Y4853214D01*
X6359071Y4565952D02*
X6244167Y4623405D01*
X6129262Y4738310D01*
X6071810Y4968119D01*
X6071810Y5370286D01*
X6129262Y5600095D01*
X6244167Y5715000D01*
X6359071Y5772452D01*
X6588881Y5772452D01*
X6703786Y5715000D01*
X6818690Y5600095D01*
X6876143Y5370286D01*
X6876143Y4968119D01*
X6818690Y4738310D01*
X6703786Y4623405D01*
X6588881Y4565952D01*
X6359071Y4565952D01*
X8025190Y4565952D02*
X7335762Y4565952D01*
X7680476Y4565952D02*
X7680476Y5772452D01*
X7565571Y5600095D01*
X7450666Y5485190D01*
X7335762Y5427738D01*
D13*
X1468381Y37457143D02*
X992190Y37123809D01*
X1468381Y36885714D02*
X468381Y36885714D01*
X468381Y37266667D01*
X516000Y37361905D01*
X563619Y37409524D01*
X658857Y37457143D01*
X801714Y37457143D01*
X896952Y37409524D01*
X944571Y37361905D01*
X992190Y37266667D01*
X992190Y36885714D01*
X1468381Y38409524D02*
X1468381Y37838095D01*
X1468381Y38123809D02*
X468381Y38123809D01*
X611238Y38028571D01*
X706476Y37933333D01*
X754095Y37838095D01*
X563619Y38790476D02*
X516000Y38838095D01*
X468381Y38933333D01*
X468381Y39171429D01*
X516000Y39266667D01*
X563619Y39314286D01*
X658857Y39361905D01*
X754095Y39361905D01*
X896952Y39314286D01*
X1468381Y38742857D01*
X1468381Y39361905D01*
X29424381Y14970286D02*
X29424381Y15541715D01*
X30424381Y15256000D02*
X29424381Y15256000D01*
X30424381Y15875048D02*
X29424381Y15875048D01*
X29900571Y15875048D02*
X29900571Y16446477D01*
X30424381Y16446477D02*
X29424381Y16446477D01*
X30424381Y17446477D02*
X30424381Y16875048D01*
X30424381Y17160762D02*
X29424381Y17160762D01*
X29567238Y17065524D01*
X29662476Y16970286D01*
X29710095Y16875048D01*
X6667595Y18137119D02*
X6667595Y17327595D01*
X6715214Y17232357D01*
X6762833Y17184738D01*
X6858071Y17137119D01*
X7048548Y17137119D01*
X7143786Y17184738D01*
X7191405Y17232357D01*
X7239024Y17327595D01*
X7239024Y18137119D01*
X8239024Y17137119D02*
X7667595Y17137119D01*
X7953309Y17137119D02*
X7953309Y18137119D01*
X7858071Y17994262D01*
X7762833Y17899024D01*
X7667595Y17851405D01*
X7556595Y7786619D02*
X7556595Y6977095D01*
X7604214Y6881857D01*
X7651833Y6834238D01*
X7747071Y6786619D01*
X7937548Y6786619D01*
X8032786Y6834238D01*
X8080405Y6881857D01*
X8128024Y6977095D01*
X8128024Y7786619D01*
X8556595Y7691381D02*
X8604214Y7739000D01*
X8699452Y7786619D01*
X8937548Y7786619D01*
X9032786Y7739000D01*
X9080405Y7691381D01*
X9128024Y7596143D01*
X9128024Y7500905D01*
X9080405Y7358048D01*
X8508976Y6786619D01*
X9128024Y6786619D01*
X27686095Y43981619D02*
X27686095Y43172095D01*
X27733714Y43076857D01*
X27781333Y43029238D01*
X27876571Y42981619D01*
X28067048Y42981619D01*
X28162286Y43029238D01*
X28209905Y43076857D01*
X28257524Y43172095D01*
X28257524Y43981619D01*
X28638476Y43981619D02*
X29257524Y43981619D01*
X28924190Y43600667D01*
X29067048Y43600667D01*
X29162286Y43553048D01*
X29209905Y43505429D01*
X29257524Y43410190D01*
X29257524Y43172095D01*
X29209905Y43076857D01*
X29162286Y43029238D01*
X29067048Y42981619D01*
X28781333Y42981619D01*
X28686095Y43029238D01*
X28638476Y43076857D01*
X27201905Y31170619D02*
X27201905Y32170619D01*
X27582858Y32170619D01*
X27678096Y32123000D01*
X27725715Y32075381D01*
X27773334Y31980143D01*
X27773334Y31837286D01*
X27725715Y31742048D01*
X27678096Y31694429D01*
X27582858Y31646810D01*
X27201905Y31646810D01*
X28630477Y32170619D02*
X28440000Y32170619D01*
X28344762Y32123000D01*
X28297143Y32075381D01*
X28201905Y31932524D01*
X28154286Y31742048D01*
X28154286Y31361095D01*
X28201905Y31265857D01*
X28249524Y31218238D01*
X28344762Y31170619D01*
X28535239Y31170619D01*
X28630477Y31218238D01*
X28678096Y31265857D01*
X28725715Y31361095D01*
X28725715Y31599190D01*
X28678096Y31694429D01*
X28630477Y31742048D01*
X28535239Y31789667D01*
X28344762Y31789667D01*
X28249524Y31742048D01*
X28201905Y31694429D01*
X28154286Y31599190D01*
X24709381Y28884643D02*
X24233190Y28551309D01*
X24709381Y28313214D02*
X23709381Y28313214D01*
X23709381Y28694167D01*
X23757000Y28789405D01*
X23804619Y28837024D01*
X23899857Y28884643D01*
X24042714Y28884643D01*
X24137952Y28837024D01*
X24185571Y28789405D01*
X24233190Y28694167D01*
X24233190Y28313214D01*
X24709381Y29837024D02*
X24709381Y29265595D01*
X24709381Y29551309D02*
X23709381Y29551309D01*
X23852238Y29456071D01*
X23947476Y29360833D01*
X23995095Y29265595D01*
X23709381Y30741786D02*
X23709381Y30265595D01*
X24185571Y30217976D01*
X24137952Y30265595D01*
X24090333Y30360833D01*
X24090333Y30598929D01*
X24137952Y30694167D01*
X24185571Y30741786D01*
X24280810Y30789405D01*
X24518905Y30789405D01*
X24614143Y30741786D01*
X24661762Y30694167D01*
X24709381Y30598929D01*
X24709381Y30360833D01*
X24661762Y30265595D01*
X24614143Y30217976D01*
M02*
