M48
;DRILL file {KiCad 4.0.2+e4-6225~38~ubuntu16.04.1-stable} date Tue 21 Jun 2016 12:08:36 PM HKT
;FORMAT={-:-/ absolute / inch / decimal}
FMAT,2
INCH,TZ
T1C0.025
T2C0.031
T3C0.039
T4C0.040
T5C0.043
T6C0.051
T7C0.067
%
G90
G05
M72
T1
X0.2067Y0.2042
X0.2773Y0.6529
X0.3668Y0.469
X0.4099Y0.4399
X0.4419Y0.496
X0.4613Y0.6945
X0.5701Y0.5424
X0.7761Y0.6739
X0.7843Y0.5639
X0.7843Y0.2058
T2
X0.256Y0.935
X0.3938Y0.935
T3
X0.116Y1.6464
X0.116Y1.4495
X0.587Y0.869
X0.687Y0.869
X0.97Y1.67
X0.97Y1.27
X1.105Y1.635
X1.105Y1.535
X1.105Y1.435
T4
X0.0725Y0.645
X0.0725Y0.545
X0.0725Y0.445
X0.0725Y0.345
X0.073Y1.096
X0.073Y0.996
X0.073Y0.896
X0.073Y0.796
X0.075Y0.11
X0.175Y0.11
X0.275Y0.11
X0.442Y0.244
X0.442Y0.066
X0.698Y0.244
X0.698Y0.066
X0.922Y0.2415
X0.922Y0.0635
X1.1Y1.15
X1.1Y1.05
X1.178Y0.2415
X1.178Y0.0635
T5
X0.2515Y1.348
X0.842Y1.348
T6
X1.048Y0.8437
X1.048Y0.6469
X1.048Y0.45
T7
X0.29Y1.65
X0.43Y1.65
X0.65Y1.65
X0.85Y1.65
T0
M30
